<svg xmlns="http://www.w3.org/2000/svg" viewBox="0 0 400 400" style="background:re">
<style>
@keyframes a0_s { 0% { stroke: #eda2a2; } 50% { stroke: #f24e4e; } 100% { stroke: #eda2a2; } }
    </style>
<rect rx="20" width="400" height="400" stroke="none" fill="#a6a6a6"/>
<rect rx="20" x="25" y="30" width="350" height="250" stroke="none" fill="#808080"/>
<path d="M0,0L0,-160C0.449129,-165.989,3.31457,-169.753,10,-170L20,-170C25.7222,-169.703,29.7517,-167.254,30,-160L31,-10C31.4355,-4.23303,34.3936,-0.584561,41,0L51,0C57.1944,-0.728011,60.3356,-4.23626,61,-10L61,-160C61.0009,-166.106,63.9341,-169.501,70,-170L80,-170C86.3506,-169.684,89.9343,-166.601,90,-160L90,-10C90.2574,-4.51645,93.2201,-0.869355,100,0L110,0C115.407,-0.570225,119.056,-3.48384,120,-10L120,-160C119.729,-166.467,122.694,-170.121,130,-170L140,-170C146.525,-170.303,150.573,-167.784,150,-160L150,-10C150.241,-3.30537,154.075,-0.515941,160,0L170,0C176.56,-0.107145,179.457,-3.87589,180,-10L180,-160C179.887,-166.051,183.102,-169.478,190,-170L200,-170C205.875,-169.871,209.811,-167.298,210,-160L210,-10C210.317,-4.13676,212.678,0.0128656,220,0L230,0C235.895,-0.249916,239.517,-3.08418,240,-10L240,-170" fill="none" stroke-linecap="round" stroke="#eda2a2" stroke-width="10" filter="blur(2px)" transform="translate(80,240)" style="animation: 1s linear infinite both a0_s;"/>
<rect x="165" y="135" width="70" height="80" fill="#eeeeee" rx="10" stroke="#eeeeee" stroke-width="10"/>
<path d="M0,0C-2.82702,-0.30483,-4.92438,-1.46602,-5,-5L-5,-32C15.118,-44.7788,35.1208,-45.0817,55,-32L55,-5C55.0139,-1.88549,53.4341,-0.143964,50,0Z" transform="translate(175,210)"/>
<ellipse rx="33" cx="60" cy="345" stroke="#8b0000" stroke-width="7px" fill="#808080"/>
<rect rx="10" x="100" y="325" width="90" height="40" stroke="none" fill="#d3d3d3"/>
<text x="120" y="355" font-size="22" font-family="impact" fill="#8b0000">1550 °C</text>
<ellipse rx="33" cx="250" cy="345" stroke="#8b0000" stroke-width="7px" fill="#808080"/>
<rect rx="10" x="290" y="325" width="80" height="40" stroke="none" fill="#d3d3d3"/>
<text x="305" y="355" font-size="22" font-family="impact" fill="#000000">2 Hrs</text>
<rect rx="10" x="150" y="130" width="100" height="20" stroke="none" fill="#d1cfd1"/>
</svg>
