<?xml version="1.0" encoding="UTF-8" standalone="no"?>
<!-- Created with Keyshape -->
<svg xmlns="http://www.w3.org/2000/svg" viewBox="0 0 200 250" text-rendering="geometricPrecision" shape-rendering="geometricPrecision" style="white-space: pre;">
    <defs>
        <mask id="Mask-1" style="mask-type: alpha;">
            <path id="path7558" d="M780.592,965.729M863.176,973.24C836.852,969.485,810.527,965.729,780.516,965.729M863.17,973.239C889.495,976.994,915.819,980.75,945.829,980.75M1028.41,973.239C1002.09,976.994,975.763,980.75,945.753,980.75M1028.4,973.241C1054.73,969.486,1081.05,965.73,1111.06,965.73M1193.64,973.241C1167.32,969.486,1140.99,965.73,1110.98,965.73M1193.63,973.24C1219.95,976.996,1246.28,980.751,1276.29,980.751M1358.88,973.24C1332.56,976.995,1306.23,980.751,1276.22,980.751M1358.87,973.241C1385.19,969.485,1411.52,965.73,1441.53,965.73M1524.12,973.241C1497.79,969.486,1471.47,965.73,1441.46,965.73M1524.11,973.24C1550.44,976.995,1576.76,980.751,1606.77,980.751M1689.35,973.24C1663.02,976.995,1636.71,980.751,1606.7,980.751M1689.34,973.241C1715.67,969.486,1742,965.731,1772,965.731M1771.92,965.731" fill="none" fill-opacity="0.75" fill-rule="evenodd" stroke="#dd00da" stroke-dasharray="none" stroke-linecap="butt" stroke-linejoin="miter" stroke-miterlimit="4" stroke-opacity="1" stroke-width="250" transform="translate(-256.813,-477.24) scale(0.329029,0.581102)" style="animation: 1s linear infinite both path7558_t;"/>
        </mask>
    </defs>
    <style>
@keyframes path7558-3_t { 0% { transform: translate(-78.8988px,-309.378px) scale(0.312578,0.552047); } 100% { transform: translate(71.1012px,-309.378px) scale(0.312578,0.552047); } }
@keyframes path7558_t { 0% { transform: translate(-256.813px,-477.24px) scale(0.329029,0.581102); } 100% { transform: translate(-365.234px,-477.24px) scale(0.329029,0.581102); } }
    </style>
    <path id="path7558-3" d="M-349.373,965.729M-229.14,947.719C-267.466,956.724,-305.792,965.729,-349.484,965.729M-229.148,947.721C-190.822,938.716,-152.496,929.711,-108.804,929.711M11.4297,947.721C-26.8965,938.717,-65.2225,929.712,-108.914,929.712M11.4071,947.717C49.7332,956.721,88.0593,965.726,131.751,965.726M251.985,947.717C213.658,956.721,175.332,965.726,131.641,965.726M251.977,947.718C290.303,938.713,328.629,929.708,372.321,929.708M492.554,947.718C454.228,938.714,415.902,929.709,372.21,929.709M492.549,947.717C530.875,956.722,569.202,965.727,612.893,965.727M733.127,947.717C694.801,956.721,656.475,965.726,612.783,965.726M733.119,947.718C771.445,938.714,809.771,929.709,853.463,929.709M853.353,929.709" fill="none" fill-opacity="0.75" fill-rule="evenodd" stroke="#000000" stroke-dasharray="none" stroke-linecap="butt" stroke-linejoin="miter" stroke-miterlimit="4" stroke-opacity="1" stroke-width="200" opacity="0.07" transform="translate(-78.8988,-309.378) scale(0.312578,0.552047)" style="animation: 1s linear infinite both path7558-3_t;"/>
    <path fill="none" fill-opacity="1" stroke="#ffffff" stroke-width="17" d="M29.5,258.5C19.0006,261.515,0.695204,244.806,0,229.829L0,20.1715C-0.425187,7.77182,8.48817,-1.38069,20,0L180,0C194.406,-2.61101,203.216,6.53247,200,20.1715L200,229.829C200,240.969,182.546,258.5,171.5,258.5" stroke-linejoin="bevel" stroke-linecap="butt" transform="translate(101.312,122.875) translate(-101.312,-122.875)"/>
    <rect width="180.375" height="243.75" stroke="#eeeeee" fill="none" fill-opacity="1" stroke-width="5" rx="20" transform="translate(101.312,122.875) translate(-91.5,-118.75)"/>
    <rect width="185" height="250" fill="#f8aaba" rx="20" stroke="none" stroke-width="0" transform="translate(-488,-242) scale(0.95,0.95) translate(-92.5,-125)"/>
    <rect width="185" height="250" fill="#eeeeee" rx="20" stroke="none" stroke-width="0" mask="url(#Mask-1)" transform="translate(100,109) scale(0.95,0.95) translate(-92.5,-125)"/>
    <rect width="200" height="40" fill="#d1cfd1" fill-opacity="1" rx="8" stroke="none" stroke-width="0" transform="translate(100,11) translate(-100,-11)"/>
    <path d="M0.1324,-10C-0.383466,40,-6.3676,96,30.1324,96" stroke="#a8d3e2" fill="none" stroke-linecap="square" stroke-width="18" transform="translate(-0.1324,160)"/>
    <path d="M0,0C0,50,10,103.144,-20,106" stroke="#a8d3e2" fill="none" stroke-linecap="square" stroke-width="18" transform="translate(200,150)"/>
</svg>
