<?xml version="1.0" encoding="UTF-8" standalone="no"?>
<!-- Created with Keyshape -->
<svg xmlns="http://www.w3.org/2000/svg" viewBox="0 0 200 250" text-rendering="geometricPrecision" shape-rendering="geometricPrecision" style="white-space: pre;">
    <defs>
        <mask id="Mask-1" style="mask-type: alpha;">
            <path id="path7558" d="M780.592,965.729M863.176,972.24C836.852,968.985,810.527,965.729,780.516,965.729M863.17,972.239C889.495,975.494,915.819,978.75,945.829,978.75M1028.41,972.239C1002.09,975.494,975.763,978.75,945.753,978.75M1028.4,972.241C1054.73,968.986,1081.05,965.73,1111.06,965.73M1193.64,972.241C1167.32,968.986,1140.99,965.73,1110.98,965.73M1193.63,972.24C1219.95,975.496,1246.28,978.751,1276.29,978.751M1358.88,972.24C1332.56,975.495,1306.23,978.751,1276.22,978.751M1358.87,972.241C1385.19,968.985,1411.52,965.73,1441.53,965.73M1524.12,972.241C1497.79,968.986,1471.47,965.73,1441.46,965.73M1524.11,972.24C1550.44,975.495,1576.76,978.751,1606.77,978.751M1689.35,972.24C1663.02,975.495,1636.71,978.751,1606.7,978.751M1689.34,972.241C1715.67,968.986,1742,965.731,1772,965.731M1771.92,965.731" fill="none" fill-opacity="0.75" fill-rule="evenodd" stroke="#dd00da" stroke-dasharray="none" stroke-linecap="butt" stroke-linejoin="miter" stroke-miterlimit="4" stroke-opacity="1" stroke-width="250" transform="translate(-256.813,-477.24) scale(0.329029,0.581102)" style="animation: 1s linear infinite both path7558_t;"/>
        </mask>
    </defs>
    <style>
@keyframes path7558-3_t { 0% { transform: translate(-78.898758px,-305.377797px) scale(0.312578,0.552047); } 100% { transform: translate(71.101242px,-305.377787px) scale(0.312578,0.552047); } }
@keyframes path7558_t { 0% { transform: translate(-256.812769px,-477.239787px) scale(0.329029,0.581102); } 100% { transform: translate(-365.233821px,-477.239797px) scale(0.329029,0.581102); } }
    </style>
    <path id="path7558-3" d="M-349.373,944.729M-229.14,937.219C-267.466,940.974,-305.792,944.729,-349.484,944.729M-229.148,937.22C-190.822,933.464,-152.496,929.709,-108.804,929.709M11.4297,937.22C-26.8965,933.465,-65.2225,929.71,-108.914,929.71M11.4071,937.218C49.7332,940.973,88.0593,944.728,131.751,944.728M251.985,937.218C213.658,940.973,175.332,944.728,131.641,944.728M251.977,937.218C290.303,933.463,328.629,929.708,372.321,929.708M492.554,937.218C454.228,933.464,415.902,929.708,372.21,929.708M492.549,937.218C530.875,940.973,569.202,944.728,612.893,944.728M733.127,937.218C694.801,940.973,656.475,944.728,612.783,944.728M733.119,937.218C771.445,933.464,809.771,929.708,853.463,929.708M853.353,929.708" fill="none" fill-opacity="0.75" fill-rule="evenodd" stroke="#000000" stroke-dasharray="none" stroke-linecap="butt" stroke-linejoin="miter" stroke-miterlimit="4" stroke-opacity="1" stroke-width="200" opacity="0.05" transform="translate(-78.8988,-305.378) scale(0.312578,0.552047)" style="animation: 1s linear infinite both path7558-3_t;"/>
    <path fill="none" fill-opacity="1" stroke="#ffffff" stroke-width="17" d="M29.5,258.5C19.0006,261.515,0.695204,244.806,0,229.829L0,20.1715C-0.425187,7.77182,8.48817,-1.38069,20,0L180,0C194.406,-2.61101,203.216,6.53247,200,20.1715L200,229.829C200,240.969,182.546,258.5,171.5,258.5" stroke-linejoin="bevel" stroke-linecap="butt" transform="translate(101.312,122.875) translate(-101.312,-122.875)"/>
    <rect width="180.375" height="243.75" stroke="#eeeeee" fill="none" fill-opacity="1" stroke-width="5" rx="20" transform="translate(101.312,122.875) translate(-91.5,-118.75)"/>
    <rect width="185" height="250" fill="#f8aaba" rx="20" stroke="none" stroke-width="0" transform="translate(-488,-242) scale(0.95,0.95) translate(-92.5,-125)"/>
    <rect width="185" height="250" fill="#eeeeee" rx="20" stroke="none" stroke-width="0" mask="url(#Mask-1)" transform="translate(100,109) scale(0.95,0.95) translate(-92.5,-125)"/>
    <rect width="200" height="34" fill="#d1cfd1" fill-opacity="1" rx="8" stroke="none" stroke-width="0" transform="translate(100,11) translate(-100,-11)"/>
</svg>
