<?xml version="1.0" encoding="UTF-8" standalone="no"?>
<!-- Created with Keyshape -->
<svg xmlns="http://www.w3.org/2000/svg" viewBox="0 0 200 250" text-rendering="geometricPrecision" shape-rendering="geometricPrecision" style="white-space: pre;">
    <defs>
        <mask id="Mask-1" style="mask-type: alpha;">
            <path id="path7558" d="M780.592,965.729M863.176,977.24C836.852,971.485,810.527,965.729,780.516,965.729M863.17,977.239C889.495,982.993,915.819,988.748,945.829,988.748M1028.41,977.239C1002.09,982.993,975.763,988.748,945.753,988.748M1028.4,977.241C1054.73,971.486,1081.05,965.73,1111.06,965.73M1193.64,977.241C1167.32,971.486,1140.99,965.73,1110.98,965.73M1193.63,977.24C1219.95,982.996,1246.28,988.751,1276.29,988.751M1358.88,977.24C1332.56,982.995,1306.23,988.751,1276.22,988.751M1358.87,977.241C1385.19,971.485,1411.52,965.73,1441.53,965.73M1524.12,977.241C1497.79,971.486,1471.47,965.73,1441.46,965.73M1524.11,977.24C1550.44,982.995,1576.76,988.751,1606.77,988.751M1689.35,977.24C1663.02,982.995,1636.71,988.751,1606.7,988.751M1689.34,977.242C1715.67,971.488,1742,965.733,1772,965.733M1771.92,965.733" fill="none" fill-opacity="0.75" fill-rule="evenodd" stroke="#dd00da" stroke-dasharray="none" stroke-linecap="butt" stroke-linejoin="miter" stroke-miterlimit="4" stroke-opacity="1" stroke-width="250" transform="translate(-256.813,-477.24) scale(0.329029,0.581102)" style="animation: 1s linear infinite both path7558_t;"/>
        </mask>
    </defs>
    <style>
@keyframes path7558-3_t { 0% { transform: translate(-78.898758px,-305.377797px) scale(0.312578,0.552047); } 100% { transform: translate(71.101242px,-305.377787px) scale(0.312578,0.552047); } }
@keyframes path7558_t { 0% { transform: translate(-256.812769px,-477.239787px) scale(0.329029,0.581102); } 100% { transform: translate(-365.233821px,-477.239797px) scale(0.329029,0.581102); } }
    </style>
    <path id="path7558-3" d="M-349.373,965.729M-229.14,947.719C-267.466,956.724,-305.792,965.729,-349.484,965.729M-229.148,947.721C-190.822,938.716,-152.496,929.711,-108.804,929.711M11.4297,947.721C-26.8965,938.717,-65.2225,929.712,-108.914,929.712M11.4071,947.717C49.7332,956.721,88.0593,965.726,131.751,965.726M251.985,947.717C213.658,956.721,175.332,965.726,131.641,965.726M251.977,947.718C290.303,938.713,328.629,929.708,372.321,929.708M492.554,947.718C454.228,938.714,415.902,929.709,372.21,929.709M492.549,947.717C530.875,956.722,569.202,965.727,612.893,965.727M733.127,947.717C694.801,956.721,656.475,965.726,612.783,965.726M733.119,947.718C771.445,938.714,809.771,929.709,853.463,929.709M853.353,929.709" fill="none" fill-opacity="0.75" fill-rule="evenodd" stroke="#000000" stroke-dasharray="none" stroke-linecap="butt" stroke-linejoin="miter" stroke-miterlimit="4" stroke-opacity="1" stroke-width="200" opacity="0.05" transform="translate(-78.8988,-305.378) scale(0.312578,0.552047)" style="animation: 1s linear infinite both path7558-3_t;"/>
    <path fill="none" fill-opacity="1" stroke="#ffffff" stroke-width="17" d="M29.5,258.5C19.0006,261.515,0.695204,244.806,0,229.829L0,20.1715C-0.425187,7.77182,8.48817,-1.38069,20,0L180,0C194.406,-2.61101,203.216,6.53247,200,20.1715L200,229.829C200,240.969,182.546,258.5,171.5,258.5" stroke-linejoin="bevel" stroke-linecap="butt" transform="translate(101.312,122.875) translate(-101.312,-122.875)"/>
    <rect width="180.375" height="243.75" stroke="#eeeeee" fill="none" fill-opacity="1" stroke-width="5" rx="20" transform="translate(101.312,122.875) translate(-91.5,-118.75)"/>
    <rect width="185" height="250" fill="#f8aaba" rx="20" stroke="none" stroke-width="0" transform="translate(-488,-242) scale(0.95,0.95) translate(-92.5,-125)"/>
    <rect width="185" height="250" fill="#eeeeee" rx="20" stroke="none" stroke-width="0" mask="url(#Mask-1)" transform="translate(100,109) scale(0.95,0.95) translate(-92.5,-125)"/>
    <rect width="200" height="34" fill="#d1cfd1" fill-opacity="1" rx="8" stroke="none" stroke-width="0" transform="translate(100,11) translate(-100,-11)"/>
</svg>
