<?xml version="1.0" encoding="UTF-8" standalone="no"?>
<!-- Created with Keyshape -->
<svg xmlns="http://www.w3.org/2000/svg" viewBox="0 0 52 200" text-rendering="geometricPrecision" shape-rendering="geometricPrecision" style="white-space: pre;">
    <path fill="#ffffff" stroke="none" d="M70,0L0,0L0,220L70,220ZM42,60L27,60L27,190L34,210L42,190Z" fill-rule="evenodd" transform="translate(25,100) translate(-35,-110)"/>
    <path fill="#d3d3d3" stroke="none" stroke-width="1px" d="M25,0L0,0L0,180L12,200L25,180ZM12,200L5,180L5,50L20,50L20,180Z" fill-rule="evenodd" transform="translate(-168,0) translate(180,0)"/>
    <rect rx="0" ry="0" width="50" height="10" fill="#808080" stroke="none" stroke-width="1px" transform="translate(-168,0) translate(170,160)"/>
    <rect rx="20" ry="10" width="10" height="25" fill="#d3d3d3" stroke="none" stroke-width="1px" transform="translate(-168,0) translate(168,152)"/>
    <rect rx="20" ry="10" width="10" height="30" fill="#d3d3d3" stroke="none" stroke-width="1px" transform="translate(-168,0) translate(210,150)"/>
</svg>
