<svg xmlns="http://www.w3.org/2000/svg" viewBox="0 0 400 500">
<style>@keyframes a0_t { 0% { transform: translate(200px,200px) rotate(0deg) translate(-145px,-145px); } 100% { transform: translate(200px,200px) rotate(360deg) translate(-145px,-145px); } }</style>
<rect rx="20" ry="20" width="400" height="500" fill="#a6a6a6"/>
<rect x="25" y="25" rx="20" ry="20" width="350" height="350" fill="#808080"/>
<ellipse cx="60" cy="445" stroke="#8b0000" stroke-width="7px" fill="#808080" rx="33" ry="33"/>
<rect x="100" y="425" rx="10" ry="10" width="90" height="40" stroke="none" fill="#d3d3d3"/>
<text x="110" y="452" font-size="18" font-family="impact" fill="#8b0000">5000 rpm</text>
<ellipse cx="250" cy="445" stroke="#8b0000" stroke-width="7px" fill="#808080" rx="33" ry="33"/>
<rect x="290" y="425" rx="10" ry="10" width="80" height="40" stroke="none" fill="#d3d3d3"/>
<text x="300" y="452"  font-size="20" font-family="impact">30 min</text>
<rect rx="20" ry="20" width="400" height="400" stroke="none" fill="#add8e6" stroke-width="1px" opacity="0.3"/>
<g style="animation: 2s linear infinite both a0_t;">
<ellipse cx="25" cy="145" stroke="#a9a9a9" stroke-width="3px" fill="#3c3837" rx="25" ry="25"/>
<ellipse cx="265" cy="145" stroke="#a9a9a9" stroke-width="3px" fill="#3c3837" rx="25" ry="25"/>
<ellipse cx="145" cy="25" stroke="#a9a9a9" stroke-width="3px" fill="#3c3837" rx="25" ry="25"/>
<ellipse cx="145" cy="265" stroke="#a9a9a9" stroke-width="3px" fill="#3c3837" rx="25" ry="25"/>
<ellipse cx="60" cy="230" stroke="#a9a9a9" stroke-width="3px" fill="#3c3837" rx="25" ry="25"/>
<ellipse cx="60" cy="60" stroke="#a9a9a9" stroke-width="3px" fill="#3c3837" rx="25" ry="25"/>
<ellipse cx="230" cy="60" stroke="#a9a9a9" stroke-width="3px" fill="#3c3837" rx="25" ry="25"/>
<ellipse cx="230" cy="230" stroke="#a9a9a9" stroke-width="3px" fill="#3c3837" rx="25" ry="25"/>
</g></svg>
