<?xml version="1.0" encoding="UTF-8" standalone="no"?>
<!-- Created with Keyshape -->
<svg xmlns="http://www.w3.org/2000/svg" viewBox="0 0 400 500" text-rendering="geometricPrecision" shape-rendering="geometricPrecision" style="white-space: pre;">
    <style>
@keyframes a0_t { 0% { transform: translate(200px,200px) rotate(0deg) translate(-145px,-145px); } 100% { transform: translate(200px,200px) rotate(360deg) translate(-145px,-145px); } }
    </style>
    <rect rx="20" ry="20" width="400" height="500" fill="#a6a6a6" stroke="none" stroke-width="1px" transform="translate(0,50) translate(0,-50)"/>
    <rect rx="20" ry="20" width="350" height="350" fill="#808080" stroke="none" stroke-width="1px" transform="translate(0,50) translate(25,-25)"/>
    <ellipse stroke="#8b0000" stroke-width="7px" fill="#808080" rx="33" ry="33" transform="translate(0,50) translate(60,395)"/>
    <rect rx="10" ry="10" width="90" height="40" stroke="none" fill="#d3d3d3" stroke-width="1px" transform="translate(0,50) translate(100,375)"/>
    <text font-size="18" font-family="impact" fill="#8b0000" stroke="none" stroke-width="1px" transform="translate(0,50) translate(110,405)">5000 rpm</text>
    <ellipse stroke="#8b0000" stroke-width="7px" fill="#808080" rx="33" ry="33" transform="translate(0,50) translate(250,395)"/>
    <rect rx="10" ry="10" width="80" height="40" stroke="none" fill="#d3d3d3" stroke-width="1px" transform="translate(0,50) translate(290,375)"/>
    <text font-size="20" font-family="impact" stroke="none" fill="#000000" stroke-width="1px" transform="translate(0,50) translate(300,405)">30 min</text>
    <rect rx="20" ry="20" width="400" height="400" stroke="none" fill="#add8e6" stroke-width="1px" opacity="0.3"/>
    <g transform="translate(200,200) translate(-145,-145)" style="animation: 2s linear infinite both a0_t;">
        <ellipse stroke="#a9a9a9" stroke-width="3px" fill="#3c3837" rx="25" ry="25" transform="translate(-55,-25) translate(80,170)"/>
        <ellipse stroke="#a9a9a9" stroke-width="3px" fill="#3c3837" rx="25" ry="25" transform="translate(-55,-25) translate(320,170)"/>
        <ellipse stroke="#a9a9a9" stroke-width="3px" fill="#3c3837" rx="25" ry="25" transform="translate(-55,-45) translate(200,70)"/>
        <ellipse stroke="#a9a9a9" stroke-width="3px" fill="#3c3837" rx="25" ry="25" transform="translate(-55,-15) translate(200,280)"/>
        <ellipse stroke="#a9a9a9" stroke-width="3px" fill="#3c3837" rx="25" ry="25" transform="translate(-50,-25) translate(110,255)"/>
        <ellipse stroke="#a9a9a9" stroke-width="3px" fill="#3c3837" rx="25" ry="25" transform="translate(-50,-35) translate(110,95)"/>
        <ellipse stroke="#a9a9a9" stroke-width="3px" fill="#3c3837" rx="25" ry="25" transform="translate(-60,-35) translate(290,95)"/>
        <ellipse stroke="#a9a9a9" stroke-width="3px" fill="#3c3837" rx="25" ry="25" transform="translate(-60,-25) translate(290,255)"/>
    </g>
</svg>
