<?xml version="1.0" encoding="UTF-8" standalone="no"?>
<!-- Created with Keyshape -->
<svg xmlns="http://www.w3.org/2000/svg" viewBox="0 0 257.23 256.54" text-rendering="geometricPrecision" shape-rendering="geometricPrecision" style="white-space: pre;">
    <path fill="#ffffff" stroke="none" d="M280,0L0,0L0,280L280,280ZM114.2,163.264C106.389,155.453,90.5601,158.619,78.8443,170.335L22.2758,226.904C10.56,238.619,7.39422,254.448,15.2047,262.259C23.0152,270.069,38.8443,266.904,50.5601,255.188L107.129,198.619C118.844,186.904,122.01,171.074,114.2,163.264Z" fill-rule="evenodd" transform="translate(130,130) translate(-140,-140)"/>
    <rect rx="30" ry="100" width="130" height="50" fill="#cd853f" stroke="none" stroke-width="1px" transform="translate(91.7301,101.86) rotate(-45) translate(50,20)"/>
    <path fill="#d3d3d3" stroke="none" stroke-width="1px" d="M210,0L30,0C17.9438,0,7.54868,5.92642,2.78077,14.4741C-0.454322,17.6662,-2.34335,21.5145,-2.34335,25.6569C-2.34335,30.6292,0.378466,35.1777,4.88301,38.6764C10.2406,45.4954,19.489,50,30,50L210,50C226.569,50,240,38.8071,240,25C240,11.1929,226.569,0,210,0ZM4.88302,38.6764C10.385,42.9498,18.5466,45.6569,27.6566,45.6569L107.657,45.6569C124.225,45.6569,137.657,36.7025,137.657,25.6569C137.657,14.6112,124.225,5.65685,107.657,5.65685L27.6566,5.65685C17.3017,5.65685,8.17206,9.15437,2.78077,14.4741C0.996239,17.6733,0,21.2397,0,25C0,30.048,1.79537,34.7465,4.88302,38.6764Z" fill-rule="evenodd" transform="translate(-60.7779,253.673) rotate(-45) translate(50,20)"/>
    <rect rx="50" ry="10" width="30" height="80" fill="#d2691e" stroke="none" stroke-width="1px" transform="translate(79.3871,92.0614) rotate(-45) translate(50,20)"/>
</svg>
