<?xml version="1.0" encoding="UTF-8" standalone="no"?>
<!-- Created with Keyshape -->
<svg xmlns="http://www.w3.org/2000/svg" viewBox="0 0 119 118" text-rendering="geometricPrecision" shape-rendering="geometricPrecision" style="white-space: pre;">
    <path fill="#ffffff" stroke="none" d="M119,0L0,0L0,119L5.70428,119C6.83587,119.224,8.07384,119.22,9.36007,119L119,119ZM9.36007,119C12.4317,118.475,15.7786,116.717,18.6089,113.884L44.9049,87.571C50.3509,82.1214,51.8226,74.7583,48.1918,71.1252C44.5611,67.4921,37.203,68.9647,31.7569,74.4144L5.46097,100.728C0.0149067,106.177,-1.45673,113.54,2.17399,117.173C3.12765,118.128,4.33848,118.73,5.70428,119Z" fill-rule="evenodd" transform="translate(59.5,59.5) translate(-59.5,-59.5)"/>
    <rect rx="30" ry="100" width="130" height="50" fill="#cd853f" stroke="none" stroke-width="1px" transform="translate(42.3549,47.2146) rotate(-45.0189) skewX(-0.0377361) scale(0.465004,0.465004) translate(50,20)"/>
    <path fill="#d3d3d3" stroke="none" stroke-width="1px" d="M210,0L30,0C17.9438,0,7.54868,5.92642,2.78077,14.4741C-0.454279,17.6662,-2.34328,21.5144,-2.34328,25.6568C-2.34328,30.629,0.378407,35.1774,4.88276,38.6761C10.2403,45.4952,19.4889,50,30,50L210,50C226.569,50,240,38.8071,240,25C240,11.1929,226.569,0,210,0ZM4.88277,38.6761C10.3848,42.9496,18.5465,45.6568,27.6567,45.6568L107.657,45.6568C124.225,45.6568,137.657,36.7025,137.657,25.6568C137.657,14.6111,124.225,5.65678,107.657,5.65678L27.6567,5.65678C17.3017,5.65678,8.17206,9.15433,2.78077,14.4741C0.996239,17.6733,0,21.2397,0,25C0,30.0478,1.79527,34.7463,4.88277,38.6761Z" fill-rule="evenodd" transform="translate(-28.5386,117.831) rotate(-45.0189) skewX(-0.0377361) scale(0.465004,0.465004) translate(50,20)"/>
    <rect rx="50" ry="10" width="30" height="80" fill="#d2691e" stroke="none" stroke-width="1px" transform="translate(36.6172,42.6565) rotate(-45.0189) skewX(-0.0377361) scale(0.465004,0.465004) translate(50,20)"/>
</svg>
