<?xml version="1.0" encoding="UTF-8" standalone="no"?>
<!-- Created with Keyshape -->
<svg xmlns="http://www.w3.org/2000/svg" viewBox="0 0 169 303" text-rendering="geometricPrecision" shape-rendering="geometricPrecision" style="white-space: pre;">
    <rect width="184" height="130" fill="#ffffff" stroke="none" transform="translate(84.5,61.5) translate(-91.5,-66.5)"/>
    <g transform="translate(84.5,151.5) translate(-84.5,-151.5)">
        <path fill="#eaeaea" opacity="1" stroke="none" d="M29,-48L0,0L0,183L169,183L169,0L140,-48ZM150,5L19,5L19,163L150,163Z" fill-rule="evenodd" transform="translate(84,210.5) translate(-84,-90.5)"/>
        <rect width="127" height="73" opacity="1" fill="#4a4a4a" stroke="none" transform="translate(84.5,36) translate(-63.5,-36)"/>
        <rect width="93" height="83" opacity="1" fill="#eaeaea" stroke="none" transform="translate(84.5,205.5) translate(-46.5,-41.5)"/>
        <rect width="14" height="73" opacity="1" fill="#333333" stroke="none" transform="translate(43,36) translate(-7,-36)"/>
        <rect width="14" height="73" opacity="1" fill="#333333" stroke="none" transform="translate(70,36) translate(-7,-36)"/>
        <rect width="14" height="73" opacity="1" fill="#333333" stroke="none" transform="translate(98,36) translate(-7,-36)"/>
        <rect width="14" height="73" opacity="1" fill="#333333" stroke="none" transform="translate(126,36) translate(-7,-36)"/>
        <rect width="69" height="8.5" fill="#000000" stroke="none" transform="translate(84.5,188.5) translate(-34.5,-7.5)"/>
        <rect width="69" height="8.5" fill="#000000" stroke="none" transform="translate(84.5,208.5) translate(-34.5,-7.5)"/>
        <rect width="69" height="8.5" fill="#000000" stroke="none" transform="translate(84.5,228.5) translate(-34.5,-7.5)"/>
    </g>
</svg>
