<svg xmlns="http://www.w3.org/2000/svg" viewBox="0 0 143 300">
<defs><radialGradient id="Gradient-0" cx="-0.639698" cy="6.85349" r="71.5" fx="-0.639698" fy="6.85349" gradientUnits="userSpaceOnUse"><stop offset="0" stop-color="#ffffff"/><stop offset="1" stop-color="#d1cfd1"/></radialGradient></defs>
<style>@keyframes f_01{0%{transform:translate(70px,180px)} 100%{transform:translate(70px,358px)}}</style>
<path d="M10.5,0C10.5,5.799,5.799,10.5,0,10.5C-5.799,10.5,-10.5,5.799,-10.5,0C-10.5,-5.799,-5.799,-19.5,0,-19.5C5.799,-19.5,10.5,-5.799,10.5,0Z" style="animation: 0.8s linear infinite both f_01;"/>
<path xmlns="http://www.w3.org/2000/svg" d="M0,0C5.23924,20.0059,33.1512,55.5865,59,78.5L58.5447,156.428L82.5447,144.428L83,78.5C105.47,59.1784,130.938,34.3595,143,0Z" fill="#eeeeee" stroke-width="6" transform="translate(0,13.5)"/>
<path xmlns="http://www.w3.org/2000/svg" opacity="0.5" d="M27,35.5C38,51.5,41.3671,53.0766,64.4017,77.1578L63.7454,153.74L78.3986,146.313L78.6031,77.1578C100.603,54.6578,103.5,56,118,35.5C80.9259,41.8608,60.4721,41.5969,27,35.5Z" stroke-width="6" transform="translate(0,13.5)"/>
<ellipse rx="71.5" ry="13.5" fill="url(#Gradient-0)" transform="translate(71.5,13.5)"/>
</svg>
