<?xml version="1.0" encoding="UTF-8" standalone="no"?>
<!-- Created with Keyshape -->
<svg xmlns="http://www.w3.org/2000/svg" viewBox="0 0 400 400" text-rendering="geometricPrecision" shape-rendering="geometricPrecision" style="white-space: pre;">
    <style>
@keyframes a0_s { 0% { stroke: #eda2a2; } 50% { stroke: #f24e4e; } 100% { stroke: #eda2a2; } }
@keyframes a1_s { 0% { stroke: #eda2a2; } 50% { stroke: #f24e4e; } 100% { stroke: #eda2a2; } }
@keyframes a2_s { 0% { stroke: #eda2a2; } 50% { stroke: #f24e4e; } 100% { stroke: #eda2a2; } }
@keyframes a3_s { 0% { stroke: #eda2a2; } 50% { stroke: #f24e4e; } 100% { stroke: #eda2a2; } }
@keyframes a4_s { 0% { stroke: #eda2a2; } 50% { stroke: #f24e4e; } 100% { stroke: #eda2a2; } }
@keyframes a5_s { 0% { stroke: #eda2a2; } 50% { stroke: #f24e4e; } 100% { stroke: #eda2a2; } }
@keyframes a6_s { 0% { stroke: #eda2a2; } 50% { stroke: #f24e4e; } 100% { stroke: #eda2a2; } }
@keyframes a7_s { 0% { stroke: #eda2a2; } 50% { stroke: #f24e4e; } 100% { stroke: #eda2a2; } }
    </style>
    <rect width="420" height="420" fill="#ffffff" rx="0" ry="20" stroke="none" stroke-width="0" transform="translate(200,200) translate(-210,-210)"/>
    <path fill="#a6a6a6" stroke="none" stroke-width="1px" d="M380,0L20,0C8.9543,0,0,8.9543,0,20L0,380C0,391.046,8.9543,400,20,400L380,400C391.046,400,400,391.046,400,380L400,20C400,8.9543,391.046,0,380,0ZM234,180L164,180L164,215L234,215Z" fill-rule="evenodd" transform="translate(0,-50) translate(0,50)"/>
    <path fill="#808080" stroke="none" stroke-width="1px" d="M330,0L20,0C8.9543,0,0,8.9543,0,20L0,223C0,234.046,8.9543,243,20,243L330,243C341.046,243,350,234.046,350,223L350,20C350,8.9543,341.046,0,330,0ZM209,148L139,148L139,183L209,183Z" fill-rule="evenodd" transform="translate(0,-50) translate(25,82)"/>
    <path fill="none" stroke="#eda2a2" stroke-width="10" d="M0,160L0,10C0,4.47715,4.47715,0,10,0L20,0C25.5228,0,30,4.47715,30,10L30,160" filter="blur(2px)" transform="translate(140,237) translate(-59,-167)" style="animation: 1s linear infinite both a0_s;"/>
    <path fill="none" stroke="#eda2a2" stroke-width="10" d="M30,10L30,160C30,165.523,25.5228,170,20,170L10,170C4.47715,170,0,165.523,0,160L0,10" filter="blur(2px)" transform="translate(205,235) translate(-94,-165)" style="animation: 1s linear infinite both a1_s;"/>
    <path fill="none" stroke="#eda2a2" stroke-width="10" d="M0,160L0,10C0,4.47715,4.47715,0,10,0L20,0C25.5228,0,30,4.47715,30,10L30,91.3255M30,147.813L30,160" filter="blur(2px)" transform="translate(235,235) translate(-94,-165)" style="animation: 1s linear infinite both a2_s;"/>
    <path fill="none" stroke="#eda2a2" stroke-width="10" d="M30,10L30,90.7549M30,150.666L30,160C30,165.523,25.5228,170,20,170L10,170C4.47715,170,0,165.523,0,160L0,148.954M0,91.8961L0,10" filter="blur(2px)" transform="translate(265,235) translate(-94,-165)" style="animation: 1s linear infinite both a3_s;"/>
    <path fill="none" stroke="#eda2a2" stroke-width="10" d="M0,160L0,151.236M0,90.1843L0,10C0,4.47715,4.47715,0,10,0L20,0C25.5228,0,30,4.47715,30,10L30,90.1843M30,147.242L30,160" filter="blur(2px)" transform="translate(295,235) translate(-94,-165)" style="animation: 1s linear infinite both a4_s;"/>
    <path fill="none" stroke="#eda2a2" stroke-width="10" d="M30,10L30,160C30,165.523,25.5228,170,20,170L10,170C4.47715,170,0,165.523,0,160L0,146.672M0,90.1843L0,10" filter="blur(2px)" transform="translate(325,235) translate(-94,-165)" style="animation: 1s linear infinite both a5_s;"/>
    <path fill="none" stroke="#eda2a2" stroke-width="10" d="M0,160L0,10C0,4.47715,4.47715,0,10,0L20,0C25.5228,0,30,4.47715,30,10L30,160" filter="blur(2px)" transform="translate(355,235) translate(-94,-165)" style="animation: 1s linear infinite both a6_s;"/>
    <path fill="none" stroke="#eda2a2" stroke-width="10" d="M30,10L30,160C30,165.523,25.5228,170,20,170L10,170C4.47715,170,0,165.523,0,160L0,10" filter="blur(2px)" transform="translate(385,235) translate(-94,-165)" style="animation: 1s linear infinite both a7_s;"/>
    <ellipse stroke="#8b0000" stroke-width="7px" fill="#808080" rx="33" ry="33" transform="translate(0,-46) translate(60,395)"/>
    <rect rx="10" ry="10" width="90" height="40" stroke="none" fill="#d3d3d3" stroke-width="1px" transform="translate(0,-46) translate(100,375)"/>
    <text font-size="20" font-family="impact" fill="#8b0000" stroke="none" stroke-width="1px" transform="translate(5,-46) translate(110,405)" style="white-space: pre;">100 °C </text>
    <ellipse stroke="#8b0000" stroke-width="7px" fill="#808080" rx="33" ry="33" transform="translate(0,-46) translate(250,395)"/>
    <rect rx="10" ry="10" width="80" height="40" stroke="none" fill="#d3d3d3" stroke-width="1px" transform="translate(0,-46) translate(290,375)"/>
    <text font-size="20" font-family="impact" stroke="none" fill="#000000" stroke-width="1px" transform="translate(0,-46) translate(300,405)" style="white-space: pre;">0.5 Hrs</text>
    <rect width="70" height="78" fill="none" rx="10" stroke="#eeeeee" stroke-width="11" transform="translate(223,256) translate(-59,-115)"/>
    <rect width="70" height="40" fill="#eeeeee" ry="0" stroke="none" transform="translate(199,160) translate(-35,-20)"/>
    <rect rx="10" width="100" height="20" stroke="none" fill="#d1cfd1" stroke-width="1px" transform="translate(108,131) translate(41,0)"/>
</svg>
