<?xml version="1.0" encoding="UTF-8" standalone="no"?>
<!-- Created with Keyshape -->
<svg xmlns="http://www.w3.org/2000/svg" viewBox="0 0 400 500" text-rendering="geometricPrecision" shape-rendering="geometricPrecision" style="white-space: pre;">
    <defs>
        <mask id="Mask-1" style="mask-type: alpha;">
            <path id="path7558" d="M780.592,965.729M863.176,973.24C836.852,969.485,810.527,965.729,780.516,965.729M863.17,973.239C889.495,976.994,915.819,980.75,945.829,980.75M1028.41,973.239C1002.09,976.994,975.763,980.75,945.753,980.75M1028.4,973.241C1054.73,969.486,1081.05,965.73,1111.06,965.73M1193.64,973.241C1167.32,969.486,1140.99,965.73,1110.98,965.73M1193.63,973.24C1219.95,976.996,1246.28,980.751,1276.29,980.751M1358.88,973.24C1332.56,976.995,1306.23,980.751,1276.22,980.751M1358.87,973.241C1385.19,969.485,1411.52,965.73,1441.53,965.73M1524.12,973.241C1497.79,969.486,1471.47,965.73,1441.46,965.73M1524.11,973.24C1550.44,976.995,1576.76,980.751,1606.77,980.751M1689.35,973.24C1663.02,976.995,1636.71,980.751,1606.7,980.751M1689.34,973.241C1715.67,969.486,1742,965.731,1772,965.731M1771.92,965.731" fill="none" fill-opacity="0.75" fill-rule="evenodd" stroke="#dd00da" stroke-dasharray="none" stroke-linecap="butt" stroke-linejoin="miter" stroke-miterlimit="4" stroke-opacity="1" stroke-width="250" transform="translate(-256.813,-477.24) scale(0.329029,0.581102)" style="animation: 1s linear infinite both path7558_t;"/>
        </mask>
    </defs>
    <style>
@keyframes path7558-3_t { 0% { transform: translate(20.241011px,-229.233885px) scale(0.312578,0.552047); } 100% { transform: translate(170.241011px,-229.233885px) scale(0.312578,0.552047); } }
@keyframes path7558_t { 0% { transform: translate(-256.813px,-477.24px) scale(0.329029,0.581102); } 100% { transform: translate(-365.234px,-477.24px) scale(0.329029,0.581102); } }
@keyframes a0_t { 0% { transform: translate(195px,300px); } 50% { transform: translate(180px,300px); } 100% { transform: translate(195px,300px); } }
@keyframes a0_w { 0% { width: 10px; } 50% { width: 40px; } 100% { width: 10px; } }
    </style>
    <path fill="#ffffff" stroke="none" stroke-width="6" d="M420,0L0,0L0,520L420,520ZM302.14,130.144L116.14,130.144L116.14,338.019L302.14,338.019Z" fill-rule="evenodd" transform="translate(200,250) translate(-210,-260)"/>
    <path id="path7558-3" d="M-349.373,965.729M-229.14,947.719C-267.466,956.724,-305.792,965.729,-349.484,965.729M-229.148,947.721C-190.822,938.716,-152.496,929.711,-108.804,929.711M11.4297,947.721C-26.8965,938.717,-65.2225,929.712,-108.914,929.712M11.4071,947.717C49.7332,956.721,88.0593,965.726,131.751,965.726M251.985,947.717C213.658,956.721,175.332,965.726,131.641,965.726M251.977,947.718C290.303,938.713,328.629,929.708,372.321,929.708M492.554,947.718C454.228,938.714,415.902,929.709,372.21,929.709M492.549,947.717C530.875,956.722,569.202,965.727,612.893,965.727M733.127,947.717C694.801,956.721,656.475,965.726,612.783,965.726M733.119,947.718C771.445,938.714,809.771,929.709,853.463,929.709M853.353,929.709" fill="none" fill-opacity="0.75" fill-rule="evenodd" stroke="#000000" stroke-dasharray="none" stroke-linecap="butt" stroke-linejoin="miter" stroke-miterlimit="4" stroke-opacity="1" stroke-width="200" opacity="0.07" transform="translate(20.241,-229.234) scale(0.312578,0.552047)" style="animation: 1s linear infinite both path7558-3_t;"/>
    <path fill="#a6a6a6" stroke="none" stroke-width="1px" d="M400,0L0,0L0,480C0,491.046,8.95431,500,20,500L380,500C391.046,500,400,491.046,400,480ZM265,120.144L131.952,120.144C118.697,120.144,107.952,130.889,107.952,144.144L107.952,306C107.952,319.255,118.697,330,131.952,330L265,330C278.255,330,289,319.255,289,306L289,144.144C289,130.889,278.255,120.144,265,120.144Z" fill-rule="evenodd" transform="translate(0,50) translate(0,-50)"/>
    <path fill="#808080" stroke="none" stroke-width="1px" d="M0,0L400,0C400,0,400,8.95431,400,20L400,88.3939C400,99.4396,391.046,108.394,380,108.394L20,108.394C8.95431,108.394,0,99.4396,0,88.3939L0,20C0,8.95431,0,1,0,0Z" transform="translate(-25,173.394) translate(25,216.606)"/>
    <ellipse stroke="#8b0000" stroke-width="7px" fill="#808080" rx="33" ry="33" transform="translate(0,50) translate(60,395)"/>
    <rect rx="10" ry="10" width="90" height="40" stroke="none" fill="#d3d3d3" stroke-width="1px" transform="translate(0,50) translate(100,375)"/>
    <text font-size="21" font-family="impact" fill="#8b0000" stroke="none" stroke-width="1px" transform="translate(7,50) translate(110,405)">200 °C</text>
    <ellipse stroke="#8b0000" stroke-width="7px" fill="#808080" rx="33" ry="33" transform="translate(0,50) translate(250,395)"/>
    <rect rx="10" ry="10" width="80" height="40" stroke="none" fill="#d3d3d3" stroke-width="1px" transform="translate(0,50) translate(290,375)"/>
    <text font-size="20" font-family="impact" stroke="none" fill="#000000" stroke-width="1px" transform="translate(-2,49) translate(300,405)">250 rpm</text>
    <rect width="400" height="40" fill="#848484" rx="0" stroke="none" transform="translate(200,15) translate(-200,-15)"/>
    <rect width="340" height="40" fill="#ffffff" stroke="none" transform="translate(200,60) translate(-170,-20)"/>
    <rect width="180.375" height="243.75" stroke="#eeeeee" fill="none" fill-opacity="1" stroke-width="6" rx="20" transform="translate(200.452,203.019) translate(-91.5,-118.75)"/>
    <rect width="185" height="250" fill="#eeeeee" rx="20" stroke="none" stroke-width="0" mask="url(#Mask-1)" transform="translate(199.14,189.144) scale(0.95,0.95) translate(-92.5,-125)"/>
    <rect width="186" height="40" fill="#d1cfd1" fill-opacity="1" rx="0" stroke="none" stroke-width="0" transform="translate(199.14,91.1441) translate(-93,-11)"/>
    <path d="M0,0L0.860689,300" stroke="#848484" fill="none" stroke-linecap="square" stroke-width="7" transform="translate(199.139,4)"/>
    <text font-size="20" font-family="impact" stroke="none" fill="#ffffff" stroke-width="1px" transform="translate(-167.992,-377.021) translate(300,405)" style="white-space: pre;">Over Head Stirrer</text>
    <rect width="10" height="10" stroke="none" fill="#848484" stroke-width="0" stroke-linecap="round" rx="5" transform="translate(200,305) translate(-5,-5)" style="animation: 1s linear infinite both a0_t, 1s linear infinite both a0_w;"/>
</svg>
