<?xml version="1.0" encoding="UTF-8" standalone="no"?>
<!-- Created with Keyshape -->
<svg xmlns="http://www.w3.org/2000/svg" viewBox="0 0 370 95" text-rendering="geometricPrecision" shape-rendering="geometricPrecision" style="white-space: pre;">
    <rect rx="20" ry="20" width="370" height="95" stroke="none" fill="#989898" stroke-width="1px" opacity="1" transform="translate(0,-165) translate(0,165)"/>
    <rect rx="10" ry="20" width="350" height="85" stroke="none" fill="#a8d3e2" stroke-width="1px" opacity="1" transform="translate(0,-165) translate(10,165)"/>
    <rect rx="5" ry="5" width="40" height="20" stroke="none" fill="#ffffff" stroke-width="1px" opacity="0.5" transform="translate(0,-176) translate(30,190)"/>
    <rect rx="5" ry="5" width="30" height="20" stroke="none" fill="#ffffff" stroke-width="1px" opacity="0.5" transform="translate(-1,-182.5) translate(80,220)"/>
    <rect rx="5" ry="5" width="20" height="20" stroke="none" fill="#ffffff" stroke-width="1px" opacity="0.5" transform="translate(0,-173) translate(40,227)"/>
    <rect rx="5" ry="5" width="40" height="20" stroke="none" fill="#ffffff" stroke-width="1px" opacity="0.5" transform="translate(0,-171) translate(300,225)"/>
    <rect rx="5" ry="5" width="30" height="20" stroke="none" fill="#ffffff" stroke-width="1px" opacity="0.5" transform="translate(0,-176) translate(320,190)"/>
    <rect rx="5" ry="5" width="20" height="20" stroke="none" fill="#ffffff" stroke-width="1px" opacity="0.5" transform="translate(0,-176) translate(280,200)"/>
</svg>
