<svg xmlns="http://www.w3.org/2000/svg" viewBox="0 0 180 180">
    <style>
@keyframes a0_t { 0% { transform: rotate(0deg) scale(0.3,0.3) translate(20.7263px,-32.1049px); } 100% { transform: rotate(360deg) scale(0.3,0.3) translate(20.7263px,-32.1049px); } }
@keyframes a0_mo { 0% { offset-distance: 0%; } 50% { offset-distance: 41.293%; } 90% { offset-distance: 93.04%; } 100% { offset-distance: 100%; } }
@keyframes a1_t { 0% { transform: rotate(0deg) scale(0.3,0.3) translate(-46.182164px,-30.14672px); } 100% { transform: rotate(360deg) scale(0.3,0.3) translate(-46.182164px,-30.14672px); } }
@keyframes a1_mo { 0% { offset-distance: 0%; } 50% { offset-distance: 53.73%; } 90% { offset-distance: 91.603%; } 100% { offset-distance: 100%; } }
@keyframes a2_t { 0% { transform: rotate(0deg) scale(0.2,0.2) translate(36.1269px,-34.5722px); } 100% { transform: rotate(360deg) scale(0.2,0.2) translate(36.1269px,-34.5722px); } }
@keyframes a2_mo { 0% { offset-distance: 0%; } 50% { offset-distance: 40.66%; } 90% { offset-distance: 85.019%; } 100% { offset-distance: 100%; } }
@keyframes a3_t { 0% { transform: rotate(0deg) scale(0.3,0.3) translate(-32.9162px,-41.1146px); } 100% { transform: rotate(360deg) scale(0.3,0.3) translate(-32.9162px,-41.1146px); } }
@keyframes a3_mo { 0% { offset-distance: 0%; } 50% { offset-distance: 62.718%; } 100% { offset-distance: 100%; } }
@keyframes a4_t { 0% { transform: rotate(0deg) scale(0.3,0.3) translate(-54.8955px,-34.5931px); } 100% { transform: rotate(360deg) scale(0.3,0.3) translate(-54.8955px,-34.5931px); } }
@keyframes a4_mo { 0% { offset-distance: 0%; } 50% { offset-distance: 50.853%; } 90% { offset-distance: 90.457%; } 100% { offset-distance: 100%; } }
    </style>
    <path d="M10.9735,-1.36901C13.2047,6.92109,14.4427,14.9903,14.3006,22.7525C-15.2391,37.1558,-30.251,41.9903,-28.1412,46.8267C-26.3468,50.9401,-10.2874,40.3677,14.9661,29.0741C16.308,35.7892,16.8309,42.1879,16.796,48.3713L-57.6972,65.5789C-62.5789,28.9284,-34.7659,-0.101013,10.9735,-1.36901Z" fill="#83c193" stroke-linecap="square" stroke="none" opacity="1" style="transform: scale(0.3,0.3) translate(20.7263px,-32.1049px); animation: 1s linear infinite both a0_t, 1s linear infinite both a0_mo; offset-path: path('M30.4944,98.8439C30.7494,125.468,65.6201,162.388,112.937,159.546C167.281,114.452,113.074,92.2403,48.7049,94.3542C38.2262,94.6983,41.9745,97.3501,30.4638,98.8844'); offset-rotate: 0deg;"/>
    <path d="M0.165848,0.331696C3.1084,16.3812,4.98837,32.5191,5.63883,48.7593L72.3097,68.4952C73.0026,24.4135,52.2541,-3.63822,0.165848,0.331696Z" opacity="1" fill="#83c193" stroke-linecap="square" stroke="none" style="transform: scale(0.3,0.3) translate(-46.1822px,-30.1467px); animation: 1s linear infinite both a1_t, 1s linear infinite both a1_mo; offset-path: path('M97.4236,92.5434C26.4677,77.9079,15.2709,114.914,75.6036,141.991C143.216,162.627,122.163,105.974,114.676,101.274C109.263,97.8755,110.709,96.9717,97.4236,92.6338'); offset-rotate: 0deg;"/>
    <path d="M0.282298,-0.727939L-74.0594,15.1782C-71.2236,33.5662,-65.5222,51.8005,-56.7876,69.8723L1.30847,52.0771C1.8758,43.3465,1.94976,34.6236,1.57016,25.9077C-9.9291,32.8471,-18.1161,42.2037,-21.1972,38.469C-26.0905,34.2293,-0.891503,21.4704,1.30847,18.5803C1.63452,11.7848,1.13665,5.43251,0.282298,-0.727939Z" opacity="1" fill="#83c193" stroke-linecap="square" stroke="none" style="transform: scale(0.2,0.2) translate(36.1269px,-34.5722px); animation: 1s linear infinite both a2_t, 1s linear infinite both a2_mo; offset-path: path('M44.48,123.466C68.4765,168.394,85.3139,158.367,126.097,137.752C183.562,113.192,122.751,93.3206,78.7314,112.277C69.4585,116.27,49.7423,114.912,44.48,123.466'); offset-rotate: 0deg;"/>
    <path d="M0,0L65.8324,19.3625C64.3263,39.4582,56.6311,67.5019,51.1756,82.2292L0.590251,65.6699C1.23549,46.6645,1.50884,19.0021,0,0Z" opacity="1" fill="#83c193" stroke-linecap="square" stroke="none" style="transform: scale(0.3,0.3) translate(-32.9162px,-41.1146px); animation: 1s linear infinite both a3_t, 1s linear infinite both a3_mo; offset-path: path('M110.239,151.252C172.796,127.332,107.302,72.8208,65.6488,103.461C71.3342,124.375,74.421,157.924,110.096,151.485'); offset-rotate: 0deg;"/>
    <path d="M0,0L55.3489,-17.013C56.0462,-3.06688,51.3083,16.792,57.1637,16.3325C61.2882,16.6912,61.1158,5.98209,61.4736,-6.35152L109.791,11.7957C92.7973,50.018,76.3734,83.9804,64.1957,86.1992C37.0478,61.519,16.1968,32.4,0,0Z" opacity="1" fill="#83c193" stroke-linecap="square" stroke="none" style="transform: scale(0.3,0.3) translate(-54.8955px,-34.5931px); animation: 1s linear infinite both a4_t, 1s linear infinite both a4_mo; offset-path: path('M151.468,113.909C92.5192,85.9551,51.1482,86.0141,45.5006,132.897C82.7073,160.46,121.373,154.472,138.722,135.156C144.444,128.786,149.698,122.075,151.031,114.281'); offset-rotate: 0deg;"/>
</svg>