<svg xmlns="http://www.w3.org/2000/svg" viewBox="0 0 148 245"><g stroke-width="1px" transform="translate(74,124.5) rotate(180) scale(1.469,1.342) translate(-50.3,-89.8)"><g transform="translate(49.5,89.2) scale(.552,.544) translate(-91,-165.2)"><path d="M75.8 301c202.5 3.1 68.9-236 4.6-299c-19.7-19.3-164.7 296.5-4.6 299Z" fill="#83c193"/><path d="M99.6 331.5c-13.5-74.7-17.4-152-12-232.1" stroke="#5f9e6f" fill="none" stroke-linecap="round" stroke-width="8px"/><path d="M94.9 261.4l48.3-26" stroke="#5f9e6f" fill="none" stroke-width="8px" stroke-linecap="round"/><path d="M85.3 229.4l-42.9-14" stroke="#5f9e6f" fill="none" stroke-width="8px" stroke-linecap="round"/><path d="M85.3 193.4l28.9-23" stroke="#5f9e6f" fill="none" stroke-width="8px" stroke-linecap="round"/><path d="M80.7 130.4l-16.9-7" stroke="#5f9e6f" fill="none" stroke-width="8px" stroke-linecap="round"/></g></g><path d="M-2.8 83.1l153.6-9.5" stroke="#fff" fill="none" stroke-width="7px" stroke-linecap="round"/><path d="M14.5 135.6h130.4" stroke="#fff" fill="none" stroke-width="7px" stroke-linecap="round"/><path d="M35.8 198l93.7-12" stroke="#fff" fill="none" stroke-width="7px" stroke-linecap="round"/><path d="M55.4 27.2l44.8 206.8" stroke="#fff" fill="none" stroke-width="7px" stroke-linecap="round"/></svg>