<svg xmlns="http://www.w3.org/2000/svg" viewBox="0 0 148 220">
<path d="M0,0Z" fill="#83c193" stroke-linecap="square" stroke="none" transform="translate(52.4298,3)"/>
<path d="M10.9735,-1.36901C13.2047,6.92109,14.4427,14.9903,14.3006,22.7525C-15.2391,37.1558,-30.251,41.9903,-28.1412,46.8267C-26.3468,50.9401,-10.2874,40.3677,14.9661,29.0741C16.308,35.7892,16.8309,42.1879,16.796,48.3713L-57.6972,65.5789C-62.5789,28.9284,-34.7659,-0.101013,10.9735,-1.36901Z" fill="#83c193" stroke-linecap="square" stroke="none" opacity="1" transform="translate(58.064,2.15226)"/>
<path d="M0.165848,0.331696C3.1084,16.3812,4.98837,32.5191,5.63883,48.7593L72.3097,68.4952C73.0026,24.4135,52.2541,-3.63822,0.165848,0.331696Z" opacity="1" fill="#83c193" stroke-linecap="square" stroke="none" transform="translate(75.7925,0.203976)"/>
<path d="M0.282298,-0.727939L-74.0594,15.1782C-71.2236,33.5662,-65.5222,51.8005,-56.7876,69.8723L1.30847,52.0771C1.8758,43.3465,1.94976,34.6236,1.57016,25.9077C-9.9291,32.8471,-18.1161,42.2037,-21.1972,38.469C-26.0905,34.2293,-0.891503,21.4704,1.30847,18.5803C1.63452,11.7848,1.13665,5.43251,0.282298,-0.727939Z" opacity="1" fill="#83c193" stroke-linecap="square" stroke="none" transform="translate(75.1062,58.0038)"/>
<path d="M0,0L65.8324,19.3625C64.3263,39.4582,56.6311,67.5019,51.1756,82.2292L0.590251,65.6699C1.23549,46.6645,1.50884,19.0021,0,0Z" opacity="1" fill="#83c193" stroke-linecap="square" stroke="none" transform="translate(81.7527,55.3224)"/>
<path d="M0,0L55.3489,-17.013C56.0462,-3.06688,51.3083,16.792,57.1637,16.3325C61.2882,16.6912,61.1158,5.98209,61.4736,-6.35152L109.791,11.7957C92.7973,50.018,76.3734,83.9804,64.1957,86.1992C37.0478,61.519,16.1968,32.4,0,0Z" opacity="1" fill="#83c193" stroke-linecap="square" stroke="none" transform="translate(20.8693,133.015)"/>
</svg>
