<svg xmlns="http://www.w3.org/2000/svg" viewBox="0 0 148 245">
    <path d="M75.8,301C278.3,304.1,144.7,65,80.4,2C60.7,-17.3,-84.3,298.5,75.8,301Z" fill="#83c193" stroke-width="1px" transform="translate(74.0438,135.606) rotate(180) scale(0.810888,0.730048) translate(-92.3953,-151.09)"/>
    <path d="M99.6,331.5C86.1,256.8,82.2,179.5,87.6,99.4" stroke="#5f9e6f" fill="none" stroke-linecap="round" stroke-width="8px" transform="translate(74.0174,87.6203) rotate(180) scale(0.810888,0.730048) translate(-92.4278,-215.45)"/>
    <path d="M94.9,261.4L143.2,235.4" stroke="#5f9e6f" fill="none" stroke-width="8px" stroke-linecap="round" transform="translate(52.4298,63.5652) rotate(180) scale(0.810888,0.730048) translate(-119.05,-248.4)"/>
    <path d="M85.3,229.4L42.4,215.4" stroke="#5f9e6f" fill="none" stroke-width="8px" stroke-linecap="round" transform="translate(97.1908,82.5465) rotate(180) scale(0.810888,0.730048) translate(-63.85,-222.4)"/>
    <path d="M85.3,193.4L114.2,170.4" stroke="#5f9e6f" fill="none" stroke-width="8px" stroke-linecap="round" transform="translate(68.0799,112.113) rotate(180) scale(0.810888,0.730048) translate(-99.75,-181.9)"/>
    <path d="M80.7,130.4L63.8,123.4" stroke="#5f9e6f" fill="none" stroke-width="8px" stroke-linecap="round" transform="translate(90.3793,152.266) rotate(180) scale(0.810888,0.730048) translate(-72.25,-126.9)"/>
</svg>
