<svg xmlns="http://www.w3.org/2000/svg" viewBox="0 0 100 250">
<rect x="15" rx="20" width="70" height="245"/>
<path d="M5,10.0265L70,80.0265L70,10.0265Z" fill="#eeeeee" transform="translate(15,9.9735)"/>
<rect x="65" y="70" rx="2" width="15" height="5" fill="#999"/>
<rect x="70" y="85" rx="2" width="10" height="3" fill="#999"/>
<rect x="65" y="100" rx="2" width="15" height="5" fill="#999"/>
<rect x="70" y="115" rx="2" width="10" height="3" fill="#999"/>
<rect x="65" y="130" rx="2" width="15" height="5" fill="#999"/>
<rect x="70" y="145" rx="2" width="10" height="3" fill="#999"/>
<rect x="65" y="160" rx="2" width="15" height="5" fill="#999"/>
<rect x="70" y="175" rx="2" width="10" height="3" fill="#999"/>
<rect x="65" y="190" rx="2" width="15" height="5" fill="#999"/>
<rect x="70" y="205" rx="2" width="10" height="3" fill="#999"/>
<rect x="65" y="220" rx="2" width="15" height="5" fill="#999"/>
<rect x="15" rx="20" width="70" height="245" fill="none" stroke="#eeeeee" stroke-width="10"/>
<rect rx="12" width="100" height="30" fill="#d1cfd1"/>
</svg>
