<svg xmlns="http://www.w3.org/2000/svg" viewBox="0 0 257 256">
    <rect rx="20" width="70" height="245" transform="translate(128.278,187.207) rotate(-99.8892) scale(1.01145,1.00251) translate(-35,-122.5)"/>
    <path d="M5,10.0265L70,80.0265L70,10.0265Z" fill="#eeeeee" transform="translate(61.1798,196.337) rotate(-99.8892) scale(1.01145,1.00251) translate(-37.5,-45.0265)"/>
    <rect rx="2" width="15" height="5" fill="#999" transform="translate(74.9888,173.396) rotate(-99.8892) scale(1.01145,1.00251) translate(-7.5,-2.5)"/>
    <rect rx="2" width="10" height="3" fill="#999" transform="translate(88.3811,168.494) rotate(-99.8892) scale(1.01145,1.00251) translate(-5,-1.5)"/>
    <rect rx="2" width="15" height="5" fill="#999" transform="translate(104.617,168.231) rotate(-99.8892) scale(1.01145,1.00251) translate(-7.5,-2.5)"/>
    <rect rx="2" width="10" height="3" fill="#999" transform="translate(118.01,163.329) rotate(-99.8892) scale(1.01145,1.00251) translate(-5,-1.5)"/>
    <rect rx="2" width="15" height="5" fill="#999" transform="translate(134.246,163.065) rotate(-99.8892) scale(1.01145,1.00251) translate(-7.5,-2.5)"/>
    <rect rx="2" width="10" height="3" fill="#999" transform="translate(147.638,158.164) rotate(-99.8892) scale(1.01145,1.00251) translate(-5,-1.5)"/>
    <rect rx="2" width="15" height="5" fill="#999" transform="translate(163.874,157.9) rotate(-99.8892) scale(1.01145,1.00251) translate(-7.5,-2.5)"/>
    <rect rx="2" width="10" height="3" fill="#999" transform="translate(177.266,152.999) rotate(-99.8892) scale(1.01145,1.00251) translate(-5,-1.5)"/>
    <rect rx="2" width="15" height="5" fill="#999" transform="translate(193.502,152.735) rotate(-99.8892) scale(1.01145,1.00251) translate(-7.5,-2.5)"/>
    <rect rx="2" width="10" height="3" fill="#999" transform="translate(206.895,147.833) rotate(-99.8892) scale(1.01145,1.00251) translate(-5,-1.5)"/>
    <rect rx="2" width="15" height="5" fill="#999" transform="translate(223.131,147.57) rotate(-99.8892) scale(1.01145,1.00251) translate(-7.5,-2.5)"/>
    <rect rx="20" width="70" height="233.863" fill="none" stroke="#eeeeee" stroke-width="10" transform="translate(128.278,187.207) rotate(-99.8892) scale(1.01145,1.00251) translate(-35,-111.363)"/>
    <rect rx="12" width="100" height="30" fill="#d1cfd1" transform="translate(22.1287,205.596) rotate(-99.8892) scale(1.01145,1.00251) translate(-50,-15)"/>
</svg>
