<svg xmlns="http://www.w3.org/2000/svg" shape-rendering="geometricPrecision" text-rendering="geometricPrecision" viewBox="0 0 1280 720" style="white-space: pre;">
    <defs>
        <radialGradient id="Gradient-0" cx="-20.4119" cy="-21.8699" r="109.317" fx="-20.4119" fy="-21.8699" gradientUnits="userSpaceOnUse">
            <stop offset="0" stop-color="#dedede"/>
            <stop offset="1" stop-color="#2f2f2f"/>
        </radialGradient>
    </defs>
    <g transform="translate(640,360) translate(-640,-360)">
        <rect width="1280" height="720" fill="#cdcdcd" stroke="none" filter="blur(20px)" transform="translate(641.516,360.853) translate(-641.516,-360.853)"/>
        <ellipse rx="86.0215" ry="86.0215" fill="url(#Gradient-0)" stroke="none" stroke-width="0" transform="translate(154.078,144.423)"/>
        <ellipse rx="86.0215" ry="86.0215" fill="url(#Gradient-0)" stroke="none" stroke-width="0" transform="translate(278.078,619.021)"/>
        <ellipse rx="86.0215" ry="86.0215" fill="url(#Gradient-0)" stroke="none" stroke-width="0" transform="translate(304.17,348.047)"/>
        <ellipse rx="86.0215" ry="86.0215" fill="url(#Gradient-0)" stroke="none" stroke-width="0" transform="translate(517.422,262.908)"/>
        <ellipse rx="86.0215" ry="86.0215" fill="url(#Gradient-0)" stroke="none" stroke-width="0" transform="translate(543.038,415.251)"/>
        <ellipse rx="86.0215" ry="86.0215" fill="url(#Gradient-0)" stroke="none" stroke-width="0" transform="translate(949,329.229)"/>
        <ellipse rx="86.0215" ry="86.0215" fill="url(#Gradient-0)" stroke="none" stroke-width="0" transform="translate(132.127,299.853)"/>
        <ellipse rx="86.0215" ry="86.0215" fill="url(#Gradient-0)" stroke="none" stroke-width="0" transform="translate(406.035,131.36)"/>
        <ellipse rx="86.0215" ry="86.0215" fill="url(#Gradient-0)" stroke="none" stroke-width="0" transform="translate(605.008,587.378)"/>
        <ellipse rx="86.0215" ry="86.0215" fill="url(#Gradient-0)" stroke="none" stroke-width="0" transform="translate(664.941,144.423)"/>
        <ellipse rx="86.0215" ry="86.0215" fill="url(#Gradient-0)" stroke="none" stroke-width="0" transform="translate(428.1,562.604)"/>
        <ellipse rx="86.0215" ry="86.0215" fill="url(#Gradient-0)" stroke="none" stroke-width="0" transform="translate(753.723,271.268)"/>
        <ellipse rx="86.0215" ry="86.0215" fill="url(#Gradient-0)" stroke="none" stroke-width="0" transform="translate(1129,397.043)"/>
        <ellipse rx="86.0215" ry="86.0215" fill="url(#Gradient-0)" stroke="none" stroke-width="0" transform="translate(750.962,419.625)"/>
        <ellipse rx="86.0215" ry="86.0215" fill="url(#Gradient-0)" stroke="none" stroke-width="0" transform="translate(923.005,144.423)"/>
        <ellipse rx="86.0215" ry="86.0215" fill="url(#Gradient-0)" stroke="none" stroke-width="0" transform="translate(193.363,494.067)"/>
        <ellipse rx="86.0215" ry="86.0215" fill="url(#Gradient-0)" stroke="none" stroke-width="0" transform="translate(1145.17,144.423)"/>
        <g transform="translate(969,588.5) scale(1.58743,1.58743) translate(-173.5,-60)">
            <rect width="347" height="120" fill="#ffffff" stroke="none" transform="translate(173.5,52.5) translate(-173.5,-52.5)"/>
            <path d="M0,0L306.312,0" stroke="#000000" fill="none" stroke-linecap="butt" stroke-width="26" transform="translate(20.3438,33.9795)"/>
            <text fill="#000000" font-size="53" font-family="Arial" letter-spacing="0" word-spacing="0" stroke="none" font-weight="700" transform="translate(20.3438,100.479)" style="line-height: 16px; white-space: pre;">Nanometers</text>
        </g>
    </g>
</svg>
