<svg xmlns="http://www.w3.org/2000/svg" viewBox="0 0 510 440">
    <g id="#f8fafbff" transform="translate(-560.959,-92)"/>
    <g transform="translate(255.924,219.934) translate(-255.924,-219.934)">
        <g id="#f8d69fff" transform="translate(255.924,123.628) translate(-349.994,-207.761)">
            <path fill="#f8d69f" opacity="1" d="M236.21,84.37C240.02,83.36,244.35,85.79,245.34,89.63C246.55,94.04,247.96,98.45,248.38,103.02C248.3,108.26,242.06,111.94,237.42,109.54C234.48,108.31,233.25,105.17,232.63,102.28C231.86,99.17,230.98,96.09,230.45,92.93C229.69,89.13,232.48,85.19,236.21,84.37Z" transform="translate(239.352,97.2152) translate(-239.352,-97.2152)"/>
            <path fill="#f8d69f" opacity="1" d="M460.27,84.34C464.61,83.24,469.39,86.65,469.64,91.15C469.63,94.5,468.41,97.69,467.71,100.93C466.94,103.76,466.41,107.1,463.76,108.84C460.05,111.66,454.08,110.04,452.29,105.76C450.59,101.8,452.83,97.61,453.52,93.67C454.26,89.8,455.82,85.15,460.27,84.34Z" transform="translate(460.653,97.1893) translate(-460.653,-97.1893)"/>
            <path fill="#f8d69f" opacity="1" d="M208.36,103.4C211.21,102.54,214.26,103.65,216.27,105.75C219.25,108.76,222.61,111.49,225.01,115C227.61,119.5,224.2,125.78,219.05,126.17C215.41,126.78,212.63,124.02,210.33,121.65C208.07,119.27,205.46,117.17,203.64,114.42C201.23,110.31,203.8,104.56,208.36,103.4Z" transform="translate(214.31,114.682) translate(-214.31,-114.682)"/>
            <path fill="#f8d69f" opacity="1" d="M487.33,103.44C492.11,101.82,497.55,105.97,497.25,111C497.23,115.03,493.64,117.52,491.15,120.18C488.48,122.64,486,126.21,481.99,126.22C477.62,126.43,473.67,122.33,474.13,117.96C474.28,114.36,477.46,112.08,479.72,109.67C482.13,107.47,484.17,104.59,487.33,103.44Z" transform="translate(485.678,114.656) translate(-485.678,-114.656)"/>
            <path fill="#f8d69f" opacity="1" d="M188.41,131.49C191.83,129.93,195.54,131.64,198.98,132.31C202.48,133.31,206.93,133.6,208.93,137.15C211.24,140.73,209.79,146.01,205.98,147.92C202.48,149.84,198.51,148,194.93,147.3C191.51,146.31,187.22,146.06,185.17,142.69C182.58,138.97,184.25,133.27,188.41,131.49Z" transform="translate(196.986,139.811) translate(-196.986,-139.811)"/>
            <path fill="#f8d69f" opacity="1" d="M504.42,131.48C506.94,130.88,509.79,130.33,512.15,131.78C515.93,133.8,517.26,139.16,514.82,142.69C512.59,146.25,507.98,146.38,504.36,147.48C500.65,148.34,496.15,150.01,492.86,147.16C488.74,144.16,489.11,137.15,493.54,134.62C496.95,132.96,500.79,132.48,504.42,131.48Z" transform="translate(503.018,139.806) translate(-503.018,-139.806)"/>
            <path fill="#f8d69f" opacity="1" d="M344.07,177.1C347.53,173.23,352.7,170.69,357.97,171.52C365.51,172.29,371.5,179.46,371.11,187C371.13,228.01,371.09,269.02,371.12,310.02C371.12,314.94,371.67,320.37,368.61,324.6C364.56,331.09,355.22,333.43,348.67,329.4C343.94,326.76,340.88,321.45,341.01,316.02C340.99,285.02,340.98,254.02,341.02,223.01C337.25,226.37,332.24,228.8,327.08,227.76C320.36,226.76,314.87,220.76,314.56,213.95C314.23,209.57,315.98,205.2,319.09,202.13C327.41,193.78,335.79,185.49,344.07,177.1Z" transform="translate(342.839,251.376) translate(-342.839,-251.376)"/>
        </g>
        <g id="#f9e379ff" transform="translate(241.379,167.213) translate(-335.449,-251.345)">
            <path fill="#f9e379" opacity="1" d="M298.08,109.2C311.6,104.27,325.91,101.28,340.2,100.25C344.43,101.96,348.9,102.84,353.38,103.59C384.86,110.35,413.94,127.69,435.03,152.01C455.61,175.49,468.5,205.52,471.5,236.59C475.24,273.56,464.72,311.71,442.47,341.48C422.45,368.67,393.03,388.76,360.41,397.48C353.42,399.51,346.12,400.24,339.17,402.44C321.22,400.93,303.56,396.48,287.1,389.16C262.52,377.69,240.9,359.82,225.5,337.45C208.16,312.55,198.68,282.3,198.66,251.96C198.46,221.99,207.46,192.04,224.22,167.19C241.91,140.72,268.15,120.06,298.08,109.2M337.39,132.94C325.27,133.94,313.42,137.41,302.25,142.16C273.8,154.46,250.65,178.38,239.27,207.22C228.65,233.61,227.98,263.83,237.41,290.67C247.21,319.09,268.3,343.34,294.98,357.15C308.2,363.95,322.7,368.57,337.53,369.83C344.95,371.2,352.56,370.94,360.05,370.3C376.05,369,391.78,364.4,405.94,356.84C435.57,341.25,457.99,312.63,465.87,280.07C472.84,251.85,469.19,221.09,455.45,195.44C440.49,167,413.55,145.16,382.58,136.54C367.95,132.57,352.44,130.73,337.39,132.94Z" transform="translate(335.449,251.345) translate(-335.449,-251.345)"/>
        </g>
        <g id="#f6d555ff" transform="translate(326.238,167.282) translate(-420.308,-251.415)">
            <path fill="#f6d555" opacity="1" d="M340.2,100.25C367.92,98.4,396.11,104.3,420.65,117.35C450.89,133.25,475.43,159.69,488.98,191.05C506.06,229.98,505.57,276.16,487.63,314.7C472.53,347.76,445.06,374.82,411.95,389.72C389.22,399.78,363.98,404.49,339.17,402.44C346.12,400.24,353.42,399.51,360.41,397.48C393.03,388.76,422.45,368.67,442.47,341.48C464.72,311.71,475.24,273.56,471.5,236.59C468.5,205.52,455.61,175.49,435.03,152.01C413.94,127.69,384.86,110.35,353.38,103.59C348.9,102.84,344.43,101.96,340.2,100.25Z" transform="translate(420.308,251.415) translate(-420.308,-251.415)"/>
        </g>
        <g id="#ed9e44ff" transform="translate(309.285,167.274) translate(-403.355,-251.407)">
            <path fill="#ed9e44" opacity="1" d="M337.39,132.94C352.44,130.73,367.95,132.57,382.58,136.54C413.55,145.16,440.49,167,455.45,195.44C469.19,221.09,472.84,251.85,465.87,280.07C457.99,312.63,435.57,341.25,405.94,356.84C391.78,364.4,376.05,369,360.05,370.3C352.56,370.94,344.95,371.2,337.53,369.83C358.16,365.94,378.46,358.26,394.82,344.81C404.62,336.64,413.78,327.46,420.61,316.61C434.26,295.9,441.07,270.76,439.97,246C439.21,228.74,434.52,211.75,426.7,196.36C414.19,172.78,393.88,153.27,369.35,142.56C359.23,137.76,348.24,135.4,337.39,132.94Z" transform="translate(403.355,251.407) translate(-403.355,-251.407)"/>
        </g>
        <g id="#f0aa4bff" transform="translate(241.368,167.253) translate(-335.438,-251.385)">
            <path fill="#f0aa4b" opacity="1" d="M302.25,142.16C313.42,137.41,325.27,133.94,337.39,132.94C348.24,135.4,359.23,137.76,369.35,142.56C393.88,153.27,414.19,172.78,426.7,196.36C434.52,211.75,439.21,228.74,439.97,246C441.07,270.76,434.26,295.9,420.61,316.61C413.78,327.46,404.62,336.64,394.82,344.81C378.46,358.26,358.16,365.94,337.53,369.83C322.7,368.57,308.2,363.95,294.98,357.15C268.3,343.34,247.21,319.09,237.41,290.67C227.98,263.83,228.65,233.61,239.27,207.22C250.65,178.38,273.8,154.46,302.25,142.16M344.07,177.1C335.79,185.49,327.41,193.78,319.09,202.13C315.98,205.2,314.23,209.57,314.56,213.95C314.87,220.76,320.36,226.76,327.08,227.76C332.24,228.8,337.25,226.37,341.02,223.01C340.98,254.02,340.99,285.02,341.01,316.02C340.88,321.45,343.94,326.76,348.67,329.4C355.22,333.43,364.56,331.09,368.61,324.6C371.67,320.37,371.12,314.94,371.12,310.02C371.09,269.02,371.13,228.01,371.11,187C371.5,179.46,365.51,172.29,357.97,171.52C352.7,170.69,347.53,173.23,344.07,177.1M270.27,231.35C265.04,232.57,262.93,239.63,266.4,243.64C269.46,247.33,274.82,246.15,279.03,246.45C283.2,246.25,288.58,247.3,291.37,243.33C294.91,239.24,292.32,231.93,286.89,231.24C281.38,230.84,275.77,230.68,270.27,231.35M412.34,231.4C409.08,232.28,406.76,235.63,407,238.99C407.23,242.63,410.23,246.23,414.06,246.26C419.04,246.55,424.07,246.62,429.04,246.14C432.95,245.79,435.75,241.83,435.27,238.03C435.18,233.83,430.94,230.81,426.96,231.02C422.09,230.99,417.16,230.64,412.34,231.4M269.28,258.23C263.02,260.41,263.37,270.43,269.59,272.46C274.64,273.54,279.92,272.97,285.06,272.94C288.37,273.04,291.69,270.94,292.63,267.7C294.23,263.31,290.73,257.85,286,257.75C280.45,257.59,274.74,257.08,269.28,258.23M411.34,258.36C408.65,259.86,406.71,262.9,407.05,266.05C407.26,269.6,410.36,272.76,413.96,272.87C419.21,273.09,424.54,273.36,429.76,272.63C434.7,271.42,436.94,265.07,434.04,260.94C431.74,257.19,426.85,257.6,423.05,257.53C419.16,257.71,415.07,257.05,411.34,258.36Z" transform="translate(335.438,251.385) translate(-335.438,-251.385)"/>
        </g>
        <g id="#a0e5d1ff" transform="translate(255.92,208.917) translate(-349.99,-293.049)">
            <path fill="#a0e5d1" opacity="1" d="M130.32,180.32C131.44,178.02,134.48,177.03,136.69,178.41C148.73,184.67,156.1,198.56,154.82,212.04C154.45,218.34,151.78,224.16,148.74,229.58C149.31,229.47,150.47,229.26,151.05,229.15C143.63,231.11,137.6,236.07,132.52,241.63C129.51,233.83,123.7,227.16,116.28,223.27C114.92,215.3,115.82,206.87,119.72,199.71C123.24,193.25,126.66,186.71,130.32,180.32Z" transform="translate(135.324,209.704) translate(-135.324,-209.704)"/>
            <path fill="#a0e5d1" opacity="1" d="M563.31,178.4C565.24,177.23,568.05,177.74,569.26,179.72C571.46,182.98,573.06,186.59,575.02,190C578.39,196.42,582.64,202.64,583.79,209.95C584.64,214.36,584.28,218.86,583.7,223.27C576.3,227.18,570.47,233.82,567.47,241.62C562.4,236.05,556.36,231.12,548.94,229.16C549.52,229.26,550.67,229.45,551.24,229.54C547.23,222.72,544.4,214.93,545.11,206.89C545.77,195.12,552.86,183.91,563.31,178.4Z" transform="translate(564.647,209.7) translate(-564.647,-209.7)"/>
            <path fill="#a0e5d1" opacity="1" d="M134.26,285.25C139.76,273.26,151.51,264.63,164.66,263.21C166.06,264.6,167.97,265.82,168.09,268.02C169.36,274.89,170.26,281.83,171.44,288.72C172.3,293.56,172.21,298.5,171.48,303.36L170.83,303.78C158.47,307.58,148.46,318.44,146.18,331.22C144.9,331.22,143.81,331.96,142.83,332.71C142.67,332.61,142.36,332.41,142.2,332.3C145.26,327.78,143.12,322.33,142.5,317.43C140.93,307.3,140,296.52,133.64,288.02C133.8,287.32,134.11,285.94,134.26,285.25Z" transform="translate(152.848,297.96) translate(-152.848,-297.96)"/>
            <path fill="#a0e5d1" opacity="1" d="M535.33,263.2C540.17,264.11,545.07,265.18,549.39,267.65C556.63,271.47,562.14,277.97,565.73,285.25C565.88,285.94,566.2,287.32,566.35,288.01C558.83,298.1,558.93,311.1,556.57,322.93C555.85,326.12,555.97,329.48,557.79,332.3C557.63,332.4,557.33,332.6,557.18,332.7C556.17,331.97,555.08,331.23,553.8,331.24C551.56,318.46,541.56,307.63,529.25,303.78L528.52,303.51C527.77,298.59,527.68,293.58,528.57,288.67C529.75,281.79,530.64,274.85,531.91,267.99C532.05,265.81,533.93,264.59,535.33,263.2Z" transform="translate(547.14,297.95) translate(-547.14,-297.95)"/>
            <path fill="#a0e5d1" opacity="1" d="M186.05,342.95C188.2,341.24,191.7,341.15,193.48,343.45C195.69,346.36,197.29,349.67,199.21,352.77C203.89,360.96,209.75,368.78,211.54,378.25C204.86,384.6,201.17,393.44,199.91,402.46C196.26,403.08,193.09,405.19,191.12,408.32C184.24,397.71,179.44,384.69,167.85,378.18C167.83,376.72,167.82,375.27,167.84,373.82C168.35,361.33,175.56,349.6,186.05,342.95Z" transform="translate(189.685,375.006) translate(-189.685,-375.006)"/>
            <path fill="#a0e5d1" opacity="1" d="M506.55,343.42C508.31,341.13,511.8,341.25,513.94,342.94C524.45,349.59,531.61,361.36,532.17,373.84C532.16,375.28,532.15,376.73,532.12,378.19C520.59,384.67,515.8,397.64,508.97,408.2C506.99,404.98,503.71,402.94,500.02,402.28C498.8,393.34,495.1,384.59,488.51,378.29C490.01,369.24,495.62,361.78,500.05,354C502.25,350.5,504.05,346.73,506.55,343.42Z" transform="translate(510.34,374.942) translate(-510.34,-374.942)"/>
        </g>
        <g id="#47978cff" transform="translate(255.889,255.515) translate(-349.959,-339.647)">
            <path fill="#47978c" opacity="1" d="M99.29,223.87C99.44,221.48,101.52,219.26,104.01,219.48C108.31,219.83,112.48,221.28,116.28,223.27C123.7,227.16,129.51,233.83,132.52,241.63C136.88,252.15,133.63,263.48,132.43,274.27C132.15,277.56,131.3,280.75,130.26,283.87C123.13,277.87,114.42,273.46,104.94,273.28C98.45,265.84,94.99,255.76,96.24,245.9C97.18,238.55,98.21,231.2,99.29,223.87Z" transform="translate(115.356,251.667) translate(-115.356,-251.667)"/>
            <path fill="#47978c" opacity="1" d="M583.7,223.27C587.78,221.19,592.3,219.48,596.95,219.52C601,220.27,600.87,224.97,601.36,228.14C602.21,237.56,605.17,247.02,603.35,256.5C602.18,262.72,599.14,268.46,595.08,273.28C585.59,273.45,576.85,277.85,569.75,283.89C568.7,280.76,567.84,277.56,567.56,274.26C566.38,263.47,563.09,252.14,567.47,241.62C570.47,233.82,576.3,227.18,583.7,223.27Z" transform="translate(584.597,251.705) translate(-584.597,-251.705)"/>
            <path fill="#47978c" opacity="1" d="M113.55,326.89C123.32,324.66,133.96,326.56,142.2,332.3C142.36,332.41,142.67,332.61,142.83,332.71C143.39,333.14,144.52,333.99,145.08,334.41C154.43,341.39,157.29,353.16,161.62,363.36C163.09,367.31,165.87,371.52,163.76,375.76C153.59,371.55,141.8,371.02,131.63,375.56C123.02,371.49,116.47,363.75,113.2,354.87C110.57,347.89,107.44,341.09,105.11,334.01C104.1,329.09,109.94,327.65,113.55,326.89Z" transform="translate(134.759,350.871) translate(-134.759,-350.871)"/>
            <path fill="#47978c" opacity="1" d="M557.79,332.3C566.03,326.56,576.67,324.66,586.44,326.89C589.79,327.75,594.87,328.6,595.03,332.98C594.62,336.16,593,338.99,591.92,341.97C589.6,347.6,587.59,353.37,585.03,358.9C581.53,366.1,575.58,372.09,568.36,375.57C558.19,371.02,546.38,371.54,536.21,375.78C535.97,374.06,534.83,372.42,535.62,370.68C537.84,364.1,540.77,357.78,543.2,351.27C545.61,344.78,549.42,338.7,554.92,334.41C555.49,333.98,556.62,333.12,557.18,332.7C557.33,332.6,557.63,332.4,557.79,332.3Z" transform="translate(565.188,350.881) translate(-565.188,-350.881)"/>
            <path fill="#47978c" opacity="1" d="M165.25,424.82C172.21,418.93,181.23,416.04,190.26,415.69C190.36,430.4,190.33,445.12,190.29,459.83C182.15,455.75,176.3,448.67,169.92,442.41C167.07,439.22,163.41,436.65,161.17,432.96C159.71,429.49,162.79,426.7,165.25,424.82Z" transform="translate(175.56,437.76) translate(-175.56,-437.76)"/>
            <path fill="#47978c" opacity="1" d="M509.97,415.73C518.93,416.06,527.84,418.99,534.75,424.81C537.23,426.69,540.28,429.53,538.81,432.98C536.6,436.66,532.98,439.22,530.14,442.39C523.77,448.53,518.05,455.62,510,459.67C509.82,445.02,509.89,430.37,509.97,415.73Z" transform="translate(524.541,437.7) translate(-524.541,-437.7)"/>
        </g>
        <g id="#65ceb4ff" transform="translate(255.924,242.093) translate(-349.994,-326.225)">
            <path fill="#65ceb4" opacity="1" d="M151.05,229.15C156.31,227.65,162.13,226.94,167.45,228.53C170.96,230.36,169.62,234.79,169.24,237.91C167.75,246.34,167.57,255.08,164.66,263.21C151.51,264.63,139.76,273.26,134.26,285.25C133.17,284.57,132.1,284.63,131.04,285.42C131.68,286.48,132.72,287.21,133.64,288.02C140,296.52,140.93,307.3,142.5,317.43C143.12,322.33,145.26,327.78,142.2,332.3C133.96,326.56,123.32,324.66,113.55,326.89C105.05,321.1,99.03,311.8,97.58,301.58C96.48,293.71,94.76,285.92,94.07,278C94.8,272.92,101.11,273.4,104.94,273.28C114.42,273.46,123.13,277.87,130.26,283.87C131.3,280.75,132.15,277.56,132.43,274.27C133.63,263.48,136.88,252.15,132.52,241.63C137.6,236.07,143.63,231.11,151.05,229.15Z" transform="translate(131.939,279.965) translate(-131.939,-279.965)"/>
            <path fill="#65ceb4" opacity="1" d="M532.54,228.53C537.85,226.96,543.68,227.62,548.94,229.16C556.36,231.12,562.4,236.05,567.47,241.62C563.09,252.14,566.38,263.47,567.56,274.26C567.84,277.56,568.7,280.76,569.75,283.89C576.85,277.85,585.59,273.45,595.08,273.28C598.09,273.42,601.46,273.15,604.13,274.8C607.26,277.31,605.39,281.63,605.09,284.94C603.48,293.07,603.14,301.5,600.36,309.36C597.71,316.49,592.66,322.57,586.44,326.89C576.67,324.66,566.03,326.56,557.79,332.3C555.97,329.48,555.85,326.12,556.57,322.93C558.93,311.1,558.83,298.1,566.35,288.01C567.27,287.21,568.3,286.49,568.95,285.43C567.88,284.63,566.81,284.57,565.73,285.25C562.14,277.97,556.63,271.47,549.39,267.65C545.07,265.18,540.17,264.11,535.33,263.2C532.41,255.07,532.26,246.33,530.75,237.89C530.38,234.78,529.03,230.37,532.54,228.53Z" transform="translate(568.051,279.965) translate(-568.051,-279.965)"/>
            <path fill="#65ceb4" opacity="1" d="M146.18,331.22C148.46,318.44,158.47,307.58,170.83,303.78C175.34,305.39,176.03,310.47,177.74,314.32C181.17,323.63,186.3,332.72,186.05,342.95C175.56,349.6,168.35,361.33,167.84,373.82C166.5,374.53,165.16,375.23,163.83,375.94C165.17,376.67,166.53,377.4,167.85,378.18C179.44,384.69,184.24,397.71,191.12,408.32C190.57,410.73,190.31,413.21,190.26,415.69C181.23,416.04,172.21,418.93,165.25,424.82C153.99,422.89,143.66,416.03,137.85,406.14C133.75,399.24,129.6,392.36,125.57,385.41C124.28,383.44,124.23,380.65,125.92,378.89C127.56,377.38,129.61,376.43,131.63,375.56C141.8,371.02,153.59,371.55,163.76,375.76C165.87,371.52,163.09,367.31,161.62,363.36C157.29,353.16,154.43,341.39,145.08,334.41C145.83,333.51,146.2,332.44,146.18,331.22Z" transform="translate(157.872,364.3) translate(-157.872,-364.3)"/>
            <path fill="#65ceb4" opacity="1" d="M525.22,307.08C525.85,305.29,527.81,304.74,529.25,303.78C541.56,307.63,551.56,318.46,553.8,331.24C553.78,332.46,554.15,333.52,554.92,334.41C549.42,338.7,545.61,344.78,543.2,351.27C540.77,357.78,537.84,364.1,535.62,370.68C534.83,372.42,535.97,374.06,536.21,375.78C546.38,371.54,558.19,371.02,568.36,375.57C571.5,376.91,575.91,378.77,575.37,382.97C574.08,387.05,571.26,390.43,569.26,394.18C564.79,401.27,561.32,409.24,554.97,414.94C549.38,420.13,542.25,423.49,534.75,424.81C527.84,418.99,518.93,416.06,509.97,415.73C509.93,413.19,509.64,410.65,508.97,408.2C515.8,397.64,520.59,384.67,532.12,378.19C533.45,377.41,534.8,376.67,536.16,375.94C534.82,375.23,533.5,374.54,532.17,373.84C531.61,361.36,524.45,349.59,513.94,342.94C513.96,337.26,515.17,331.64,517.43,326.43C520.1,320.01,522.43,313.45,525.22,307.08Z" transform="translate(542.193,364.295) translate(-542.193,-364.295)"/>
            <path fill="#65ceb4" opacity="1" d="M211.54,378.25C213.42,376.24,216.85,376.22,218.77,378.17C224.75,383.79,230.32,389.84,236.3,395.48C224.1,397.44,211.97,399.8,199.91,402.46C201.17,393.44,204.86,384.6,211.54,378.25Z" transform="translate(218.105,389.592) translate(-218.105,-389.592)"/>
            <path fill="#65ceb4" opacity="1" d="M481.2,378.19C483.13,376.17,486.6,376.28,488.51,378.29C495.1,384.59,498.8,393.34,500.02,402.28C491.97,400.55,483.95,398.65,475.81,397.43C471.78,396.8,467.77,396.12,463.77,395.43C469.71,389.83,475.27,383.81,481.2,378.19Z" transform="translate(481.895,389.504) translate(-481.895,-389.504)"/>
        </g>
        <g id="#ea8e3fff" transform="translate(255.944,167.873) translate(-350.014,-252.005)">
            <path fill="#ea8e3f" opacity="1" d="M270.27,231.35C275.77,230.68,281.38,230.84,286.89,231.24C292.32,231.93,294.91,239.24,291.37,243.33C288.58,247.3,283.2,246.25,279.03,246.45C274.82,246.15,269.46,247.33,266.4,243.64C262.93,239.63,265.04,232.57,270.27,231.35Z" transform="translate(278.846,238.672) translate(-278.846,-238.672)"/>
            <path fill="#ea8e3f" opacity="1" d="M412.34,231.4C417.16,230.64,422.09,230.99,426.96,231.02C430.94,230.81,435.18,233.83,435.27,238.03C435.75,241.83,432.95,245.79,429.04,246.14C424.07,246.62,419.04,246.55,414.06,246.26C410.23,246.23,407.23,242.63,407,238.99C406.76,235.63,409.08,232.28,412.34,231.4Z" transform="translate(421.153,238.701) translate(-421.153,-238.701)"/>
            <path fill="#ea8e3f" opacity="1" d="M269.28,258.23C274.74,257.08,280.45,257.59,286,257.75C290.73,257.85,294.23,263.31,292.63,267.7C291.69,270.94,288.37,273.04,285.06,272.94C279.92,272.97,274.64,273.54,269.59,272.46C263.37,270.43,263.02,260.41,269.28,258.23Z" transform="translate(278.887,265.308) translate(-278.887,-265.308)"/>
            <path fill="#ea8e3f" opacity="1" d="M411.34,258.36C415.07,257.05,419.16,257.71,423.05,257.53C426.85,257.6,431.74,257.19,434.04,260.94C436.94,265.07,434.7,271.42,429.76,272.63C424.54,273.36,419.21,273.09,413.96,272.87C410.36,272.76,407.26,269.6,407.05,266.05C406.71,262.9,408.65,259.86,411.34,258.36Z" transform="translate(421.17,265.313) translate(-421.17,-265.313)"/>
        </g>
        <g id="#e0f3f0ff" transform="translate(38.58,202.268) translate(-132.65,-286.4)">
            <path fill="#e0f3f0" opacity="1" d="M131.04,285.42C132.1,284.63,133.17,284.57,134.26,285.25C134.11,285.94,133.8,287.32,133.64,288.02C132.72,287.21,131.68,286.48,131.04,285.42Z" transform="translate(132.65,286.4) translate(-132.65,-286.4)"/>
        </g>
        <g id="#e0f4f0ff" transform="translate(473.27,202.264) translate(-567.34,-286.396)">
            <path fill="#e0f4f0" opacity="1" d="M565.73,285.25C566.81,284.57,567.88,284.63,568.95,285.43C568.3,286.49,567.27,287.21,566.35,288.01C566.2,287.32,565.88,285.94,565.73,285.25Z" transform="translate(567.34,286.396) translate(-567.34,-286.396)"/>
        </g>
        <g id="#e0f2efff" transform="translate(50.4354,248.683) translate(-144.505,-332.815)">
            <path fill="#e0f2ef" opacity="1" d="M142.83,332.71C143.81,331.96,144.9,331.22,146.18,331.22C146.2,332.44,145.83,333.51,145.08,334.41C144.52,333.99,143.39,333.14,142.83,332.71Z" transform="translate(144.505,332.815) translate(-144.505,-332.815)"/>
        </g>
        <g id="#e1f2efff" transform="translate(461.42,248.693) translate(-555.49,-332.825)">
            <path fill="#e1f2ef" opacity="1" d="M553.8,331.24C555.08,331.23,556.17,331.97,557.18,332.7C556.62,333.12,555.49,333.98,554.92,334.41C554.15,333.52,553.78,332.46,553.8,331.24Z" transform="translate(555.49,332.825) translate(-555.49,-332.825)"/>
        </g>
        <g id="#dff3efff" transform="translate(255.925,291.873) translate(-349.995,-376.005)">
            <path fill="#dff3ef" opacity="1" d="M163.83,375.94C165.16,375.23,166.5,374.53,167.84,373.82C167.82,375.27,167.83,376.72,167.85,378.18C166.53,377.4,165.17,376.67,163.83,375.94Z" transform="translate(165.84,376) translate(-165.84,-376)"/>
            <path fill="#dff3ef" opacity="1" d="M532.17,373.84C533.5,374.54,534.82,375.23,536.16,375.94C534.8,376.67,533.45,377.41,532.12,378.19C532.15,376.73,532.16,375.28,532.17,373.84Z" transform="translate(534.14,376.015) translate(-534.14,-376.015)"/>
        </g>
        <g id="#e74c82ff" transform="translate(285.394,350.194) translate(-379.464,-434.326)">
            <path fill="#e74c82" opacity="1" d="M251.16,393.19C263.07,391.32,275.12,390.5,287.1,389.16C303.56,396.48,321.22,400.93,339.17,402.44C363.98,404.49,389.22,399.78,411.95,389.72C414.19,388.94,416.61,389.73,418.93,389.81C428.98,390.61,438.98,391.86,448.99,393.04C449.64,393.61,450.29,394.18,450.95,394.76C424.23,418.63,388.89,432.81,353,433.18C323.57,433.96,294.07,425.61,269.21,409.89C262.07,405.14,254.84,400.36,248.81,394.2C249.4,393.95,250.57,393.44,251.16,393.19Z" transform="translate(349.88,411.195) translate(-349.88,-411.195)"/>
            <path fill="#e74c82" opacity="1" d="M475.81,397.43C483.95,398.65,491.97,400.55,500.02,402.28C503.71,402.94,506.99,404.98,508.97,408.2C509.64,410.65,509.93,413.19,509.97,415.73C509.89,430.37,509.82,445.02,510,459.67C509.97,464.37,510.71,469.35,508.83,473.8C506.84,478.26,501.48,480.2,496.88,479.26C489.85,477.97,482.89,476.33,475.9,474.85C475.73,449.05,475.92,423.24,475.81,397.43Z" transform="translate(492.964,438.461) translate(-492.964,-438.461)"/>
        </g>
        <g id="#e96594ff" transform="translate(238.989,352.016) translate(-333.059,-436.148)">
            <path fill="#e96594" opacity="1" d="M236.3,395.48C241.28,394.91,246.16,393.62,251.16,393.19C250.57,393.44,249.4,393.95,248.81,394.2C254.84,400.36,262.07,405.14,269.21,409.89C294.07,425.61,323.57,433.96,353,433.18C388.89,432.81,424.23,418.63,450.95,394.76C450.29,394.18,449.64,393.61,448.99,393.04C453.92,393.85,458.83,394.71,463.77,395.43C467.77,396.12,471.78,396.8,475.81,397.43C475.92,423.24,475.73,449.05,475.9,474.85C428.17,466.1,379.47,463.59,331.01,464.5C295.29,465.43,259.56,468.36,224.38,474.76C216.49,475.84,208.85,478.28,200.94,479.19C197.1,479.71,193.99,477.03,191.44,474.56C190.19,469.75,190.11,464.76,190.29,459.83C190.33,445.12,190.36,430.4,190.26,415.69C190.31,413.21,190.57,410.73,191.12,408.32C193.09,405.19,196.26,403.08,199.91,402.46C211.97,399.8,224.1,397.44,236.3,395.48Z" transform="translate(333.059,436.148) translate(-333.059,-436.148)"/>
        </g>
        <g id="#e63768ff" transform="translate(241.342,398.944) translate(-335.412,-483.076)">
            <path fill="#e63768" opacity="1" d="M145.99,447.44C153.91,445.52,161.88,443.78,169.92,442.41C176.3,448.67,182.15,455.75,190.29,459.83C190.11,464.76,190.19,469.75,191.44,474.56C191.04,488.44,191.47,502.33,191.18,516.21C178.16,517.94,165.25,520.4,152.44,523.24C149.7,523.79,146.71,524.2,144.12,522.89C140.34,521.25,137.96,517.19,138.11,513.11C138.05,494.74,138.08,476.35,138.1,457.98C137.81,453.15,141.25,448.46,145.99,447.44Z" transform="translate(164.757,483.086) translate(-164.757,-483.086)"/>
            <path fill="#e63768" opacity="1" d="M510,459.67C518.05,455.62,523.77,448.53,530.14,442.39C530.79,442.47,532.09,442.64,532.75,442.73C532.6,468.55,532.71,494.38,532.66,520.2C517.94,517.23,503.06,515.14,488.15,513.48C485.32,513.1,482.26,512.91,479.95,511.05C477.04,509.03,475.64,505.45,475.78,501.98C475.81,492.94,475.64,483.89,475.9,474.85C482.89,476.33,489.85,477.97,496.88,479.26C501.48,480.2,506.84,478.26,508.83,473.8C510.71,469.35,509.97,464.37,510,459.67Z" transform="translate(504.251,481.295) translate(-504.251,-481.295)"/>
        </g>
        <g id="#cd305aff" transform="translate(282.536,399.233) translate(-376.606,-483.365)">
            <path fill="#cd305a" opacity="1" d="M532.75,442.73C540.01,444.03,547.26,445.54,554.41,447.38C559.01,448.57,562.4,453.2,562,457.97C561.94,476.68,562.04,495.4,561.95,514.11C561.94,520.04,555.81,524.99,550,523.83C544.2,522.75,538.44,521.4,532.66,520.2C532.71,494.38,532.6,468.55,532.75,442.73Z" transform="translate(547.346,483.365) translate(-547.346,-483.365)"/>
            <path fill="#cd305a" opacity="1" d="M191.18,516.21C191.47,502.33,191.04,488.44,191.44,474.56C193.99,477.03,197.1,479.71,200.94,479.19C208.85,478.28,216.49,475.84,224.38,474.76C224.41,483.17,224.37,491.58,224.41,499.99C224.41,503.37,224.26,507.14,221.75,509.73C219.44,512.62,215.59,513.24,212.13,513.61C205.13,514.33,198.16,515.36,191.18,516.21Z" transform="translate(207.795,495.385) translate(-207.795,-495.385)"/>
        </g>
    </g>
</svg>
