<svg xmlns="http://www.w3.org/2000/svg" shape-rendering="geometricPrecision" text-rendering="geometricPrecision" viewBox="0 0 1000 650" style="white-space: pre;">
    <g id="#f8fafbff" transform="translate(197.886,118.141)"/>
    <g transform="translate(513.954,380.595) translate(-396.887,-229.178)">
        <g id="#eb6368ff" transform="translate(377.389,71.9033) translate(-293.859,-99.7568)">
            <path fill="#eb6368" opacity="1" d="M489.87,35.95C492.52,33.03,494.84,29.19,498.96,28.26C502.97,27,507.4,28.78,509.89,32.07C515.27,38.75,520.65,45.46,525.58,52.49C516.07,63.54,506.3,74.38,496.97,85.59C472.11,114.37,447.12,143.04,422.07,171.66C421.05,162.14,420.97,152.55,420.13,143.02C420.13,135.98,418.94,129.01,419.01,121.97C418.9,119.33,420.32,116.98,421.92,115.01C444.58,88.66,467.25,62.33,489.87,35.95Z" transform="translate(472.292,99.7568) translate(-472.292,-99.7568)"/>
            <path fill="#eb6368" opacity="1" d="M102.6,81.52C105.72,85.7,110.13,88.59,114.15,91.82C126.16,101.39,138.13,111.01,150.15,120.57C137.78,136.08,125.37,151.55,113.03,167.09C111.46,169,109.63,171.1,106.98,171.35C104.4,171.8,102.08,170.3,100.16,168.78C88.53,159.4,76.83,150.12,65.17,140.79C61.71,138.38,61.1,133.16,63.92,130.04C76.77,113.83,89.78,97.75,102.6,81.52Z" transform="translate(106.144,126.476) translate(-106.144,-126.476)"/>
        </g>
        <g id="#94bad2ff" transform="translate(545.248,210.096) translate(-461.718,-237.95)">
            <path fill="#94bad2" opacity="1" d="M525.58,52.49L525.67,52.4C547.39,83.49,562.16,119.46,567.94,156.98C577.07,214.03,565.42,274.11,535.53,323.55C526.68,338.37,515.91,351.88,505.87,365.88C491.94,385.12,477.61,404.08,463.93,423.5L463.8,423.43C435.59,410.73,403.37,407.36,373.01,413.1C366.1,414.26,359.51,416.96,352.46,417.32C353.01,414.6,353.73,411.81,355.61,409.67C365.03,398.01,373.87,385.9,383.12,374.1C385.61,371.03,387.48,367.29,390.75,364.95C394.63,364.22,398.7,364.83,402.5,363.56C409.54,361.14,414.81,354.36,415.48,346.95C416,342.87,414.27,339,413.86,335C414.05,333.49,415.21,332.31,416.03,331.08C422.12,323.49,427.97,315.72,433.93,308.02C436.28,305.08,438.14,301.63,441.11,299.25C444.63,297.55,448.73,297.25,452.07,295.11C457.14,291.81,460.8,286.11,460.96,279.99C461.31,276.65,460.7,272.86,463,270.08C469.75,261.14,476.89,252.49,483.42,243.38C486.01,239.9,487.82,235.86,490.67,232.57C493.6,230.03,497.63,229.14,500.47,226.45C505.58,221.63,508.06,213.91,506.03,207.09C505.19,203.76,503.76,200.34,504.68,196.86C507.9,183.85,509.32,170.38,508.61,156.99C508.04,145.53,505.68,134.28,503.73,123.01C501.44,110.54,499.43,98.02,496.97,85.59C506.3,74.38,516.07,63.54,525.58,52.49Z" transform="translate(461.718,237.95) translate(-461.718,-237.95)"/>
        </g>
        <g id="#ebe1ddff" transform="translate(330.535,235.299) translate(-247.005,-263.153)">
            <path fill="#ebe1dd" opacity="1" d="M102.6,81.52C101.59,77.15,104.26,71.8,108.92,71.09C112.23,70.48,115.01,72.67,117.44,74.59C166.3,113.71,215.23,152.74,264.16,191.77C266.8,193.83,269.25,196.18,272.12,197.92C274.33,196.36,275.85,193.3,278.89,193.39C284.95,193.06,290.95,194.41,297.01,194.34C305.3,194.33,313.58,196.15,321.86,195.2C326.66,191.68,328.62,183.03,335.96,184.27C364.97,186.38,394.11,186.39,423.07,189.16C421.07,192.96,418.25,196.21,415.64,199.59C358.31,273.99,301.19,348.55,243.84,422.94C236.91,432.06,229.87,441.11,223.02,450.29C212.77,447.8,202.59,445.03,192.32,442.61C174.55,438.48,155.91,438.27,138.03,441.87C115.68,446.41,93.31,450.88,70.94,455.32C83.16,439.11,96.1,423.46,108.62,407.49C133.86,375.25,159.06,342.97,184.39,310.81C180.71,305.19,175.35,301.04,171.12,295.9C166.77,290.58,161.49,286.12,157.19,280.76C153.62,276.32,149.02,272.88,145.34,268.55C141.32,263.91,136.79,259.76,132.82,255.09C130.69,252.54,128.76,249.5,128.86,246.06C128.78,242.32,130.93,239.06,133.15,236.23C140.57,227,147.93,217.71,155.32,208.46C158.03,204.93,162.48,202.41,167.02,203.11C170.75,203.74,173.97,205.88,177.1,207.88C182.51,211.52,188.46,214.27,193.84,217.97C186.6,227.98,178.4,237.26,170.99,247.15C181.78,259.77,193.18,271.86,204.09,284.39C208.7,280.17,212.19,274.94,216.06,270.07C231.57,250.25,247.21,230.54,262.75,210.76C261.28,209.35,259.75,208.01,258.18,206.72C222.19,177.98,186.2,149.24,150.15,120.57C138.13,111.01,126.16,101.39,114.15,91.82C110.13,88.59,105.72,85.7,102.6,81.52Z" transform="translate(247.005,263.153) translate(-247.005,-263.153)"/>
        </g>
        <g id="#76a7c6ff" transform="translate(449.435,245.483) translate(-365.905,-273.337)">
            <path fill="#76a7c6" opacity="1" d="M422.07,171.66C447.12,143.04,472.11,114.37,496.97,85.59C499.43,98.02,501.44,110.54,503.73,123.01C505.68,134.28,508.04,145.53,508.61,156.99C509.32,170.38,507.9,183.85,504.68,196.86C503.76,200.34,505.19,203.76,506.03,207.09C508.06,213.91,505.58,221.63,500.47,226.45C497.63,229.14,493.6,230.03,490.67,232.57C487.82,235.86,486.01,239.9,483.42,243.38C476.89,252.49,469.75,261.14,463,270.08C460.7,272.86,461.31,276.65,460.96,279.99C460.8,286.11,457.14,291.81,452.07,295.11C448.73,297.25,444.63,297.55,441.11,299.25C438.14,301.63,436.28,305.08,433.93,308.02C427.97,315.72,422.12,323.49,416.03,331.08C415.21,332.31,414.05,333.49,413.86,335C414.27,339,416,342.87,415.48,346.95C414.81,354.36,409.54,361.14,402.5,363.56C398.7,364.83,394.63,364.22,390.75,364.95C387.48,367.29,385.61,371.03,383.12,374.1C373.87,385.9,365.03,398.01,355.61,409.67C353.73,411.81,353.01,414.6,352.46,417.32C359.51,416.96,366.1,414.26,373.01,413.1C403.37,407.36,435.59,410.73,463.8,423.43C458.79,430.54,453.56,437.5,448.44,444.53C421.55,434.06,391.15,433.03,363.62,441.66C348.86,446.25,334.1,450.84,319.34,455.42C297.71,462.06,274.32,462.93,252.3,457.67C242.52,455.28,232.79,452.69,223.02,450.29C229.87,441.11,236.91,432.06,243.84,422.94C301.19,348.55,358.31,273.99,415.64,199.59C418.25,196.21,421.07,192.96,423.07,189.16C422.9,183.32,422.03,177.52,422.07,171.66Z" transform="translate(365.905,273.337) translate(-365.905,-273.337)"/>
        </g>
        <g id="#83d8f7ff" transform="translate(396.526,418.168) scale(1.55913,1) translate(-313.125,-460.022)">
            <path fill="#83d8f7" opacity="1" d="M563.29,431.26C564.64,430.06,566.32,430.61,567.45,431.82C567.19,440.64,567.6,449.47,567.12,458.28C563.46,459.71,559.92,461.41,556.57,463.45C527.88,480.36,492.46,484.85,460.29,476.61C450.7,474.2,441.64,470.07,432,467.84C410.23,462.5,387.07,463.16,365.58,469.52C349.73,474.28,333.99,479.42,318.13,484.18C295.71,490.89,271.48,491.13,248.86,485.29C236.34,482.07,223.79,478.96,211.29,475.71C200.39,472.97,189.54,469.79,178.33,468.56C165.57,467.17,152.59,467.45,139.98,469.89C118.62,474.11,97.27,478.4,75.93,482.72C70.09,483.89,63.81,484.24,58.8,487.83C59.31,479.21,58.76,470.57,59.04,461.95C59,460.22,59.66,458.29,61.38,457.59C64.44,456.37,67.73,455.98,70.94,455.32C93.31,450.88,115.68,446.41,138.03,441.87C155.91,438.27,174.55,438.48,192.32,442.61C202.59,445.03,212.77,447.8,223.02,450.29C232.79,452.69,242.52,455.28,252.3,457.67C274.32,462.93,297.71,462.06,319.34,455.42C334.1,450.84,348.86,446.25,363.62,441.66C391.15,433.03,421.55,434.06,448.44,444.53C481.07,456.73,518.68,454.54,549.76,438.83C554.44,436.62,558.75,433.74,563.29,431.26Z" transform="translate(313.125,460.022) translate(-313.125,-460.022)"/>
        </g>
        <g id="#aae4f9ff" transform="translate(396.887,424.161) scale(1.55913,1) translate(-313.357,-466.015)">
            <path fill="#aae4f9" opacity="1" d="M567.45,431.82C568.3,440.18,567.69,448.61,567.85,457C567.07,470.64,567.86,484.32,567.37,497.97C567.47,500.27,564.56,500.05,563,500.2C398.67,500.2,234.34,500.18,70.01,500.21C67.01,500.2,63.73,499.68,61.64,497.31C59.03,494.88,59.1,491.1,58.8,487.83C63.81,484.24,70.09,483.89,75.93,482.72C97.27,478.4,118.62,474.11,139.98,469.89C152.59,467.45,165.57,467.17,178.33,468.56C189.54,469.79,200.39,472.97,211.29,475.71C223.79,478.96,236.34,482.07,248.86,485.29C271.48,491.13,295.71,490.89,318.13,484.18C333.99,479.42,349.73,474.28,365.58,469.52C387.07,463.16,410.23,462.5,432,467.84C441.64,470.07,450.7,474.2,460.29,476.61C492.46,484.85,527.88,480.36,556.57,463.45C559.92,461.41,563.46,459.71,567.12,458.28C567.6,449.47,567.19,440.64,567.45,431.82Z" transform="translate(313.357,466.015) translate(-313.357,-466.015)"/>
        </g>
    </g>
    <text fill="#00a07b" font-size="95" font-family="Ubuntu" letter-spacing="0" word-spacing="0" stroke="none" font-weight="700" transform="translate(215.608,120.095)" style="line-height: 16px;">Custom Help</text>
</svg>
