<svg xmlns="http://www.w3.org/2000/svg" viewBox="0 0 1000 1000" text-rendering="geometricPrecision" shape-rendering="geometricPrecision" style="white-space: pre;">
    <defs>
        <radialGradient id="Gradient-0" cx="-20.4119" cy="-21.8699" r="109.317" fx="-20.4119" fy="-21.8699" gradientUnits="userSpaceOnUse">
            <stop offset="0" stop-color="#dedede"/>
            <stop offset="1" stop-color="#2f2f2f"/>
        </radialGradient>
    </defs>
    <g transform="translate(482.12,575.18) translate(-468.185,-246.71)">
        <ellipse rx="86.0215" ry="86.0215" fill="url(#Gradient-0)" stroke="none" stroke-width="0" transform="translate(444.997,408.238) scale(0.215152,0.215152)"/>
        <ellipse rx="86.0215" ry="86.0215" fill="url(#Gradient-0)" stroke="none" stroke-width="0" transform="translate(407.609,408.238) scale(0.215152,0.215152)"/>
        <ellipse rx="86.0215" ry="86.0215" fill="url(#Gradient-0)" stroke="none" stroke-width="0" transform="translate(434.61,413.651) scale(0.215152,0.215152)"/>
        <g transform="translate(338.602,330.705) translate(-136.944,-133.254)">
            <path d="M0,600C0,600,0,120,0,120C50.2462,132.085,100.492,144.169,196,141C291.508,137.831,432.277,119.408,509,113C585.723,106.592,598.4,112.2,678,116C757.6,119.8,904.123,121.792,1004,126C1103.88,130.208,1157.11,136.631,1222,136C1286.89,135.369,1363.45,127.685,1440,120C1440,120,1440,600,1440,600Z" stroke="none" stroke-width="0" fill="#1fc59f" fill-opacity="0.265" class="transition-all duration-300 ease-in-out delay-150 path-0" transform="translate(149.466,122.115) rotate(44.2355) skewX(-1.52906) scale(0.219287,0.0700348) translate(-720,-355.043)"/>
            <path d="M0,600C0,600,0,240,0,240C98.1897,236.567,196.379,233.133,262,229C327.621,224.867,360.672,220.033,446,214C531.328,207.967,668.933,200.733,751,205C833.067,209.267,859.595,225.033,937,225C1014.41,224.967,1142.69,209.133,1235,209C1327.31,208.867,1383.66,224.433,1440,240C1440,240,1440,600,1440,600Z" stroke="none" stroke-width="0" fill="#1fc59f" fill-opacity="0.4" class="transition-all duration-300 ease-in-out delay-150 path-1" transform="translate(147.116,124.403) rotate(44.2355) skewX(-1.52906) scale(0.219287,0.0700348) translate(-720,-401.858)"/>
            <path d="M0,600C0,600,0,360,0,360C98.9923,358.431,197.985,356.862,266,365C334.015,373.138,371.054,390.985,455,392C538.946,393.015,669.8,377.2,750,370C830.2,362.8,859.746,364.215,925,372C990.254,379.785,1091.22,393.938,1183,393C1274.78,392.062,1357.39,376.031,1440,360C1440,360,1440,600,1440,600Z" stroke="none" stroke-width="0" fill="#1fc59f" fill-opacity="0.53" class="transition-all duration-300 ease-in-out delay-150 path-2" transform="translate(143.225,128.192) rotate(44.2355) skewX(-1.52906) scale(0.219287,0.0700348) translate(-720,-479.369)"/>
            <path d="M0,600C0,600,0,480,0,480C68.3846,489.51,136.769,499.021,218,485C299.231,470.979,393.308,433.428,475,444C556.692,454.572,626,513.267,713,518C800,522.733,904.692,473.505,994,470C1083.31,466.495,1157.23,508.713,1229,518C1300.77,527.287,1370.38,503.644,1440,480C1440,480,1440,600,1440,600Z" stroke="none" stroke-width="0" fill="#1fc59f" fill-opacity="1" class="transition-all duration-300 ease-in-out delay-150 path-3" transform="translate(141.132,130.23) rotate(44.2355) skewX(-1.52906) scale(0.219287,0.0700348) translate(-720,-521.075)"/>
            <path d="M0,600C0,600,0,120,0,120C50.2462,132.085,100.492,144.169,196,141C291.508,137.831,432.277,119.408,509,113C585.723,106.592,598.4,112.2,678,116C757.6,119.8,904.123,121.792,1004,126C1103.88,130.208,1157.11,136.631,1222,136C1286.89,135.369,1363.45,127.685,1440,120C1440,120,1440,600,1440,600Z" stroke="none" stroke-width="0" fill="#1fc59f" fill-opacity="0.265" class="transition-all duration-300 ease-in-out delay-150 path-0" transform="translate(125.419,145.362) rotate(-135.765) skewX(-1.52906) scale(0.219287,0.0700348) translate(-720,-355.043)"/>
            <path d="M0,600C0,600,0,240,0,240C98.1897,236.567,196.379,233.133,262,229C327.621,224.867,360.672,220.033,446,214C531.328,207.967,668.933,200.733,751,205C833.067,209.267,859.595,225.033,937,225C1014.41,224.967,1142.69,209.133,1235,209C1327.31,208.867,1383.66,224.433,1440,240C1440,240,1440,600,1440,600Z" stroke="none" stroke-width="0" fill="#1fc59f" fill-opacity="0.4" class="transition-all duration-300 ease-in-out delay-150 path-1" transform="translate(127.769,143.074) rotate(-135.765) skewX(-1.52906) scale(0.219287,0.0700348) translate(-720,-401.858)"/>
            <path d="M0,600C0,600,0,360,0,360C98.9923,358.431,197.985,356.862,266,365C334.015,373.138,371.054,390.985,455,392C538.946,393.015,669.8,377.2,750,370C830.2,362.8,859.746,364.215,925,372C990.254,379.785,1091.22,393.938,1183,393C1274.78,392.062,1357.39,376.031,1440,360C1440,360,1440,600,1440,600Z" stroke="none" stroke-width="0" fill="#1fc59f" fill-opacity="0.53" class="transition-all duration-300 ease-in-out delay-150 path-2" transform="translate(131.659,139.285) rotate(-135.765) skewX(-1.52906) scale(0.219287,0.0700348) translate(-720,-479.369)"/>
            <path d="M0,600C0,600,0,480,0,480C68.3846,489.51,136.769,499.021,218,485C299.231,470.979,393.308,433.428,475,444C556.692,454.572,626,513.267,713,518C800,522.733,904.692,473.505,994,470C1083.31,466.495,1157.23,508.713,1229,518C1300.77,527.287,1370.38,503.644,1440,480C1440,480,1440,600,1440,600Z" stroke="none" stroke-width="0" fill="#1fc59f" fill-opacity="1" class="transition-all duration-300 ease-in-out delay-150 path-3" transform="translate(133.753,137.247) rotate(-135.765) skewX(-1.52906) scale(0.219287,0.0700348) translate(-720,-521.075)"/>
        </g>
        <g transform="translate(660.822,367.1) rotate(19.8472) translate(-133.254,-137.445)">
            <path d="M-187.4,602.421C-177.315,383.269,-109.86,228.019,0,120C60.45,86.8864,142.103,122.05,225.487,172.585C322.607,213.892,434.193,172.254,509,113C585.723,106.592,615.498,43.562,695.098,47.362C774.698,51.162,904.123,121.792,1004,126C1098.31,174.71,1152.53,176.609,1222,136C1286.89,135.369,1363.45,127.685,1440,120C1440,120,1440,600,1440,600Z" stroke="none" stroke-width="0" fill="#1fc59f" fill-opacity="0.265" class="transition-all duration-300 ease-in-out delay-150 path-0" transform="translate(145.361,150.466) rotate(134.236) skewX(-1.52906) scale(0.219287,0.0700348) translate(-720,-355.043)"/>
            <path d="M0,600C0,600,0,120,0,120C50.2462,132.085,100.492,144.169,196,141C263.577,195.611,384.101,219.066,509,113C585.723,106.592,607.629,62.2006,687.229,66.0006C827.82,4.73127,941.867,97.3189,1010.03,112.07C1109.91,116.278,1147.9,182.183,1212.79,181.552C1262.9,157.371,1324.3,65.2857,1440,120C1536.15,204.484,1606.96,346.97,1623.67,595.005Z" stroke="none" stroke-width="0" fill="#1fc59f" fill-opacity="0.265" class="transition-all duration-300 ease-in-out delay-150 path-0" transform="translate(122.114,125.419) rotate(-45.765) skewX(-1.52906) scale(0.219287,0.0700348) translate(-720,-355.043)"/>
        </g>
        <g transform="translate(613.102,310.172) scale(1.11179,1.09246) translate(-127.889,-130.921)">
            <path d="M-51.1644,596.273C-49.4742,484.96,-32.5212,418.257,0,390.799C83.5726,373.443,136.419,323.796,262,384.407C330.524,428.938,363.893,431.278,446,375.69C520.599,312.635,659.645,316.43,751,370.46C843.045,446.81,865.232,423.834,937,382.082C1021.66,320.186,1150.06,309.987,1235,372.784C1332.29,433.778,1386.74,419.502,1440,390.799C1440,390.799,1440,600,1440,600Z" stroke="none" stroke-width="0" fill="#1fc59f" fill-opacity="0.4" class="transition-all duration-300 ease-in-out delay-150 path-1" transform="translate(139.497,142.416) rotate(134.236) skewX(-1.52906) scale(0.219287,0.0700348) translate(-720,-401.858)"/>
            <path d="M0,600C0,600,0,415.583,0,415.583C82.218,482.186,184.337,459.841,262,409.948C315.989,373.432,317.051,359.036,415,406.468C484.964,472.064,621.571,474.628,720,401.858C792.813,373.458,851.356,380.684,937,407.899C1015.65,443.75,1144.3,446.548,1235,399.703C1317.08,342.794,1373.26,343.658,1440,415.583C1468.84,457.741,1487.71,518.037,1493.89,601.418Z" stroke="none" stroke-width="0" fill="#1fc59f" fill-opacity="0.4" class="transition-all duration-300 ease-in-out delay-150 path-1" transform="translate(119.826,123.069) rotate(-45.765) skewX(-1.52906) scale(0.219287,0.0700348) translate(-720,-401.858)"/>
        </g>
        <g transform="translate(581.029,283.081) rotate(-1.28596) scale(0.798828,1.12172) translate(-122.023,-124.898)">
            <path d="M-59.5415,593.689C-66.2915,469.365,-36.7513,413.196,-0.247355,370.105C86.5701,293.94,187.446,292.287,266,365C339.674,408.281,380.607,450.313,455,392C537.911,311.213,668.86,302.891,750,370C835.613,411.632,865.9,419.725,925,372C990.383,330.361,1091.41,322.521,1183,393C1294.36,472.612,1370.39,429.508,1440,360C1440,360,1440,600,1440,600Z" stroke="none" stroke-width="0" fill="#1fc59f" fill-opacity="0.53" class="transition-all duration-300 ease-in-out delay-150 path-2" transform="translate(128.131,130.745) rotate(134.236) skewX(-1.52906) scale(0.219287,0.0700348) translate(-720,-479.369)"/>
            <path d="M0,600C0,600,0,360,0,360C107.786,444.653,206.57,441.039,266,365C319.184,326.061,343.631,303.939,455,392C543.049,475.879,674.835,478.888,750,370C823.772,334.408,845.371,300.722,925,372C993.159,425.044,1095.96,467.782,1183,393C1262.55,329.391,1342.91,301.865,1440,360C1468.75,393.159,1489.32,475.633,1502.26,603.994Z" stroke="none" stroke-width="0" fill="#1fc59f" fill-opacity="0.53" class="transition-all duration-300 ease-in-out delay-150 path-2" transform="translate(116.038,119.179) rotate(-45.765) skewX(-1.52906) scale(0.219287,0.0700348) translate(-720,-479.369)"/>
        </g>
        <g transform="translate(533.117,276.724) rotate(-17.8657) scale(0.96944,1.12306) translate(-115.659,-118.874)">
            <path d="M-31.4758,598.779C-39.2947,501.379,-21.2833,475.357,0,480C68.3846,489.51,136.769,499.021,218,485C299.231,470.979,393.308,433.428,475,444C556.692,454.572,626,513.267,713,518C800,522.733,904.692,473.505,994,470C1083.31,466.495,1157.23,508.713,1229,518C1300.77,527.287,1370.38,503.644,1440,480C1440,480,1440,600,1440,600Z" stroke="none" stroke-width="0" fill="#1fc59f" fill-opacity="1" class="transition-all duration-300 ease-in-out delay-150 path-3" transform="translate(121.017,124.464) rotate(134.236) skewX(-1.52906) scale(0.219287,0.0700348) translate(-720,-521.075)"/>
            <path d="M0,600C0,600,0,480,0,480C68.3846,489.51,136.769,499.021,218,485C299.231,470.979,393.308,433.428,475,444C556.692,454.572,626,513.267,713,518C800,522.733,904.692,473.505,994,470C1083.31,466.495,1157.23,508.713,1229,518C1300.32,517.605,1366.72,425.306,1440,480C1454.46,510.304,1465.44,547.032,1470.98,589.753Z" stroke="none" stroke-width="0" fill="#1fc59f" fill-opacity="1" class="transition-all duration-300 ease-in-out delay-150 path-3" transform="translate(114,117.085) rotate(-45.765) skewX(-1.52906) scale(0.219287,0.0700348) translate(-720,-521.075)"/>
        </g>
        <rect width="257.739" height="128.63" fill="#8a8a8a" stroke-linecap="square" rx="20" stroke="none" transform="translate(136.771,136.772) rotate(45) translate(-129.109,-64.3152)"/>
        <rect width="217.682" height="100.36" stroke="none" fill="#1fc59f" stroke-linecap="square" stroke-width="0" rx="20" transform="translate(150.764,150.765) rotate(45) translate(-108.841,-50.18)"/>
        <path fill="#ffffff" stroke="none" d="M1.55371,-10.0151L7.60059,-10.603C7.96452,-8.5734,8.70288,-7.08268,9.81567,-6.13086C10.9285,-5.17904,12.4297,-4.70312,14.3193,-4.70312C16.321,-4.70312,17.8292,-5.12655,18.844,-5.97339C19.8588,-6.82023,20.3662,-7.81055,20.3662,-8.94434C20.3662,-9.6722,20.1528,-10.2916,19.7258,-10.8025C19.2989,-11.3134,18.5535,-11.7578,17.4897,-12.1357C16.7619,-12.3877,15.1032,-12.8356,12.5137,-13.4795C9.18229,-14.3053,6.84473,-15.3201,5.50098,-16.5239C3.61133,-18.2176,2.6665,-20.2822,2.6665,-22.7178C2.6665,-24.2855,3.11092,-25.7517,3.99976,-27.1165C4.88859,-28.4812,6.16935,-29.5205,7.84204,-30.2344C9.51473,-30.9482,11.5339,-31.3052,13.8994,-31.3052C17.7627,-31.3052,20.6707,-30.4583,22.6233,-28.7646C24.5759,-27.071,25.6012,-24.8104,25.6992,-21.9829L19.4844,-21.71C19.2184,-23.2917,18.648,-24.429,17.7732,-25.1218C16.8984,-25.8147,15.5861,-26.1611,13.8364,-26.1611C12.0308,-26.1611,10.617,-25.7902,9.59521,-25.0483C8.93734,-24.5724,8.6084,-23.9355,8.6084,-23.1377C8.6084,-22.4098,8.91634,-21.7869,9.53223,-21.269C10.3161,-20.6112,12.2197,-19.9253,15.2432,-19.2114C18.2666,-18.4976,20.5027,-17.7592,21.9514,-16.9963C23.4001,-16.2335,24.5339,-15.1907,25.3528,-13.8679C26.1716,-12.5452,26.5811,-10.911,26.5811,-8.96533C26.5811,-7.20166,26.0911,-5.54997,25.1113,-4.01025C24.1315,-2.47054,22.7458,-1.32625,20.9541,-0.577393C19.1624,0.171468,16.9299,0.545898,14.2563,0.545898C10.3651,0.545898,7.37663,-0.353434,5.29102,-2.1521C3.2054,-3.95076,1.95964,-6.57178,1.55371,-10.0151ZM30.5562,-15.2012C30.5562,-18.3366,31.0251,-20.9681,31.9629,-23.0957C32.6628,-24.6634,33.6181,-26.0701,34.8289,-27.3159C36.0396,-28.5617,37.3659,-29.4855,38.8076,-30.0874C40.7253,-30.8993,42.9368,-31.3052,45.4424,-31.3052C49.9775,-31.3052,53.6064,-29.8984,56.3289,-27.085C59.0514,-24.2715,60.4126,-20.3592,60.4126,-15.3481C60.4126,-10.3791,59.0618,-6.49129,56.3604,-3.68481C53.6589,-0.878337,50.0475,0.524902,45.5264,0.524902C40.9492,0.524902,37.3099,-0.871338,34.6084,-3.66382C31.9069,-6.4563,30.5562,-10.3021,30.5562,-15.2012ZM36.96,-15.4111C36.96,-11.9258,37.7648,-9.28377,39.3745,-7.48511C40.9842,-5.68644,43.0278,-4.78711,45.5054,-4.78711C47.9829,-4.78711,50.016,-5.67944,51.6047,-7.46411C53.1934,-9.24878,53.9878,-11.9258,53.9878,-15.4951C53.9878,-19.0225,53.2144,-21.654,51.6677,-23.3896C50.121,-25.1253,48.0669,-25.9932,45.5054,-25.9932C42.9438,-25.9932,40.8792,-25.1148,39.3115,-23.3582C37.7438,-21.6015,36.96,-18.9525,36.96,-15.4111ZM65.2271,-30.7803L71.4419,-30.7803L71.4419,-14.1094C71.4419,-11.4639,71.5189,-9.74919,71.6729,-8.96533C71.9388,-7.70557,72.5722,-6.69425,73.573,-5.9314C74.5738,-5.16854,75.9421,-4.78711,77.6777,-4.78711C79.4414,-4.78711,80.7712,-5.14754,81.667,-5.86841C82.5628,-6.58927,83.1017,-7.47461,83.2837,-8.52441C83.4657,-9.57422,83.5566,-11.3169,83.5566,-13.7524L83.5566,-30.7803L89.7715,-30.7803L89.7715,-14.6133C89.7715,-10.918,89.6035,-8.30745,89.2676,-6.78174C88.9316,-5.25602,88.3123,-3.96826,87.4094,-2.91846C86.5066,-1.86865,85.2993,-1.03231,83.7876,-0.409424C82.2759,0.21346,80.3022,0.524902,77.8667,0.524902C74.9272,0.524902,72.6982,0.185465,71.1794,-0.493408C69.6607,-1.17228,68.4604,-2.05412,67.5786,-3.13892C66.6968,-4.22371,66.1159,-5.361,65.8359,-6.55078C65.43,-8.31445,65.2271,-10.918,65.2271,-14.3613ZM96.3369,0L96.3369,-30.7803L109.417,-30.7803C112.707,-30.7803,115.097,-30.5038,116.588,-29.9509C118.078,-29.398,119.272,-28.4147,120.167,-27.001C121.063,-25.5872,121.511,-23.9705,121.511,-22.1509C121.511,-19.8413,120.832,-17.9342,119.475,-16.4294C118.117,-14.9247,116.087,-13.9764,113.386,-13.5845C114.729,-12.8006,115.839,-11.9398,116.714,-11.002C117.588,-10.0641,118.768,-8.39844,120.251,-6.00488L124.01,0L116.577,0L112.084,-6.69775C110.488,-9.09131,109.396,-10.5995,108.809,-11.2224C108.221,-11.8453,107.598,-12.2722,106.94,-12.5032C106.282,-12.7341,105.239,-12.8496,103.812,-12.8496L102.552,-12.8496L102.552,0ZM102.552,-17.7627L107.15,-17.7627C110.131,-17.7627,111.993,-17.8887,112.735,-18.1406C113.477,-18.3926,114.058,-18.8265,114.478,-19.4424C114.897,-20.0583,115.107,-20.8281,115.107,-21.752C115.107,-22.7878,114.831,-23.6241,114.278,-24.261C113.725,-24.8979,112.945,-25.3003,111.937,-25.4683C111.433,-25.5382,109.921,-25.5732,107.402,-25.5732L102.552,-25.5732ZM147.057,-11.3169L153.083,-9.40625C152.159,-6.04688,150.623,-3.55184,148.474,-1.92114C146.326,-0.290446,143.6,0.524902,140.296,0.524902C136.209,0.524902,132.85,-0.871338,130.218,-3.66382C127.587,-6.4563,126.271,-10.2741,126.271,-15.1172C126.271,-20.2402,127.594,-24.219,130.239,-27.0535C132.885,-29.8879,136.363,-31.3052,140.674,-31.3052C144.44,-31.3052,147.498,-30.1924,149.85,-27.9668C151.249,-26.651,152.299,-24.7614,152.999,-22.2979L146.847,-20.8281C146.483,-22.4238,145.724,-23.6836,144.569,-24.6074C143.414,-25.5312,142.011,-25.9932,140.359,-25.9932C138.078,-25.9932,136.227,-25.1743,134.806,-23.5366C133.385,-21.8989,132.675,-19.2464,132.675,-15.5791C132.675,-11.6878,133.375,-8.91634,134.774,-7.26465C136.174,-5.61296,137.994,-4.78711,140.233,-4.78711C141.885,-4.78711,143.306,-5.31201,144.496,-6.36182C145.685,-7.41162,146.539,-9.06331,147.057,-11.3169ZM158.41,0L158.41,-30.7803L181.232,-30.7803L181.232,-25.5732L164.625,-25.5732L164.625,-18.7495L180.078,-18.7495L180.078,-13.5635L164.625,-13.5635L164.625,-5.18604L181.82,-5.18604L181.82,0Z" fill-rule="nonzero" transform="translate(69.5236,90.6066) rotate(45)"/>
        <ellipse rx="86.0215" ry="86.0215" fill="url(#Gradient-0)" stroke="none" stroke-width="0" transform="translate(397.594,438.159) scale(0.215152,0.215152)"/>
        <ellipse rx="86.0215" ry="86.0215" fill="url(#Gradient-0)" stroke="none" stroke-width="0" transform="translate(434.594,438.159) scale(0.215152,0.215152)"/>
        <ellipse rx="86.0215" ry="86.0215" fill="url(#Gradient-0)" stroke="none" stroke-width="0" transform="translate(453.102,438.158) scale(0.215152,0.215152)"/>
        <ellipse rx="86.0215" ry="86.0215" fill="url(#Gradient-0)" stroke="none" stroke-width="0" transform="translate(482.61,419.651) scale(0.215152,0.215152)"/>
        <ellipse rx="86.0215" ry="86.0215" fill="url(#Gradient-0)" stroke="none" stroke-width="0" transform="translate(522.906,438.159) scale(0.215152,0.215152)"/>
        <ellipse rx="86.0215" ry="86.0215" fill="url(#Gradient-0)" stroke="none" stroke-width="0" transform="translate(485.891,438.159) scale(0.215152,0.215152)"/>
        <ellipse rx="86.0215" ry="86.0215" fill="url(#Gradient-0)" stroke="none" stroke-width="0" transform="translate(508.64,438.158) scale(0.215152,0.215152)"/>
        <ellipse rx="86.0215" ry="86.0215" fill="url(#Gradient-0)" stroke="none" stroke-width="0" transform="translate(471.625,438.158) scale(0.215152,0.215152)"/>
        <ellipse rx="86.0215" ry="86.0215" fill="url(#Gradient-0)" stroke="none" stroke-width="0" transform="translate(498.102,438.158) scale(0.215152,0.215152)"/>
        <rect width="301" height="48.0391" fill="#000000" stroke="none" transform="translate(462.602,475.166) translate(-150.5,-21.5)"/>
        <ellipse rx="86.0215" ry="86.0215" fill="url(#Gradient-0)" stroke="none" stroke-width="0" transform="translate(416.102,438.159) scale(0.215152,0.215152)"/>
        <ellipse rx="86.0215" ry="86.0215" fill="url(#Gradient-0)" stroke="none" stroke-width="0" transform="translate(449.224,418.993) scale(0.158702,0.158702)"/>
        <ellipse rx="86.0215" ry="86.0215" fill="url(#Gradient-0)" stroke="none" stroke-width="0" transform="translate(414.259,441.064) scale(0.158702,0.158702)"/>
        <ellipse rx="86.0215" ry="86.0215" fill="url(#Gradient-0)" stroke="none" stroke-width="0" transform="translate(407.995,441.064) scale(0.158702,0.158702)"/>
        <ellipse rx="86.0215" ry="86.0215" fill="url(#Gradient-0)" stroke="none" stroke-width="0" transform="translate(441.551,441.064) scale(0.158702,0.158702)"/>
        <ellipse rx="86.0215" ry="86.0215" fill="url(#Gradient-0)" stroke="none" stroke-width="0" transform="translate(455.203,441.063) scale(0.158702,0.158702)"/>
        <ellipse rx="86.0215" ry="86.0215" fill="url(#Gradient-0)" stroke="none" stroke-width="0" transform="translate(493.04,418.993) scale(0.158702,0.158702)"/>
        <ellipse rx="86.0215" ry="86.0215" fill="url(#Gradient-0)" stroke="none" stroke-width="0" transform="translate(476.969,427.412) scale(0.158702,0.158702)"/>
        <ellipse rx="86.0215" ry="86.0215" fill="url(#Gradient-0)" stroke="none" stroke-width="0" transform="translate(468.866,421.604) scale(0.158702,0.158702)"/>
        <ellipse rx="86.0215" ry="86.0215" fill="url(#Gradient-0)" stroke="none" stroke-width="0" transform="translate(506.692,441.064) scale(0.158702,0.158702)"/>
        <ellipse rx="86.0215" ry="86.0215" fill="url(#Gradient-0)" stroke="none" stroke-width="0" transform="translate(496.169,441.063) scale(0.158702,0.158702)"/>
        <ellipse rx="86.0215" ry="86.0215" fill="url(#Gradient-0)" stroke="none" stroke-width="0" transform="translate(514.224,427.412) scale(0.158702,0.158702)"/>
        <ellipse rx="86.0215" ry="86.0215" fill="url(#Gradient-0)" stroke="none" stroke-width="0" transform="translate(468.866,441.063) scale(0.158702,0.158702)"/>
        <ellipse rx="86.0215" ry="86.0215" fill="url(#Gradient-0)" stroke="none" stroke-width="0" transform="translate(527.876,441.064) scale(0.158702,0.158702)"/>
        <ellipse rx="86.0215" ry="86.0215" fill="url(#Gradient-0)" stroke="none" stroke-width="0" transform="translate(394.343,441.063) scale(0.158702,0.158702)"/>
        <ellipse rx="86.0215" ry="86.0215" fill="url(#Gradient-0)" stroke="none" stroke-width="0" transform="translate(488.396,441.063) scale(0.158702,0.158702)"/>
        <ellipse rx="86.0215" ry="86.0215" fill="url(#Gradient-0)" stroke="none" stroke-width="0" transform="translate(427.911,441.064) scale(0.158702,0.158702)"/>
        <ellipse rx="86.0215" ry="86.0215" fill="url(#Gradient-0)" stroke="none" stroke-width="0" transform="translate(490.203,418.668) scale(0.158702,0.158702)"/>
        <ellipse rx="86.0215" ry="86.0215" fill="url(#Gradient-0)" stroke="none" stroke-width="0" transform="translate(448.974,440.739) scale(0.158702,0.158702)"/>
        <ellipse rx="86.0215" ry="86.0215" fill="url(#Gradient-0)" stroke="none" stroke-width="0" transform="translate(496.182,440.738) scale(0.158702,0.158702)"/>
        <ellipse rx="86.0215" ry="86.0215" fill="url(#Gradient-0)" stroke="none" stroke-width="0" transform="translate(534.019,418.668) scale(0.158702,0.158702)"/>
        <ellipse rx="86.0215" ry="86.0215" fill="url(#Gradient-0)" stroke="none" stroke-width="0" transform="translate(509.845,421.279) scale(0.158702,0.158702)"/>
        <ellipse rx="86.0215" ry="86.0215" fill="url(#Gradient-0)" stroke="none" stroke-width="0" transform="translate(555.203,427.087) scale(0.158702,0.158702)"/>
        <ellipse rx="86.0215" ry="86.0215" fill="url(#Gradient-0)" stroke="none" stroke-width="0" transform="translate(509.845,440.738) scale(0.158702,0.158702)"/>
        <ellipse rx="86.0215" ry="86.0215" fill="url(#Gradient-0)" stroke="none" stroke-width="0" transform="translate(435.322,440.738) scale(0.158702,0.158702)"/>
        <ellipse rx="86.0215" ry="86.0215" fill="url(#Gradient-0)" stroke="none" stroke-width="0" transform="translate(529.375,440.738) scale(0.158702,0.158702)"/>
        <ellipse rx="86.0215" ry="86.0215" fill="url(#Gradient-0)" stroke="none" stroke-width="0" transform="translate(546.612,440.088) scale(0.158702,0.158702)"/>
        <ellipse rx="86.0215" ry="86.0215" fill="url(#Gradient-0)" stroke="none" stroke-width="0" transform="translate(468.89,440.739) scale(0.158702,0.158702)"/>
        <ellipse rx="86.0215" ry="86.0215" fill="url(#Gradient-0)" stroke="none" stroke-width="0" transform="translate(402.716,419.319) scale(0.158702,0.158702)"/>
        <ellipse rx="86.0215" ry="86.0215" fill="url(#Gradient-0)" stroke="none" stroke-width="0" transform="translate(361.487,441.39) scale(0.158702,0.158702)"/>
        <ellipse rx="86.0215" ry="86.0215" fill="url(#Gradient-0)" stroke="none" stroke-width="0" transform="translate(408.695,441.389) scale(0.158702,0.158702)"/>
        <ellipse rx="86.0215" ry="86.0215" fill="url(#Gradient-0)" stroke="none" stroke-width="0" transform="translate(446.532,419.319) scale(0.158702,0.158702)"/>
        <ellipse rx="86.0215" ry="86.0215" fill="url(#Gradient-0)" stroke="none" stroke-width="0" transform="translate(422.358,421.93) scale(0.158702,0.158702)"/>
        <ellipse rx="86.0215" ry="86.0215" fill="url(#Gradient-0)" stroke="none" stroke-width="0" transform="translate(467.716,427.738) scale(0.158702,0.158702)"/>
        <ellipse rx="86.0215" ry="86.0215" fill="url(#Gradient-0)" stroke="none" stroke-width="0" transform="translate(422.358,441.389) scale(0.158702,0.158702)"/>
        <ellipse rx="86.0215" ry="86.0215" fill="url(#Gradient-0)" stroke="none" stroke-width="0" transform="translate(481.368,441.39) scale(0.158702,0.158702)"/>
        <ellipse rx="86.0215" ry="86.0215" fill="url(#Gradient-0)" stroke="none" stroke-width="0" transform="translate(377.431,427.078) scale(0.158702,0.158702)"/>
        <ellipse rx="86.0215" ry="86.0215" fill="url(#Gradient-0)" stroke="none" stroke-width="0" transform="translate(441.888,441.389) scale(0.158702,0.158702)"/>
        <ellipse rx="86.0215" ry="86.0215" fill="url(#Gradient-0)" stroke="none" stroke-width="0" transform="translate(381.403,441.39) scale(0.158702,0.158702)"/>
        <path fill="#ffffff" stroke="none" d="M1.55371,-10.0151L7.60059,-10.603C7.96452,-8.5734,8.70288,-7.08268,9.81567,-6.13086C10.9285,-5.17904,12.4297,-4.70312,14.3193,-4.70312C16.321,-4.70312,17.8292,-5.12655,18.844,-5.97339C19.8588,-6.82023,20.3662,-7.81055,20.3662,-8.94434C20.3662,-9.6722,20.1528,-10.2916,19.7258,-10.8025C19.2989,-11.3134,18.5535,-11.7578,17.4897,-12.1357C16.7619,-12.3877,15.1032,-12.8356,12.5137,-13.4795C9.18229,-14.3053,6.84473,-15.3201,5.50098,-16.5239C3.61133,-18.2176,2.6665,-20.2822,2.6665,-22.7178C2.6665,-24.2855,3.11092,-25.7517,3.99976,-27.1165C4.88859,-28.4812,6.16935,-29.5205,7.84204,-30.2344C9.51473,-30.9482,11.5339,-31.3052,13.8994,-31.3052C17.7627,-31.3052,20.6707,-30.4583,22.6233,-28.7646C24.5759,-27.071,25.6012,-24.8104,25.6992,-21.9829L19.4844,-21.71C19.2184,-23.2917,18.648,-24.429,17.7732,-25.1218C16.8984,-25.8147,15.5861,-26.1611,13.8364,-26.1611C12.0308,-26.1611,10.617,-25.7902,9.59521,-25.0483C8.93734,-24.5724,8.6084,-23.9355,8.6084,-23.1377C8.6084,-22.4098,8.91634,-21.7869,9.53223,-21.269C10.3161,-20.6112,12.2197,-19.9253,15.2432,-19.2114C18.2666,-18.4976,20.5027,-17.7592,21.9514,-16.9963C23.4001,-16.2335,24.5339,-15.1907,25.3528,-13.8679C26.1716,-12.5452,26.5811,-10.911,26.5811,-8.96533C26.5811,-7.20166,26.0911,-5.54997,25.1113,-4.01025C24.1315,-2.47054,22.7458,-1.32625,20.9541,-0.577393C19.1624,0.171468,16.9299,0.545898,14.2563,0.545898C10.3651,0.545898,7.37663,-0.353434,5.29102,-2.1521C3.2054,-3.95076,1.95964,-6.57178,1.55371,-10.0151ZM59.5728,0L52.812,0L50.1245,-6.9917L37.8208,-6.9917L35.2803,0L28.6875,0L40.6763,-30.7803L47.248,-30.7803ZM48.1299,-12.1777L43.8887,-23.5996L39.7314,-12.1777ZM62.7788,0L62.7788,-30.7803L72.0801,-30.7803L77.665,-9.78418L83.187,-30.7803L92.5093,-30.7803L92.5093,0L86.7354,0L86.7354,-24.2295L80.6255,0L74.6416,0L68.5527,-24.2295L68.5527,0ZM98.6753,0L98.6753,-30.7803L108.648,-30.7803C112.428,-30.7803,114.891,-30.6263,116.039,-30.3184C117.803,-29.8564,119.279,-28.8521,120.469,-27.3054C121.659,-25.7587,122.254,-23.7606,122.254,-21.311C122.254,-19.4214,121.911,-17.8327,121.225,-16.5449C120.539,-15.2572,119.668,-14.2458,118.611,-13.511C117.554,-12.7761,116.48,-12.2897,115.388,-12.0518C113.904,-11.7578,111.756,-11.6108,108.942,-11.6108L104.89,-11.6108L104.89,0ZM104.89,-25.5732L104.89,-16.8389L108.292,-16.8389C110.741,-16.8389,112.379,-16.9998,113.205,-17.3218C114.03,-17.6437,114.678,-18.1476,115.147,-18.8335C115.616,-19.5194,115.85,-20.3172,115.85,-21.2271C115.85,-22.3468,115.521,-23.2707,114.863,-23.9985C114.205,-24.7264,113.373,-25.1813,112.365,-25.3633C111.623,-25.5033,110.132,-25.5732,107.893,-25.5732ZM127.531,0L127.531,-30.5283L133.746,-30.5283L133.746,-5.18604L149.199,-5.18604L149.199,0ZM153.628,0L153.628,-30.7803L176.451,-30.7803L176.451,-25.5732L159.843,-25.5732L159.843,-18.7495L175.296,-18.7495L175.296,-13.5635L159.843,-13.5635L159.843,-5.18604L177.039,-5.18604L177.039,0Z" fill-rule="nonzero" transform="translate(374.508,492.593)"/>
        <g transform="translate(519.454,102.551) scale(1.1424,1.1424) translate(-133.914,-75.3264)">
            <rect width="1280" height="720" fill="#cdcdcd" stroke="none" transform="translate(134.231,75.5049) scale(0.20924,0.20924) translate(-641.516,-360.853)"/>
            <ellipse rx="86.0215" ry="86.0215" fill="url(#Gradient-0)" stroke="none" stroke-width="0" transform="translate(30.7746,25.5229) scale(0.20924,0.20924)"/>
            <ellipse rx="86.0215" ry="86.0215" fill="url(#Gradient-0)" stroke="none" stroke-width="0" transform="translate(58.185,129.524) scale(0.20924,0.20924)"/>
            <ellipse rx="86.0215" ry="86.0215" fill="url(#Gradient-0)" stroke="none" stroke-width="0" transform="translate(63.6445,72.8254) scale(0.20924,0.20924)"/>
            <ellipse rx="86.0215" ry="86.0215" fill="url(#Gradient-0)" stroke="none" stroke-width="0" transform="translate(108.265,55.0109) scale(0.20924,0.20924)"/>
            <ellipse rx="86.0215" ry="86.0215" fill="url(#Gradient-0)" stroke="none" stroke-width="0" transform="translate(113.625,86.8871) scale(0.20924,0.20924)"/>
            <ellipse rx="86.0215" ry="86.0215" fill="url(#Gradient-0)" stroke="none" stroke-width="0" transform="translate(198.569,68.8879) scale(0.20924,0.20924)"/>
            <ellipse rx="86.0215" ry="86.0215" fill="url(#Gradient-0)" stroke="none" stroke-width="0" transform="translate(22.4918,66.1424) scale(0.20924,0.20924)"/>
            <ellipse rx="86.0215" ry="86.0215" fill="url(#Gradient-0)" stroke="none" stroke-width="0" transform="translate(82.0294,25.5227) scale(0.20924,0.20924)"/>
            <ellipse rx="86.0215" ry="86.0215" fill="url(#Gradient-0)" stroke="none" stroke-width="0" transform="translate(126.592,122.903) scale(0.20924,0.20924)"/>
            <ellipse rx="86.0215" ry="86.0215" fill="url(#Gradient-0)" stroke="none" stroke-width="0" transform="translate(138.751,25.5227) scale(0.20924,0.20924)"/>
            <ellipse rx="86.0215" ry="86.0215" fill="url(#Gradient-0)" stroke="none" stroke-width="0" transform="translate(89.5756,117.719) scale(0.20924,0.20924)"/>
            <ellipse rx="86.0215" ry="86.0215" fill="url(#Gradient-0)" stroke="none" stroke-width="0" transform="translate(157.709,56.7601) scale(0.20924,0.20924)"/>
            <ellipse rx="86.0215" ry="86.0215" fill="url(#Gradient-0)" stroke="none" stroke-width="0" transform="translate(236.232,83.0773) scale(0.20924,0.20924)"/>
            <ellipse rx="86.0215" ry="86.0215" fill="url(#Gradient-0)" stroke="none" stroke-width="0" transform="translate(157.131,87.8023) scale(0.20924,0.20924)"/>
            <ellipse rx="86.0215" ry="86.0215" fill="url(#Gradient-0)" stroke="none" stroke-width="0" transform="translate(193.995,26.743) scale(0.20924,0.20924)"/>
            <ellipse rx="86.0215" ry="86.0215" fill="url(#Gradient-0)" stroke="none" stroke-width="0" transform="translate(40.4593,103.379) scale(0.20924,0.20924)"/>
            <ellipse rx="86.0215" ry="86.0215" fill="url(#Gradient-0)" stroke="none" stroke-width="0" transform="translate(239.615,30.2191) scale(0.20924,0.20924)"/>
            <g transform="translate(201.917,125.649) scale(0.332154,0.332154) translate(-173.5,-60)" style="white-space: pre;">
                <rect width="347" height="120" fill="#ffffff" stroke="none" transform="translate(173.5,52.5) translate(-173.5,-52.5)"/>
                <path d="M0,0L306.312,0" stroke="#000000" fill="none" stroke-linecap="butt" stroke-width="26" transform="translate(173.5,33.9795) translate(-153.156,0)"/>
                <text fill="#000000" font-size="53" font-family="Arial" letter-spacing="0" word-spacing="0" stroke="none" font-weight="700" transform="translate(173.5,82.105) translate(-153.156,18.374)" style="line-height: 16px; white-space: pre;">Nanometers</text>
            </g>
        </g>
        <ellipse rx="86.0215" ry="86.0215" fill="url(#Gradient-0)" stroke="none" stroke-width="0" transform="translate(568.855,440.739) scale(0.158702,0.158702)"/>
        <path fill="#ff0000" stroke="none" d="M-19.3375,-2.975C-18.7875,-2.975,-18.3333,-3.02083,-17.975,-3.1125C-17.6167,-3.20417,-17.3292,-3.32917,-17.1125,-3.4875C-16.8958,-3.64583,-16.7458,-3.83333,-16.6625,-4.05C-16.5792,-4.26667,-16.5375,-4.50833,-16.5375,-4.775C-16.5375,-5.34167,-16.8042,-5.8125,-17.3375,-6.1875C-17.8708,-6.5625,-18.7875,-6.96667,-20.0875,-7.4C-20.6542,-7.6,-21.2208,-7.82917,-21.7875,-8.0875C-22.3542,-8.34583,-22.8625,-8.67083,-23.3125,-9.0625C-23.7625,-9.45417,-24.1292,-9.92917,-24.4125,-10.4875C-24.6958,-11.0458,-24.8375,-11.725,-24.8375,-12.525C-24.8375,-13.325,-24.6875,-14.0458,-24.3875,-14.6875C-24.0875,-15.3292,-23.6625,-15.875,-23.1125,-16.325C-22.5625,-16.775,-21.8958,-17.1208,-21.1125,-17.3625C-20.3292,-17.6042,-19.4458,-17.725,-18.4625,-17.725C-17.2958,-17.725,-16.2875,-17.6,-15.4375,-17.35C-14.5875,-17.1,-13.8875,-16.825,-13.3375,-16.525L-14.4625,-13.45C-14.9458,-13.7,-15.4833,-13.9208,-16.075,-14.1125C-16.6667,-14.3042,-17.3792,-14.4,-18.2125,-14.4C-19.1458,-14.4,-19.8167,-14.2708,-20.225,-14.0125C-20.6333,-13.7542,-20.8375,-13.3583,-20.8375,-12.825C-20.8375,-12.5083,-20.7625,-12.2417,-20.6125,-12.025C-20.4625,-11.8083,-20.25,-11.6125,-19.975,-11.4375C-19.7,-11.2625,-19.3833,-11.1042,-19.025,-10.9625C-18.6667,-10.8208,-18.2708,-10.675,-17.8375,-10.525C-16.9375,-10.1917,-16.1542,-9.8625,-15.4875,-9.5375C-14.8208,-9.2125,-14.2667,-8.83333,-13.825,-8.4C-13.3833,-7.96667,-13.0542,-7.45833,-12.8375,-6.875C-12.6208,-6.29167,-12.5125,-5.58333,-12.5125,-4.75C-12.5125,-3.13333,-13.0792,-1.87917,-14.2125,-0.9875C-15.3458,-0.0958333,-17.0542,0.35,-19.3375,0.35C-20.1042,0.35,-20.7958,0.304167,-21.4125,0.2125C-22.0292,0.120833,-22.575,0.00833334,-23.05,-0.125C-23.525,-0.258333,-23.9333,-0.4,-24.275,-0.55C-24.6167,-0.7,-24.9042,-0.841667,-25.1375,-0.975L-24.0375,-4.075C-23.5208,-3.79167,-22.8833,-3.5375,-22.125,-3.3125C-21.3667,-3.0875,-20.4375,-2.975,-19.3375,-2.975ZM-9.51562,0L-9.51562,-17.325L2.18437,-17.325L2.18437,-14.05L-5.61562,-14.05L-5.61562,-10.65L1.30938,-10.65L1.30938,-7.45L-5.61562,-7.45L-5.61562,-3.275L2.75937,-3.275L2.75937,0ZM10.2406,-17.325C10.5406,-16.775,10.8865,-16.0958,11.2781,-15.2875C11.6698,-14.4792,12.0781,-13.6042,12.5031,-12.6625C12.9281,-11.7208,13.349,-10.7583,13.7656,-9.775C14.1823,-8.79167,14.574,-7.86667,14.9406,-7C15.3073,-7.86667,15.699,-8.79167,16.1156,-9.775C16.5323,-10.7583,16.9531,-11.7208,17.3781,-12.6625C17.8031,-13.6042,18.2115,-14.4792,18.6031,-15.2875C18.9948,-16.0958,19.3406,-16.775,19.6406,-17.325L23.1906,-17.325C23.3573,-16.175,23.5115,-14.8875,23.6531,-13.4625C23.7948,-12.0375,23.9198,-10.5542,24.0281,-9.0125C24.1365,-7.47083,24.2365,-5.925,24.3281,-4.375C24.4198,-2.825,24.499,-1.36667,24.5656,0L20.7656,0C20.7156,-1.68333,20.649,-3.51667,20.5656,-5.5C20.4823,-7.48333,20.3573,-9.48333,20.1906,-11.5C19.8906,-10.8,19.5573,-10.025,19.1906,-9.175C18.824,-8.325,18.4615,-7.475,18.1031,-6.625C17.7448,-5.775,17.399,-4.9625,17.0656,-4.1875C16.7323,-3.4125,16.449,-2.75,16.2156,-2.2L13.4906,-2.2C13.2573,-2.75,12.974,-3.4125,12.6406,-4.1875C12.3073,-4.9625,11.9615,-5.775,11.6031,-6.625C11.2448,-7.475,10.8823,-8.325,10.5156,-9.175C10.149,-10.025,9.81562,-10.8,9.51562,-11.5C9.34896,-9.48333,9.22396,-7.48333,9.14062,-5.5C9.05729,-3.51667,8.99062,-1.68333,8.94062,0L5.14062,0C5.20729,-1.36667,5.28646,-2.825,5.37813,-4.375C5.46979,-5.925,5.56979,-7.47083,5.67813,-9.0125C5.78646,-10.5542,5.91146,-12.0375,6.05313,-13.4625C6.19479,-14.8875,6.34896,-16.175,6.51562,-17.325Z" fill-rule="nonzero" transform="translate(491.895,335.199) scale(2.53827,2.53827)"/>
        <path fill="#ff0000" stroke="none" d="M-11.6109,-17.325L-11.6109,-14L-16.8359,-14L-16.8359,0L-20.7359,0L-20.7359,-14L-25.9609,-14L-25.9609,-17.325ZM-9.11719,0L-9.11719,-17.325L2.58281,-17.325L2.58281,-14.05L-5.21719,-14.05L-5.21719,-10.65L1.70781,-10.65L1.70781,-7.45L-5.21719,-7.45L-5.21719,-3.275L3.15781,-3.275L3.15781,0ZM10.6391,-17.325C10.9391,-16.775,11.2849,-16.0958,11.6766,-15.2875C12.0682,-14.4792,12.4766,-13.6042,12.9016,-12.6625C13.3266,-11.7208,13.7474,-10.7583,14.1641,-9.775C14.5807,-8.79167,14.9724,-7.86667,15.3391,-7C15.7057,-7.86667,16.0974,-8.79167,16.5141,-9.775C16.9307,-10.7583,17.3516,-11.7208,17.7766,-12.6625C18.2016,-13.6042,18.6099,-14.4792,19.0016,-15.2875C19.3932,-16.0958,19.7391,-16.775,20.0391,-17.325L23.5891,-17.325C23.7557,-16.175,23.9099,-14.8875,24.0516,-13.4625C24.1932,-12.0375,24.3182,-10.5542,24.4266,-9.0125C24.5349,-7.47083,24.6349,-5.925,24.7266,-4.375C24.8182,-2.825,24.8974,-1.36667,24.9641,0L21.1641,0C21.1141,-1.68333,21.0474,-3.51667,20.9641,-5.5C20.8807,-7.48333,20.7557,-9.48333,20.5891,-11.5C20.2891,-10.8,19.9557,-10.025,19.5891,-9.175C19.2224,-8.325,18.8599,-7.475,18.5016,-6.625C18.1432,-5.775,17.7974,-4.9625,17.4641,-4.1875C17.1307,-3.4125,16.8474,-2.75,16.6141,-2.2L13.8891,-2.2C13.6557,-2.75,13.3724,-3.4125,13.0391,-4.1875C12.7057,-4.9625,12.3599,-5.775,12.0016,-6.625C11.6432,-7.475,11.2807,-8.325,10.9141,-9.175C10.5474,-10.025,10.2141,-10.8,9.91406,-11.5C9.7474,-9.48333,9.6224,-7.48333,9.53906,-5.5C9.45573,-3.51667,9.38906,-1.68333,9.33906,0L5.53906,0C5.60573,-1.36667,5.6849,-2.825,5.77656,-4.375C5.86823,-5.925,5.96823,-7.47083,6.07656,-9.0125C6.1849,-10.5542,6.3099,-12.0375,6.45156,-13.4625C6.59323,-14.8875,6.7474,-16.175,6.91406,-17.325Z" fill-rule="nonzero" transform="translate(543.125,248.051) scale(2.53827,2.53827)"/>
        <text fill="#ff0000" font-size="25" font-family="Ubuntu" letter-spacing="0" word-spacing="0" stroke="none" font-weight="700" text-anchor="middle" transform="translate(668.028,364.518) rotate(14.8654) scale(2.53827,2.53827)" style="line-height: 20px; white-space: pre;">FTIR</text>
        <path fill="#ff0000" stroke="none" d="M-18.6859,-3.175C-18.5026,-3.15833,-18.2901,-3.14583,-18.0484,-3.1375C-17.8068,-3.12917,-17.5193,-3.125,-17.1859,-3.125C-15.2359,-3.125,-13.7901,-3.61667,-12.8484,-4.6C-11.9068,-5.58333,-11.4359,-6.94167,-11.4359,-8.675C-11.4359,-10.4917,-11.8859,-11.8667,-12.7859,-12.8C-13.6859,-13.7333,-15.1109,-14.2,-17.0609,-14.2C-17.3276,-14.2,-17.6026,-14.1958,-17.8859,-14.1875C-18.1693,-14.1792,-18.4359,-14.1583,-18.6859,-14.125ZM-7.41094,-8.675C-7.41094,-7.175,-7.64427,-5.86667,-8.11094,-4.75C-8.5776,-3.63333,-9.2401,-2.70833,-10.0984,-1.975C-10.9568,-1.24167,-12.0026,-0.691667,-13.2359,-0.325C-14.4693,0.0416667,-15.8526,0.225,-17.3859,0.225C-18.0859,0.225,-18.9026,0.195833,-19.8359,0.1375C-20.7693,0.0791667,-21.6859,-0.0416667,-22.5859,-0.225L-22.5859,-17.1C-21.6859,-17.2667,-20.7484,-17.3792,-19.7734,-17.4375C-18.7984,-17.4958,-17.9609,-17.525,-17.2609,-17.525C-15.7776,-17.525,-14.4318,-17.3583,-13.2234,-17.025C-12.0151,-16.6917,-10.9776,-16.1667,-10.1109,-15.45C-9.24427,-14.7333,-8.5776,-13.8167,-8.11094,-12.7C-7.64427,-11.5833,-7.41094,-10.2417,-7.41094,-8.675ZM0.560937,-2.975C1.11094,-2.975,1.5651,-3.02083,1.92344,-3.1125C2.28177,-3.20417,2.56927,-3.32917,2.78594,-3.4875C3.0026,-3.64583,3.1526,-3.83333,3.23594,-4.05C3.31927,-4.26667,3.36094,-4.50833,3.36094,-4.775C3.36094,-5.34167,3.09427,-5.8125,2.56094,-6.1875C2.0276,-6.5625,1.11094,-6.96667,-0.189063,-7.4C-0.755729,-7.6,-1.3224,-7.82917,-1.88906,-8.0875C-2.45573,-8.34583,-2.96406,-8.67083,-3.41406,-9.0625C-3.86406,-9.45417,-4.23073,-9.92917,-4.51406,-10.4875C-4.7974,-11.0458,-4.93906,-11.725,-4.93906,-12.525C-4.93906,-13.325,-4.78906,-14.0458,-4.48906,-14.6875C-4.18906,-15.3292,-3.76406,-15.875,-3.21406,-16.325C-2.66406,-16.775,-1.9974,-17.1208,-1.21406,-17.3625C-0.430729,-17.6042,0.452604,-17.725,1.43594,-17.725C2.6026,-17.725,3.61094,-17.6,4.46094,-17.35C5.31094,-17.1,6.01094,-16.825,6.56094,-16.525L5.43594,-13.45C4.9526,-13.7,4.4151,-13.9208,3.82344,-14.1125C3.23177,-14.3042,2.51927,-14.4,1.68594,-14.4C0.752604,-14.4,0.0817707,-14.2708,-0.326562,-14.0125C-0.734896,-13.7542,-0.939062,-13.3583,-0.939062,-12.825C-0.939062,-12.5083,-0.864062,-12.2417,-0.714063,-12.025C-0.564062,-11.8083,-0.351562,-11.6125,-0.0765629,-11.4375C0.198437,-11.2625,0.515104,-11.1042,0.873438,-10.9625C1.23177,-10.8208,1.6276,-10.675,2.06094,-10.525C2.96094,-10.1917,3.74427,-9.8625,4.41094,-9.5375C5.0776,-9.2125,5.63177,-8.83333,6.07344,-8.4C6.5151,-7.96667,6.84427,-7.45833,7.06094,-6.875C7.2776,-6.29167,7.38594,-5.58333,7.38594,-4.75C7.38594,-3.13333,6.81927,-1.87917,5.68594,-0.9875C4.5526,-0.0958333,2.84427,0.35,0.560937,0.35C-0.205729,0.35,-0.897396,0.304167,-1.51406,0.2125C-2.13073,0.120833,-2.67656,0.00833334,-3.15156,-0.125C-3.62656,-0.258333,-4.0349,-0.4,-4.37656,-0.55C-4.71823,-0.7,-5.00573,-0.841667,-5.23906,-0.975L-4.13906,-4.075C-3.6224,-3.79167,-2.9849,-3.5375,-2.22656,-3.3125C-1.46823,-3.0875,-0.539063,-2.975,0.560937,-2.975ZM18.2828,0.35C15.4661,0.35,13.3203,-0.433333,11.8453,-2C10.3703,-3.56667,9.63281,-5.79167,9.63281,-8.675C9.63281,-10.1083,9.85781,-11.3875,10.3078,-12.5125C10.7578,-13.6375,11.3745,-14.5875,12.1578,-15.3625C12.9411,-16.1375,13.8745,-16.725,14.9578,-17.125C16.0411,-17.525,17.2161,-17.725,18.4828,-17.725C19.2161,-17.725,19.8828,-17.6708,20.4828,-17.5625C21.0828,-17.4542,21.6078,-17.3292,22.0578,-17.1875C22.5078,-17.0458,22.8828,-16.9,23.1828,-16.75C23.4828,-16.6,23.6995,-16.4833,23.8328,-16.4L22.7078,-13.25C22.1745,-13.5333,21.5536,-13.775,20.8453,-13.975C20.137,-14.175,19.3328,-14.275,18.4328,-14.275C17.8328,-14.275,17.2453,-14.175,16.6703,-13.975C16.0953,-13.775,15.587,-13.4542,15.1453,-13.0125C14.7036,-12.5708,14.3495,-12,14.0828,-11.3C13.8161,-10.6,13.6828,-9.75,13.6828,-8.75C13.6828,-7.95,13.7703,-7.20417,13.9453,-6.5125C14.1203,-5.82083,14.4036,-5.225,14.7953,-4.725C15.187,-4.225,15.6995,-3.82917,16.3328,-3.5375C16.9661,-3.24583,17.7328,-3.1,18.6328,-3.1C19.1995,-3.1,19.7078,-3.13333,20.1578,-3.2C20.6078,-3.26667,21.0078,-3.34583,21.3578,-3.4375C21.7078,-3.52917,22.0161,-3.63333,22.2828,-3.75C22.5495,-3.86667,22.7911,-3.975,23.0078,-4.075L24.0828,-0.95C23.5328,-0.616667,22.7578,-0.316667,21.7578,-0.05C20.7578,0.216667,19.5995,0.35,18.2828,0.35Z" fill-rule="nonzero" transform="translate(834.888,441.726) rotate(15.479) scale(2.53827,2.53827)"/>
        <path fill="#ff0000" stroke="none" d="M-10.3219,-17.325L-10.3219,-14L-15.5469,-14L-15.5469,0L-19.4469,0L-19.4469,-14L-24.6719,-14L-24.6719,-17.325ZM0.0437508,-14.325C-1.77292,-14.325,-3.08542,-13.8208,-3.89375,-12.8125C-4.70208,-11.8042,-5.10625,-10.425,-5.10625,-8.675C-5.10625,-7.825,-5.00625,-7.05417,-4.80625,-6.3625C-4.60625,-5.67083,-4.30625,-5.075,-3.90625,-4.575C-3.50625,-4.075,-3.00625,-3.6875,-2.40625,-3.4125C-1.80625,-3.1375,-1.10625,-3,-0.30625,-3C0.127083,-3,0.497917,-3.00833,0.806251,-3.025C1.11458,-3.04167,1.38542,-3.075,1.61875,-3.125L1.61875,-9.15L5.51875,-9.15L5.51875,-0.575C5.05208,-0.391667,4.30208,-0.195833,3.26875,0.0125C2.23542,0.220833,0.960416,0.325,-0.556251,0.325C-1.85625,0.325,-3.03542,0.125,-4.09375,-0.275C-5.15208,-0.675,-6.05625,-1.25833,-6.80625,-2.025C-7.55625,-2.79167,-8.13542,-3.73333,-8.54375,-4.85C-8.95208,-5.96667,-9.15625,-7.24167,-9.15625,-8.675C-9.15625,-10.125,-8.93125,-11.4083,-8.48125,-12.525C-8.03125,-13.6417,-7.41458,-14.5875,-6.63125,-15.3625C-5.84792,-16.1375,-4.92708,-16.725,-3.86875,-17.125C-2.81042,-17.525,-1.68125,-17.725,-0.48125,-17.725C0.335417,-17.725,1.07292,-17.6708,1.73125,-17.5625C2.38958,-17.4542,2.95625,-17.3292,3.43125,-17.1875C3.90625,-17.0458,4.29792,-16.9,4.60625,-16.75C4.91458,-16.6,5.13542,-16.4833,5.26875,-16.4L4.14375,-13.275C3.61042,-13.5583,2.99792,-13.8042,2.30625,-14.0125C1.61458,-14.2208,0.860417,-14.325,0.0437508,-14.325ZM20.7406,0C20.5573,-0.6,20.3531,-1.21667,20.1281,-1.85C19.9031,-2.48333,19.6823,-3.11667,19.4656,-3.75L12.7156,-3.75C12.499,-3.11667,12.2781,-2.48333,12.0531,-1.85C11.8281,-1.21667,11.624,-0.6,11.4406,0L7.39062,0C8.04063,-1.86667,8.65729,-3.59167,9.24063,-5.175C9.82396,-6.75833,10.3948,-8.25,10.9531,-9.65C11.5115,-11.05,12.0615,-12.3792,12.6031,-13.6375C13.1448,-14.8958,13.7073,-16.125,14.2906,-17.325L18.0156,-17.325C18.5823,-16.125,19.1406,-14.8958,19.6906,-13.6375C20.2406,-12.3792,20.7948,-11.05,21.3531,-9.65C21.9115,-8.25,22.4823,-6.75833,23.0656,-5.175C23.649,-3.59167,24.2656,-1.86667,24.9156,0ZM16.0656,-13.4C15.9823,-13.15,15.8573,-12.8083,15.6906,-12.375C15.524,-11.9417,15.3323,-11.4417,15.1156,-10.875C14.899,-10.3083,14.6615,-9.68333,14.4031,-9C14.1448,-8.31667,13.8823,-7.6,13.6156,-6.85L18.5406,-6.85C18.274,-7.6,18.0156,-8.31667,17.7656,-9C17.5156,-9.68333,17.2781,-10.3083,17.0531,-10.875C16.8281,-11.4417,16.6323,-11.9417,16.4656,-12.375C16.299,-12.8083,16.1656,-13.15,16.0656,-13.4Z" fill-rule="nonzero" transform="translate(678.641,469.049) rotate(24.6368) scale(2.53827,2.53827)"/>
        <path fill="#ff0000" stroke="none" d="M-14.0344,0C-14.5177,-0.966667,-15.0469,-1.94583,-15.6219,-2.9375C-16.1969,-3.92917,-16.8594,-4.94167,-17.6094,-5.975C-17.8427,-5.675,-18.1385,-5.25833,-18.4969,-4.725C-18.8552,-4.19167,-19.2135,-3.625,-19.5719,-3.025C-19.9302,-2.425,-20.2677,-1.85,-20.5844,-1.3C-20.901,-0.75,-21.1344,-0.316667,-21.2844,0L-25.7344,0C-25.001,-1.35,-24.1469,-2.76667,-23.1719,-4.25C-22.1969,-5.73333,-21.1094,-7.30833,-19.9094,-8.975L-25.4844,-17.325L-20.7594,-17.325L-17.3844,-11.925L-14.0844,-17.325L-9.63437,-17.325L-15.1344,-8.925C-13.7344,-7.10833,-12.5594,-5.42917,-11.6094,-3.8875C-10.6594,-2.34583,-9.90937,-1.05,-9.35938,0ZM-2.03438,-17.525C0.565625,-17.525,2.55729,-17.0625,3.94063,-16.1375C5.32396,-15.2125,6.01562,-13.775,6.01562,-11.825C6.01562,-10.6083,5.73646,-9.62083,5.17813,-8.8625C4.61979,-8.10417,3.81562,-7.50833,2.76562,-7.075C3.11562,-6.64167,3.48229,-6.14583,3.86562,-5.5875C4.24896,-5.02917,4.62812,-4.44583,5.00312,-3.8375C5.37812,-3.22917,5.74063,-2.59583,6.09062,-1.9375C6.44063,-1.27917,6.76563,-0.633333,7.06563,0L2.69063,0C2.37396,-0.566667,2.05312,-1.14167,1.72812,-1.725C1.40313,-2.30833,1.06979,-2.875,0.728125,-3.425C0.386458,-3.975,0.0489581,-4.49583,-0.284375,-4.9875C-0.617709,-5.47917,-0.951042,-5.925,-1.28438,-6.325L-3.20937,-6.325L-3.20937,0L-7.10938,0L-7.10938,-17.075C-6.25938,-17.2417,-5.38021,-17.3583,-4.47188,-17.425C-3.56354,-17.4917,-2.75104,-17.525,-2.03438,-17.525ZM-1.80938,-14.2C-2.09271,-14.2,-2.34688,-14.1917,-2.57188,-14.175C-2.79688,-14.1583,-3.00938,-14.1417,-3.20937,-14.125L-3.20937,-9.425L-2.10938,-9.425C-0.642708,-9.425,0.407291,-9.60833,1.04062,-9.975C1.67396,-10.3417,1.99063,-10.9667,1.99063,-11.85C1.99063,-12.7,1.66979,-13.3042,1.02812,-13.6625C0.386458,-14.0208,-0.559375,-14.2,-1.80938,-14.2ZM13.4625,-3.175C13.6458,-3.15833,13.8583,-3.14583,14.1,-3.1375C14.3417,-3.12917,14.6292,-3.125,14.9625,-3.125C16.9125,-3.125,18.3583,-3.61667,19.3,-4.6C20.2417,-5.58333,20.7125,-6.94167,20.7125,-8.675C20.7125,-10.4917,20.2625,-11.8667,19.3625,-12.8C18.4625,-13.7333,17.0375,-14.2,15.0875,-14.2C14.8208,-14.2,14.5458,-14.1958,14.2625,-14.1875C13.9792,-14.1792,13.7125,-14.1583,13.4625,-14.125ZM24.7375,-8.675C24.7375,-7.175,24.5042,-5.86667,24.0375,-4.75C23.5708,-3.63333,22.9083,-2.70833,22.05,-1.975C21.1917,-1.24167,20.1458,-0.691667,18.9125,-0.325C17.6792,0.0416667,16.2958,0.225,14.7625,0.225C14.0625,0.225,13.2458,0.195833,12.3125,0.1375C11.3792,0.0791667,10.4625,-0.0416667,9.5625,-0.225L9.5625,-17.1C10.4625,-17.2667,11.4,-17.3792,12.375,-17.4375C13.35,-17.4958,14.1875,-17.525,14.8875,-17.525C16.3708,-17.525,17.7167,-17.3583,18.925,-17.025C20.1333,-16.6917,21.1708,-16.1667,22.0375,-15.45C22.9042,-14.7333,23.5708,-13.8167,24.0375,-12.7C24.5042,-11.5833,24.7375,-10.2417,24.7375,-8.675Z" fill-rule="nonzero" transform="translate(865.047,335.733) rotate(8.56841) scale(2.53827,2.53827)"/>
        <g transform="translate(697.617,136.135) scale(1.11434,1) translate(3.34446,-107.271)">
            <g transform="translate(108.578,54.8142) translate(-106.883,-54.8142)">
                <path d="M0,0L-122,0" fill="none" stroke="#585858" stroke-linecap="square" stroke-width="10" transform="translate(213.765,109.628) scale(1.68659,1.68659)"/>
                <path d="M0,0L0,65" fill="none" stroke="#585858" stroke-linecap="square" stroke-width="10" transform="translate(0,0) scale(1.68659,1.68659)"/>
                <path d="M0,0L-13.6506,-0.119742C-19.46,-52.2612,-24.87,-78.3826,-28.6798,-0.251577L-57.9771,-0.508571C-63.713,-14.2966,-69.0229,-15.7224,-73.7642,-0.647055L-86.9086,-0.762357C-93.2706,-61.5522,-97.9605,-39.7077,-102.307,-0.89743L-114,-1" stroke="#585858" fill="none" stroke-linecap="square" stroke-width="10" transform="translate(213.765,89.7622) scale(1.68659,1.68659)"/>
            </g>
            <g transform="translate(109.172,149.88) scale(1.05684,1.05684) translate(-103.3,-12.4361)">
                <path d="M0,0L122,0" stroke="#ff0000" fill="none" stroke-width="8" stroke-linecap="square" transform="translate(0,24.8722) scale(1.69345,1.69345)"/>
                <path d="M0,0L0,-11" stroke="#ff0000" fill="none" stroke-width="8" stroke-linecap="square" transform="translate(46.5698,24.8722) scale(1.69345,1.46961)"/>
                <path d="M0,0L0,-5.5" stroke="#ff0000" fill="none" stroke-width="8" stroke-linecap="square" transform="translate(93.9863,24.8722) scale(1.69345,1.69345)"/>
                <path d="M0,0L0,-13" stroke="#ff0000" fill="none" stroke-width="8" stroke-linecap="square" transform="translate(170.192,19.3685) scale(1.46076,1.48988)"/>
            </g>
            <g transform="translate(109.172,203.88) scale(1.05684,1.05684) translate(-103.3,-12.4361)">
                <path d="M0,0L122,0" stroke="#ff0000" fill="none" stroke-width="8" stroke-linecap="square" transform="translate(0,24.8722) scale(1.69345,1.69345)"/>
                <path d="M0,0L0,-11" stroke="#ff0000" fill="none" stroke-width="8" stroke-linecap="square" transform="translate(46.5698,24.8722) scale(1.69345,1.46961)"/>
                <path d="M0,0L0,-5.5" stroke="#ff0000" fill="none" stroke-width="8" stroke-linecap="square" transform="translate(93.9863,24.8722) scale(1.69345,1.69345)"/>
                <path d="M0,0L0,-13" stroke="#ff0000" fill="none" stroke-width="8" stroke-linecap="square" transform="translate(170.192,19.3685) scale(1.46076,1.48988)"/>
            </g>
        </g>
    </g>
    <text fill="#00a07b" font-size="88" font-family="Ubuntu" font-weight="700" letter-spacing="0" word-spacing="0" text-anchor="middle" stroke="none" transform="translate(501.436,68.6152)" style="line-height: 106px;">Click Here to Analysie</text>
    <text fill="#00a07b" font-size="88" font-family="Ubuntu" font-weight="700" letter-spacing="0" word-spacing="0" text-anchor="middle" stroke="none" transform="translate(508.614,276.789)" style="line-height: 106px; white-space: pre;">With Our Expert Team</text>
    <text fill="#00a07b" font-size="88" font-family="Ubuntu" font-weight="700" letter-spacing="0" word-spacing="0" text-anchor="middle" stroke="none" transform="translate(501.439,173.291)" style="line-height: 106px; white-space: pre;">Your Synthsized Sample</text>
    <text fill="#00714d" font-size="62" font-family="Ubuntu" font-weight="700" letter-spacing="0" word-spacing="0" text-anchor="middle" stroke="none" transform="translate(500.203,918.371)" style="line-height: 70px; white-space: pre;">Custom Analysis, Calculations and</text>
    <text fill="#00714d" font-size="62" font-family="Ubuntu" font-weight="700" letter-spacing="0" word-spacing="0" text-anchor="middle" stroke="none" transform="translate(503.989,987.762)" style="line-height: 70px; white-space: pre;">Graph Plotting Also Available</text>
</svg>
