<svg xmlns="http://www.w3.org/2000/svg" shape-rendering="geometricPrecision" text-rendering="geometricPrecision" viewBox="0 0 1000 650" style="white-space: pre;">
    <g id="#f8fafbff" transform="translate(197.886,81.1411)"/>
    <g transform="translate(513.954,343.595) translate(-396.887,-229.178)">
        <g id="#eb6368ff" transform="translate(377.389,71.9033) translate(-293.859,-99.7568)">
            <path fill="#eb6368" opacity="1" d="M489.87,35.95C492.52,33.03,494.84,29.19,498.96,28.26C502.97,27,507.4,28.78,509.89,32.07C515.27,38.75,520.65,45.46,525.58,52.49C516.07,63.54,506.3,74.38,496.97,85.59C472.11,114.37,447.12,143.04,422.07,171.66C421.05,162.14,420.97,152.55,420.13,143.02C420.13,135.98,418.94,129.01,419.01,121.97C418.9,119.33,420.32,116.98,421.92,115.01C444.58,88.66,467.25,62.33,489.87,35.95Z" transform="translate(472.292,99.7568) translate(-472.292,-99.7568)"/>
            <path fill="#eb6368" opacity="1" d="M102.6,81.52C105.72,85.7,110.13,88.59,114.15,91.82C126.16,101.39,138.13,111.01,150.15,120.57C137.78,136.08,125.37,151.55,113.03,167.09C111.46,169,109.63,171.1,106.98,171.35C104.4,171.8,102.08,170.3,100.16,168.78C88.53,159.4,76.83,150.12,65.17,140.79C61.71,138.38,61.1,133.16,63.92,130.04C76.77,113.83,89.78,97.75,102.6,81.52Z" transform="translate(106.144,126.476) translate(-106.144,-126.476)"/>
        </g>
        <g id="#94bad2ff" transform="translate(545.248,210.096) translate(-461.718,-237.95)">
            <path fill="#94bad2" opacity="1" d="M525.58,52.49L525.67,52.4C547.39,83.49,562.16,119.46,567.94,156.98C577.07,214.03,565.42,274.11,535.53,323.55C526.68,338.37,515.91,351.88,505.87,365.88C491.94,385.12,477.61,404.08,463.93,423.5L463.8,423.43C435.59,410.73,403.37,407.36,373.01,413.1C366.1,414.26,359.51,416.96,352.46,417.32C353.01,414.6,353.73,411.81,355.61,409.67C365.03,398.01,373.87,385.9,383.12,374.1C385.61,371.03,387.48,367.29,390.75,364.95C394.63,364.22,398.7,364.83,402.5,363.56C409.54,361.14,414.81,354.36,415.48,346.95C416,342.87,414.27,339,413.86,335C414.05,333.49,415.21,332.31,416.03,331.08C422.12,323.49,427.97,315.72,433.93,308.02C436.28,305.08,438.14,301.63,441.11,299.25C444.63,297.55,448.73,297.25,452.07,295.11C457.14,291.81,460.8,286.11,460.96,279.99C461.31,276.65,460.7,272.86,463,270.08C469.75,261.14,476.89,252.49,483.42,243.38C486.01,239.9,487.82,235.86,490.67,232.57C493.6,230.03,497.63,229.14,500.47,226.45C505.58,221.63,508.06,213.91,506.03,207.09C505.19,203.76,503.76,200.34,504.68,196.86C507.9,183.85,509.32,170.38,508.61,156.99C508.04,145.53,505.68,134.28,503.73,123.01C501.44,110.54,499.43,98.02,496.97,85.59C506.3,74.38,516.07,63.54,525.58,52.49Z" transform="translate(461.718,237.95) translate(-461.718,-237.95)"/>
        </g>
        <g id="#ebe1ddff" transform="translate(330.535,235.299) translate(-247.005,-263.153)">
            <path fill="#ebe1dd" opacity="1" d="M102.6,81.52C101.59,77.15,104.26,71.8,108.92,71.09C112.23,70.48,115.01,72.67,117.44,74.59C166.3,113.71,215.23,152.74,264.16,191.77C266.8,193.83,269.25,196.18,272.12,197.92C274.33,196.36,275.85,193.3,278.89,193.39C284.95,193.06,290.95,194.41,297.01,194.34C305.3,194.33,313.58,196.15,321.86,195.2C326.66,191.68,328.62,183.03,335.96,184.27C364.97,186.38,394.11,186.39,423.07,189.16C421.07,192.96,418.25,196.21,415.64,199.59C358.31,273.99,301.19,348.55,243.84,422.94C236.91,432.06,229.87,441.11,223.02,450.29C212.77,447.8,202.59,445.03,192.32,442.61C174.55,438.48,155.91,438.27,138.03,441.87C115.68,446.41,93.31,450.88,70.94,455.32C83.16,439.11,96.1,423.46,108.62,407.49C133.86,375.25,159.06,342.97,184.39,310.81C180.71,305.19,175.35,301.04,171.12,295.9C166.77,290.58,161.49,286.12,157.19,280.76C153.62,276.32,149.02,272.88,145.34,268.55C141.32,263.91,136.79,259.76,132.82,255.09C130.69,252.54,128.76,249.5,128.86,246.06C128.78,242.32,130.93,239.06,133.15,236.23C140.57,227,147.93,217.71,155.32,208.46C158.03,204.93,162.48,202.41,167.02,203.11C170.75,203.74,173.97,205.88,177.1,207.88C182.51,211.52,188.46,214.27,193.84,217.97C186.6,227.98,178.4,237.26,170.99,247.15C181.78,259.77,193.18,271.86,204.09,284.39C208.7,280.17,212.19,274.94,216.06,270.07C231.57,250.25,247.21,230.54,262.75,210.76C261.28,209.35,259.75,208.01,258.18,206.72C222.19,177.98,186.2,149.24,150.15,120.57C138.13,111.01,126.16,101.39,114.15,91.82C110.13,88.59,105.72,85.7,102.6,81.52Z" transform="translate(247.005,263.153) translate(-247.005,-263.153)"/>
        </g>
        <g id="#76a7c6ff" transform="translate(449.435,245.483) translate(-365.905,-273.337)">
            <path fill="#76a7c6" opacity="1" d="M422.07,171.66C447.12,143.04,472.11,114.37,496.97,85.59C499.43,98.02,501.44,110.54,503.73,123.01C505.68,134.28,508.04,145.53,508.61,156.99C509.32,170.38,507.9,183.85,504.68,196.86C503.76,200.34,505.19,203.76,506.03,207.09C508.06,213.91,505.58,221.63,500.47,226.45C497.63,229.14,493.6,230.03,490.67,232.57C487.82,235.86,486.01,239.9,483.42,243.38C476.89,252.49,469.75,261.14,463,270.08C460.7,272.86,461.31,276.65,460.96,279.99C460.8,286.11,457.14,291.81,452.07,295.11C448.73,297.25,444.63,297.55,441.11,299.25C438.14,301.63,436.28,305.08,433.93,308.02C427.97,315.72,422.12,323.49,416.03,331.08C415.21,332.31,414.05,333.49,413.86,335C414.27,339,416,342.87,415.48,346.95C414.81,354.36,409.54,361.14,402.5,363.56C398.7,364.83,394.63,364.22,390.75,364.95C387.48,367.29,385.61,371.03,383.12,374.1C373.87,385.9,365.03,398.01,355.61,409.67C353.73,411.81,353.01,414.6,352.46,417.32C359.51,416.96,366.1,414.26,373.01,413.1C403.37,407.36,435.59,410.73,463.8,423.43C458.79,430.54,453.56,437.5,448.44,444.53C421.55,434.06,391.15,433.03,363.62,441.66C348.86,446.25,334.1,450.84,319.34,455.42C297.71,462.06,274.32,462.93,252.3,457.67C242.52,455.28,232.79,452.69,223.02,450.29C229.87,441.11,236.91,432.06,243.84,422.94C301.19,348.55,358.31,273.99,415.64,199.59C418.25,196.21,421.07,192.96,423.07,189.16C422.9,183.32,422.03,177.52,422.07,171.66Z" transform="translate(365.905,273.337) translate(-365.905,-273.337)"/>
        </g>
        <g id="#83d8f7ff" transform="translate(396.526,418.168) scale(1.55913,1) translate(-313.125,-460.022)">
            <path fill="#83d8f7" opacity="1" d="M563.29,431.26C564.64,430.06,566.32,430.61,567.45,431.82C567.19,440.64,567.6,449.47,567.12,458.28C563.46,459.71,559.92,461.41,556.57,463.45C527.88,480.36,492.46,484.85,460.29,476.61C450.7,474.2,441.64,470.07,432,467.84C410.23,462.5,387.07,463.16,365.58,469.52C349.73,474.28,333.99,479.42,318.13,484.18C295.71,490.89,271.48,491.13,248.86,485.29C236.34,482.07,223.79,478.96,211.29,475.71C200.39,472.97,189.54,469.79,178.33,468.56C165.57,467.17,152.59,467.45,139.98,469.89C118.62,474.11,97.27,478.4,75.93,482.72C70.09,483.89,63.81,484.24,58.8,487.83C59.31,479.21,58.76,470.57,59.04,461.95C59,460.22,59.66,458.29,61.38,457.59C64.44,456.37,67.73,455.98,70.94,455.32C93.31,450.88,115.68,446.41,138.03,441.87C155.91,438.27,174.55,438.48,192.32,442.61C202.59,445.03,212.77,447.8,223.02,450.29C232.79,452.69,242.52,455.28,252.3,457.67C274.32,462.93,297.71,462.06,319.34,455.42C334.1,450.84,348.86,446.25,363.62,441.66C391.15,433.03,421.55,434.06,448.44,444.53C481.07,456.73,518.68,454.54,549.76,438.83C554.44,436.62,558.75,433.74,563.29,431.26Z" transform="translate(313.125,460.022) translate(-313.125,-460.022)"/>
        </g>
        <g id="#aae4f9ff" transform="translate(396.887,424.161) scale(1.55913,1) translate(-313.357,-466.015)">
            <path fill="#aae4f9" opacity="1" d="M567.45,431.82C568.3,440.18,567.69,448.61,567.85,457C567.07,470.64,567.86,484.32,567.37,497.97C567.47,500.27,564.56,500.05,563,500.2C398.67,500.2,234.34,500.18,70.01,500.21C67.01,500.2,63.73,499.68,61.64,497.31C59.03,494.88,59.1,491.1,58.8,487.83C63.81,484.24,70.09,483.89,75.93,482.72C97.27,478.4,118.62,474.11,139.98,469.89C152.59,467.45,165.57,467.17,178.33,468.56C189.54,469.79,200.39,472.97,211.29,475.71C223.79,478.96,236.34,482.07,248.86,485.29C271.48,491.13,295.71,490.89,318.13,484.18C333.99,479.42,349.73,474.28,365.58,469.52C387.07,463.16,410.23,462.5,432,467.84C441.64,470.07,450.7,474.2,460.29,476.61C492.46,484.85,527.88,480.36,556.57,463.45C559.92,461.41,563.46,459.71,567.12,458.28C567.6,449.47,567.19,440.64,567.45,431.82Z" transform="translate(313.357,466.015) translate(-313.357,-466.015)"/>
        </g>
    </g>
    <path fill="#00a07b" stroke="none" d="M37.62,1.33C26.9167,1.33,18.7625,-1.64667,13.1575,-7.6C7.5525,-13.5533,4.75,-22.0083,4.75,-32.965C4.75,-38.4117,5.605,-43.2725,7.315,-47.5475C9.025,-51.8225,11.3683,-55.4325,14.345,-58.3775C17.3217,-61.3225,20.8683,-63.555,24.985,-65.075C29.1017,-66.595,33.5667,-67.355,38.38,-67.355C41.1667,-67.355,43.7,-67.1492,45.98,-66.7375C48.26,-66.3258,50.255,-65.8508,51.965,-65.3125C53.675,-64.7742,55.1,-64.22,56.24,-63.65C57.38,-63.08,58.2033,-62.6367,58.71,-62.32L54.435,-50.35C52.4083,-51.4267,50.0492,-52.345,47.3575,-53.105C44.6658,-53.865,41.61,-54.245,38.19,-54.245C35.91,-54.245,33.6775,-53.865,31.4925,-53.105C29.3075,-52.345,27.3758,-51.1258,25.6975,-49.4475C24.0192,-47.7692,22.6733,-45.6,21.66,-42.94C20.6467,-40.28,20.14,-37.05,20.14,-33.25C20.14,-30.21,20.4725,-27.3758,21.1375,-24.7475C21.8025,-22.1192,22.8792,-19.855,24.3675,-17.955C25.8558,-16.055,27.8033,-14.5508,30.21,-13.4425C32.6167,-12.3342,35.53,-11.78,38.95,-11.78C41.1033,-11.78,43.035,-11.9067,44.745,-12.16C46.455,-12.4133,47.975,-12.7142,49.305,-13.0625C50.635,-13.4108,51.8067,-13.8067,52.82,-14.25C53.8333,-14.6933,54.7517,-15.105,55.575,-15.485L59.66,-3.61C57.57,-2.34333,54.625,-1.20333,50.825,-0.19C47.025,0.823333,42.6233,1.33,37.62,1.33ZM109.633,-1.71C107.226,-1.01333,104.123,-0.364167,100.323,0.2375C96.5231,0.839167,92.5331,1.14,88.3531,1.14C84.1098,1.14,80.579,0.57,77.7606,-0.57C74.9423,-1.71,72.7098,-3.30917,71.0631,-5.3675C69.4165,-7.42583,68.2448,-9.88,67.5481,-12.73C66.8515,-15.58,66.5031,-18.715,66.5031,-22.135L66.5031,-49.97L80.6581,-49.97L80.6581,-23.845C80.6581,-19.285,81.2598,-15.9917,82.4631,-13.965C83.6665,-11.9383,85.9148,-10.925,89.2081,-10.925C90.2215,-10.925,91.2981,-10.9725,92.4381,-11.0675C93.5781,-11.1625,94.5915,-11.2733,95.4781,-11.4L95.4781,-49.97L109.633,-49.97ZM137.276,-10.165C139.873,-10.165,141.71,-10.4183,142.786,-10.925C143.863,-11.4317,144.401,-12.4133,144.401,-13.87C144.401,-15.01,143.705,-16.0075,142.311,-16.8625C140.918,-17.7175,138.796,-18.6833,135.946,-19.76C133.73,-20.5833,131.719,-21.4383,129.914,-22.325C128.109,-23.2117,126.573,-24.2725,125.306,-25.5075C124.04,-26.7425,123.058,-28.215,122.361,-29.925C121.665,-31.635,121.316,-33.6933,121.316,-36.1C121.316,-40.7867,123.058,-44.4917,126.541,-47.215C130.025,-49.9383,134.806,-51.3,140.886,-51.3C143.926,-51.3,146.84,-51.0308,149.626,-50.4925C152.413,-49.9542,154.63,-49.3683,156.276,-48.735L153.806,-37.715C152.16,-38.285,150.37,-38.7917,148.439,-39.235C146.507,-39.6783,144.338,-39.9,141.931,-39.9C137.498,-39.9,135.281,-38.665,135.281,-36.195C135.281,-35.625,135.376,-35.1183,135.566,-34.675C135.756,-34.2317,136.136,-33.8042,136.706,-33.3925C137.276,-32.9808,138.052,-32.5375,139.034,-32.0625C140.015,-31.5875,141.266,-31.065,142.786,-30.495C145.89,-29.355,148.455,-28.2308,150.481,-27.1225C152.508,-26.0142,154.107,-24.8108,155.279,-23.5125C156.45,-22.2142,157.274,-20.7733,157.749,-19.19C158.224,-17.6067,158.461,-15.77,158.461,-13.68C158.461,-8.74,156.609,-5.00333,152.904,-2.47C149.199,0.0633334,143.958,1.33,137.181,1.33C132.748,1.33,129.059,0.95,126.114,0.19C123.169,-0.57,121.126,-1.20333,119.986,-1.71L122.361,-13.205C124.768,-12.255,127.238,-11.5108,129.771,-10.9725C132.305,-10.4342,134.806,-10.165,137.276,-10.165ZM168.534,-62.415L182.689,-64.695L182.689,-49.97L199.694,-49.97L199.694,-38.19L182.689,-38.19L182.689,-20.615C182.689,-17.6383,183.212,-15.2633,184.257,-13.49C185.302,-11.7167,187.408,-10.83,190.574,-10.83C192.094,-10.83,193.662,-10.9725,195.277,-11.2575C196.892,-11.5425,198.364,-11.9383,199.694,-12.445L201.689,-1.425C199.979,-0.728333,198.079,-0.126667,195.989,0.38C193.899,0.886667,191.334,1.14,188.294,1.14C184.431,1.14,181.233,0.6175,178.699,-0.4275C176.166,-1.4725,174.139,-2.92917,172.619,-4.7975C171.099,-6.66583,170.039,-8.93,169.437,-11.59C168.835,-14.25,168.534,-17.195,168.534,-20.425ZM256.031,-25.08C256.031,-21.1533,255.461,-17.5592,254.321,-14.2975C253.181,-11.0358,251.534,-8.24917,249.381,-5.9375C247.227,-3.62583,244.646,-1.83667,241.638,-0.57C238.63,0.696667,235.257,1.33,231.521,1.33C227.847,1.33,224.506,0.696667,221.498,-0.57C218.49,-1.83667,215.909,-3.62583,213.756,-5.9375C211.602,-8.24917,209.924,-11.0358,208.721,-14.2975C207.517,-17.5592,206.916,-21.1533,206.916,-25.08C206.916,-29.0067,207.533,-32.585,208.768,-35.815C210.003,-39.045,211.713,-41.8,213.898,-44.08C216.083,-46.36,218.68,-48.1333,221.688,-49.4C224.696,-50.6667,227.974,-51.3,231.521,-51.3C235.131,-51.3,238.44,-50.6667,241.448,-49.4C244.456,-48.1333,247.037,-46.36,249.191,-44.08C251.344,-41.8,253.022,-39.045,254.226,-35.815C255.429,-32.585,256.031,-29.0067,256.031,-25.08ZM241.591,-25.08C241.591,-29.45,240.72,-32.8858,238.978,-35.3875C237.236,-37.8892,234.751,-39.14,231.521,-39.14C228.291,-39.14,225.789,-37.8892,224.016,-35.3875C222.242,-32.8858,221.356,-29.45,221.356,-25.08C221.356,-20.71,222.242,-17.2425,224.016,-14.6775C225.789,-12.1125,228.291,-10.83,231.521,-10.83C234.751,-10.83,237.236,-12.1125,238.978,-14.6775C240.72,-17.2425,241.591,-20.71,241.591,-25.08ZM294.418,-26.505C294.418,-31.065,293.832,-34.295,292.66,-36.195C291.488,-38.095,289.477,-39.045,286.628,-39.045C285.741,-39.045,284.822,-38.9975,283.872,-38.9025C282.923,-38.8075,282.004,-38.6967,281.117,-38.57L281.117,0L266.962,0L266.962,-48.26C268.166,-48.5767,269.575,-48.9092,271.19,-49.2575C272.805,-49.6058,274.515,-49.9225,276.32,-50.2075C278.125,-50.4925,279.977,-50.7142,281.878,-50.8725C283.778,-51.0308,285.646,-51.11,287.483,-51.11C291.092,-51.11,294.022,-50.6508,296.27,-49.7325C298.518,-48.8142,300.371,-47.7217,301.828,-46.455C303.854,-47.9117,306.182,-49.0517,308.81,-49.875C311.438,-50.6983,313.861,-51.11,316.078,-51.11C320.068,-51.11,323.345,-50.5558,325.91,-49.4475C328.475,-48.3392,330.518,-46.7717,332.038,-44.745C333.558,-42.7183,334.602,-40.3117,335.172,-37.525C335.742,-34.7383,336.027,-31.635,336.027,-28.215L336.027,0L321.872,0L321.872,-26.505C321.872,-31.065,321.287,-34.295,320.115,-36.195C318.943,-38.095,316.933,-39.045,314.082,-39.045C313.322,-39.045,312.262,-38.855,310.9,-38.475C309.538,-38.095,308.414,-37.62,307.527,-37.05C307.971,-35.5933,308.256,-34.0575,308.383,-32.4425C308.509,-30.8275,308.573,-29.1017,308.573,-27.265L308.573,0L294.418,0ZM412.31,-65.835L427.13,-65.835L427.13,0L412.31,0L412.31,-27.93L387.42,-27.93L387.42,0L372.6,0L372.6,-65.835L387.42,-65.835L387.42,-40.66L412.31,-40.66ZM439.009,-24.605C439.009,-29.0383,439.69,-32.9175,441.052,-36.2425C442.414,-39.5675,444.203,-42.3383,446.419,-44.555C448.636,-46.7717,451.185,-48.45,454.067,-49.59C456.949,-50.73,459.909,-51.3,462.949,-51.3C470.043,-51.3,475.648,-49.1308,479.764,-44.7925C483.881,-40.4542,485.939,-34.0733,485.939,-25.65C485.939,-24.8267,485.908,-23.9242,485.844,-22.9425C485.781,-21.9608,485.718,-21.09,485.654,-20.33L453.544,-20.33C453.861,-17.4167,455.223,-15.105,457.629,-13.395C460.036,-11.685,463.266,-10.83,467.319,-10.83C469.916,-10.83,472.465,-11.0675,474.967,-11.5425C477.469,-12.0175,479.511,-12.6033,481.094,-13.3L482.994,-1.805C482.234,-1.425,481.221,-1.045,479.954,-0.665C478.688,-0.285,477.279,0.0475,475.727,0.3325C474.175,0.6175,472.513,0.855,470.739,1.045C468.966,1.235,467.193,1.33,465.419,1.33C460.923,1.33,457.012,0.665,453.687,-0.665C450.362,-1.995,447.607,-3.81583,445.422,-6.1275C443.237,-8.43917,441.622,-11.1783,440.577,-14.345C439.532,-17.5117,439.009,-20.9317,439.009,-24.605ZM472.259,-30.02C472.196,-31.2233,471.99,-32.395,471.642,-33.535C471.294,-34.675,470.755,-35.6883,470.027,-36.575C469.299,-37.4617,468.38,-38.19,467.272,-38.76C466.164,-39.33,464.786,-39.615,463.139,-39.615C461.556,-39.615,460.194,-39.3458,459.054,-38.8075C457.914,-38.2692,456.964,-37.5567,456.204,-36.67C455.444,-35.7833,454.859,-34.7542,454.447,-33.5825C454.035,-32.4108,453.734,-31.2233,453.544,-30.02ZM516.819,0.95C512.702,0.886667,509.361,0.443333,506.796,-0.38C504.231,-1.20333,502.205,-2.35917,500.716,-3.8475C499.228,-5.33583,498.215,-7.14083,497.676,-9.2625C497.138,-11.3842,496.869,-13.775,496.869,-16.435L496.869,-71.44L511.024,-73.72L511.024,-19.285C511.024,-18.0183,511.119,-16.8783,511.309,-15.865C511.499,-14.8517,511.863,-13.9967,512.401,-13.3C512.94,-12.6033,513.715,-12.0333,514.729,-11.59C515.742,-11.1467,517.104,-10.8617,518.814,-10.735ZM558.899,-24.605C558.899,-28.975,557.918,-32.4742,555.954,-35.1025C553.991,-37.7308,551.078,-39.045,547.214,-39.045C545.948,-39.045,544.776,-38.9975,543.699,-38.9025C542.623,-38.8075,541.736,-38.6967,541.039,-38.57L541.039,-13.015C541.926,-12.445,543.082,-11.97,544.507,-11.59C545.932,-11.21,547.373,-11.02,548.829,-11.02C555.543,-11.02,558.899,-15.5483,558.899,-24.605ZM573.339,-24.985C573.339,-21.1217,572.864,-17.6067,571.914,-14.44C570.964,-11.2733,569.571,-8.55,567.734,-6.27C565.898,-3.99,563.618,-2.21667,560.894,-0.95C558.171,0.316667,555.036,0.95,551.489,0.95C549.526,0.95,547.689,0.76,545.979,0.38C544.269,0,542.623,-0.538333,541.039,-1.235L541.039,17.575L526.884,17.575L526.884,-48.26C528.151,-48.64,529.608,-49.0042,531.254,-49.3525C532.901,-49.7008,534.627,-50.0017,536.432,-50.255C538.237,-50.5083,540.074,-50.7142,541.942,-50.8725C543.81,-51.0308,545.599,-51.11,547.309,-51.11C551.426,-51.11,555.099,-50.4925,558.329,-49.2575C561.559,-48.0225,564.283,-46.2808,566.499,-44.0325C568.716,-41.7842,570.41,-39.045,571.582,-35.815C572.754,-32.585,573.339,-28.975,573.339,-24.985Z" fill-rule="nonzero" transform="translate(215.608,83.0947)"/>
</svg>
