<svg xmlns="http://www.w3.org/2000/svg" viewBox="0 0 1000 650" text-rendering="geometricPrecision" shape-rendering="geometricPrecision" style="white-space: pre;">
    <g transform="translate(83.2262,256.284) scale(0.627664,0.646826) translate(-0.677928,-120.499)">
        <path fill="#f4b63f" opacity="1" d="M108.85,102.89C124.11,94.47,141.53,89.7,159,89.99C159.01,92.66,159,95.33,158.98,98C152.83,101.04,146.67,104.12,140.99,107.98C119.21,122.72,103.18,145.86,97.56,171.6C92.75,192.51,94.93,214.89,103.41,234.57C116.31,265.1,144.54,288.59,176.97,295.55C176.23,295.97,175.5,296.38,174.75,296.79C155.56,299.99,135.41,297.27,117.61,289.43C92.53,278.5,72.09,257.34,62.09,231.87C53.57,210.49,52.61,186.22,59.27,164.2C66.99,138.34,85.29,115.96,108.85,102.89Z" transform="translate(61.0357,144.062) translate(-115.935,-194.041)"/>
        <path fill="#f8d763" opacity="1" d="M140.99,107.98C146.67,104.12,152.83,101.04,158.98,98C159.05,129.98,158.93,161.97,159.04,193.96C193.69,194.08,228.34,193.91,262.99,194.04C263.06,216.73,255.1,239.05,241.57,257.17C231.95,247.62,222.5,237.9,212.77,228.48C208.71,231.93,204.93,235.7,201.49,239.76C211.03,249.59,220.85,259.15,230.5,268.87C215.7,283.98,195.49,293.36,174.75,296.79C175.5,296.38,176.23,295.97,176.97,295.55C144.54,288.59,116.31,265.1,103.41,234.57C94.93,214.89,92.75,192.51,97.56,171.6C103.18,145.86,119.21,122.72,140.99,107.98Z" transform="translate(124.121,147.416) translate(-179.02,-197.395)"/>
        <path fill="#f8d763" opacity="1" d="M383.05,202.04C404.35,201.97,425.65,201.97,446.95,202.04C447.06,207.34,447.06,212.65,446.95,217.96C425.65,218.03,404.35,218.02,383.05,217.96C382.94,212.66,382.94,207.35,383.05,202.04Z" transform="translate(360.101,160.019) translate(-415,-209.998)"/>
        <path fill="#f8d763" opacity="1" d="M463.05,202.04C484.35,201.97,505.65,201.97,526.95,202.04C527.06,207.35,527.06,212.65,526.95,217.96C505.65,218.03,484.35,218.03,463.05,217.96C462.94,212.65,462.94,207.34,463.05,202.04Z" transform="translate(440.101,160.021) translate(-495,-210)"/>
        <path fill="#f8d763" opacity="1" d="M383.05,234.04C404.35,233.97,425.65,233.97,446.95,234.04C447.06,239.35,447.06,244.65,446.95,249.96C425.65,250.03,404.35,250.03,383.05,249.96C382.94,244.65,382.94,239.34,383.05,234.04Z" transform="translate(360.101,192.021) translate(-415,-242)"/>
        <path fill="#f8d763" opacity="1" d="M463.05,234.04C484.35,233.97,505.65,233.97,526.95,234.04C527.06,239.34,527.06,244.65,526.95,249.96C505.65,250.03,484.35,250.03,463.05,249.96C462.94,244.65,462.94,239.34,463.05,234.04Z" transform="translate(440.101,192.021) translate(-495,-242)"/>
        <path fill="#f8d763" opacity="1" d="M383.05,266.04C404.35,265.97,425.65,265.97,446.95,266.04C447.06,271.34,447.06,276.65,446.95,281.96C425.65,282.03,404.35,282.03,383.05,281.96C382.94,276.65,382.94,271.34,383.05,266.04Z" transform="translate(360.101,224.021) translate(-415,-274)"/>
        <path fill="#f8d763" opacity="1" d="M463.05,266.04C484.35,265.97,505.65,265.97,526.95,266.04C527.06,271.35,527.06,276.65,526.95,281.96C505.65,282.03,484.35,282.03,463.05,281.96C462.94,276.65,462.94,271.35,463.05,266.04Z" transform="translate(440.101,224.021) translate(-495,-274)"/>
        <path fill="#e84e31" opacity="1" d="M199.02,49.99C212.7,49.78,226.46,52.6,239,58.06C239.01,90.03,238.98,122,239.02,153.98C225.68,154.02,212.35,154,199.01,153.99C199,119.32,198.98,84.65,199.02,49.99Z" transform="translate(164.109,52.0119) translate(-219.008,-101.991)"/>
        <path fill="#ec6637" opacity="1" d="M239,58.06C255.99,65.24,270.78,77.01,282.11,91.51C273.92,99.77,265.56,107.87,257.48,116.24C260.97,120.26,264.75,124.04,268.77,127.53C276.24,120.37,283.42,112.9,290.79,105.63C298.9,120.36,302.86,137.21,303,153.98C281.67,154.01,260.34,154.02,239.02,153.98C238.98,122,239.01,90.03,239,58.06Z" transform="translate(216.1,56.0539) translate(-270.999,-106.033)"/>
        <path fill="#ec6637" opacity="1" d="M383.02,74.01C404.34,73.99,425.66,73.99,446.98,74.01C447.02,79.34,447.02,84.66,446.98,89.98C425.66,90.01,404.34,90.01,383.02,89.98C382.98,84.66,382.97,79.34,383.02,74.01Z" transform="translate(360.099,32.0197) translate(-414.998,-81.9988)"/>
        <path fill="#ec6637" opacity="1" d="M383.02,106.02C404.34,105.99,425.66,105.99,446.98,106.02C447.02,111.34,447.02,116.66,446.98,121.99C425.66,122.01,404.34,122.01,383.02,121.99C382.97,116.66,382.98,111.34,383.02,106.02Z" transform="translate(360.099,64.0219) translate(-414.998,-114.001)"/>
        <path fill="#ec6637" opacity="1" d="M463.02,106.01C484.34,105.99,505.66,105.99,526.98,106.02C527.02,111.34,527.02,116.66,526.98,121.99C505.66,122.01,484.34,122.01,463.02,121.99C462.97,116.66,462.97,111.34,463.02,106.01Z" transform="translate(440.097,64.0219) translate(-494.996,-114.001)"/>
        <path fill="#ec6637" opacity="1" d="M383.02,138.01C404.34,137.99,425.66,137.99,446.98,138.02C447.02,143.34,447.02,148.66,446.98,153.98C425.66,154.01,404.34,154.01,383.02,153.98C382.98,148.66,382.97,143.34,383.02,138.01Z" transform="translate(360.099,96.0199) translate(-414.998,-145.999)"/>
        <path fill="#ec6637" opacity="1" d="M463.02,138.01C484.34,137.99,505.66,137.99,526.98,138.01C527.02,143.34,527.02,148.66,526.98,153.99C505.66,154.01,484.34,154.01,463.02,153.99C462.97,148.66,462.97,143.34,463.02,138.01Z" transform="translate(440.097,96.0209) translate(-494.996,-146)"/>
        <path fill="#49a2a9" opacity="1" d="M201.49,239.76C204.93,235.7,208.71,231.93,212.77,228.48C222.5,237.9,231.95,247.62,241.57,257.17C244.5,260,247.06,263.24,250.32,265.7C251.51,265.93,252.72,266.05,253.94,266.03C291.62,265.98,329.29,265.99,366.97,266.02C367.03,271.34,367.03,276.66,366.97,281.98C327.63,282.04,288.28,281.96,248.94,282.02C246.49,282,243.81,281.84,241.92,280.08C237.94,276.53,234.39,272.53,230.5,268.87C220.85,259.15,211.03,249.59,201.49,239.76Z" transform="translate(229.353,205.271) translate(-284.252,-255.25)"/>
        <path fill="#49a2a9" opacity="1" d="M297.39,76.37C299.6,74.03,302.97,73.93,305.97,73.96C326.3,74.06,346.64,73.95,366.97,74.02C367.03,79.34,367.03,84.66,366.97,89.98C349.98,90.02,332.99,90,316,89.98C312.77,90.04,309.5,89.7,306.32,90.3C300.78,95.01,295.99,100.55,290.79,105.63C283.42,112.9,276.24,120.37,268.77,127.53C264.75,124.04,260.97,120.26,257.48,116.24C265.56,107.87,273.92,99.77,282.11,91.51C287.3,86.56,292.2,81.32,297.39,76.37Z" transform="translate(257.348,50.7639) translate(-312.247,-100.743)"/>
    </g>
    <text fill="#00a07b" font-size="36" font-family="Ubuntu" letter-spacing="0" word-spacing="0" stroke="none" font-weight="700" text-anchor="middle" transform="translate(503.873,106.422) scale(2.53827,2.53827)" style="line-height: 20px; white-space: pre;">Data Analyze</text>
    <text fill="#ff0000" font-size="24" font-family="Ubuntu" letter-spacing="0" word-spacing="0" stroke="none" font-weight="700" text-anchor="start" transform="translate(425.958,619.03) scale(2.53827,2.53827)" style="line-height: 20px; white-space: pre;">Custom Calculation</text>
    <text fill="#ff0000" font-size="25" font-family="Ubuntu" letter-spacing="0" word-spacing="0" stroke="none" font-weight="700" text-anchor="start" transform="translate(428.205,227.704) scale(2.53827,2.53827)" style="line-height: 30px; white-space: pre;">XRD, FTIR, TGA, </text>
    <text fill="#ff0000" font-size="25" font-family="Ubuntu" letter-spacing="0" word-spacing="0" stroke="none" font-weight="700" text-anchor="start" transform="translate(425.205,461.062) scale(2.53827,2.53827)" style="line-height: 30px; white-space: pre;">any other analysis</text>
    <text fill="#ff0000" font-size="25" font-family="Ubuntu" letter-spacing="0" word-spacing="0" stroke="none" font-weight="700" text-anchor="start" transform="translate(424.958,387.046) scale(2.53827,2.53827)" style="line-height: 30px; white-space: pre;">AFM, BET, XPS or</text>
    <text fill="#ff0000" font-size="25" font-family="Ubuntu" letter-spacing="0" word-spacing="0" stroke="none" font-weight="700" text-anchor="start" transform="translate(424.242,307.893) scale(2.53827,2.53827)" style="line-height: 30px; white-space: pre;">DSC, TEM, SEM,</text>
    <text fill="#ff0000" font-size="25" font-family="Ubuntu" letter-spacing="0" word-spacing="0" stroke="none" font-weight="700" text-anchor="start" transform="translate(425.674,540.519) scale(2.53827,2.53827)" style="line-height: 20px; white-space: pre;">Graph Plotting</text>
    <g transform="translate(96.4367,486.147) scale(1.11434,1) translate(3.34446,-107.271)">
        <g transform="translate(108.578,54.8142) translate(-106.883,-54.8142)">
            <path d="M0,0L-122,0" fill="none" stroke="#585858" stroke-linecap="square" stroke-width="10" transform="translate(213.765,109.628) scale(1.68659,1.68659)"/>
            <path d="M0,0L0,65" fill="none" stroke="#585858" stroke-linecap="square" stroke-width="10" transform="translate(0,0) scale(1.68659,1.68659)"/>
            <path d="M0,0L-13.6506,-0.119742C-19.46,-52.2612,-24.87,-78.3826,-28.6798,-0.251577L-57.9771,-0.508571C-63.713,-14.2966,-69.0229,-15.7224,-73.7642,-0.647055L-86.9086,-0.762357C-93.2706,-61.5522,-97.9605,-39.7077,-102.307,-0.89743L-114,-1" stroke="#585858" fill="none" stroke-linecap="square" stroke-width="10" transform="translate(213.765,89.7622) scale(1.68659,1.68659)"/>
        </g>
        <g transform="translate(109.172,149.88) scale(1.05684,1.05684) translate(-103.3,-12.4361)">
            <path d="M0,0L122,0" stroke="#ff0000" fill="none" stroke-width="8" stroke-linecap="square" transform="translate(0,24.8722) scale(1.69345,1.69345)"/>
            <path d="M0,0L0,-11" stroke="#ff0000" fill="none" stroke-width="8" stroke-linecap="square" transform="translate(46.5698,24.8722) scale(1.69345,1.46961)"/>
            <path d="M0,0L0,-5.5" stroke="#ff0000" fill="none" stroke-width="8" stroke-linecap="square" transform="translate(93.9863,24.8722) scale(1.69345,1.69345)"/>
            <path d="M0,0L0,-13" stroke="#ff0000" fill="none" stroke-width="8" stroke-linecap="square" transform="translate(170.192,19.3685) scale(1.46076,1.48988)"/>
        </g>
        <g transform="translate(109.172,203.88) scale(1.05684,1.05684) translate(-103.3,-12.4361)">
            <path d="M0,0L122,0" stroke="#ff0000" fill="none" stroke-width="8" stroke-linecap="square" transform="translate(0,24.8722) scale(1.69345,1.69345)"/>
            <path d="M0,0L0,-11" stroke="#ff0000" fill="none" stroke-width="8" stroke-linecap="square" transform="translate(46.5698,24.8722) scale(1.69345,1.46961)"/>
            <path d="M0,0L0,-5.5" stroke="#ff0000" fill="none" stroke-width="8" stroke-linecap="square" transform="translate(93.9863,24.8722) scale(1.69345,1.69345)"/>
            <path d="M0,0L0,-13" stroke="#ff0000" fill="none" stroke-width="8" stroke-linecap="square" transform="translate(170.192,19.3685) scale(1.46076,1.48988)"/>
        </g>
    </g>
</svg>
