<svg xmlns="http://www.w3.org/2000/svg" viewBox="0 0 1000 650" text-rendering="geometricPrecision" shape-rendering="geometricPrecision" style="white-space: pre;">
    <g transform="translate(83.2262,256.284) scale(0.627664,0.646826) translate(-0.677928,-120.499)">
        <path fill="#f4b63f" opacity="1" d="M108.85,102.89C124.11,94.47,141.53,89.7,159,89.99C159.01,92.66,159,95.33,158.98,98C152.83,101.04,146.67,104.12,140.99,107.98C119.21,122.72,103.18,145.86,97.56,171.6C92.75,192.51,94.93,214.89,103.41,234.57C116.31,265.1,144.54,288.59,176.97,295.55C176.23,295.97,175.5,296.38,174.75,296.79C155.56,299.99,135.41,297.27,117.61,289.43C92.53,278.5,72.09,257.34,62.09,231.87C53.57,210.49,52.61,186.22,59.27,164.2C66.99,138.34,85.29,115.96,108.85,102.89Z" transform="translate(61.0357,144.062) translate(-115.935,-194.041)"/>
        <path fill="#f8d763" opacity="1" d="M140.99,107.98C146.67,104.12,152.83,101.04,158.98,98C159.05,129.98,158.93,161.97,159.04,193.96C193.69,194.08,228.34,193.91,262.99,194.04C263.06,216.73,255.1,239.05,241.57,257.17C231.95,247.62,222.5,237.9,212.77,228.48C208.71,231.93,204.93,235.7,201.49,239.76C211.03,249.59,220.85,259.15,230.5,268.87C215.7,283.98,195.49,293.36,174.75,296.79C175.5,296.38,176.23,295.97,176.97,295.55C144.54,288.59,116.31,265.1,103.41,234.57C94.93,214.89,92.75,192.51,97.56,171.6C103.18,145.86,119.21,122.72,140.99,107.98Z" transform="translate(124.121,147.416) translate(-179.02,-197.395)"/>
        <path fill="#f8d763" opacity="1" d="M383.05,202.04C404.35,201.97,425.65,201.97,446.95,202.04C447.06,207.34,447.06,212.65,446.95,217.96C425.65,218.03,404.35,218.02,383.05,217.96C382.94,212.66,382.94,207.35,383.05,202.04Z" transform="translate(360.101,160.019) translate(-415,-209.998)"/>
        <path fill="#f8d763" opacity="1" d="M463.05,202.04C484.35,201.97,505.65,201.97,526.95,202.04C527.06,207.35,527.06,212.65,526.95,217.96C505.65,218.03,484.35,218.03,463.05,217.96C462.94,212.65,462.94,207.34,463.05,202.04Z" transform="translate(440.101,160.021) translate(-495,-210)"/>
        <path fill="#f8d763" opacity="1" d="M383.05,234.04C404.35,233.97,425.65,233.97,446.95,234.04C447.06,239.35,447.06,244.65,446.95,249.96C425.65,250.03,404.35,250.03,383.05,249.96C382.94,244.65,382.94,239.34,383.05,234.04Z" transform="translate(360.101,192.021) translate(-415,-242)"/>
        <path fill="#f8d763" opacity="1" d="M463.05,234.04C484.35,233.97,505.65,233.97,526.95,234.04C527.06,239.34,527.06,244.65,526.95,249.96C505.65,250.03,484.35,250.03,463.05,249.96C462.94,244.65,462.94,239.34,463.05,234.04Z" transform="translate(440.101,192.021) translate(-495,-242)"/>
        <path fill="#f8d763" opacity="1" d="M383.05,266.04C404.35,265.97,425.65,265.97,446.95,266.04C447.06,271.34,447.06,276.65,446.95,281.96C425.65,282.03,404.35,282.03,383.05,281.96C382.94,276.65,382.94,271.34,383.05,266.04Z" transform="translate(360.101,224.021) translate(-415,-274)"/>
        <path fill="#f8d763" opacity="1" d="M463.05,266.04C484.35,265.97,505.65,265.97,526.95,266.04C527.06,271.35,527.06,276.65,526.95,281.96C505.65,282.03,484.35,282.03,463.05,281.96C462.94,276.65,462.94,271.35,463.05,266.04Z" transform="translate(440.101,224.021) translate(-495,-274)"/>
        <path fill="#e84e31" opacity="1" d="M199.02,49.99C212.7,49.78,226.46,52.6,239,58.06C239.01,90.03,238.98,122,239.02,153.98C225.68,154.02,212.35,154,199.01,153.99C199,119.32,198.98,84.65,199.02,49.99Z" transform="translate(164.109,52.0119) translate(-219.008,-101.991)"/>
        <path fill="#ec6637" opacity="1" d="M239,58.06C255.99,65.24,270.78,77.01,282.11,91.51C273.92,99.77,265.56,107.87,257.48,116.24C260.97,120.26,264.75,124.04,268.77,127.53C276.24,120.37,283.42,112.9,290.79,105.63C298.9,120.36,302.86,137.21,303,153.98C281.67,154.01,260.34,154.02,239.02,153.98C238.98,122,239.01,90.03,239,58.06Z" transform="translate(216.1,56.0539) translate(-270.999,-106.033)"/>
        <path fill="#ec6637" opacity="1" d="M383.02,74.01C404.34,73.99,425.66,73.99,446.98,74.01C447.02,79.34,447.02,84.66,446.98,89.98C425.66,90.01,404.34,90.01,383.02,89.98C382.98,84.66,382.97,79.34,383.02,74.01Z" transform="translate(360.099,32.0197) translate(-414.998,-81.9988)"/>
        <path fill="#ec6637" opacity="1" d="M383.02,106.02C404.34,105.99,425.66,105.99,446.98,106.02C447.02,111.34,447.02,116.66,446.98,121.99C425.66,122.01,404.34,122.01,383.02,121.99C382.97,116.66,382.98,111.34,383.02,106.02Z" transform="translate(360.099,64.0219) translate(-414.998,-114.001)"/>
        <path fill="#ec6637" opacity="1" d="M463.02,106.01C484.34,105.99,505.66,105.99,526.98,106.02C527.02,111.34,527.02,116.66,526.98,121.99C505.66,122.01,484.34,122.01,463.02,121.99C462.97,116.66,462.97,111.34,463.02,106.01Z" transform="translate(440.097,64.0219) translate(-494.996,-114.001)"/>
        <path fill="#ec6637" opacity="1" d="M383.02,138.01C404.34,137.99,425.66,137.99,446.98,138.02C447.02,143.34,447.02,148.66,446.98,153.98C425.66,154.01,404.34,154.01,383.02,153.98C382.98,148.66,382.97,143.34,383.02,138.01Z" transform="translate(360.099,96.0199) translate(-414.998,-145.999)"/>
        <path fill="#ec6637" opacity="1" d="M463.02,138.01C484.34,137.99,505.66,137.99,526.98,138.01C527.02,143.34,527.02,148.66,526.98,153.99C505.66,154.01,484.34,154.01,463.02,153.99C462.97,148.66,462.97,143.34,463.02,138.01Z" transform="translate(440.097,96.0209) translate(-494.996,-146)"/>
        <path fill="#49a2a9" opacity="1" d="M201.49,239.76C204.93,235.7,208.71,231.93,212.77,228.48C222.5,237.9,231.95,247.62,241.57,257.17C244.5,260,247.06,263.24,250.32,265.7C251.51,265.93,252.72,266.05,253.94,266.03C291.62,265.98,329.29,265.99,366.97,266.02C367.03,271.34,367.03,276.66,366.97,281.98C327.63,282.04,288.28,281.96,248.94,282.02C246.49,282,243.81,281.84,241.92,280.08C237.94,276.53,234.39,272.53,230.5,268.87C220.85,259.15,211.03,249.59,201.49,239.76Z" transform="translate(229.353,205.271) translate(-284.252,-255.25)"/>
        <path fill="#49a2a9" opacity="1" d="M297.39,76.37C299.6,74.03,302.97,73.93,305.97,73.96C326.3,74.06,346.64,73.95,366.97,74.02C367.03,79.34,367.03,84.66,366.97,89.98C349.98,90.02,332.99,90,316,89.98C312.77,90.04,309.5,89.7,306.32,90.3C300.78,95.01,295.99,100.55,290.79,105.63C283.42,112.9,276.24,120.37,268.77,127.53C264.75,124.04,260.97,120.26,257.48,116.24C265.56,107.87,273.92,99.77,282.11,91.51C287.3,86.56,292.2,81.32,297.39,76.37Z" transform="translate(257.348,50.7639) translate(-312.247,-100.743)"/>
    </g>
    <path fill="#00a07b" stroke="none" d="M-104.973,-4.572C-104.709,-4.548,-104.403,-4.53,-104.055,-4.518C-103.707,-4.506,-103.293,-4.5,-102.813,-4.5C-100.005,-4.5,-97.9228,-5.208,-96.5667,-6.624C-95.2107,-8.04,-94.5327,-9.996,-94.5327,-12.492C-94.5327,-15.108,-95.1807,-17.088,-96.4767,-18.432C-97.7727,-19.776,-99.8247,-20.448,-102.633,-20.448C-103.017,-20.448,-103.413,-20.442,-103.821,-20.43C-104.229,-20.418,-104.613,-20.388,-104.973,-20.34ZM-88.7368,-12.492C-88.7368,-10.332,-89.0728,-8.448,-89.7448,-6.84C-90.4167,-5.232,-91.3707,-3.9,-92.6068,-2.844C-93.8428,-1.788,-95.3488,-0.996,-97.1247,-0.468C-98.9007,0.06,-100.893,0.324,-103.101,0.324C-104.109,0.324,-105.285,0.282,-106.629,0.198C-107.973,0.114,-109.293,-0.06,-110.589,-0.324L-110.589,-24.624C-109.293,-24.864,-107.943,-25.026,-106.539,-25.11C-105.135,-25.194,-103.929,-25.236,-102.921,-25.236C-100.785,-25.236,-98.8468,-24.996,-97.1068,-24.516C-95.3668,-24.036,-93.8727,-23.28,-92.6247,-22.248C-91.3767,-21.216,-90.4167,-19.896,-89.7448,-18.288C-89.0728,-16.68,-88.7368,-14.748,-88.7368,-12.492ZM-77.1815,-3.744C-76.6535,-3.744,-76.1495,-3.756,-75.6695,-3.78C-75.1895,-3.804,-74.8055,-3.84,-74.5175,-3.888L-74.5175,-7.956C-74.7335,-8.004,-75.0575,-8.052,-75.4895,-8.1C-75.9215,-8.148,-76.3175,-8.172,-76.6775,-8.172C-77.1815,-8.172,-77.6555,-8.142,-78.0995,-8.082C-78.5435,-8.022,-78.9335,-7.908,-79.2695,-7.74C-79.6055,-7.572,-79.8695,-7.344,-80.0615,-7.056C-80.2535,-6.768,-80.3495,-6.408,-80.3495,-5.976C-80.3495,-5.136,-80.0675,-4.554,-79.5035,-4.23C-78.9395,-3.906,-78.1655,-3.744,-77.1815,-3.744ZM-77.6135,-19.44C-76.0295,-19.44,-74.7095,-19.26,-73.6535,-18.9C-72.5975,-18.54,-71.7515,-18.024,-71.1155,-17.352C-70.4795,-16.68,-70.0295,-15.864,-69.7655,-14.904C-69.5015,-13.944,-69.3695,-12.876,-69.3695,-11.7L-69.3695,-0.54C-70.1375,-0.372,-71.2055,-0.174,-72.5735,0.054C-73.9415,0.282,-75.5975,0.396,-77.5415,0.396C-78.7655,0.396,-79.8755,0.288,-80.8715,0.072C-81.8675,-0.144,-82.7255,-0.498,-83.4455,-0.99C-84.1655,-1.482,-84.7175,-2.124,-85.1015,-2.916C-85.4855,-3.708,-85.6775,-4.68,-85.6775,-5.832C-85.6775,-6.936,-85.4555,-7.872,-85.0115,-8.64C-84.5675,-9.408,-83.9735,-10.02,-83.2295,-10.476C-82.4855,-10.932,-81.6335,-11.262,-80.6735,-11.466C-79.7135,-11.67,-78.7175,-11.772,-77.6855,-11.772C-76.9895,-11.772,-76.3715,-11.742,-75.8315,-11.682C-75.2915,-11.622,-74.8535,-11.544,-74.5175,-11.448L-74.5175,-11.952C-74.5175,-12.864,-74.7935,-13.596,-75.3455,-14.148C-75.8975,-14.7,-76.8575,-14.976,-78.2255,-14.976C-79.1375,-14.976,-80.0375,-14.91,-80.9255,-14.778C-81.8135,-14.646,-82.5815,-14.46,-83.2295,-14.22L-83.9135,-18.54C-83.6015,-18.636,-83.2115,-18.738,-82.7435,-18.846C-82.2755,-18.954,-81.7655,-19.05,-81.2135,-19.134C-80.6615,-19.218,-80.0795,-19.29,-79.4675,-19.35C-78.8555,-19.41,-78.2375,-19.44,-77.6135,-19.44ZM-64.6913,-23.652L-59.3273,-24.516L-59.3273,-18.936L-52.8832,-18.936L-52.8832,-14.472L-59.3273,-14.472L-59.3273,-7.812C-59.3273,-6.684,-59.1293,-5.784,-58.7332,-5.112C-58.3373,-4.44,-57.5393,-4.104,-56.3392,-4.104C-55.7632,-4.104,-55.1693,-4.158,-54.5573,-4.266C-53.9453,-4.374,-53.3873,-4.524,-52.8832,-4.716L-52.1273,-0.54C-52.7753,-0.276,-53.4953,-0.048,-54.2873,0.144C-55.0793,0.336,-56.0513,0.432,-57.2033,0.432C-58.6673,0.432,-59.8792,0.234,-60.8392,-0.162C-61.7993,-0.558,-62.5673,-1.11,-63.1432,-1.818C-63.7192,-2.526,-64.1212,-3.384,-64.3493,-4.392C-64.5773,-5.4,-64.6913,-6.516,-64.6913,-7.74ZM-42.0096,-3.744C-41.4816,-3.744,-40.9776,-3.756,-40.4976,-3.78C-40.0176,-3.804,-39.6336,-3.84,-39.3456,-3.888L-39.3456,-7.956C-39.5616,-8.004,-39.8856,-8.052,-40.3176,-8.1C-40.7496,-8.148,-41.1456,-8.172,-41.5056,-8.172C-42.0096,-8.172,-42.4836,-8.142,-42.9276,-8.082C-43.3716,-8.022,-43.7616,-7.908,-44.0976,-7.74C-44.4336,-7.572,-44.6976,-7.344,-44.8896,-7.056C-45.0816,-6.768,-45.1776,-6.408,-45.1776,-5.976C-45.1776,-5.136,-44.8956,-4.554,-44.3316,-4.23C-43.7676,-3.906,-42.9936,-3.744,-42.0096,-3.744ZM-42.4416,-19.44C-40.8576,-19.44,-39.5376,-19.26,-38.4816,-18.9C-37.4256,-18.54,-36.5796,-18.024,-35.9436,-17.352C-35.3076,-16.68,-34.8576,-15.864,-34.5936,-14.904C-34.3296,-13.944,-34.1976,-12.876,-34.1976,-11.7L-34.1976,-0.54C-34.9656,-0.372,-36.0336,-0.174,-37.4016,0.054C-38.7696,0.282,-40.4256,0.396,-42.3696,0.396C-43.5936,0.396,-44.7036,0.288,-45.6996,0.072C-46.6956,-0.144,-47.5536,-0.498,-48.2736,-0.99C-48.9936,-1.482,-49.5456,-2.124,-49.9296,-2.916C-50.3136,-3.708,-50.5056,-4.68,-50.5056,-5.832C-50.5056,-6.936,-50.2836,-7.872,-49.8396,-8.64C-49.3956,-9.408,-48.8016,-10.02,-48.0576,-10.476C-47.3136,-10.932,-46.4616,-11.262,-45.5016,-11.466C-44.5416,-11.67,-43.5456,-11.772,-42.5136,-11.772C-41.8176,-11.772,-41.1996,-11.742,-40.6596,-11.682C-40.1196,-11.622,-39.6816,-11.544,-39.3456,-11.448L-39.3456,-11.952C-39.3456,-12.864,-39.6216,-13.596,-40.1736,-14.148C-40.7256,-14.7,-41.6856,-14.976,-43.0536,-14.976C-43.9656,-14.976,-44.8656,-14.91,-45.7536,-14.778C-46.6416,-14.646,-47.4096,-14.46,-48.0576,-14.22L-48.7416,-18.54C-48.4296,-18.636,-48.0396,-18.738,-47.5716,-18.846C-47.1036,-18.954,-46.5936,-19.05,-46.0416,-19.134C-45.4896,-19.218,-44.9076,-19.29,-44.2956,-19.35C-43.6836,-19.41,-43.0656,-19.44,-42.4416,-19.44ZM-3.63475,0C-3.89875,-0.864,-4.19275,-1.752,-4.51675,-2.664C-4.84075,-3.576,-5.15875,-4.488,-5.47075,-5.4L-15.1908,-5.4C-15.5028,-4.488,-15.8207,-3.576,-16.1447,-2.664C-16.4688,-1.752,-16.7627,-0.864,-17.0267,0L-22.8587,0C-21.9227,-2.688,-21.0347,-5.172,-20.1947,-7.452C-19.3547,-9.732,-18.5327,-11.88,-17.7288,-13.896C-16.9248,-15.912,-16.1328,-17.826,-15.3527,-19.638C-14.5728,-21.45,-13.7628,-23.22,-12.9227,-24.948L-7.55875,-24.948C-6.74275,-23.22,-5.93875,-21.45,-5.14675,-19.638C-4.35475,-17.826,-3.55675,-15.912,-2.75275,-13.896C-1.94875,-11.88,-1.12675,-9.732,-0.286749,-7.452C0.55325,-5.172,1.44125,-2.688,2.37725,0ZM-10.3668,-19.296C-10.4868,-18.936,-10.6667,-18.444,-10.9067,-17.82C-11.1468,-17.196,-11.4228,-16.476,-11.7347,-15.66C-12.0468,-14.844,-12.3888,-13.944,-12.7608,-12.96C-13.1327,-11.976,-13.5107,-10.944,-13.8947,-9.864L-6.80275,-9.864C-7.18675,-10.944,-7.55875,-11.976,-7.91875,-12.96C-8.27875,-13.944,-8.62075,-14.844,-8.94475,-15.66C-9.26875,-16.476,-9.55075,-17.196,-9.79075,-17.82C-10.0308,-18.444,-10.2228,-18.936,-10.3668,-19.296ZM5.25437,-18.288C6.16638,-18.552,7.34238,-18.798,8.78238,-19.026C10.2224,-19.254,11.7344,-19.368,13.3184,-19.368C14.9264,-19.368,16.2644,-19.158,17.3324,-18.738C18.4004,-18.318,19.2464,-17.724,19.8704,-16.956C20.4944,-16.188,20.9384,-15.276,21.2024,-14.22C21.4664,-13.164,21.5984,-11.988,21.5984,-10.692L21.5984,0L16.2344,0L16.2344,-10.044C16.2344,-11.772,16.0064,-12.996,15.5504,-13.716C15.0944,-14.436,14.2424,-14.796,12.9944,-14.796C12.6104,-14.796,12.2024,-14.778,11.7704,-14.742C11.3384,-14.706,10.9544,-14.664,10.6184,-14.616L10.6184,0L5.25437,0ZM33.6935,-3.744C34.2215,-3.744,34.7255,-3.756,35.2055,-3.78C35.6855,-3.804,36.0695,-3.84,36.3575,-3.888L36.3575,-7.956C36.1415,-8.004,35.8175,-8.052,35.3855,-8.1C34.9535,-8.148,34.5575,-8.172,34.1975,-8.172C33.6935,-8.172,33.2195,-8.142,32.7755,-8.082C32.3315,-8.022,31.9415,-7.908,31.6055,-7.74C31.2695,-7.572,31.0055,-7.344,30.8135,-7.056C30.6215,-6.768,30.5255,-6.408,30.5255,-5.976C30.5255,-5.136,30.8075,-4.554,31.3715,-4.23C31.9355,-3.906,32.7095,-3.744,33.6935,-3.744ZM33.2615,-19.44C34.8455,-19.44,36.1655,-19.26,37.2215,-18.9C38.2775,-18.54,39.1235,-18.024,39.7595,-17.352C40.3955,-16.68,40.8455,-15.864,41.1095,-14.904C41.3735,-13.944,41.5055,-12.876,41.5055,-11.7L41.5055,-0.54C40.7375,-0.372,39.6695,-0.174,38.3015,0.054C36.9335,0.282,35.2775,0.396,33.3335,0.396C32.1095,0.396,30.9995,0.288,30.0035,0.072C29.0075,-0.144,28.1495,-0.498,27.4295,-0.99C26.7095,-1.482,26.1575,-2.124,25.7735,-2.916C25.3895,-3.708,25.1975,-4.68,25.1975,-5.832C25.1975,-6.936,25.4195,-7.872,25.8635,-8.64C26.3075,-9.408,26.9015,-10.02,27.6455,-10.476C28.3895,-10.932,29.2415,-11.262,30.2015,-11.466C31.1615,-11.67,32.1575,-11.772,33.1895,-11.772C33.8855,-11.772,34.5035,-11.742,35.0435,-11.682C35.5835,-11.622,36.0215,-11.544,36.3575,-11.448L36.3575,-11.952C36.3575,-12.864,36.0815,-13.596,35.5295,-14.148C34.9775,-14.7,34.0175,-14.976,32.6495,-14.976C31.7375,-14.976,30.8375,-14.91,29.9495,-14.778C29.0615,-14.646,28.2935,-14.46,27.6455,-14.22L26.9615,-18.54C27.2735,-18.636,27.6635,-18.738,28.1315,-18.846C28.5995,-18.954,29.1095,-19.05,29.6615,-19.134C30.2135,-19.218,30.7955,-19.29,31.4075,-19.35C32.0195,-19.41,32.6375,-19.44,33.2615,-19.44ZM53.9238,0.36C52.3638,0.336,51.0978,0.168,50.1258,-0.144C49.1538,-0.456,48.3858,-0.894,47.8218,-1.458C47.2578,-2.022,46.8738,-2.706,46.6698,-3.51C46.4658,-4.314,46.3638,-5.22,46.3638,-6.228L46.3638,-27.072L51.7277,-27.936L51.7277,-7.308C51.7277,-6.828,51.7637,-6.396,51.8358,-6.012C51.9077,-5.628,52.0457,-5.304,52.2497,-5.04C52.4537,-4.776,52.7477,-4.56,53.1317,-4.392C53.5157,-4.224,54.0317,-4.116,54.6797,-4.068ZM74.1601,-18.936C73.0801,-15.288,71.9521,-11.868,70.7761,-8.676C69.6001,-5.484,68.3161,-2.388,66.9241,0.612C66.4201,1.692,65.9161,2.61,65.4121,3.366C64.9081,4.122,64.3561,4.746,63.7561,5.238C63.1561,5.73,62.4781,6.09,61.7221,6.318C60.9661,6.546,60.0841,6.66,59.0761,6.66C58.2361,6.66,57.4621,6.582,56.7541,6.426C56.0461,6.27,55.4641,6.096,55.0081,5.904L55.9441,1.62C56.4961,1.812,56.9881,1.944,57.4201,2.016C57.8521,2.088,58.3081,2.124,58.7881,2.124C59.7481,2.124,60.4861,1.866,61.0021,1.35C61.5181,0.834,61.9561,0.12,62.3161,-0.792C61.0921,-3.192,59.8681,-5.886,58.6441,-8.874C57.4201,-11.862,56.2681,-15.216,55.1881,-18.936L60.8761,-18.936C61.1161,-18,61.3981,-16.986,61.7221,-15.894C62.0461,-14.802,62.3881,-13.698,62.7481,-12.582C63.1081,-11.466,63.4741,-10.38,63.8461,-9.324C64.2181,-8.268,64.5721,-7.308,64.9081,-6.444C65.2201,-7.308,65.5441,-8.268,65.8801,-9.324C66.2161,-10.38,66.5461,-11.466,66.8701,-12.582C67.1941,-13.698,67.5061,-14.802,67.8061,-15.894C68.1061,-16.986,68.3761,-18,68.6161,-18.936ZM91.7244,-15.336C91.2924,-14.856,90.7104,-14.208,89.9784,-13.392C89.2464,-12.576,88.4604,-11.676,87.6204,-10.692C86.7804,-9.708,85.9344,-8.676,85.0824,-7.596C84.2304,-6.516,83.4564,-5.472,82.7604,-4.464L91.9044,-4.464L91.9044,0L76.2444,0L76.2444,-3.168C76.7484,-4.032,77.3544,-4.962,78.0624,-5.958C78.7704,-6.954,79.5144,-7.956,80.2944,-8.964C81.0744,-9.972,81.8484,-10.95,82.6164,-11.898C83.3844,-12.846,84.0924,-13.704,84.7404,-14.472L76.6764,-14.472L76.6764,-18.936L91.7244,-18.936ZM94.0575,-9.324C94.0575,-11.004,94.3155,-12.474,94.8315,-13.734C95.3475,-14.994,96.0255,-16.044,96.8655,-16.884C97.7055,-17.724,98.6715,-18.36,99.7635,-18.792C100.855,-19.224,101.977,-19.44,103.13,-19.44C105.817,-19.44,107.942,-18.618,109.502,-16.974C111.062,-15.33,111.841,-12.912,111.841,-9.72C111.841,-9.408,111.829,-9.066,111.805,-8.694C111.781,-8.322,111.758,-7.992,111.734,-7.704L99.5655,-7.704C99.6855,-6.6,100.201,-5.724,101.114,-5.076C102.025,-4.428,103.249,-4.104,104.785,-4.104C105.769,-4.104,106.735,-4.194,107.684,-4.374C108.632,-4.554,109.405,-4.776,110.006,-5.04L110.726,-0.684C110.438,-0.54,110.054,-0.396,109.574,-0.252C109.094,-0.108,108.559,0.018,107.971,0.126C107.383,0.234,106.753,0.324,106.081,0.396C105.41,0.468,104.738,0.504,104.065,0.504C102.361,0.504,100.879,0.252,99.6195,-0.252C98.3595,-0.756,97.3155,-1.446,96.4875,-2.322C95.6595,-3.198,95.0475,-4.236,94.6515,-5.436C94.2555,-6.636,94.0575,-7.932,94.0575,-9.324ZM106.658,-11.376C106.633,-11.832,106.555,-12.276,106.424,-12.708C106.292,-13.14,106.088,-13.524,105.812,-13.86C105.535,-14.196,105.188,-14.472,104.768,-14.688C104.347,-14.904,103.825,-15.012,103.201,-15.012C102.601,-15.012,102.086,-14.91,101.654,-14.706C101.222,-14.502,100.862,-14.232,100.574,-13.896C100.286,-13.56,100.064,-13.17,99.9075,-12.726C99.7515,-12.282,99.6375,-11.832,99.5655,-11.376Z" fill-rule="nonzero" transform="translate(503.873,106.422) scale(2.53827,2.53827)"/>
    <path fill="#ff0000" stroke="none" d="M9.504,0.336C6.8,0.336,4.74,-0.416,3.324,-1.92C1.908,-3.424,1.2,-5.56,1.2,-8.328C1.2,-9.704,1.416,-10.932,1.848,-12.012C2.28,-13.092,2.872,-14.004,3.624,-14.748C4.376,-15.492,5.272,-16.056,6.312,-16.44C7.352,-16.824,8.48,-17.016,9.696,-17.016C10.4,-17.016,11.04,-16.964,11.616,-16.86C12.192,-16.756,12.696,-16.636,13.128,-16.5C13.56,-16.364,13.92,-16.224,14.208,-16.08C14.496,-15.936,14.704,-15.824,14.832,-15.744L13.752,-12.72C13.24,-12.992,12.644,-13.224,11.964,-13.416C11.284,-13.608,10.512,-13.704,9.648,-13.704C9.072,-13.704,8.508,-13.608,7.956,-13.416C7.404,-13.224,6.916,-12.916,6.492,-12.492C6.068,-12.068,5.728,-11.52,5.472,-10.848C5.216,-10.176,5.088,-9.36,5.088,-8.4C5.088,-7.632,5.172,-6.916,5.34,-6.252C5.508,-5.588,5.78,-5.016,6.156,-4.536C6.532,-4.056,7.024,-3.676,7.632,-3.396C8.24,-3.116,8.976,-2.976,9.84,-2.976C10.384,-2.976,10.872,-3.008,11.304,-3.072C11.736,-3.136,12.12,-3.212,12.456,-3.3C12.792,-3.388,13.088,-3.488,13.344,-3.6C13.6,-3.712,13.832,-3.816,14.04,-3.912L15.072,-0.912C14.544,-0.592,13.8,-0.304,12.84,-0.048C11.88,0.208,10.768,0.336,9.504,0.336ZM27.6904,-0.432C27.0824,-0.256,26.2984,-0.092,25.3384,0.06C24.3784,0.212,23.3704,0.288,22.3144,0.288C21.2424,0.288,20.3504,0.144,19.6384,-0.144C18.9264,-0.432,18.3624,-0.836,17.9464,-1.356C17.5304,-1.876,17.2344,-2.496,17.0584,-3.216C16.8824,-3.936,16.7944,-4.728,16.7944,-5.592L16.7944,-12.624L20.3704,-12.624L20.3704,-6.024C20.3704,-4.872,20.5224,-4.04,20.8264,-3.528C21.1304,-3.016,21.6984,-2.76,22.5304,-2.76C22.7864,-2.76,23.0584,-2.772,23.3464,-2.796C23.6344,-2.82,23.8904,-2.848,24.1144,-2.88L24.1144,-12.624L27.6904,-12.624ZM34.679,-2.568C35.335,-2.568,35.799,-2.632,36.071,-2.76C36.343,-2.888,36.479,-3.136,36.479,-3.504C36.479,-3.792,36.303,-4.044,35.951,-4.26C35.599,-4.476,35.063,-4.72,34.343,-4.992C33.783,-5.2,33.275,-5.416,32.819,-5.64C32.363,-5.864,31.975,-6.132,31.655,-6.444C31.335,-6.756,31.087,-7.128,30.911,-7.56C30.735,-7.992,30.647,-8.512,30.647,-9.12C30.647,-10.304,31.087,-11.24,31.967,-11.928C32.847,-12.616,34.055,-12.96,35.591,-12.96C36.359,-12.96,37.095,-12.892,37.799,-12.756C38.503,-12.62,39.063,-12.472,39.479,-12.312L38.855,-9.528C38.439,-9.672,37.987,-9.8,37.499,-9.912C37.011,-10.024,36.463,-10.08,35.855,-10.08C34.735,-10.08,34.175,-9.768,34.175,-9.144C34.175,-9,34.199,-8.872,34.247,-8.76C34.295,-8.648,34.391,-8.54,34.535,-8.436C34.679,-8.332,34.875,-8.22,35.123,-8.1C35.371,-7.98,35.687,-7.848,36.071,-7.704C36.855,-7.416,37.503,-7.132,38.015,-6.852C38.527,-6.572,38.931,-6.268,39.227,-5.94C39.523,-5.612,39.731,-5.248,39.851,-4.848C39.971,-4.448,40.031,-3.984,40.031,-3.456C40.031,-2.208,39.563,-1.264,38.627,-0.624C37.691,0.016,36.367,0.336,34.655,0.336C33.535,0.336,32.603,0.24,31.859,0.048C31.115,-0.144,30.599,-0.304,30.311,-0.432L30.911,-3.336C31.519,-3.096,32.143,-2.908,32.783,-2.772C33.423,-2.636,34.055,-2.568,34.679,-2.568ZM42.5756,-15.768L46.1516,-16.344L46.1516,-12.624L50.4476,-12.624L50.4476,-9.648L46.1516,-9.648L46.1516,-5.208C46.1516,-4.456,46.2836,-3.856,46.5476,-3.408C46.8116,-2.96,47.3436,-2.736,48.1436,-2.736C48.5276,-2.736,48.9236,-2.772,49.3316,-2.844C49.7396,-2.916,50.1116,-3.016,50.4476,-3.144L50.9516,-0.36C50.5196,-0.184,50.0396,-0.032,49.5116,0.096C48.9836,0.224,48.3356,0.288,47.5676,0.288C46.5916,0.288,45.7836,0.156,45.1436,-0.108C44.5036,-0.372,43.9916,-0.74,43.6076,-1.212C43.2236,-1.684,42.9556,-2.256,42.8036,-2.928C42.6516,-3.6,42.5756,-4.344,42.5756,-5.16ZM64.6755,-6.336C64.6755,-5.344,64.5315,-4.436,64.2435,-3.612C63.9555,-2.788,63.5395,-2.084,62.9955,-1.5C62.4515,-0.916,61.7995,-0.464,61.0395,-0.144C60.2795,0.176,59.4275,0.336,58.4835,0.336C57.5555,0.336,56.7115,0.176,55.9515,-0.144C55.1915,-0.464,54.5395,-0.916,53.9955,-1.5C53.4515,-2.084,53.0275,-2.788,52.7235,-3.612C52.4195,-4.436,52.2675,-5.344,52.2675,-6.336C52.2675,-7.328,52.4235,-8.232,52.7355,-9.048C53.0475,-9.864,53.4795,-10.56,54.0315,-11.136C54.5835,-11.712,55.2395,-12.16,55.9995,-12.48C56.7595,-12.8,57.5875,-12.96,58.4835,-12.96C59.3955,-12.96,60.2315,-12.8,60.9915,-12.48C61.7515,-12.16,62.4035,-11.712,62.9475,-11.136C63.4915,-10.56,63.9155,-9.864,64.2195,-9.048C64.5235,-8.232,64.6755,-7.328,64.6755,-6.336ZM61.0275,-6.336C61.0275,-7.44,60.8075,-8.308,60.3675,-8.94C59.9275,-9.572,59.2995,-9.888,58.4835,-9.888C57.6675,-9.888,57.0355,-9.572,56.5875,-8.94C56.1395,-8.308,55.9155,-7.44,55.9155,-6.336C55.9155,-5.232,56.1395,-4.356,56.5875,-3.708C57.0355,-3.06,57.6675,-2.736,58.4835,-2.736C59.2995,-2.736,59.9275,-3.06,60.3675,-3.708C60.8075,-4.356,61.0275,-5.232,61.0275,-6.336ZM74.366,-6.696C74.366,-7.848,74.218,-8.664,73.922,-9.144C73.626,-9.624,73.118,-9.864,72.398,-9.864C72.174,-9.864,71.942,-9.852,71.702,-9.828C71.462,-9.804,71.23,-9.776,71.006,-9.744L71.006,0L67.43,0L67.43,-12.192C67.734,-12.272,68.09,-12.356,68.498,-12.444C68.906,-12.532,69.338,-12.612,69.794,-12.684C70.25,-12.756,70.718,-12.812,71.198,-12.852C71.678,-12.892,72.15,-12.912,72.614,-12.912C73.526,-12.912,74.266,-12.796,74.834,-12.564C75.402,-12.332,75.87,-12.056,76.238,-11.736C76.75,-12.104,77.338,-12.392,78.002,-12.6C78.666,-12.808,79.278,-12.912,79.838,-12.912C80.846,-12.912,81.674,-12.772,82.322,-12.492C82.97,-12.212,83.486,-11.816,83.87,-11.304C84.254,-10.792,84.518,-10.184,84.662,-9.48C84.806,-8.776,84.878,-7.992,84.878,-7.128L84.878,0L81.302,0L81.302,-6.696C81.302,-7.848,81.154,-8.664,80.858,-9.144C80.562,-9.624,80.054,-9.864,79.334,-9.864C79.142,-9.864,78.874,-9.816,78.53,-9.72C78.186,-9.624,77.902,-9.504,77.678,-9.36C77.79,-8.992,77.862,-8.604,77.894,-8.196C77.926,-7.788,77.942,-7.352,77.942,-6.888L77.942,0L74.366,0ZM101.707,0.336C99.0031,0.336,96.9431,-0.416,95.5271,-1.92C94.1111,-3.424,93.4031,-5.56,93.4031,-8.328C93.4031,-9.704,93.6191,-10.932,94.0511,-12.012C94.4831,-13.092,95.0751,-14.004,95.8271,-14.748C96.5791,-15.492,97.4751,-16.056,98.5151,-16.44C99.5551,-16.824,100.683,-17.016,101.899,-17.016C102.603,-17.016,103.243,-16.964,103.819,-16.86C104.395,-16.756,104.899,-16.636,105.331,-16.5C105.763,-16.364,106.123,-16.224,106.411,-16.08C106.699,-15.936,106.907,-15.824,107.035,-15.744L105.955,-12.72C105.443,-12.992,104.847,-13.224,104.167,-13.416C103.487,-13.608,102.715,-13.704,101.851,-13.704C101.275,-13.704,100.711,-13.608,100.159,-13.416C99.6071,-13.224,99.1191,-12.916,98.6951,-12.492C98.2711,-12.068,97.9311,-11.52,97.6751,-10.848C97.4191,-10.176,97.2911,-9.36,97.2911,-8.4C97.2911,-7.632,97.3751,-6.916,97.5431,-6.252C97.7111,-5.588,97.9831,-5.016,98.3591,-4.536C98.7351,-4.056,99.2271,-3.676,99.8351,-3.396C100.443,-3.116,101.179,-2.976,102.043,-2.976C102.587,-2.976,103.075,-3.008,103.507,-3.072C103.939,-3.136,104.323,-3.212,104.659,-3.3C104.995,-3.388,105.291,-3.488,105.547,-3.6C105.803,-3.712,106.035,-3.816,106.243,-3.912L107.275,-0.912C106.747,-0.592,106.003,-0.304,105.043,-0.048C104.083,0.208,102.971,0.336,101.707,0.336ZM114.488,-2.496C114.84,-2.496,115.176,-2.504,115.496,-2.52C115.816,-2.536,116.072,-2.56,116.264,-2.592L116.264,-5.304C116.12,-5.336,115.904,-5.368,115.616,-5.4C115.328,-5.432,115.064,-5.448,114.824,-5.448C114.488,-5.448,114.172,-5.428,113.876,-5.388C113.58,-5.348,113.32,-5.272,113.096,-5.16C112.872,-5.048,112.696,-4.896,112.568,-4.704C112.44,-4.512,112.376,-4.272,112.376,-3.984C112.376,-3.424,112.564,-3.036,112.94,-2.82C113.316,-2.604,113.832,-2.496,114.488,-2.496ZM114.2,-12.96C115.256,-12.96,116.136,-12.84,116.84,-12.6C117.544,-12.36,118.108,-12.016,118.532,-11.568C118.956,-11.12,119.256,-10.576,119.432,-9.936C119.608,-9.296,119.696,-8.584,119.696,-7.8L119.696,-0.36C119.184,-0.248,118.472,-0.116,117.56,0.036C116.648,0.188,115.544,0.264,114.248,0.264C113.432,0.264,112.692,0.192,112.028,0.048C111.364,-0.096,110.792,-0.332,110.312,-0.66C109.832,-0.988,109.464,-1.416,109.208,-1.944C108.952,-2.472,108.824,-3.12,108.824,-3.888C108.824,-4.624,108.972,-5.248,109.268,-5.76C109.564,-6.272,109.96,-6.68,110.456,-6.984C110.952,-7.288,111.52,-7.508,112.16,-7.644C112.8,-7.78,113.464,-7.848,114.152,-7.848C114.616,-7.848,115.028,-7.828,115.388,-7.788C115.748,-7.748,116.04,-7.696,116.264,-7.632L116.264,-7.968C116.264,-8.576,116.08,-9.064,115.712,-9.432C115.344,-9.8,114.704,-9.984,113.792,-9.984C113.184,-9.984,112.584,-9.94,111.992,-9.852C111.4,-9.764,110.888,-9.64,110.456,-9.48L110,-12.36C110.208,-12.424,110.468,-12.492,110.78,-12.564C111.092,-12.636,111.432,-12.7,111.8,-12.756C112.168,-12.812,112.556,-12.86,112.964,-12.9C113.372,-12.94,113.784,-12.96,114.2,-12.96ZM127.97,0.24C126.93,0.224,126.086,0.112,125.438,-0.096C124.79,-0.304,124.278,-0.596,123.902,-0.972C123.526,-1.348,123.27,-1.804,123.134,-2.34C122.998,-2.876,122.93,-3.48,122.93,-4.152L122.93,-18.048L126.506,-18.624L126.506,-4.872C126.506,-4.552,126.53,-4.264,126.578,-4.008C126.626,-3.752,126.718,-3.536,126.854,-3.36C126.99,-3.184,127.186,-3.04,127.442,-2.928C127.698,-2.816,128.042,-2.744,128.474,-2.712ZM129.908,-6.312C129.908,-7.224,130.056,-8.084,130.352,-8.892C130.648,-9.7,131.076,-10.404,131.636,-11.004C132.196,-11.604,132.876,-12.08,133.676,-12.432C134.476,-12.784,135.388,-12.96,136.412,-12.96C137.084,-12.96,137.7,-12.9,138.26,-12.78C138.82,-12.66,139.364,-12.488,139.892,-12.264L139.148,-9.408C138.812,-9.536,138.444,-9.648,138.044,-9.744C137.644,-9.84,137.196,-9.888,136.7,-9.888C135.644,-9.888,134.856,-9.56,134.336,-8.904C133.816,-8.248,133.556,-7.384,133.556,-6.312C133.556,-5.176,133.8,-4.296,134.288,-3.672C134.776,-3.048,135.628,-2.736,136.844,-2.736C137.276,-2.736,137.74,-2.776,138.236,-2.856C138.732,-2.936,139.188,-3.064,139.604,-3.24L140.108,-0.312C139.692,-0.136,139.172,0.016,138.548,0.144C137.924,0.272,137.236,0.336,136.484,0.336C135.332,0.336,134.34,0.164,133.508,-0.18C132.676,-0.524,131.992,-0.992,131.456,-1.584C130.92,-2.176,130.528,-2.876,130.28,-3.684C130.032,-4.492,129.908,-5.368,129.908,-6.312ZM153.284,-0.432C152.676,-0.256,151.892,-0.092,150.932,0.06C149.972,0.212,148.964,0.288,147.908,0.288C146.836,0.288,145.944,0.144,145.232,-0.144C144.52,-0.432,143.956,-0.836,143.54,-1.356C143.124,-1.876,142.828,-2.496,142.652,-3.216C142.476,-3.936,142.388,-4.728,142.388,-5.592L142.388,-12.624L145.964,-12.624L145.964,-6.024C145.964,-4.872,146.116,-4.04,146.42,-3.528C146.724,-3.016,147.292,-2.76,148.124,-2.76C148.38,-2.76,148.652,-2.772,148.94,-2.796C149.228,-2.82,149.484,-2.848,149.708,-2.88L149.708,-12.624L153.284,-12.624ZM161.689,0.24C160.649,0.224,159.805,0.112,159.157,-0.096C158.509,-0.304,157.997,-0.596,157.621,-0.972C157.245,-1.348,156.989,-1.804,156.853,-2.34C156.717,-2.876,156.649,-3.48,156.649,-4.152L156.649,-18.048L160.225,-18.624L160.225,-4.872C160.225,-4.552,160.249,-4.264,160.297,-4.008C160.345,-3.752,160.437,-3.536,160.573,-3.36C160.709,-3.184,160.905,-3.04,161.161,-2.928C161.417,-2.816,161.761,-2.744,162.193,-2.712ZM169.41,-2.496C169.762,-2.496,170.098,-2.504,170.418,-2.52C170.738,-2.536,170.994,-2.56,171.186,-2.592L171.186,-5.304C171.042,-5.336,170.826,-5.368,170.538,-5.4C170.25,-5.432,169.986,-5.448,169.746,-5.448C169.41,-5.448,169.094,-5.428,168.798,-5.388C168.502,-5.348,168.242,-5.272,168.018,-5.16C167.794,-5.048,167.618,-4.896,167.49,-4.704C167.362,-4.512,167.298,-4.272,167.298,-3.984C167.298,-3.424,167.486,-3.036,167.862,-2.82C168.238,-2.604,168.754,-2.496,169.41,-2.496ZM169.122,-12.96C170.178,-12.96,171.058,-12.84,171.762,-12.6C172.466,-12.36,173.03,-12.016,173.454,-11.568C173.878,-11.12,174.178,-10.576,174.354,-9.936C174.53,-9.296,174.618,-8.584,174.618,-7.8L174.618,-0.36C174.106,-0.248,173.394,-0.116,172.482,0.036C171.57,0.188,170.466,0.264,169.17,0.264C168.354,0.264,167.614,0.192,166.95,0.048C166.286,-0.096,165.714,-0.332,165.234,-0.66C164.754,-0.988,164.386,-1.416,164.13,-1.944C163.874,-2.472,163.746,-3.12,163.746,-3.888C163.746,-4.624,163.894,-5.248,164.19,-5.76C164.486,-6.272,164.882,-6.68,165.378,-6.984C165.874,-7.288,166.442,-7.508,167.082,-7.644C167.722,-7.78,168.386,-7.848,169.074,-7.848C169.538,-7.848,169.95,-7.828,170.31,-7.788C170.67,-7.748,170.962,-7.696,171.186,-7.632L171.186,-7.968C171.186,-8.576,171.002,-9.064,170.634,-9.432C170.266,-9.8,169.626,-9.984,168.714,-9.984C168.106,-9.984,167.506,-9.94,166.914,-9.852C166.322,-9.764,165.81,-9.64,165.378,-9.48L164.922,-12.36C165.13,-12.424,165.39,-12.492,165.702,-12.564C166.014,-12.636,166.354,-12.7,166.722,-12.756C167.09,-12.812,167.478,-12.86,167.886,-12.9C168.294,-12.94,168.706,-12.96,169.122,-12.96ZM177.732,-15.768L181.308,-16.344L181.308,-12.624L185.604,-12.624L185.604,-9.648L181.308,-9.648L181.308,-5.208C181.308,-4.456,181.44,-3.856,181.704,-3.408C181.968,-2.96,182.5,-2.736,183.3,-2.736C183.684,-2.736,184.08,-2.772,184.488,-2.844C184.896,-2.916,185.268,-3.016,185.604,-3.144L186.108,-0.36C185.676,-0.184,185.196,-0.032,184.668,0.096C184.14,0.224,183.492,0.288,182.724,0.288C181.748,0.288,180.94,0.156,180.3,-0.108C179.66,-0.372,179.148,-0.74,178.764,-1.212C178.38,-1.684,178.112,-2.256,177.96,-2.928C177.808,-3.6,177.732,-4.344,177.732,-5.16ZM192.084,0L188.508,0L188.508,-12.624L192.084,-12.624ZM192.42,-16.272C192.42,-15.616,192.208,-15.1,191.784,-14.724C191.36,-14.348,190.86,-14.16,190.284,-14.16C189.708,-14.16,189.208,-14.348,188.784,-14.724C188.36,-15.1,188.148,-15.616,188.148,-16.272C188.148,-16.928,188.36,-17.444,188.784,-17.82C189.208,-18.196,189.708,-18.384,190.284,-18.384C190.86,-18.384,191.36,-18.196,191.784,-17.82C192.208,-17.444,192.42,-16.928,192.42,-16.272ZM207.254,-6.336C207.254,-5.344,207.11,-4.436,206.822,-3.612C206.534,-2.788,206.118,-2.084,205.574,-1.5C205.03,-0.916,204.378,-0.464,203.618,-0.144C202.858,0.176,202.006,0.336,201.062,0.336C200.134,0.336,199.29,0.176,198.53,-0.144C197.77,-0.464,197.118,-0.916,196.574,-1.5C196.03,-2.084,195.606,-2.788,195.302,-3.612C194.998,-4.436,194.846,-5.344,194.846,-6.336C194.846,-7.328,195.002,-8.232,195.314,-9.048C195.626,-9.864,196.058,-10.56,196.61,-11.136C197.162,-11.712,197.818,-12.16,198.578,-12.48C199.338,-12.8,200.166,-12.96,201.062,-12.96C201.974,-12.96,202.81,-12.8,203.57,-12.48C204.33,-12.16,204.982,-11.712,205.526,-11.136C206.07,-10.56,206.494,-9.864,206.798,-9.048C207.102,-8.232,207.254,-7.328,207.254,-6.336ZM203.606,-6.336C203.606,-7.44,203.386,-8.308,202.946,-8.94C202.506,-9.572,201.878,-9.888,201.062,-9.888C200.246,-9.888,199.614,-9.572,199.166,-8.94C198.718,-8.308,198.494,-7.44,198.494,-6.336C198.494,-5.232,198.718,-4.356,199.166,-3.708C199.614,-3.06,200.246,-2.736,201.062,-2.736C201.878,-2.736,202.506,-3.06,202.946,-3.708C203.386,-4.356,203.606,-5.232,203.606,-6.336ZM210.008,-12.192C210.616,-12.368,211.4,-12.532,212.36,-12.684C213.32,-12.836,214.328,-12.912,215.384,-12.912C216.456,-12.912,217.348,-12.772,218.06,-12.492C218.772,-12.212,219.336,-11.816,219.752,-11.304C220.168,-10.792,220.464,-10.184,220.64,-9.48C220.816,-8.776,220.904,-7.992,220.904,-7.128L220.904,0L217.328,0L217.328,-6.696C217.328,-7.848,217.176,-8.664,216.872,-9.144C216.568,-9.624,216,-9.864,215.168,-9.864C214.912,-9.864,214.64,-9.852,214.352,-9.828C214.064,-9.804,213.808,-9.776,213.584,-9.744L213.584,0L210.008,0Z" fill-rule="nonzero" transform="translate(425.958,619.03) scale(2.53827,2.53827)"/>
    <path fill="#ff0000" stroke="none" d="M11.95,0C11.4667,-0.966667,10.9375,-1.94583,10.3625,-2.9375C9.7875,-3.92917,9.125,-4.94167,8.375,-5.975C8.14167,-5.675,7.84583,-5.25833,7.4875,-4.725C7.12917,-4.19167,6.77083,-3.625,6.4125,-3.025C6.05417,-2.425,5.71667,-1.85,5.4,-1.3C5.08333,-0.75,4.85,-0.316667,4.7,0L0.25,0C0.983333,-1.35,1.8375,-2.76667,2.8125,-4.25C3.7875,-5.73333,4.875,-7.30833,6.075,-8.975L0.5,-17.325L5.225,-17.325L8.6,-11.925L11.9,-17.325L16.35,-17.325L10.85,-8.925C12.25,-7.10833,13.425,-5.42917,14.375,-3.8875C15.325,-2.34583,16.075,-1.05,16.625,0ZM23.95,-17.525C26.55,-17.525,28.5417,-17.0625,29.925,-16.1375C31.3083,-15.2125,32,-13.775,32,-11.825C32,-10.6083,31.7208,-9.62083,31.1625,-8.8625C30.6042,-8.10417,29.8,-7.50833,28.75,-7.075C29.1,-6.64167,29.4667,-6.14583,29.85,-5.5875C30.2333,-5.02917,30.6125,-4.44583,30.9875,-3.8375C31.3625,-3.22917,31.725,-2.59583,32.075,-1.9375C32.425,-1.27917,32.75,-0.633333,33.05,0L28.675,0C28.3583,-0.566667,28.0375,-1.14167,27.7125,-1.725C27.3875,-2.30833,27.0542,-2.875,26.7125,-3.425C26.3708,-3.975,26.0333,-4.49583,25.7,-4.9875C25.3667,-5.47917,25.0333,-5.925,24.7,-6.325L22.775,-6.325L22.775,0L18.875,0L18.875,-17.075C19.725,-17.2417,20.6042,-17.3583,21.5125,-17.425C22.4208,-17.4917,23.2333,-17.525,23.95,-17.525ZM24.175,-14.2C23.8917,-14.2,23.6375,-14.1917,23.4125,-14.175C23.1875,-14.1583,22.975,-14.1417,22.775,-14.125L22.775,-9.425L23.875,-9.425C25.3417,-9.425,26.3917,-9.60833,27.025,-9.975C27.6583,-10.3417,27.975,-10.9667,27.975,-11.85C27.975,-12.7,27.6542,-13.3042,27.0125,-13.6625C26.3708,-14.0208,25.425,-14.2,24.175,-14.2ZM39.4469,-3.175C39.6302,-3.15833,39.8427,-3.14583,40.0844,-3.1375C40.326,-3.12917,40.6135,-3.125,40.9469,-3.125C42.8969,-3.125,44.3427,-3.61667,45.2844,-4.6C46.226,-5.58333,46.6969,-6.94167,46.6969,-8.675C46.6969,-10.4917,46.2469,-11.8667,45.3469,-12.8C44.4469,-13.7333,43.0219,-14.2,41.0719,-14.2C40.8052,-14.2,40.5302,-14.1958,40.2469,-14.1875C39.9635,-14.1792,39.6969,-14.1583,39.4469,-14.125ZM50.7219,-8.675C50.7219,-7.175,50.4885,-5.86667,50.0219,-4.75C49.5552,-3.63333,48.8927,-2.70833,48.0344,-1.975C47.176,-1.24167,46.1302,-0.691667,44.8969,-0.325C43.6635,0.0416667,42.2802,0.225,40.7469,0.225C40.0469,0.225,39.2302,0.195833,38.2969,0.1375C37.3635,0.0791667,36.4469,-0.0416667,35.5469,-0.225L35.5469,-17.1C36.4469,-17.2667,37.3844,-17.3792,38.3594,-17.4375C39.3344,-17.4958,40.1719,-17.525,40.8719,-17.525C42.3552,-17.525,43.701,-17.3583,44.9094,-17.025C46.1177,-16.6917,47.1552,-16.1667,48.0219,-15.45C48.8885,-14.7333,49.5552,-13.8167,50.0219,-12.7C50.4885,-11.5833,50.7219,-10.2417,50.7219,-8.675ZM56.2438,-3.8C56.2771,-3.4,56.2979,-3.11667,56.3063,-2.95C56.3146,-2.78333,56.3187,-2.64167,56.3187,-2.525C56.3187,-2.025,56.2729,-1.49583,56.1813,-0.9375C56.0896,-0.379167,55.9604,0.183333,55.7938,0.75C55.6271,1.31667,55.4188,1.88333,55.1688,2.45C54.9188,3.01667,54.6354,3.55833,54.3187,4.075L51.3937,3.35C51.7771,2.25,52.0437,1.21667,52.1937,0.25C52.3438,-0.716667,52.4188,-1.51667,52.4188,-2.15C52.4188,-2.25,52.4146,-2.37917,52.4062,-2.5375C52.3979,-2.69583,52.3896,-2.85833,52.3812,-3.025C52.3729,-3.19167,52.3646,-3.35,52.3563,-3.5C52.3479,-3.65,52.3438,-3.75,52.3438,-3.8ZM65.125,0L65.125,-17.325L76.725,-17.325L76.725,-14.05L69.025,-14.05L69.025,-10.425L75.875,-10.425L75.875,-7.15L69.025,-7.15L69.025,0ZM92.85,-17.325L92.85,-14L87.625,-14L87.625,0L83.725,0L83.725,-14L78.5,-14L78.5,-17.325ZM95.3438,-17.325L99.2438,-17.325L99.2438,0L95.3438,0ZM108.325,-17.525C110.925,-17.525,112.917,-17.0625,114.3,-16.1375C115.683,-15.2125,116.375,-13.775,116.375,-11.825C116.375,-10.6083,116.096,-9.62083,115.537,-8.8625C114.979,-8.10417,114.175,-7.50833,113.125,-7.075C113.475,-6.64167,113.842,-6.14583,114.225,-5.5875C114.608,-5.02917,114.988,-4.44583,115.363,-3.8375C115.738,-3.22917,116.1,-2.59583,116.45,-1.9375C116.8,-1.27917,117.125,-0.633333,117.425,0L113.05,0C112.733,-0.566667,112.412,-1.14167,112.088,-1.725C111.762,-2.30833,111.429,-2.875,111.088,-3.425C110.746,-3.975,110.408,-4.49583,110.075,-4.9875C109.742,-5.47917,109.408,-5.925,109.075,-6.325L107.15,-6.325L107.15,0L103.25,0L103.25,-17.075C104.1,-17.2417,104.979,-17.3583,105.887,-17.425C106.796,-17.4917,107.608,-17.525,108.325,-17.525ZM108.55,-14.2C108.267,-14.2,108.012,-14.1917,107.787,-14.175C107.562,-14.1583,107.35,-14.1417,107.15,-14.125L107.15,-9.425L108.25,-9.425C109.717,-9.425,110.767,-9.60833,111.4,-9.975C112.033,-10.3417,112.35,-10.9667,112.35,-11.85C112.35,-12.7,112.029,-13.3042,111.387,-13.6625C110.746,-14.0208,109.8,-14.2,108.55,-14.2ZM123.791,-3.8C123.824,-3.4,123.845,-3.11667,123.853,-2.95C123.861,-2.78333,123.866,-2.64167,123.866,-2.525C123.866,-2.025,123.82,-1.49583,123.728,-0.9375C123.636,-0.379167,123.507,0.183333,123.341,0.75C123.174,1.31667,122.966,1.88333,122.716,2.45C122.466,3.01667,122.182,3.55833,121.866,4.075L118.941,3.35C119.324,2.25,119.591,1.21667,119.741,0.25C119.891,-0.716667,119.966,-1.51667,119.966,-2.15C119.966,-2.25,119.961,-2.37917,119.953,-2.5375C119.945,-2.69583,119.936,-2.85833,119.928,-3.025C119.92,-3.19167,119.911,-3.35,119.903,-3.5C119.895,-3.65,119.891,-3.75,119.891,-3.8ZM145.522,-17.325L145.522,-14L140.297,-14L140.297,0L136.397,0L136.397,-14L131.172,-14L131.172,-17.325ZM155.887,-14.325C154.071,-14.325,152.758,-13.8208,151.95,-12.8125C151.142,-11.8042,150.738,-10.425,150.738,-8.675C150.738,-7.825,150.838,-7.05417,151.038,-6.3625C151.237,-5.67083,151.537,-5.075,151.938,-4.575C152.338,-4.075,152.838,-3.6875,153.438,-3.4125C154.037,-3.1375,154.737,-3,155.538,-3C155.971,-3,156.342,-3.00833,156.65,-3.025C156.958,-3.04167,157.229,-3.075,157.462,-3.125L157.462,-9.15L161.363,-9.15L161.363,-0.575C160.896,-0.391667,160.146,-0.195833,159.113,0.0125C158.079,0.220833,156.804,0.325,155.288,0.325C153.987,0.325,152.808,0.125,151.75,-0.275C150.692,-0.675,149.788,-1.25833,149.038,-2.025C148.288,-2.79167,147.708,-3.73333,147.3,-4.85C146.892,-5.96667,146.688,-7.24167,146.688,-8.675C146.688,-10.125,146.913,-11.4083,147.363,-12.525C147.813,-13.6417,148.429,-14.5875,149.212,-15.3625C149.996,-16.1375,150.917,-16.725,151.975,-17.125C153.033,-17.525,154.163,-17.725,155.363,-17.725C156.179,-17.725,156.917,-17.6708,157.575,-17.5625C158.233,-17.4542,158.8,-17.3292,159.275,-17.1875C159.75,-17.0458,160.142,-16.9,160.45,-16.75C160.758,-16.6,160.979,-16.4833,161.113,-16.4L159.988,-13.275C159.454,-13.5583,158.842,-13.8042,158.15,-14.0125C157.458,-14.2208,156.704,-14.325,155.887,-14.325ZM176.584,0C176.401,-0.6,176.197,-1.21667,175.972,-1.85C175.747,-2.48333,175.526,-3.11667,175.309,-3.75L168.559,-3.75C168.343,-3.11667,168.122,-2.48333,167.897,-1.85C167.672,-1.21667,167.468,-0.6,167.284,0L163.234,0C163.884,-1.86667,164.501,-3.59167,165.084,-5.175C165.668,-6.75833,166.239,-8.25,166.797,-9.65C167.355,-11.05,167.905,-12.3792,168.447,-13.6375C168.989,-14.8958,169.551,-16.125,170.134,-17.325L173.859,-17.325C174.426,-16.125,174.984,-14.8958,175.534,-13.6375C176.084,-12.3792,176.639,-11.05,177.197,-9.65C177.755,-8.25,178.326,-6.75833,178.909,-5.175C179.493,-3.59167,180.109,-1.86667,180.759,0ZM171.909,-13.4C171.826,-13.15,171.701,-12.8083,171.534,-12.375C171.368,-11.9417,171.176,-11.4417,170.959,-10.875C170.743,-10.3083,170.505,-9.68333,170.247,-9C169.989,-8.31667,169.726,-7.6,169.459,-6.85L174.384,-6.85C174.118,-7.6,173.859,-8.31667,173.609,-9C173.359,-9.68333,173.122,-10.3083,172.897,-10.875C172.672,-11.4417,172.476,-11.9417,172.309,-12.375C172.143,-12.8083,172.009,-13.15,171.909,-13.4ZM187.041,-3.8C187.074,-3.4,187.095,-3.11667,187.103,-2.95C187.111,-2.78333,187.116,-2.64167,187.116,-2.525C187.116,-2.025,187.07,-1.49583,186.978,-0.9375C186.886,-0.379167,186.757,0.183333,186.591,0.75C186.424,1.31667,186.216,1.88333,185.966,2.45C185.716,3.01667,185.432,3.55833,185.116,4.075L182.191,3.35C182.574,2.25,182.841,1.21667,182.991,0.25C183.141,-0.716667,183.216,-1.51667,183.216,-2.15C183.216,-2.25,183.211,-2.37917,183.203,-2.5375C183.195,-2.69583,183.186,-2.85833,183.178,-3.025C183.17,-3.19167,183.161,-3.35,183.153,-3.5C183.145,-3.65,183.141,-3.75,183.141,-3.8Z" fill-rule="nonzero" transform="translate(428.205,227.704) scale(2.53827,2.53827)"/>
    <path fill="#ff0000" stroke="none" d="M6.775,-2.6C7.14167,-2.6,7.49167,-2.60833,7.825,-2.625C8.15833,-2.64167,8.425,-2.66667,8.625,-2.7L8.625,-5.525C8.475,-5.55833,8.25,-5.59167,7.95,-5.625C7.65,-5.65833,7.375,-5.675,7.125,-5.675C6.775,-5.675,6.44583,-5.65417,6.1375,-5.6125C5.82917,-5.57083,5.55833,-5.49167,5.325,-5.375C5.09167,-5.25833,4.90833,-5.1,4.775,-4.9C4.64167,-4.7,4.575,-4.45,4.575,-4.15C4.575,-3.56667,4.77083,-3.1625,5.1625,-2.9375C5.55417,-2.7125,6.09167,-2.6,6.775,-2.6ZM6.475,-13.5C7.575,-13.5,8.49167,-13.375,9.225,-13.125C9.95833,-12.875,10.5458,-12.5167,10.9875,-12.05C11.4292,-11.5833,11.7417,-11.0167,11.925,-10.35C12.1083,-9.68333,12.2,-8.94167,12.2,-8.125L12.2,-0.375C11.6667,-0.258333,10.925,-0.120833,9.975,0.0375C9.025,0.195833,7.875,0.275,6.525,0.275C5.675,0.275,4.90417,0.2,4.2125,0.05C3.52083,-0.1,2.925,-0.345833,2.425,-0.6875C1.925,-1.02917,1.54167,-1.475,1.275,-2.025C1.00833,-2.575,0.875,-3.25,0.875,-4.05C0.875,-4.81667,1.02917,-5.46667,1.3375,-6C1.64583,-6.53333,2.05833,-6.95833,2.575,-7.275C3.09167,-7.59167,3.68333,-7.82083,4.35,-7.9625C5.01667,-8.10417,5.70833,-8.175,6.425,-8.175C6.90833,-8.175,7.3375,-8.15417,7.7125,-8.1125C8.0875,-8.07083,8.39167,-8.01667,8.625,-7.95L8.625,-8.3C8.625,-8.93333,8.43333,-9.44167,8.05,-9.825C7.66667,-10.2083,7,-10.4,6.05,-10.4C5.41667,-10.4,4.79167,-10.3542,4.175,-10.2625C3.55833,-10.1708,3.025,-10.0417,2.575,-9.875L2.1,-12.875C2.31667,-12.9417,2.5875,-13.0125,2.9125,-13.0875C3.2375,-13.1625,3.59167,-13.2292,3.975,-13.2875C4.35833,-13.3458,4.7625,-13.3958,5.1875,-13.4375C5.6125,-13.4792,6.04167,-13.5,6.475,-13.5ZM15.5781,-12.7C16.2115,-12.8833,17.0281,-13.0542,18.0281,-13.2125C19.0281,-13.3708,20.0781,-13.45,21.1781,-13.45C22.2948,-13.45,23.224,-13.3042,23.9656,-13.0125C24.7073,-12.7208,25.2948,-12.3083,25.7281,-11.775C26.1615,-11.2417,26.4698,-10.6083,26.6531,-9.875C26.8365,-9.14167,26.9281,-8.325,26.9281,-7.425L26.9281,0L23.2031,0L23.2031,-6.975C23.2031,-8.175,23.0448,-9.025,22.7281,-9.525C22.4115,-10.025,21.8198,-10.275,20.9531,-10.275C20.6865,-10.275,20.4031,-10.2625,20.1031,-10.2375C19.8031,-10.2125,19.5365,-10.1833,19.3031,-10.15L19.3031,0L15.5781,0ZM41.5656,-13.15C40.8156,-10.6167,40.0323,-8.24167,39.2156,-6.025C38.399,-3.80833,37.5073,-1.65833,36.5406,0.425C36.1906,1.175,35.8406,1.8125,35.4906,2.3375C35.1406,2.8625,34.7573,3.29583,34.3406,3.6375C33.924,3.97917,33.4531,4.22917,32.9281,4.3875C32.4031,4.54583,31.7906,4.625,31.0906,4.625C30.5073,4.625,29.9698,4.57083,29.4781,4.4625C28.9865,4.35417,28.5823,4.23333,28.2656,4.1L28.9156,1.125C29.299,1.25833,29.6406,1.35,29.9406,1.4C30.2406,1.45,30.5573,1.475,30.8906,1.475C31.5573,1.475,32.0698,1.29583,32.4281,0.9375C32.7865,0.579167,33.0906,0.0833333,33.3406,-0.55C32.4906,-2.21667,31.6406,-4.0875,30.7906,-6.1625C29.9406,-8.2375,29.1406,-10.5667,28.3906,-13.15L32.3406,-13.15C32.5073,-12.5,32.7031,-11.7958,32.9281,-11.0375C33.1531,-10.2792,33.3906,-9.5125,33.6406,-8.7375C33.8906,-7.9625,34.1448,-7.20833,34.4031,-6.475C34.6615,-5.74167,34.9073,-5.075,35.1406,-4.475C35.3573,-5.075,35.5823,-5.74167,35.8156,-6.475C36.049,-7.20833,36.2781,-7.9625,36.5031,-8.7375C36.7281,-9.5125,36.9448,-10.2792,37.1531,-11.0375C37.3615,-11.7958,37.549,-12.5,37.7156,-13.15ZM61.8625,-6.6C61.8625,-5.56667,61.7125,-4.62083,61.4125,-3.7625C61.1125,-2.90417,60.6792,-2.17083,60.1125,-1.5625C59.5458,-0.954167,58.8667,-0.483333,58.075,-0.15C57.2833,0.183333,56.3958,0.35,55.4125,0.35C54.4458,0.35,53.5667,0.183333,52.775,-0.15C51.9833,-0.483333,51.3042,-0.954167,50.7375,-1.5625C50.1708,-2.17083,49.7292,-2.90417,49.4125,-3.7625C49.0958,-4.62083,48.9375,-5.56667,48.9375,-6.6C48.9375,-7.63333,49.1,-8.575,49.425,-9.425C49.75,-10.275,50.2,-11,50.775,-11.6C51.35,-12.2,52.0333,-12.6667,52.825,-13C53.6167,-13.3333,54.4792,-13.5,55.4125,-13.5C56.3625,-13.5,57.2333,-13.3333,58.025,-13C58.8167,-12.6667,59.4958,-12.2,60.0625,-11.6C60.6292,-11,61.0708,-10.275,61.3875,-9.425C61.7042,-8.575,61.8625,-7.63333,61.8625,-6.6ZM58.0625,-6.6C58.0625,-7.75,57.8333,-8.65417,57.375,-9.3125C56.9167,-9.97083,56.2625,-10.3,55.4125,-10.3C54.5625,-10.3,53.9042,-9.97083,53.4375,-9.3125C52.9708,-8.65417,52.7375,-7.75,52.7375,-6.6C52.7375,-5.45,52.9708,-4.5375,53.4375,-3.8625C53.9042,-3.1875,54.5625,-2.85,55.4125,-2.85C56.2625,-2.85,56.9167,-3.1875,57.375,-3.8625C57.8333,-4.5375,58.0625,-5.45,58.0625,-6.6ZM64.6094,-16.425L68.3344,-17.025L68.3344,-13.15L72.8094,-13.15L72.8094,-10.05L68.3344,-10.05L68.3344,-5.425C68.3344,-4.64167,68.4719,-4.01667,68.7469,-3.55C69.0219,-3.08333,69.576,-2.85,70.4094,-2.85C70.8094,-2.85,71.2219,-2.8875,71.6469,-2.9625C72.0719,-3.0375,72.4594,-3.14167,72.8094,-3.275L73.3344,-0.375C72.8844,-0.191667,72.3844,-0.0333333,71.8344,0.1C71.2844,0.233333,70.6094,0.3,69.8094,0.3C68.7927,0.3,67.951,0.1625,67.2844,-0.1125C66.6177,-0.3875,66.0844,-0.770833,65.6844,-1.2625C65.2844,-1.75417,65.0052,-2.35,64.8469,-3.05C64.6885,-3.75,64.6094,-4.525,64.6094,-5.375ZM75.8281,0L75.8281,-18.8L79.5531,-19.4L79.5531,-13.1C79.8031,-13.1833,80.124,-13.2625,80.5156,-13.3375C80.9073,-13.4125,81.2865,-13.45,81.6531,-13.45C82.7198,-13.45,83.6073,-13.3042,84.3156,-13.0125C85.024,-12.7208,85.5906,-12.3083,86.0156,-11.775C86.4406,-11.2417,86.7406,-10.6083,86.9156,-9.875C87.0906,-9.14167,87.1781,-8.325,87.1781,-7.425L87.1781,0L83.4531,0L83.4531,-6.975C83.4531,-8.175,83.299,-9.025,82.9906,-9.525C82.6823,-10.025,82.1115,-10.275,81.2781,-10.275C80.9448,-10.275,80.6323,-10.2458,80.3406,-10.1875C80.049,-10.1292,79.7865,-10.0667,79.5531,-10L79.5531,0ZM89.9219,-6.475C89.9219,-7.64167,90.101,-8.6625,90.4594,-9.5375C90.8177,-10.4125,91.2885,-11.1417,91.8719,-11.725C92.4552,-12.3083,93.126,-12.75,93.8844,-13.05C94.6427,-13.35,95.4219,-13.5,96.2219,-13.5C98.0885,-13.5,99.5635,-12.9292,100.647,-11.7875C101.73,-10.6458,102.272,-8.96667,102.272,-6.75C102.272,-6.53333,102.264,-6.29583,102.247,-6.0375C102.23,-5.77917,102.214,-5.55,102.197,-5.35L93.7469,-5.35C93.8302,-4.58333,94.1885,-3.975,94.8219,-3.525C95.4552,-3.075,96.3052,-2.85,97.3719,-2.85C98.0552,-2.85,98.726,-2.9125,99.3844,-3.0375C100.043,-3.1625,100.58,-3.31667,100.997,-3.5L101.497,-0.475C101.297,-0.375,101.03,-0.275,100.697,-0.175C100.364,-0.075,99.9927,0.0125,99.5844,0.0875C99.176,0.1625,98.7385,0.225,98.2719,0.275C97.8052,0.325,97.3385,0.35,96.8719,0.35C95.6885,0.35,94.6594,0.175,93.7844,-0.175C92.9094,-0.525,92.1844,-1.00417,91.6094,-1.6125C91.0344,-2.22083,90.6094,-2.94167,90.3344,-3.775C90.0594,-4.60833,89.9219,-5.50833,89.9219,-6.475ZM98.6719,-7.9C98.6552,-8.21667,98.601,-8.525,98.5094,-8.825C98.4177,-9.125,98.276,-9.39167,98.0844,-9.625C97.8927,-9.85833,97.651,-10.05,97.3594,-10.2C97.0677,-10.35,96.7052,-10.425,96.2719,-10.425C95.8552,-10.425,95.4969,-10.3542,95.1969,-10.2125C94.8969,-10.0708,94.6469,-9.88333,94.4469,-9.65C94.2469,-9.41667,94.0927,-9.14583,93.9844,-8.8375C93.876,-8.52917,93.7969,-8.21667,93.7469,-7.9ZM113.066,-9.85C112.732,-9.93333,112.341,-10.0208,111.891,-10.1125C111.441,-10.2042,110.957,-10.25,110.441,-10.25C110.207,-10.25,109.928,-10.2292,109.603,-10.1875C109.278,-10.1458,109.032,-10.1,108.866,-10.05L108.866,0L105.141,0L105.141,-12.45C105.807,-12.6833,106.595,-12.9042,107.503,-13.1125C108.411,-13.3208,109.424,-13.425,110.541,-13.425C110.741,-13.425,110.982,-13.4125,111.266,-13.3875C111.549,-13.3625,111.832,-13.3292,112.116,-13.2875C112.399,-13.2458,112.682,-13.1958,112.966,-13.1375C113.249,-13.0792,113.491,-13.0083,113.691,-12.925ZM126.713,-2.6C127.079,-2.6,127.429,-2.60833,127.762,-2.625C128.096,-2.64167,128.362,-2.66667,128.562,-2.7L128.562,-5.525C128.412,-5.55833,128.187,-5.59167,127.887,-5.625C127.587,-5.65833,127.312,-5.675,127.062,-5.675C126.712,-5.675,126.383,-5.65417,126.075,-5.6125C125.767,-5.57083,125.496,-5.49167,125.262,-5.375C125.029,-5.25833,124.846,-5.1,124.713,-4.9C124.579,-4.7,124.512,-4.45,124.512,-4.15C124.512,-3.56667,124.708,-3.1625,125.1,-2.9375C125.492,-2.7125,126.029,-2.6,126.713,-2.6ZM126.412,-13.5C127.512,-13.5,128.429,-13.375,129.163,-13.125C129.896,-12.875,130.483,-12.5167,130.925,-12.05C131.367,-11.5833,131.679,-11.0167,131.863,-10.35C132.046,-9.68333,132.137,-8.94167,132.137,-8.125L132.137,-0.375C131.604,-0.258333,130.862,-0.120833,129.913,0.0375C128.963,0.195833,127.813,0.275,126.463,0.275C125.613,0.275,124.842,0.2,124.15,0.05C123.458,-0.1,122.863,-0.345833,122.363,-0.6875C121.863,-1.02917,121.479,-1.475,121.213,-2.025C120.946,-2.575,120.812,-3.25,120.812,-4.05C120.812,-4.81667,120.967,-5.46667,121.275,-6C121.583,-6.53333,121.996,-6.95833,122.512,-7.275C123.029,-7.59167,123.621,-7.82083,124.287,-7.9625C124.954,-8.10417,125.646,-8.175,126.363,-8.175C126.846,-8.175,127.275,-8.15417,127.65,-8.1125C128.025,-8.07083,128.329,-8.01667,128.562,-7.95L128.562,-8.3C128.562,-8.93333,128.371,-9.44167,127.988,-9.825C127.604,-10.2083,126.938,-10.4,125.988,-10.4C125.354,-10.4,124.729,-10.3542,124.113,-10.2625C123.496,-10.1708,122.962,-10.0417,122.512,-9.875L122.037,-12.875C122.254,-12.9417,122.525,-13.0125,122.85,-13.0875C123.175,-13.1625,123.529,-13.2292,123.912,-13.2875C124.296,-13.3458,124.7,-13.3958,125.125,-13.4375C125.55,-13.4792,125.979,-13.5,126.412,-13.5ZM135.516,-12.7C136.149,-12.8833,136.966,-13.0542,137.966,-13.2125C138.966,-13.3708,140.016,-13.45,141.116,-13.45C142.232,-13.45,143.161,-13.3042,143.903,-13.0125C144.645,-12.7208,145.232,-12.3083,145.666,-11.775C146.099,-11.2417,146.407,-10.6083,146.591,-9.875C146.774,-9.14167,146.866,-8.325,146.866,-7.425L146.866,0L143.141,0L143.141,-6.975C143.141,-8.175,142.982,-9.025,142.666,-9.525C142.349,-10.025,141.757,-10.275,140.891,-10.275C140.624,-10.275,140.341,-10.2625,140.041,-10.2375C139.741,-10.2125,139.474,-10.1833,139.241,-10.15L139.241,0L135.516,0ZM155.259,-2.6C155.626,-2.6,155.976,-2.60833,156.309,-2.625C156.643,-2.64167,156.909,-2.66667,157.109,-2.7L157.109,-5.525C156.959,-5.55833,156.734,-5.59167,156.434,-5.625C156.134,-5.65833,155.859,-5.675,155.609,-5.675C155.259,-5.675,154.93,-5.65417,154.622,-5.6125C154.314,-5.57083,154.043,-5.49167,153.809,-5.375C153.576,-5.25833,153.393,-5.1,153.259,-4.9C153.126,-4.7,153.059,-4.45,153.059,-4.15C153.059,-3.56667,153.255,-3.1625,153.647,-2.9375C154.039,-2.7125,154.576,-2.6,155.259,-2.6ZM154.959,-13.5C156.059,-13.5,156.976,-13.375,157.709,-13.125C158.443,-12.875,159.03,-12.5167,159.472,-12.05C159.914,-11.5833,160.226,-11.0167,160.409,-10.35C160.593,-9.68333,160.684,-8.94167,160.684,-8.125L160.684,-0.375C160.151,-0.258333,159.409,-0.120833,158.459,0.0375C157.509,0.195833,156.359,0.275,155.009,0.275C154.159,0.275,153.389,0.2,152.697,0.05C152.005,-0.1,151.409,-0.345833,150.909,-0.6875C150.409,-1.02917,150.026,-1.475,149.759,-2.025C149.493,-2.575,149.359,-3.25,149.359,-4.05C149.359,-4.81667,149.514,-5.46667,149.822,-6C150.13,-6.53333,150.543,-6.95833,151.059,-7.275C151.576,-7.59167,152.168,-7.82083,152.834,-7.9625C153.501,-8.10417,154.193,-8.175,154.909,-8.175C155.393,-8.175,155.822,-8.15417,156.197,-8.1125C156.572,-8.07083,156.876,-8.01667,157.109,-7.95L157.109,-8.3C157.109,-8.93333,156.918,-9.44167,156.534,-9.825C156.151,-10.2083,155.484,-10.4,154.534,-10.4C153.901,-10.4,153.276,-10.3542,152.659,-10.2625C152.043,-10.1708,151.509,-10.0417,151.059,-9.875L150.584,-12.875C150.801,-12.9417,151.072,-13.0125,151.397,-13.0875C151.722,-13.1625,152.076,-13.2292,152.459,-13.2875C152.843,-13.3458,153.247,-13.3958,153.672,-13.4375C154.097,-13.4792,154.526,-13.5,154.959,-13.5ZM169.312,0.25C168.229,0.233333,167.35,0.116667,166.675,-0.1C166,-0.316667,165.467,-0.620833,165.075,-1.0125C164.683,-1.40417,164.417,-1.87917,164.275,-2.4375C164.133,-2.99583,164.062,-3.625,164.062,-4.325L164.062,-18.8L167.788,-19.4L167.788,-5.075C167.788,-4.74167,167.813,-4.44167,167.863,-4.175C167.913,-3.90833,168.008,-3.68333,168.15,-3.5C168.292,-3.31667,168.496,-3.16667,168.762,-3.05C169.029,-2.93333,169.388,-2.85833,169.837,-2.825ZM183.363,-13.15C182.613,-10.6167,181.829,-8.24167,181.012,-6.025C180.196,-3.80833,179.304,-1.65833,178.337,0.425C177.987,1.175,177.638,1.8125,177.288,2.3375C176.938,2.8625,176.554,3.29583,176.137,3.6375C175.721,3.97917,175.25,4.22917,174.725,4.3875C174.2,4.54583,173.587,4.625,172.887,4.625C172.304,4.625,171.767,4.57083,171.275,4.4625C170.783,4.35417,170.379,4.23333,170.062,4.1L170.712,1.125C171.096,1.25833,171.438,1.35,171.738,1.4C172.038,1.45,172.354,1.475,172.688,1.475C173.354,1.475,173.867,1.29583,174.225,0.9375C174.583,0.579167,174.887,0.0833333,175.137,-0.55C174.288,-2.21667,173.438,-4.0875,172.587,-6.1625C171.737,-8.2375,170.938,-10.5667,170.188,-13.15L174.137,-13.15C174.304,-12.5,174.5,-11.7958,174.725,-11.0375C174.95,-10.2792,175.188,-9.5125,175.438,-8.7375C175.688,-7.9625,175.942,-7.20833,176.2,-6.475C176.458,-5.74167,176.704,-5.075,176.938,-4.475C177.154,-5.075,177.379,-5.74167,177.613,-6.475C177.846,-7.20833,178.075,-7.9625,178.3,-8.7375C178.525,-9.5125,178.742,-10.2792,178.95,-11.0375C179.158,-11.7958,179.346,-12.5,179.512,-13.15ZM189.134,-2.675C189.818,-2.675,190.301,-2.74167,190.584,-2.875C190.868,-3.00833,191.009,-3.26667,191.009,-3.65C191.009,-3.95,190.826,-4.2125,190.459,-4.4375C190.093,-4.6625,189.534,-4.91667,188.784,-5.2C188.201,-5.41667,187.672,-5.64167,187.197,-5.875C186.722,-6.10833,186.318,-6.3875,185.984,-6.7125C185.651,-7.0375,185.393,-7.425,185.209,-7.875C185.026,-8.325,184.934,-8.86667,184.934,-9.5C184.934,-10.7333,185.393,-11.7083,186.309,-12.425C187.226,-13.1417,188.484,-13.5,190.084,-13.5C190.884,-13.5,191.651,-13.4292,192.384,-13.2875C193.118,-13.1458,193.701,-12.9917,194.134,-12.825L193.484,-9.925C193.051,-10.075,192.58,-10.2083,192.072,-10.325C191.564,-10.4417,190.993,-10.5,190.359,-10.5C189.193,-10.5,188.609,-10.175,188.609,-9.525C188.609,-9.375,188.634,-9.24167,188.684,-9.125C188.734,-9.00833,188.834,-8.89583,188.984,-8.7875C189.134,-8.67917,189.339,-8.5625,189.597,-8.4375C189.855,-8.3125,190.184,-8.175,190.584,-8.025C191.401,-7.725,192.076,-7.42917,192.609,-7.1375C193.143,-6.84583,193.564,-6.52917,193.872,-6.1875C194.18,-5.84583,194.397,-5.46667,194.522,-5.05C194.647,-4.63333,194.709,-4.15,194.709,-3.6C194.709,-2.3,194.222,-1.31667,193.247,-0.65C192.272,0.0166667,190.893,0.35,189.109,0.35C187.943,0.35,186.972,0.25,186.197,0.05C185.422,-0.15,184.884,-0.316667,184.584,-0.45L185.209,-3.475C185.843,-3.225,186.493,-3.02917,187.159,-2.8875C187.826,-2.74583,188.484,-2.675,189.134,-2.675ZM201.209,0L197.484,0L197.484,-13.15L201.209,-13.15ZM201.559,-16.95C201.559,-16.2667,201.339,-15.7292,200.897,-15.3375C200.455,-14.9458,199.934,-14.75,199.334,-14.75C198.734,-14.75,198.214,-14.9458,197.772,-15.3375C197.33,-15.7292,197.109,-16.2667,197.109,-16.95C197.109,-17.6333,197.33,-18.1708,197.772,-18.5625C198.214,-18.9542,198.734,-19.15,199.334,-19.15C199.934,-19.15,200.455,-18.9542,200.897,-18.5625C201.339,-18.1708,201.559,-17.6333,201.559,-16.95ZM208.478,-2.675C209.161,-2.675,209.645,-2.74167,209.928,-2.875C210.211,-3.00833,210.353,-3.26667,210.353,-3.65C210.353,-3.95,210.17,-4.2125,209.803,-4.4375C209.436,-4.6625,208.878,-4.91667,208.128,-5.2C207.545,-5.41667,207.016,-5.64167,206.541,-5.875C206.066,-6.10833,205.661,-6.3875,205.328,-6.7125C204.995,-7.0375,204.736,-7.425,204.553,-7.875C204.37,-8.325,204.278,-8.86667,204.278,-9.5C204.278,-10.7333,204.736,-11.7083,205.653,-12.425C206.57,-13.1417,207.828,-13.5,209.428,-13.5C210.228,-13.5,210.995,-13.4292,211.728,-13.2875C212.461,-13.1458,213.045,-12.9917,213.478,-12.825L212.828,-9.925C212.395,-10.075,211.924,-10.2083,211.416,-10.325C210.907,-10.4417,210.336,-10.5,209.703,-10.5C208.536,-10.5,207.953,-10.175,207.953,-9.525C207.953,-9.375,207.978,-9.24167,208.028,-9.125C208.078,-9.00833,208.178,-8.89583,208.328,-8.7875C208.478,-8.67917,208.682,-8.5625,208.941,-8.4375C209.199,-8.3125,209.528,-8.175,209.928,-8.025C210.745,-7.725,211.42,-7.42917,211.953,-7.1375C212.486,-6.84583,212.907,-6.52917,213.216,-6.1875C213.524,-5.84583,213.741,-5.46667,213.866,-5.05C213.991,-4.63333,214.053,-4.15,214.053,-3.6C214.053,-2.3,213.566,-1.31667,212.591,-0.65C211.616,0.0166667,210.236,0.35,208.453,0.35C207.286,0.35,206.316,0.25,205.541,0.05C204.766,-0.15,204.228,-0.316667,203.928,-0.45L204.553,-3.475C205.186,-3.225,205.836,-3.02917,206.503,-2.8875C207.17,-2.74583,207.828,-2.675,208.478,-2.675Z" fill-rule="nonzero" transform="translate(425.205,461.062) scale(2.53827,2.53827)"/>
    <path fill="#ff0000" stroke="none" d="M13.6,0C13.4167,-0.6,13.2125,-1.21667,12.9875,-1.85C12.7625,-2.48333,12.5417,-3.11667,12.325,-3.75L5.575,-3.75C5.35833,-3.11667,5.1375,-2.48333,4.9125,-1.85C4.6875,-1.21667,4.48333,-0.6,4.3,0L0.25,0C0.9,-1.86667,1.51667,-3.59167,2.1,-5.175C2.68333,-6.75833,3.25417,-8.25,3.8125,-9.65C4.37083,-11.05,4.92083,-12.3792,5.4625,-13.6375C6.00417,-14.8958,6.56667,-16.125,7.15,-17.325L10.875,-17.325C11.4417,-16.125,12,-14.8958,12.55,-13.6375C13.1,-12.3792,13.6542,-11.05,14.2125,-9.65C14.7708,-8.25,15.3417,-6.75833,15.925,-5.175C16.5083,-3.59167,17.125,-1.86667,17.775,0ZM8.925,-13.4C8.84167,-13.15,8.71667,-12.8083,8.55,-12.375C8.38333,-11.9417,8.19167,-11.4417,7.975,-10.875C7.75833,-10.3083,7.52083,-9.68333,7.2625,-9C7.00417,-8.31667,6.74167,-7.6,6.475,-6.85L11.4,-6.85C11.1333,-7.6,10.875,-8.31667,10.625,-9C10.375,-9.68333,10.1375,-10.3083,9.9125,-10.875C9.6875,-11.4417,9.49167,-11.9417,9.325,-12.375C9.15833,-12.8083,9.025,-13.15,8.925,-13.4ZM20.0312,0L20.0312,-17.325L31.6313,-17.325L31.6313,-14.05L23.9312,-14.05L23.9312,-10.425L30.7812,-10.425L30.7812,-7.15L23.9312,-7.15L23.9312,0ZM38.725,-17.325C39.025,-16.775,39.3708,-16.0958,39.7625,-15.2875C40.1542,-14.4792,40.5625,-13.6042,40.9875,-12.6625C41.4125,-11.7208,41.8333,-10.7583,42.25,-9.775C42.6667,-8.79167,43.0583,-7.86667,43.425,-7C43.7917,-7.86667,44.1833,-8.79167,44.6,-9.775C45.0167,-10.7583,45.4375,-11.7208,45.8625,-12.6625C46.2875,-13.6042,46.6958,-14.4792,47.0875,-15.2875C47.4792,-16.0958,47.825,-16.775,48.125,-17.325L51.675,-17.325C51.8417,-16.175,51.9958,-14.8875,52.1375,-13.4625C52.2792,-12.0375,52.4042,-10.5542,52.5125,-9.0125C52.6208,-7.47083,52.7208,-5.925,52.8125,-4.375C52.9042,-2.825,52.9833,-1.36667,53.05,0L49.25,0C49.2,-1.68333,49.1333,-3.51667,49.05,-5.5C48.9667,-7.48333,48.8417,-9.48333,48.675,-11.5C48.375,-10.8,48.0417,-10.025,47.675,-9.175C47.3083,-8.325,46.9458,-7.475,46.5875,-6.625C46.2292,-5.775,45.8833,-4.9625,45.55,-4.1875C45.2167,-3.4125,44.9333,-2.75,44.7,-2.2L41.975,-2.2C41.7417,-2.75,41.4583,-3.4125,41.125,-4.1875C40.7917,-4.9625,40.4458,-5.775,40.0875,-6.625C39.7292,-7.475,39.3667,-8.325,39,-9.175C38.6333,-10.025,38.3,-10.8,38,-11.5C37.8333,-9.48333,37.7083,-7.48333,37.625,-5.5C37.5417,-3.51667,37.475,-1.68333,37.425,0L33.625,0C33.6917,-1.36667,33.7708,-2.825,33.8625,-4.375C33.9542,-5.925,34.0542,-7.47083,34.1625,-9.0125C34.2708,-10.5542,34.3958,-12.0375,34.5375,-13.4625C34.6792,-14.8875,34.8333,-16.175,35,-17.325ZM59.8219,-3.8C59.8552,-3.4,59.876,-3.11667,59.8844,-2.95C59.8927,-2.78333,59.8969,-2.64167,59.8969,-2.525C59.8969,-2.025,59.851,-1.49583,59.7594,-0.9375C59.6677,-0.379167,59.5385,0.183333,59.3719,0.75C59.2052,1.31667,58.9969,1.88333,58.7469,2.45C58.4969,3.01667,58.2135,3.55833,57.8969,4.075L54.9719,3.35C55.3552,2.25,55.6219,1.21667,55.7719,0.25C55.9219,-0.716667,55.9969,-1.51667,55.9969,-2.15C55.9969,-2.25,55.9927,-2.37917,55.9844,-2.5375C55.976,-2.69583,55.9677,-2.85833,55.9594,-3.025C55.951,-3.19167,55.9427,-3.35,55.9344,-3.5C55.926,-3.65,55.9219,-3.75,55.9219,-3.8ZM74.4781,0.225C73.5281,0.225,72.5823,0.195833,71.6406,0.1375C70.699,0.0791667,69.7198,-0.0583333,68.7031,-0.275L68.7031,-17.075C69.5031,-17.225,70.3781,-17.3375,71.3281,-17.4125C72.2781,-17.4875,73.1615,-17.525,73.9781,-17.525C75.0781,-17.525,76.0906,-17.4458,77.0156,-17.2875C77.9406,-17.1292,78.7365,-16.8583,79.4031,-16.475C80.0698,-16.0917,80.5906,-15.5875,80.9656,-14.9625C81.3406,-14.3375,81.5281,-13.5667,81.5281,-12.65C81.5281,-11.2667,80.8615,-10.175,79.5281,-9.375C80.6281,-8.95833,81.3781,-8.39167,81.7781,-7.675C82.1781,-6.95833,82.3781,-6.15,82.3781,-5.25C82.3781,-3.43333,81.7156,-2.06667,80.3906,-1.15C79.0656,-0.233333,77.0948,0.225,74.4781,0.225ZM72.5031,-7.55L72.5031,-3.075C72.7865,-3.04167,73.0948,-3.01667,73.4281,-3C73.7615,-2.98333,74.1281,-2.975,74.5281,-2.975C75.6948,-2.975,76.6365,-3.14167,77.3531,-3.475C78.0698,-3.80833,78.4281,-4.425,78.4281,-5.325C78.4281,-6.125,78.1281,-6.69583,77.5281,-7.0375C76.9281,-7.37917,76.0698,-7.55,74.9531,-7.55ZM72.5031,-10.525L74.4031,-10.525C75.6031,-10.525,76.4615,-10.6792,76.9781,-10.9875C77.4948,-11.2958,77.7531,-11.7917,77.7531,-12.475C77.7531,-13.175,77.4865,-13.6667,76.9531,-13.95C76.4198,-14.2333,75.6365,-14.375,74.6031,-14.375C74.2698,-14.375,73.9115,-14.3708,73.5281,-14.3625C73.1448,-14.3542,72.8031,-14.3333,72.5031,-14.3ZM85.5,0L85.5,-17.325L97.2,-17.325L97.2,-14.05L89.4,-14.05L89.4,-10.65L96.325,-10.65L96.325,-7.45L89.4,-7.45L89.4,-3.275L97.775,-3.275L97.775,0ZM113.506,-17.325L113.506,-14L108.281,-14L108.281,0L104.381,0L104.381,-14L99.1562,-14L99.1562,-17.325ZM117.244,-3.8C117.277,-3.4,117.298,-3.11667,117.306,-2.95C117.315,-2.78333,117.319,-2.64167,117.319,-2.525C117.319,-2.025,117.273,-1.49583,117.181,-0.9375C117.09,-0.379167,116.96,0.183333,116.794,0.75C116.627,1.31667,116.419,1.88333,116.169,2.45C115.919,3.01667,115.635,3.55833,115.319,4.075L112.394,3.35C112.777,2.25,113.044,1.21667,113.194,0.25C113.344,-0.716667,113.419,-1.51667,113.419,-2.15C113.419,-2.25,113.415,-2.37917,113.406,-2.5375C113.398,-2.69583,113.39,-2.85833,113.381,-3.025C113.373,-3.19167,113.365,-3.35,113.356,-3.5C113.348,-3.65,113.344,-3.75,113.344,-3.8ZM136.075,0C135.592,-0.966667,135.063,-1.94583,134.488,-2.9375C133.913,-3.92917,133.25,-4.94167,132.5,-5.975C132.267,-5.675,131.971,-5.25833,131.613,-4.725C131.254,-4.19167,130.896,-3.625,130.538,-3.025C130.179,-2.425,129.842,-1.85,129.525,-1.3C129.208,-0.75,128.975,-0.316667,128.825,0L124.375,0C125.108,-1.35,125.962,-2.76667,126.938,-4.25C127.912,-5.73333,129,-7.30833,130.2,-8.975L124.625,-17.325L129.35,-17.325L132.725,-11.925L136.025,-17.325L140.475,-17.325L134.975,-8.925C136.375,-7.10833,137.55,-5.42917,138.5,-3.8875C139.45,-2.34583,140.2,-1.05,140.75,0ZM148.2,-17.525C150.783,-17.525,152.767,-17.0708,154.15,-16.1625C155.533,-15.2542,156.225,-13.7667,156.225,-11.7C156.225,-9.61667,155.525,-8.1125,154.125,-7.1875C152.725,-6.2625,150.725,-5.8,148.125,-5.8L146.9,-5.8L146.9,0L143,0L143,-17.075C143.85,-17.2417,144.75,-17.3583,145.7,-17.425C146.65,-17.4917,147.483,-17.525,148.2,-17.525ZM148.45,-14.2C148.167,-14.2,147.887,-14.1917,147.613,-14.175C147.337,-14.1583,147.1,-14.1417,146.9,-14.125L146.9,-9.125L148.125,-9.125C149.475,-9.125,150.492,-9.30833,151.175,-9.675C151.858,-10.0417,152.2,-10.725,152.2,-11.725C152.2,-12.2083,152.112,-12.6083,151.938,-12.925C151.763,-13.2417,151.513,-13.4958,151.188,-13.6875C150.862,-13.8792,150.467,-14.0125,150,-14.0875C149.533,-14.1625,149.017,-14.2,148.45,-14.2ZM163.819,-2.975C164.369,-2.975,164.823,-3.02083,165.181,-3.1125C165.54,-3.20417,165.827,-3.32917,166.044,-3.4875C166.26,-3.64583,166.41,-3.83333,166.494,-4.05C166.577,-4.26667,166.619,-4.50833,166.619,-4.775C166.619,-5.34167,166.352,-5.8125,165.819,-6.1875C165.285,-6.5625,164.369,-6.96667,163.069,-7.4C162.502,-7.6,161.935,-7.82917,161.369,-8.0875C160.802,-8.34583,160.294,-8.67083,159.844,-9.0625C159.394,-9.45417,159.027,-9.92917,158.744,-10.4875C158.46,-11.0458,158.319,-11.725,158.319,-12.525C158.319,-13.325,158.469,-14.0458,158.769,-14.6875C159.069,-15.3292,159.494,-15.875,160.044,-16.325C160.594,-16.775,161.26,-17.1208,162.044,-17.3625C162.827,-17.6042,163.71,-17.725,164.694,-17.725C165.86,-17.725,166.869,-17.6,167.719,-17.35C168.569,-17.1,169.269,-16.825,169.819,-16.525L168.694,-13.45C168.21,-13.7,167.673,-13.9208,167.081,-14.1125C166.49,-14.3042,165.777,-14.4,164.944,-14.4C164.01,-14.4,163.34,-14.2708,162.931,-14.0125C162.523,-13.7542,162.319,-13.3583,162.319,-12.825C162.319,-12.5083,162.394,-12.2417,162.544,-12.025C162.694,-11.8083,162.906,-11.6125,163.181,-11.4375C163.456,-11.2625,163.773,-11.1042,164.131,-10.9625C164.49,-10.8208,164.885,-10.675,165.319,-10.525C166.219,-10.1917,167.002,-9.8625,167.669,-9.5375C168.335,-9.2125,168.89,-8.83333,169.331,-8.4C169.773,-7.96667,170.102,-7.45833,170.319,-6.875C170.535,-6.29167,170.644,-5.58333,170.644,-4.75C170.644,-3.13333,170.077,-1.87917,168.944,-0.9875C167.81,-0.0958333,166.102,0.35,163.819,0.35C163.052,0.35,162.36,0.304167,161.744,0.2125C161.127,0.120833,160.581,0.00833334,160.106,-0.125C159.631,-0.258333,159.223,-0.4,158.881,-0.55C158.54,-0.7,158.252,-0.841667,158.019,-0.975L159.119,-4.075C159.635,-3.79167,160.273,-3.5375,161.031,-3.3125C161.79,-3.0875,162.719,-2.975,163.819,-2.975ZM191.691,-6.6C191.691,-5.56667,191.541,-4.62083,191.241,-3.7625C190.941,-2.90417,190.507,-2.17083,189.941,-1.5625C189.374,-0.954167,188.695,-0.483333,187.903,-0.15C187.111,0.183333,186.224,0.35,185.241,0.35C184.274,0.35,183.395,0.183333,182.603,-0.15C181.811,-0.483333,181.132,-0.954167,180.566,-1.5625C179.999,-2.17083,179.557,-2.90417,179.241,-3.7625C178.924,-4.62083,178.766,-5.56667,178.766,-6.6C178.766,-7.63333,178.928,-8.575,179.253,-9.425C179.578,-10.275,180.028,-11,180.603,-11.6C181.178,-12.2,181.861,-12.6667,182.653,-13C183.445,-13.3333,184.307,-13.5,185.241,-13.5C186.191,-13.5,187.061,-13.3333,187.853,-13C188.645,-12.6667,189.324,-12.2,189.891,-11.6C190.457,-11,190.899,-10.275,191.216,-9.425C191.532,-8.575,191.691,-7.63333,191.691,-6.6ZM187.891,-6.6C187.891,-7.75,187.661,-8.65417,187.203,-9.3125C186.745,-9.97083,186.091,-10.3,185.241,-10.3C184.391,-10.3,183.732,-9.97083,183.266,-9.3125C182.799,-8.65417,182.566,-7.75,182.566,-6.6C182.566,-5.45,182.799,-4.5375,183.266,-3.8625C183.732,-3.1875,184.391,-2.85,185.241,-2.85C186.091,-2.85,186.745,-3.1875,187.203,-3.8625C187.661,-4.5375,187.891,-5.45,187.891,-6.6ZM202.488,-9.85C202.154,-9.93333,201.763,-10.0208,201.312,-10.1125C200.862,-10.2042,200.379,-10.25,199.863,-10.25C199.629,-10.25,199.35,-10.2292,199.025,-10.1875C198.7,-10.1458,198.454,-10.1,198.288,-10.05L198.288,0L194.562,0L194.562,-12.45C195.229,-12.6833,196.017,-12.9042,196.925,-13.1125C197.833,-13.3208,198.846,-13.425,199.962,-13.425C200.162,-13.425,200.404,-13.4125,200.688,-13.3875C200.971,-13.3625,201.254,-13.3292,201.538,-13.2875C201.821,-13.2458,202.104,-13.1958,202.387,-13.1375C202.671,-13.0792,202.913,-13.0083,203.113,-12.925Z" fill-rule="nonzero" transform="translate(424.958,387.046) scale(2.53827,2.53827)"/>
    <path fill="#ff0000" stroke="none" d="M5.9,-3.175C6.08333,-3.15833,6.29583,-3.14583,6.5375,-3.1375C6.77917,-3.12917,7.06667,-3.125,7.4,-3.125C9.35,-3.125,10.7958,-3.61667,11.7375,-4.6C12.6792,-5.58333,13.15,-6.94167,13.15,-8.675C13.15,-10.4917,12.7,-11.8667,11.8,-12.8C10.9,-13.7333,9.475,-14.2,7.525,-14.2C7.25833,-14.2,6.98333,-14.1958,6.7,-14.1875C6.41667,-14.1792,6.15,-14.1583,5.9,-14.125ZM17.175,-8.675C17.175,-7.175,16.9417,-5.86667,16.475,-4.75C16.0083,-3.63333,15.3458,-2.70833,14.4875,-1.975C13.6292,-1.24167,12.5833,-0.691667,11.35,-0.325C10.1167,0.0416667,8.73333,0.225,7.2,0.225C6.5,0.225,5.68333,0.195833,4.75,0.1375C3.81667,0.0791667,2.9,-0.0416667,2,-0.225L2,-17.1C2.9,-17.2667,3.8375,-17.3792,4.8125,-17.4375C5.7875,-17.4958,6.625,-17.525,7.325,-17.525C8.80833,-17.525,10.1542,-17.3583,11.3625,-17.025C12.5708,-16.6917,13.6083,-16.1667,14.475,-15.45C15.3417,-14.7333,16.0083,-13.8167,16.475,-12.7C16.9417,-11.5833,17.175,-10.2417,17.175,-8.675ZM25.1469,-2.975C25.6969,-2.975,26.151,-3.02083,26.5094,-3.1125C26.8677,-3.20417,27.1552,-3.32917,27.3719,-3.4875C27.5885,-3.64583,27.7385,-3.83333,27.8219,-4.05C27.9052,-4.26667,27.9469,-4.50833,27.9469,-4.775C27.9469,-5.34167,27.6802,-5.8125,27.1469,-6.1875C26.6135,-6.5625,25.6969,-6.96667,24.3969,-7.4C23.8302,-7.6,23.2635,-7.82917,22.6969,-8.0875C22.1302,-8.34583,21.6219,-8.67083,21.1719,-9.0625C20.7219,-9.45417,20.3552,-9.92917,20.0719,-10.4875C19.7885,-11.0458,19.6469,-11.725,19.6469,-12.525C19.6469,-13.325,19.7969,-14.0458,20.0969,-14.6875C20.3969,-15.3292,20.8219,-15.875,21.3719,-16.325C21.9219,-16.775,22.5885,-17.1208,23.3719,-17.3625C24.1552,-17.6042,25.0385,-17.725,26.0219,-17.725C27.1885,-17.725,28.1969,-17.6,29.0469,-17.35C29.8969,-17.1,30.5969,-16.825,31.1469,-16.525L30.0219,-13.45C29.5385,-13.7,29.001,-13.9208,28.4094,-14.1125C27.8177,-14.3042,27.1052,-14.4,26.2719,-14.4C25.3385,-14.4,24.6677,-14.2708,24.2594,-14.0125C23.851,-13.7542,23.6469,-13.3583,23.6469,-12.825C23.6469,-12.5083,23.7219,-12.2417,23.8719,-12.025C24.0219,-11.8083,24.2344,-11.6125,24.5094,-11.4375C24.7844,-11.2625,25.101,-11.1042,25.4594,-10.9625C25.8177,-10.8208,26.2135,-10.675,26.6469,-10.525C27.5469,-10.1917,28.3302,-9.8625,28.9969,-9.5375C29.6635,-9.2125,30.2177,-8.83333,30.6594,-8.4C31.101,-7.96667,31.4302,-7.45833,31.6469,-6.875C31.8635,-6.29167,31.9719,-5.58333,31.9719,-4.75C31.9719,-3.13333,31.4052,-1.87917,30.2719,-0.9875C29.1385,-0.0958333,27.4302,0.35,25.1469,0.35C24.3802,0.35,23.6885,0.304167,23.0719,0.2125C22.4552,0.120833,21.9094,0.00833334,21.4344,-0.125C20.9594,-0.258333,20.551,-0.4,20.2094,-0.55C19.8677,-0.7,19.5802,-0.841667,19.3469,-0.975L20.4469,-4.075C20.9635,-3.79167,21.601,-3.5375,22.3594,-3.3125C23.1177,-3.0875,24.0469,-2.975,25.1469,-2.975ZM42.8688,0.35C40.0521,0.35,37.9062,-0.433333,36.4313,-2C34.9563,-3.56667,34.2188,-5.79167,34.2188,-8.675C34.2188,-10.1083,34.4437,-11.3875,34.8937,-12.5125C35.3437,-13.6375,35.9604,-14.5875,36.7438,-15.3625C37.5271,-16.1375,38.4604,-16.725,39.5438,-17.125C40.6271,-17.525,41.8021,-17.725,43.0687,-17.725C43.8021,-17.725,44.4688,-17.6708,45.0687,-17.5625C45.6687,-17.4542,46.1937,-17.3292,46.6437,-17.1875C47.0937,-17.0458,47.4687,-16.9,47.7687,-16.75C48.0687,-16.6,48.2854,-16.4833,48.4187,-16.4L47.2938,-13.25C46.7604,-13.5333,46.1396,-13.775,45.4313,-13.975C44.7229,-14.175,43.9188,-14.275,43.0187,-14.275C42.4188,-14.275,41.8313,-14.175,41.2562,-13.975C40.6812,-13.775,40.1729,-13.4542,39.7313,-13.0125C39.2896,-12.5708,38.9354,-12,38.6688,-11.3C38.4021,-10.6,38.2687,-9.75,38.2687,-8.75C38.2687,-7.95,38.3562,-7.20417,38.5312,-6.5125C38.7063,-5.82083,38.9896,-5.225,39.3812,-4.725C39.7729,-4.225,40.2854,-3.82917,40.9188,-3.5375C41.5521,-3.24583,42.3188,-3.1,43.2188,-3.1C43.7854,-3.1,44.2937,-3.13333,44.7438,-3.2C45.1938,-3.26667,45.5938,-3.34583,45.9437,-3.4375C46.2937,-3.52917,46.6021,-3.63333,46.8688,-3.75C47.1354,-3.86667,47.3771,-3.975,47.5938,-4.075L48.6688,-0.95C48.1188,-0.616667,47.3438,-0.316667,46.3438,-0.05C45.3438,0.216667,44.1854,0.35,42.8688,0.35ZM55.025,-3.8C55.0583,-3.4,55.0792,-3.11667,55.0875,-2.95C55.0958,-2.78333,55.1,-2.64167,55.1,-2.525C55.1,-2.025,55.0542,-1.49583,54.9625,-0.9375C54.8708,-0.379167,54.7417,0.183333,54.575,0.75C54.4083,1.31667,54.2,1.88333,53.95,2.45C53.7,3.01667,53.4167,3.55833,53.1,4.075L50.175,3.35C50.5583,2.25,50.825,1.21667,50.975,0.25C51.125,-0.716667,51.2,-1.51667,51.2,-2.15C51.2,-2.25,51.1958,-2.37917,51.1875,-2.5375C51.1792,-2.69583,51.1708,-2.85833,51.1625,-3.025C51.1542,-3.19167,51.1458,-3.35,51.1375,-3.5C51.1292,-3.65,51.125,-3.75,51.125,-3.8ZM76.7562,-17.325L76.7562,-14L71.5312,-14L71.5312,0L67.6312,0L67.6312,-14L62.4062,-14L62.4062,-17.325ZM79.25,0L79.25,-17.325L90.95,-17.325L90.95,-14.05L83.15,-14.05L83.15,-10.65L90.075,-10.65L90.075,-7.45L83.15,-7.45L83.15,-3.275L91.525,-3.275L91.525,0ZM99.0062,-17.325C99.3063,-16.775,99.6521,-16.0958,100.044,-15.2875C100.435,-14.4792,100.844,-13.6042,101.269,-12.6625C101.694,-11.7208,102.115,-10.7583,102.531,-9.775C102.948,-8.79167,103.34,-7.86667,103.706,-7C104.073,-7.86667,104.465,-8.79167,104.881,-9.775C105.298,-10.7583,105.719,-11.7208,106.144,-12.6625C106.569,-13.6042,106.977,-14.4792,107.369,-15.2875C107.76,-16.0958,108.106,-16.775,108.406,-17.325L111.956,-17.325C112.123,-16.175,112.277,-14.8875,112.419,-13.4625C112.56,-12.0375,112.685,-10.5542,112.794,-9.0125C112.902,-7.47083,113.002,-5.925,113.094,-4.375C113.185,-2.825,113.265,-1.36667,113.331,0L109.531,0C109.481,-1.68333,109.415,-3.51667,109.331,-5.5C109.248,-7.48333,109.123,-9.48333,108.956,-11.5C108.656,-10.8,108.323,-10.025,107.956,-9.175C107.59,-8.325,107.227,-7.475,106.869,-6.625C106.51,-5.775,106.165,-4.9625,105.831,-4.1875C105.498,-3.4125,105.215,-2.75,104.981,-2.2L102.256,-2.2C102.023,-2.75,101.74,-3.4125,101.406,-4.1875C101.073,-4.9625,100.727,-5.775,100.369,-6.625C100.01,-7.475,99.6479,-8.325,99.2812,-9.175C98.9146,-10.025,98.5812,-10.8,98.2812,-11.5C98.1146,-9.48333,97.9896,-7.48333,97.9062,-5.5C97.8229,-3.51667,97.7563,-1.68333,97.7063,0L93.9062,0C93.9729,-1.36667,94.0521,-2.825,94.1438,-4.375C94.2354,-5.925,94.3354,-7.47083,94.4437,-9.0125C94.5521,-10.5542,94.6771,-12.0375,94.8187,-13.4625C94.9604,-14.8875,95.1146,-16.175,95.2812,-17.325ZM120.103,-3.8C120.136,-3.4,120.157,-3.11667,120.166,-2.95C120.174,-2.78333,120.178,-2.64167,120.178,-2.525C120.178,-2.025,120.132,-1.49583,120.041,-0.9375C119.949,-0.379167,119.82,0.183333,119.653,0.75C119.486,1.31667,119.278,1.88333,119.028,2.45C118.778,3.01667,118.495,3.55833,118.178,4.075L115.253,3.35C115.636,2.25,115.903,1.21667,116.053,0.25C116.203,-0.716667,116.278,-1.51667,116.278,-2.15C116.278,-2.25,116.274,-2.37917,116.266,-2.5375C116.257,-2.69583,116.249,-2.85833,116.241,-3.025C116.232,-3.19167,116.224,-3.35,116.216,-3.5C116.207,-3.65,116.203,-3.75,116.203,-3.8ZM133.709,-2.975C134.259,-2.975,134.714,-3.02083,135.072,-3.1125C135.43,-3.20417,135.718,-3.32917,135.934,-3.4875C136.151,-3.64583,136.301,-3.83333,136.384,-4.05C136.468,-4.26667,136.509,-4.50833,136.509,-4.775C136.509,-5.34167,136.243,-5.8125,135.709,-6.1875C135.176,-6.5625,134.259,-6.96667,132.959,-7.4C132.393,-7.6,131.826,-7.82917,131.259,-8.0875C130.693,-8.34583,130.184,-8.67083,129.734,-9.0625C129.284,-9.45417,128.918,-9.92917,128.634,-10.4875C128.351,-11.0458,128.209,-11.725,128.209,-12.525C128.209,-13.325,128.359,-14.0458,128.659,-14.6875C128.959,-15.3292,129.384,-15.875,129.934,-16.325C130.484,-16.775,131.151,-17.1208,131.934,-17.3625C132.718,-17.6042,133.601,-17.725,134.584,-17.725C135.751,-17.725,136.759,-17.6,137.609,-17.35C138.459,-17.1,139.159,-16.825,139.709,-16.525L138.584,-13.45C138.101,-13.7,137.564,-13.9208,136.972,-14.1125C136.38,-14.3042,135.668,-14.4,134.834,-14.4C133.901,-14.4,133.23,-14.2708,132.822,-14.0125C132.414,-13.7542,132.209,-13.3583,132.209,-12.825C132.209,-12.5083,132.284,-12.2417,132.434,-12.025C132.584,-11.8083,132.797,-11.6125,133.072,-11.4375C133.347,-11.2625,133.664,-11.1042,134.022,-10.9625C134.38,-10.8208,134.776,-10.675,135.209,-10.525C136.109,-10.1917,136.893,-9.8625,137.559,-9.5375C138.226,-9.2125,138.78,-8.83333,139.222,-8.4C139.664,-7.96667,139.993,-7.45833,140.209,-6.875C140.426,-6.29167,140.534,-5.58333,140.534,-4.75C140.534,-3.13333,139.968,-1.87917,138.834,-0.9875C137.701,-0.0958333,135.993,0.35,133.709,0.35C132.943,0.35,132.251,0.304167,131.634,0.2125C131.018,0.120833,130.472,0.00833334,129.997,-0.125C129.522,-0.258333,129.114,-0.4,128.772,-0.55C128.43,-0.7,128.143,-0.841667,127.909,-0.975L129.009,-4.075C129.526,-3.79167,130.164,-3.5375,130.922,-3.3125C131.68,-3.0875,132.609,-2.975,133.709,-2.975ZM143.531,0L143.531,-17.325L155.231,-17.325L155.231,-14.05L147.431,-14.05L147.431,-10.65L154.356,-10.65L154.356,-7.45L147.431,-7.45L147.431,-3.275L155.806,-3.275L155.806,0ZM163.288,-17.325C163.588,-16.775,163.933,-16.0958,164.325,-15.2875C164.717,-14.4792,165.125,-13.6042,165.55,-12.6625C165.975,-11.7208,166.396,-10.7583,166.812,-9.775C167.229,-8.79167,167.621,-7.86667,167.988,-7C168.354,-7.86667,168.746,-8.79167,169.163,-9.775C169.579,-10.7583,170,-11.7208,170.425,-12.6625C170.85,-13.6042,171.258,-14.4792,171.65,-15.2875C172.042,-16.0958,172.388,-16.775,172.688,-17.325L176.238,-17.325C176.404,-16.175,176.558,-14.8875,176.7,-13.4625C176.842,-12.0375,176.967,-10.5542,177.075,-9.0125C177.183,-7.47083,177.283,-5.925,177.375,-4.375C177.467,-2.825,177.546,-1.36667,177.613,0L173.812,0C173.763,-1.68333,173.696,-3.51667,173.613,-5.5C173.529,-7.48333,173.404,-9.48333,173.238,-11.5C172.938,-10.8,172.604,-10.025,172.238,-9.175C171.871,-8.325,171.508,-7.475,171.15,-6.625C170.792,-5.775,170.446,-4.9625,170.113,-4.1875C169.779,-3.4125,169.496,-2.75,169.262,-2.2L166.538,-2.2C166.304,-2.75,166.021,-3.4125,165.688,-4.1875C165.354,-4.9625,165.008,-5.775,164.65,-6.625C164.292,-7.475,163.929,-8.325,163.562,-9.175C163.196,-10.025,162.862,-10.8,162.562,-11.5C162.396,-9.48333,162.271,-7.48333,162.188,-5.5C162.104,-3.51667,162.038,-1.68333,161.988,0L158.188,0C158.254,-1.36667,158.333,-2.825,158.425,-4.375C158.517,-5.925,158.617,-7.47083,158.725,-9.0125C158.833,-10.5542,158.958,-12.0375,159.1,-13.4625C159.242,-14.8875,159.396,-16.175,159.562,-17.325ZM184.384,-3.8C184.418,-3.4,184.439,-3.11667,184.447,-2.95C184.455,-2.78333,184.459,-2.64167,184.459,-2.525C184.459,-2.025,184.414,-1.49583,184.322,-0.9375C184.23,-0.379167,184.101,0.183333,183.934,0.75C183.768,1.31667,183.559,1.88333,183.309,2.45C183.059,3.01667,182.776,3.55833,182.459,4.075L179.534,3.35C179.918,2.25,180.184,1.21667,180.334,0.25C180.484,-0.716667,180.559,-1.51667,180.559,-2.15C180.559,-2.25,180.555,-2.37917,180.547,-2.5375C180.539,-2.69583,180.53,-2.85833,180.522,-3.025C180.514,-3.19167,180.505,-3.35,180.497,-3.5C180.489,-3.65,180.484,-3.75,180.484,-3.8Z" fill-rule="nonzero" transform="translate(424.242,307.893) scale(2.53827,2.53827)"/>
    <path fill="#ff0000" stroke="none" d="M10.45,-14.325C8.63333,-14.325,7.32083,-13.8208,6.5125,-12.8125C5.70417,-11.8042,5.3,-10.425,5.3,-8.675C5.3,-7.825,5.4,-7.05417,5.6,-6.3625C5.8,-5.67083,6.1,-5.075,6.5,-4.575C6.9,-4.075,7.4,-3.6875,8,-3.4125C8.6,-3.1375,9.3,-3,10.1,-3C10.5333,-3,10.9042,-3.00833,11.2125,-3.025C11.5208,-3.04167,11.7917,-3.075,12.025,-3.125L12.025,-9.15L15.925,-9.15L15.925,-0.575C15.4583,-0.391667,14.7083,-0.195833,13.675,0.0125C12.6417,0.220833,11.3667,0.325,9.85,0.325C8.55,0.325,7.37083,0.125,6.3125,-0.275C5.25417,-0.675,4.35,-1.25833,3.6,-2.025C2.85,-2.79167,2.27083,-3.73333,1.8625,-4.85C1.45417,-5.96667,1.25,-7.24167,1.25,-8.675C1.25,-10.125,1.475,-11.4083,1.925,-12.525C2.375,-13.6417,2.99167,-14.5875,3.775,-15.3625C4.55833,-16.1375,5.47917,-16.725,6.5375,-17.125C7.59583,-17.525,8.725,-17.725,9.925,-17.725C10.7417,-17.725,11.4792,-17.6708,12.1375,-17.5625C12.7958,-17.4542,13.3625,-17.3292,13.8375,-17.1875C14.3125,-17.0458,14.7042,-16.9,15.0125,-16.75C15.3208,-16.6,15.5417,-16.4833,15.675,-16.4L14.55,-13.275C14.0167,-13.5583,13.4042,-13.8042,12.7125,-14.0125C12.0208,-14.2208,11.2667,-14.325,10.45,-14.325ZM27.2219,-9.85C26.8885,-9.93333,26.4969,-10.0208,26.0469,-10.1125C25.5969,-10.2042,25.1135,-10.25,24.5969,-10.25C24.3635,-10.25,24.0844,-10.2292,23.7594,-10.1875C23.4344,-10.1458,23.1885,-10.1,23.0219,-10.05L23.0219,0L19.2969,0L19.2969,-12.45C19.9635,-12.6833,20.751,-12.9042,21.6594,-13.1125C22.5677,-13.3208,23.5802,-13.425,24.6969,-13.425C24.8969,-13.425,25.1385,-13.4125,25.4219,-13.3875C25.7052,-13.3625,25.9885,-13.3292,26.2719,-13.2875C26.5552,-13.2458,26.8385,-13.1958,27.1219,-13.1375C27.4052,-13.0792,27.6469,-13.0083,27.8469,-12.925ZM34.6188,-2.6C34.9854,-2.6,35.3354,-2.60833,35.6688,-2.625C36.0021,-2.64167,36.2688,-2.66667,36.4688,-2.7L36.4688,-5.525C36.3188,-5.55833,36.0938,-5.59167,35.7938,-5.625C35.4938,-5.65833,35.2188,-5.675,34.9688,-5.675C34.6187,-5.675,34.2896,-5.65417,33.9813,-5.6125C33.6729,-5.57083,33.4021,-5.49167,33.1688,-5.375C32.9354,-5.25833,32.7521,-5.1,32.6188,-4.9C32.4854,-4.7,32.4188,-4.45,32.4188,-4.15C32.4188,-3.56667,32.6146,-3.1625,33.0062,-2.9375C33.3979,-2.7125,33.9354,-2.6,34.6188,-2.6ZM34.3187,-13.5C35.4187,-13.5,36.3354,-13.375,37.0687,-13.125C37.8021,-12.875,38.3896,-12.5167,38.8312,-12.05C39.2729,-11.5833,39.5854,-11.0167,39.7687,-10.35C39.9521,-9.68333,40.0438,-8.94167,40.0438,-8.125L40.0438,-0.375C39.5104,-0.258333,38.7688,-0.120833,37.8187,0.0375C36.8687,0.195833,35.7188,0.275,34.3688,0.275C33.5188,0.275,32.7479,0.2,32.0563,0.05C31.3646,-0.1,30.7687,-0.345833,30.2687,-0.6875C29.7687,-1.02917,29.3854,-1.475,29.1187,-2.025C28.8521,-2.575,28.7188,-3.25,28.7188,-4.05C28.7188,-4.81667,28.8729,-5.46667,29.1812,-6C29.4896,-6.53333,29.9021,-6.95833,30.4188,-7.275C30.9354,-7.59167,31.5271,-7.82083,32.1937,-7.9625C32.8604,-8.10417,33.5521,-8.175,34.2687,-8.175C34.7521,-8.175,35.1813,-8.15417,35.5563,-8.1125C35.9313,-8.07083,36.2354,-8.01667,36.4688,-7.95L36.4688,-8.3C36.4688,-8.93333,36.2771,-9.44167,35.8937,-9.825C35.5104,-10.2083,34.8437,-10.4,33.8937,-10.4C33.2604,-10.4,32.6354,-10.3542,32.0187,-10.2625C31.4021,-10.1708,30.8688,-10.0417,30.4188,-9.875L29.9438,-12.875C30.1604,-12.9417,30.4312,-13.0125,30.7563,-13.0875C31.0812,-13.1625,31.4354,-13.2292,31.8188,-13.2875C32.2021,-13.3458,32.6062,-13.3958,33.0312,-13.4375C33.4563,-13.4792,33.8854,-13.5,34.3187,-13.5ZM51.8469,-6.475C51.8469,-7.625,51.5885,-8.54583,51.0719,-9.2375C50.5552,-9.92917,49.7885,-10.275,48.7719,-10.275C48.4385,-10.275,48.1302,-10.2625,47.8469,-10.2375C47.5635,-10.2125,47.3302,-10.1833,47.1469,-10.15L47.1469,-3.425C47.3802,-3.275,47.6844,-3.15,48.0594,-3.05C48.4344,-2.95,48.8135,-2.9,49.1969,-2.9C50.9635,-2.9,51.8469,-4.09167,51.8469,-6.475ZM55.6469,-6.575C55.6469,-5.55833,55.5219,-4.63333,55.2719,-3.8C55.0219,-2.96667,54.6552,-2.25,54.1719,-1.65C53.6885,-1.05,53.0885,-0.583333,52.3719,-0.25C51.6552,0.0833333,50.8302,0.25,49.8969,0.25C49.3802,0.25,48.8969,0.2,48.4469,0.1C47.9969,0,47.5635,-0.141667,47.1469,-0.325L47.1469,4.625L43.4219,4.625L43.4219,-12.7C43.7552,-12.8,44.1385,-12.8958,44.5719,-12.9875C45.0052,-13.0792,45.4594,-13.1583,45.9344,-13.225C46.4094,-13.2917,46.8927,-13.3458,47.3844,-13.3875C47.876,-13.4292,48.3469,-13.45,48.7969,-13.45C49.8802,-13.45,50.8469,-13.2875,51.6969,-12.9625C52.5469,-12.6375,53.2635,-12.1792,53.8469,-11.5875C54.4302,-10.9958,54.876,-10.275,55.1844,-9.425C55.4927,-8.575,55.6469,-7.625,55.6469,-6.575ZM58.5156,0L58.5156,-18.8L62.2406,-19.4L62.2406,-13.1C62.4906,-13.1833,62.8115,-13.2625,63.2031,-13.3375C63.5948,-13.4125,63.974,-13.45,64.3406,-13.45C65.4073,-13.45,66.2948,-13.3042,67.0031,-13.0125C67.7115,-12.7208,68.2781,-12.3083,68.7031,-11.775C69.1281,-11.2417,69.4281,-10.6083,69.6031,-9.875C69.7781,-9.14167,69.8656,-8.325,69.8656,-7.425L69.8656,0L66.1406,0L66.1406,-6.975C66.1406,-8.175,65.9865,-9.025,65.6781,-9.525C65.3698,-10.025,64.799,-10.275,63.9656,-10.275C63.6323,-10.275,63.3198,-10.2458,63.0281,-10.1875C62.7365,-10.1292,62.474,-10.0667,62.2406,-10L62.2406,0ZM84.6844,-17.525C87.2677,-17.525,89.251,-17.0708,90.6344,-16.1625C92.0177,-15.2542,92.7094,-13.7667,92.7094,-11.7C92.7094,-9.61667,92.0094,-8.1125,90.6094,-7.1875C89.2094,-6.2625,87.2094,-5.8,84.6094,-5.8L83.3844,-5.8L83.3844,0L79.4844,0L79.4844,-17.075C80.3344,-17.2417,81.2344,-17.3583,82.1844,-17.425C83.1344,-17.4917,83.9677,-17.525,84.6844,-17.525ZM84.9344,-14.2C84.651,-14.2,84.3719,-14.1917,84.0969,-14.175C83.8219,-14.1583,83.5844,-14.1417,83.3844,-14.125L83.3844,-9.125L84.6094,-9.125C85.9594,-9.125,86.976,-9.30833,87.6594,-9.675C88.3427,-10.0417,88.6844,-10.725,88.6844,-11.725C88.6844,-12.2083,88.5969,-12.6083,88.4219,-12.925C88.2469,-13.2417,87.9969,-13.4958,87.6719,-13.6875C87.3469,-13.8792,86.951,-14.0125,86.4844,-14.0875C86.0177,-14.1625,85.501,-14.2,84.9344,-14.2ZM100.578,0.25C99.4948,0.233333,98.6156,0.116667,97.9406,-0.1C97.2656,-0.316667,96.7323,-0.620833,96.3406,-1.0125C95.949,-1.40417,95.6823,-1.87917,95.5406,-2.4375C95.399,-2.99583,95.3281,-3.625,95.3281,-4.325L95.3281,-18.8L99.0531,-19.4L99.0531,-5.075C99.0531,-4.74167,99.0781,-4.44167,99.1281,-4.175C99.1781,-3.90833,99.274,-3.68333,99.4156,-3.5C99.5573,-3.31667,99.7615,-3.16667,100.028,-3.05C100.295,-2.93333,100.653,-2.85833,101.103,-2.825ZM115.534,-6.6C115.534,-5.56667,115.384,-4.62083,115.084,-3.7625C114.784,-2.90417,114.351,-2.17083,113.784,-1.5625C113.218,-0.954167,112.539,-0.483333,111.747,-0.15C110.955,0.183333,110.068,0.35,109.084,0.35C108.118,0.35,107.239,0.183333,106.447,-0.15C105.655,-0.483333,104.976,-0.954167,104.409,-1.5625C103.843,-2.17083,103.401,-2.90417,103.084,-3.7625C102.768,-4.62083,102.609,-5.56667,102.609,-6.6C102.609,-7.63333,102.772,-8.575,103.097,-9.425C103.422,-10.275,103.872,-11,104.447,-11.6C105.022,-12.2,105.705,-12.6667,106.497,-13C107.289,-13.3333,108.151,-13.5,109.084,-13.5C110.034,-13.5,110.905,-13.3333,111.697,-13C112.489,-12.6667,113.168,-12.2,113.734,-11.6C114.301,-11,114.743,-10.275,115.059,-9.425C115.376,-8.575,115.534,-7.63333,115.534,-6.6ZM111.734,-6.6C111.734,-7.75,111.505,-8.65417,111.047,-9.3125C110.589,-9.97083,109.934,-10.3,109.084,-10.3C108.234,-10.3,107.576,-9.97083,107.109,-9.3125C106.643,-8.65417,106.409,-7.75,106.409,-6.6C106.409,-5.45,106.643,-4.5375,107.109,-3.8625C107.576,-3.1875,108.234,-2.85,109.084,-2.85C109.934,-2.85,110.589,-3.1875,111.047,-3.8625C111.505,-4.5375,111.734,-5.45,111.734,-6.6ZM118.281,-16.425L122.006,-17.025L122.006,-13.15L126.481,-13.15L126.481,-10.05L122.006,-10.05L122.006,-5.425C122.006,-4.64167,122.144,-4.01667,122.419,-3.55C122.694,-3.08333,123.248,-2.85,124.081,-2.85C124.481,-2.85,124.894,-2.8875,125.319,-2.9625C125.744,-3.0375,126.131,-3.14167,126.481,-3.275L127.006,-0.375C126.556,-0.191667,126.056,-0.0333333,125.506,0.1C124.956,0.233333,124.281,0.3,123.481,0.3C122.465,0.3,121.623,0.1625,120.956,-0.1125C120.29,-0.3875,119.756,-0.770833,119.356,-1.2625C118.956,-1.75417,118.677,-2.35,118.519,-3.05C118.36,-3.75,118.281,-4.525,118.281,-5.375ZM129.375,-16.425L133.1,-17.025L133.1,-13.15L137.575,-13.15L137.575,-10.05L133.1,-10.05L133.1,-5.425C133.1,-4.64167,133.238,-4.01667,133.512,-3.55C133.788,-3.08333,134.342,-2.85,135.175,-2.85C135.575,-2.85,135.987,-2.8875,136.413,-2.9625C136.838,-3.0375,137.225,-3.14167,137.575,-3.275L138.1,-0.375C137.65,-0.191667,137.15,-0.0333333,136.6,0.1C136.05,0.233333,135.375,0.3,134.575,0.3C133.558,0.3,132.717,0.1625,132.05,-0.1125C131.383,-0.3875,130.85,-0.770833,130.45,-1.2625C130.05,-1.75417,129.771,-2.35,129.613,-3.05C129.454,-3.75,129.375,-4.525,129.375,-5.375ZM144.319,0L140.594,0L140.594,-13.15L144.319,-13.15ZM144.669,-16.95C144.669,-16.2667,144.448,-15.7292,144.006,-15.3375C143.565,-14.9458,143.044,-14.75,142.444,-14.75C141.844,-14.75,141.323,-14.9458,140.881,-15.3375C140.44,-15.7292,140.219,-16.2667,140.219,-16.95C140.219,-17.6333,140.44,-18.1708,140.881,-18.5625C141.323,-18.9542,141.844,-19.15,142.444,-19.15C143.044,-19.15,143.565,-18.9542,144.006,-18.5625C144.448,-18.1708,144.669,-17.6333,144.669,-16.95ZM147.812,-12.7C148.446,-12.8833,149.262,-13.0542,150.262,-13.2125C151.262,-13.3708,152.312,-13.45,153.413,-13.45C154.529,-13.45,155.458,-13.3042,156.2,-13.0125C156.942,-12.7208,157.529,-12.3083,157.962,-11.775C158.396,-11.2417,158.704,-10.6083,158.887,-9.875C159.071,-9.14167,159.163,-8.325,159.163,-7.425L159.163,0L155.438,0L155.438,-6.975C155.438,-8.175,155.279,-9.025,154.962,-9.525C154.646,-10.025,154.054,-10.275,153.188,-10.275C152.921,-10.275,152.638,-10.2625,152.337,-10.2375C152.037,-10.2125,151.771,-10.1833,151.538,-10.15L151.538,0L147.812,0ZM165.706,-7C165.706,-4.91667,166.548,-3.875,168.231,-3.875C168.615,-3.875,168.973,-3.925,169.306,-4.025C169.64,-4.125,169.923,-4.24167,170.156,-4.375L170.156,-10.325C169.973,-10.3583,169.756,-10.3875,169.506,-10.4125C169.256,-10.4375,168.965,-10.45,168.631,-10.45C167.648,-10.45,166.915,-10.125,166.431,-9.475C165.948,-8.825,165.706,-8,165.706,-7ZM173.881,-1.65C173.881,0.5,173.335,2.09583,172.244,3.1375C171.152,4.17917,169.465,4.7,167.181,4.7C166.381,4.7,165.581,4.62917,164.781,4.4875C163.981,4.34583,163.24,4.15833,162.556,3.925L163.206,0.8C163.79,1.03333,164.402,1.21667,165.044,1.35C165.685,1.48333,166.415,1.55,167.231,1.55C168.298,1.55,169.052,1.31667,169.494,0.85C169.935,0.383333,170.156,-0.216667,170.156,-0.95L170.156,-1.425C169.756,-1.24167,169.344,-1.10417,168.919,-1.0125C168.494,-0.920833,168.031,-0.875,167.531,-0.875C165.715,-0.875,164.323,-1.4125,163.356,-2.4875C162.39,-3.5625,161.906,-5.06667,161.906,-7C161.906,-7.96667,162.056,-8.84583,162.356,-9.6375C162.656,-10.4292,163.094,-11.1083,163.669,-11.675C164.244,-12.2417,164.948,-12.6792,165.781,-12.9875C166.615,-13.2958,167.556,-13.45,168.606,-13.45C169.056,-13.45,169.519,-13.4292,169.994,-13.3875C170.469,-13.3458,170.94,-13.2917,171.406,-13.225C171.873,-13.1583,172.319,-13.0792,172.744,-12.9875C173.169,-12.8958,173.548,-12.8,173.881,-12.7Z" fill-rule="nonzero" transform="translate(425.674,540.519) scale(2.53827,2.53827)"/>
    <g transform="translate(96.4367,486.147) scale(1.11434,1) translate(3.34446,-107.271)">
        <g transform="translate(108.578,54.8142) translate(-106.883,-54.8142)">
            <path d="M0,0L-122,0" fill="none" stroke="#585858" stroke-linecap="square" stroke-width="10" transform="translate(213.765,109.628) scale(1.68659,1.68659)"/>
            <path d="M0,0L0,65" fill="none" stroke="#585858" stroke-linecap="square" stroke-width="10" transform="translate(0,0) scale(1.68659,1.68659)"/>
            <path d="M0,0L-13.6506,-0.119742C-19.46,-52.2612,-24.87,-78.3826,-28.6798,-0.251577L-57.9771,-0.508571C-63.713,-14.2966,-69.0229,-15.7224,-73.7642,-0.647055L-86.9086,-0.762357C-93.2706,-61.5522,-97.9605,-39.7077,-102.307,-0.89743L-114,-1" stroke="#585858" fill="none" stroke-linecap="square" stroke-width="10" transform="translate(213.765,89.7622) scale(1.68659,1.68659)"/>
        </g>
        <g transform="translate(109.172,149.88) scale(1.05684,1.05684) translate(-103.3,-12.4361)">
            <path d="M0,0L122,0" stroke="#ff0000" fill="none" stroke-width="8" stroke-linecap="square" transform="translate(0,24.8722) scale(1.69345,1.69345)"/>
            <path d="M0,0L0,-11" stroke="#ff0000" fill="none" stroke-width="8" stroke-linecap="square" transform="translate(46.5698,24.8722) scale(1.69345,1.46961)"/>
            <path d="M0,0L0,-5.5" stroke="#ff0000" fill="none" stroke-width="8" stroke-linecap="square" transform="translate(93.9863,24.8722) scale(1.69345,1.69345)"/>
            <path d="M0,0L0,-13" stroke="#ff0000" fill="none" stroke-width="8" stroke-linecap="square" transform="translate(170.192,19.3685) scale(1.46076,1.48988)"/>
        </g>
        <g transform="translate(109.172,203.88) scale(1.05684,1.05684) translate(-103.3,-12.4361)">
            <path d="M0,0L122,0" stroke="#ff0000" fill="none" stroke-width="8" stroke-linecap="square" transform="translate(0,24.8722) scale(1.69345,1.69345)"/>
            <path d="M0,0L0,-11" stroke="#ff0000" fill="none" stroke-width="8" stroke-linecap="square" transform="translate(46.5698,24.8722) scale(1.69345,1.46961)"/>
            <path d="M0,0L0,-5.5" stroke="#ff0000" fill="none" stroke-width="8" stroke-linecap="square" transform="translate(93.9863,24.8722) scale(1.69345,1.69345)"/>
            <path d="M0,0L0,-13" stroke="#ff0000" fill="none" stroke-width="8" stroke-linecap="square" transform="translate(170.192,19.3685) scale(1.46076,1.48988)"/>
        </g>
    </g>
</svg>
