<svg xmlns="http://www.w3.org/2000/svg" viewBox="0 0 1000 1300" text-rendering="geometricPrecision" shape-rendering="geometricPrecision" style="white-space: pre;">
    <defs>
        <radialGradient id="Gradient-0" cx="-20.4119" cy="-21.8699" r="109.317" fx="-20.4119" fy="-21.8699" gradientUnits="userSpaceOnUse">
            <stop offset="0" stop-color="#dedede"/>
            <stop offset="1" stop-color="#2f2f2f"/>
        </radialGradient>
    </defs>
    <rect width="1000" height="1300" fill="#cdcdcd" stroke="none" transform="translate(648.73,707.138) translate(-648.73,-707.138)"/>
    <ellipse rx="86.0215" ry="86.0215" fill="url(#Gradient-0)" stroke="none" stroke-width="0" transform="translate(154.292,468.264)"/>
    <ellipse rx="86.0215" ry="86.0215" fill="url(#Gradient-0)" stroke="none" stroke-width="0" transform="translate(330.83,1196.5)"/>
    <ellipse rx="86.0215" ry="86.0215" fill="url(#Gradient-0)" stroke="none" stroke-width="0" transform="translate(330.83,563.978)"/>
    <ellipse rx="86.0215" ry="86.0215" fill="url(#Gradient-0)" stroke="none" stroke-width="0" transform="translate(233.333,382.242)"/>
    <ellipse rx="86.0215" ry="86.0215" fill="url(#Gradient-0)" stroke="none" stroke-width="0" transform="translate(670.421,781.236)"/>
    <ellipse rx="86.0215" ry="86.0215" fill="url(#Gradient-0)" stroke="none" stroke-width="0" transform="translate(584.4,468.264)"/>
    <ellipse rx="86.0215" ry="86.0215" fill="url(#Gradient-0)" stroke="none" stroke-width="0" transform="translate(502.873,650)"/>
    <ellipse rx="86.0215" ry="86.0215" fill="url(#Gradient-0)" stroke="none" stroke-width="0" transform="translate(348.427,994.911)"/>
    <ellipse rx="86.0215" ry="86.0215" fill="url(#Gradient-0)" stroke="none" stroke-width="0" transform="translate(154.292,695.214)"/>
    <ellipse rx="86.0215" ry="86.0215" fill="url(#Gradient-0)" stroke="none" stroke-width="0" transform="translate(870.193,908.889)"/>
    <ellipse rx="86.0215" ry="86.0215" fill="url(#Gradient-0)" stroke="none" stroke-width="0" transform="translate(870.193,141.263)"/>
    <ellipse rx="86.0215" ry="86.0215" fill="url(#Gradient-0)" stroke="none" stroke-width="0" transform="translate(154.292,1080.93)"/>
    <ellipse rx="86.0215" ry="86.0215" fill="url(#Gradient-0)" stroke="none" stroke-width="0" transform="translate(715.399,554.285)"/>
    <ellipse rx="86.0215" ry="86.0215" fill="url(#Gradient-0)" stroke="none" stroke-width="0" transform="translate(698.15,249.73)"/>
    <ellipse rx="86.0215" ry="86.0215" fill="url(#Gradient-0)" stroke="none" stroke-width="0" transform="translate(351.649,798.475)"/>
    <ellipse rx="86.0215" ry="86.0215" fill="url(#Gradient-0)" stroke="none" stroke-width="0" transform="translate(457.335,296.221)"/>
    <ellipse rx="86.0215" ry="86.0215" fill="url(#Gradient-0)" stroke="none" stroke-width="0" transform="translate(584.4,119.73)"/>
    <ellipse rx="86.0215" ry="86.0215" fill="url(#Gradient-0)" stroke="none" stroke-width="0" transform="translate(870.193,695.215)"/>
    <ellipse rx="86.0215" ry="86.0215" fill="url(#Gradient-0)" stroke="none" stroke-width="0" transform="translate(371.313,119.73)"/>
    <ellipse rx="86.0215" ry="86.0215" fill="url(#Gradient-0)" stroke="none" stroke-width="0" transform="translate(870.193,382.243)"/>
    <ellipse rx="86.0215" ry="86.0215" fill="url(#Gradient-0)" stroke="none" stroke-width="0" transform="translate(586.022,953.878)"/>
    <ellipse rx="86.0215" ry="86.0215" fill="url(#Gradient-0)" stroke="none" stroke-width="0" transform="translate(176.384,163.708)"/>
    <g transform="translate(680.795,1151.78) translate(-275.419,-95.2458)" style="white-space: pre;">
        <rect width="347" height="120" fill="#ffffff" stroke="none" transform="translate(275.419,83.3401) scale(1.58743,1.58743) translate(-173.5,-52.5)"/>
        <path d="M0,0L306.312,0" stroke="#000000" fill="none" stroke-linecap="butt" stroke-width="26" transform="translate(275.419,53.9401) scale(1.58743,1.58743) translate(-153.156,0)"/>
        <text fill="#000000" font-size="53" font-family="Arial" letter-spacing="0" word-spacing="0" stroke="none" font-weight="700" transform="translate(275.419,130.336) scale(1.58743,1.58743) translate(-153.156,18.374)" style="line-height: 16px; white-space: pre;">Nanometers</text>
    </g>
    <ellipse rx="86.0215" ry="86.0215" fill="url(#Gradient-0)" stroke="none" stroke-width="0" transform="translate(154.292,884.496)"/>
</svg>
