<svg xmlns="http://www.w3.org/2000/svg" viewBox="0 0 1000 1100" text-rendering="geometricPrecision" shape-rendering="geometricPrecision" style="white-space: pre;">
    <defs>
        <radialGradient id="Gradient-0" cx="-20.4119" cy="-21.8699" r="109.317" fx="-20.4119" fy="-21.8699" gradientUnits="userSpaceOnUse">
            <stop offset="0" stop-color="#dedede"/>
            <stop offset="1" stop-color="#2f2f2f"/>
        </radialGradient>
    </defs>
    <rect width="1000" height="1100" fill="#cdcdcd" stroke="none" transform="translate(648.73,707.138) translate(-648.73,-707.138)"/>
    <ellipse rx="86.0215" ry="86.0215" fill="url(#Gradient-0)" stroke="none" stroke-width="0" transform="translate(154.292,468.264)"/>
    <ellipse rx="86.0215" ry="86.0215" fill="url(#Gradient-0)" stroke="none" stroke-width="0" transform="translate(176.384,994.911)"/>
    <ellipse rx="86.0215" ry="86.0215" fill="url(#Gradient-0)" stroke="none" stroke-width="0" transform="translate(348.427,576.372)"/>
    <ellipse rx="86.0215" ry="86.0215" fill="url(#Gradient-0)" stroke="none" stroke-width="0" transform="translate(262.406,351.129)"/>
    <ellipse rx="86.0215" ry="86.0215" fill="url(#Gradient-0)" stroke="none" stroke-width="0" transform="translate(588.894,640.307)"/>
    <ellipse rx="86.0215" ry="86.0215" fill="url(#Gradient-0)" stroke="none" stroke-width="0" transform="translate(607.357,437.15)"/>
    <ellipse rx="86.0215" ry="86.0215" fill="url(#Gradient-0)" stroke="none" stroke-width="0" transform="translate(457.335,421.773)"/>
    <ellipse rx="86.0215" ry="86.0215" fill="url(#Gradient-0)" stroke="none" stroke-width="0" transform="translate(412.357,698.496)"/>
    <ellipse rx="86.0215" ry="86.0215" fill="url(#Gradient-0)" stroke="none" stroke-width="0" transform="translate(186.587,662.393)"/>
    <ellipse rx="86.0215" ry="86.0215" fill="url(#Gradient-0)" stroke="none" stroke-width="0" transform="translate(784.265,784.518)"/>
    <ellipse rx="86.0215" ry="86.0215" fill="url(#Gradient-0)" stroke="none" stroke-width="0" transform="translate(870.193,141.263)"/>
    <ellipse rx="86.0215" ry="86.0215" fill="url(#Gradient-0)" stroke="none" stroke-width="0" transform="translate(326.335,867.857)"/>
    <ellipse rx="86.0215" ry="86.0215" fill="url(#Gradient-0)" stroke="none" stroke-width="0" transform="translate(784.265,437.15)"/>
    <ellipse rx="86.0215" ry="86.0215" fill="url(#Gradient-0)" stroke="none" stroke-width="0" transform="translate(674.916,249.73)"/>
    <ellipse rx="86.0215" ry="86.0215" fill="url(#Gradient-0)" stroke="none" stroke-width="0" transform="translate(760.937,609.193)"/>
    <ellipse rx="86.0215" ry="86.0215" fill="url(#Gradient-0)" stroke="none" stroke-width="0" transform="translate(457.335,249.73)"/>
    <ellipse rx="86.0215" ry="86.0215" fill="url(#Gradient-0)" stroke="none" stroke-width="0" transform="translate(584.4,119.73)"/>
    <ellipse rx="86.0215" ry="86.0215" fill="url(#Gradient-0)" stroke="none" stroke-width="0" transform="translate(877.173,523.172)"/>
    <ellipse rx="86.0215" ry="86.0215" fill="url(#Gradient-0)" stroke="none" stroke-width="0" transform="translate(358.63,141.263)"/>
    <ellipse rx="86.0215" ry="86.0215" fill="url(#Gradient-0)" stroke="none" stroke-width="0" transform="translate(844.879,313.306)"/>
    <ellipse rx="86.0215" ry="86.0215" fill="url(#Gradient-0)" stroke="none" stroke-width="0" transform="translate(543.357,784.518)"/>
    <ellipse rx="86.0215" ry="86.0215" fill="url(#Gradient-0)" stroke="none" stroke-width="0" transform="translate(176.384,163.708)"/>
    <g transform="translate(687.776,965.785) translate(-275.419,-95.2458)">
        <rect width="347" height="120" fill="#ffffff" stroke="none" transform="translate(275.419,83.3401) scale(1.58743,1.58743) translate(-173.5,-52.5)"/>
        <path d="M0,0L306.312,0" stroke="#000000" fill="none" stroke-linecap="butt" stroke-width="26" transform="translate(275.419,53.9401) scale(1.58743,1.58743) translate(-153.156,0)"/>
        <text fill="#000000" font-size="53" font-family="Arial" letter-spacing="0" word-spacing="0" stroke="none" font-weight="700" transform="translate(275.419,130.336) scale(1.58743,1.58743) translate(-153.156,18.374)" style="line-height: 16px; white-space: pre;">Nanometers</text>
    </g>
    <ellipse rx="86.0215" ry="86.0215" fill="url(#Gradient-0)" stroke="none" stroke-width="0" transform="translate(176.384,781.236)"/>
</svg>
