<svg xmlns="http://www.w3.org/2000/svg" class="rb2neck" viewBox="0 0 210 240">
<style>
@keyframes rb2_wave_down { 0% { transform: translate(0px,0px); } 100% { transform: translate(200px,0px); } }
@keyframes rb2_wave_up { 0% { transform: translate(0px,0px); } 100% { transform: translate(-200px,0px); } }
@keyframes rb2_beed { 0% { transform: translate(0px,0px) scale(1,1); } 50% { transform: translate(80px,0px) scale(0.1,1); } 100% { transform: translate(0px,0px) scale(1,1); } } 
</style>
<defs><linearGradient id="Gradient-1" x1="0" y1="19" x2="65" y2="17.5" gradientUnits="userSpaceOnUse"><stop offset="0" stop-color="#f2f2f2"/><stop offset="0.535" stop-color="#efefef"/><stop offset="1" stop-color="#d3d3d3"/></linearGradient>
<linearGradient id="Gradient-2" x1="0" y1="16.5" x2="93" y2="16.5" gradientUnits="userSpaceOnUse"><stop offset="0" stop-color="#e5e5e5"/><stop offset="1" stop-color="#b0afb0"/></linearGradient>
<radialGradient id="Gradient-3" cx="-27.2907" cy="-33.32" r="112.029" fx="-27.2907" fy="-33.32" gradientUnits="userSpaceOnUse"><stop offset="0" stop-color="#ffffff" stop-opacity="0"/><stop offset="0.543535" stop-color="#e4e4e4" stop-opacity="0.14"/><stop offset="1" stop-color="#555555" stop-opacity="0.23"/></radialGradient></defs>
<rect width="65" height="50" fill="url(#Gradient-1)" transform="translate(60,30)"/>
<rect width="65" height="50" fill="url(#Gradient-1)" transform="translate(147,55) rotate(30.1846) scale(0.833841,0.935536) "/>
<rect rx="16" width="93" height="33" fill="url(#Gradient-2)" transform="translate(46,0)"/>
<rect rx="16" width="93" height="33" fill="url(#Gradient-2)" transform="translate(150,30) rotate(30) scale(0.8,0.8)"/>
<ellipse rx="87" ry="87" cx="90" cy="150" stroke="#eeeeee" stroke-width="6"></ellipse>
<defs><mask id="Mask-1--inject-5" style="mask-type:alpha;">
<path d="M-100,30 q50,10,100,0 t 100 0 100 0 100 0 100 0" stroke="#eeeeee" stroke-width="200" transform="translate(0,0)" style="animation: 0.5s linear infinite both rb2_wave_up;"></path>
<path d="M-200,40 q50,10,100,0 t 100 0 100 0 100 0 100 0" stroke="#eeeeee" stroke-width="200" opacity="0.5" style="animation: 0.5s linear infinite both rb2_wave_down;"></path></mask></defs>
<ellipse rx="87" ry="87" cx="90" cy="150" fill="#eeeeee" stroke="#eeeeee" stroke-width="6" mask="url(#Mask-1--inject-5)"></ellipse>
<rect width="40" height="10" x="70" y="220" fill="#555" fill-opacity="0.5" rx="5" transform="translate(0px,0px)" style="animation: 0.7s linear infinite both rb2_beed;"></rect>
<ellipse rx="90.2093" ry="90.18" fill="url(#Gradient-3)" stroke="none" transform="translate(90,150)"/>
</svg>
