<?xml version="1.0" encoding="UTF-8" standalone="no"?>
<!-- Created with Keyshape -->
<svg xmlns="http://www.w3.org/2000/svg" viewBox="0 0 181 241" text-rendering="geometricPrecision" shape-rendering="geometricPrecision" style="white-space: pre;">
    <defs>
        <symbol id="Symbol-1" preserveAspectRatio="none" width="376.015" height="130.295" viewBox="0 0 376.015 130.295" overflow="visible">
            <path id="path7558-2" d="M-349.373,965.729M-229.14,947.719C-267.466,956.724,-305.792,965.729,-349.484,965.729M-229.148,947.721C-190.822,938.716,-152.496,929.711,-108.804,929.711M11.4297,947.721C-26.8965,938.717,-65.2225,929.712,-108.914,929.712M11.4071,947.717C49.7332,956.721,88.0593,965.726,131.751,965.726M251.985,947.717C213.658,956.721,175.332,965.726,131.641,965.726M251.977,947.718C290.303,938.713,328.629,929.708,372.321,929.708M492.554,947.718C454.228,938.714,415.902,929.709,372.21,929.709M492.549,947.717C530.875,956.722,569.202,965.727,612.893,965.727M733.127,947.717C694.801,956.721,656.475,965.726,612.783,965.726M733.119,947.718C771.445,938.714,809.771,929.709,853.463,929.709M853.353,929.709" fill="none" fill-opacity="0.75" fill-rule="evenodd" stroke="#000000" stroke-dasharray="none" stroke-linecap="butt" stroke-linejoin="miter" stroke-miterlimit="4" stroke-opacity="1" stroke-width="200" opacity="0.07" transform="translate(109.241,-458.038) scale(0.312578,0.552047)"/>
        </symbol>
    </defs>
    <rect width="195.993" height="154.224" opacity="1" stroke="none" fill="#ffffff" fill-opacity="1" stroke-width="0" rx="0" transform="translate(90.5,74.8881) translate(-98.4852,-82.3356)"/>
    <path d="M-7,-8C-5.64887,38.1855,41.1413,96.7372,105.5,96C147.488,95.519,208,68,217,-3" opacity="1" fill="none" stroke-linecap="square" stroke="#dbc177" stroke-width="50" transform="translate(-15,167)"/>
    <rect rx="0" ry="0" width="65" height="51" fill="#eeeeee" stroke="none" stroke-width="1px" transform="translate(-109,-213.5) translate(170,240)"/>
    <rect rx="16" width="93.5156" height="33" fill="#d1cfd1" stroke="none" stroke-width="1px" transform="translate(-114.257,-207) translate(161,207)"/>
    <ellipse rx="87.5" ry="87" fill="none" stroke="#eeeeee" stroke-width="6" transform="translate(96.3993,145.184) translate(-5.88611,5.8394)"/>
    <path d="M79,83.781C73.3428,112.98,76.6866,142.292,97.0132,163.664C112.579,184.641,139.987,195.641,162.001,195.641C184.013,195.641,212.447,184.641,228.013,163.664C249.903,140.129,250.84,111.088,245,83.781" fill="#eeeeee" stroke="none" stroke-width="1px" transform="translate(253.013,259.664) rotate(180)"/>
    
</svg>
