<?xml version="1.0" encoding="UTF-8" standalone="no"?>
<!-- Created with Keyshape -->
<svg xmlns="http://www.w3.org/2000/svg" shape-rendering="geometricPrecision" text-rendering="geometricPrecision" viewBox="0 0 512 512" style="white-space: pre;">
    <ellipse rx="56.5" ry="56.5" fill="#2f2f2f" stroke="none" stroke-width="0" transform="translate(440,205)"/>
    <ellipse rx="56.5" ry="56.5" fill="#2f2f2f" stroke="none" stroke-width="0" transform="translate(58,452) scale(0.540334,0.540334)"/>
    <path fill="#2f2f2f" stroke="none" stroke-width="0" d="M56.5,0C72.6041,9.765,70.2814,16.2604,52.9257,19.8205C44.944,21.4577,38.6946,32.0548,39.9515,39.9515C43.4584,61.9843,33.5211,61.2242,20.5631,52.6414C14.8587,48.8631,7.25498,56.5,0,56.5C-7.89027,56.5,-15.7589,48.3193,-22.2241,51.9613C-35.978,59.7092,-47.4973,61.1348,-42.2141,37.5538C-40.7619,31.0722,-46.1021,22.2422,-52.6451,20.5537C-66.335,17.0209,-67.9273,10.1459,-56.5,0C-50.9685,-4.91121,-49.1682,-14.8095,-52.4937,-20.937C-60.0934,-34.9399,-59.5636,-43.4165,-39.2087,-40.6809C-31.208,-39.6057,-20.9646,-45.4672,-18.6024,-53.3661C-15.3344,-64.2939,-9.6054,-67.2436,0,-56.5C4.94992,-50.9635,14.973,-48.9299,21.0144,-52.4628C35.1566,-60.7329,41.5342,-53.8411,39.9126,-39.9904C39.0186,-32.3547,49.6936,-28.0253,52.5673,-20.7518C55.1054,-14.3276,50.2351,-3.79881,56.5,0Z" transform="translate(359,80)"/>
    <rect width="119" height="108" fill="#2f2f2f" stroke="none" rx="16" transform="translate(278,287) rotate(-23.4957) translate(-59.5,-54)"/>
    <path fill="#2f2f2f" stroke="none" d="M16,0L119,0C127.837,0,135,7.16344,135,16C129.018,22.2452,19.4167,133.968,16,135C7.16344,135,0,127.837,0,119L0,16C0,7.16344,7.16344,0,16,0Z" transform="translate(91,373) rotate(74.6296) scale(0.697198,0.697198) translate(-67.5,-67.5)"/>
    <rect width="245" height="23" fill="#2f2f2f" rx="16" stroke="none" transform="translate(143,68) rotate(-11.6446) translate(-122.5,-11.5)"/>
    <rect width="245" height="23" fill="#2f2f2f" rx="0" stroke="none" transform="translate(271,158) rotate(30.8292) scale(0.606048,1) translate(-122.5,-11.5)"/>
    <ellipse rx="55.5" ry="55.5" fill="#2f2f2f" stroke="none" opacity="0.25" transform="translate(103,194) scale(1.46239,1)"/>
    <ellipse rx="23" ry="23" fill="#2f2f2f" stroke="none" transform="translate(103,195) scale(1.85044,1)"/>
    <path d="M0,0L0,184L301,184" stroke="#354796" fill="none" stroke-linecap="square" stroke-width="7" transform="translate(176.5,297.5)"/>
    <path d="M0,0L32.0376,0L47.5,-41.5L63.7387,0L96.9989,0L129.5,-110.5L165.598,0L211.331,0C211.354,0,226.93,0,226.921,0L258,0" stroke="#1a2c71" fill="none" stroke-width="10" stroke-linecap="square" transform="translate(206.5,448.5) scale(1,0.878273)"/>
</svg>
