<svg xmlns="http://www.w3.org/2000/svg" viewBox="0 0 1000 1300" text-rendering="geometricPrecision" shape-rendering="geometricPrecision" style="white-space: pre;">
    <defs>
        <linearGradient id="Gradient-0" x1="308.607" y1="-15.5" x2="308.607" y2="79" gradientUnits="userSpaceOnUse">
            <stop offset="0" stop-color="#dedede"/>
            <stop offset="1" stop-color="#2f2f2f"/>
        </linearGradient>
    </defs>
    <rect width="1000" height="1300" fill="#cdcdcd" stroke="none" transform="translate(648.73,707.138) translate(-648.73,-707.138)"/>
    <rect width="764.214" height="92" fill="url(#Gradient-0)" stroke="none" rx="60" transform="translate(491.539,325.605) rotate(-38.2715) scale(1,0.689936) translate(-382.107,-46)"/>
    <rect width="764.214" height="92" fill="url(#Gradient-0)" stroke="none" rx="60" transform="translate(331.787,843.407) rotate(-38.2715) scale(1,0.689936) translate(-382.107,-46)"/>
    <rect width="764.214" height="92" fill="url(#Gradient-0)" stroke="none" rx="60" transform="translate(670.894,277) rotate(-38.2715) scale(1,0.689936) translate(-382.107,-46)"/>
    <rect width="764.214" height="92" fill="url(#Gradient-0)" stroke="none" rx="60" transform="translate(405.376,562.278) rotate(-38.2715) scale(1,0.689936) translate(-382.107,-46)"/>
    <rect width="764.214" height="92" fill="url(#Gradient-0)" stroke="none" rx="60" transform="translate(258.315,894.257) rotate(-132.706) scale(0.735317,0.689936) translate(-382.107,-46)"/>
    <rect width="764.214" height="92" fill="url(#Gradient-0)" stroke="none" rx="60" transform="translate(687.999,1018) rotate(-38.2715) scale(1,0.689936) translate(-382.107,-46)"/>
    <rect width="764.214" height="92" fill="url(#Gradient-0)" stroke="none" rx="60" transform="translate(641.64,932.877) rotate(-38.2715) scale(1,0.689936) translate(-382.107,-46)"/>
    <rect width="764.214" height="92" fill="url(#Gradient-0)" stroke="none" rx="60" transform="translate(663.853,650) rotate(-38.2715) scale(1,0.689936) translate(-382.107,-46)"/>
    <rect width="764.214" height="92" fill="url(#Gradient-0)" stroke="none" rx="60" transform="translate(694.814,781.327) rotate(-38.2715) scale(0.8845,0.689936) translate(-382.107,-46)"/>
    <rect width="764.214" height="92" fill="url(#Gradient-0)" stroke="none" rx="60" transform="translate(465.085,252) rotate(-38.2715) scale(1,0.689936) translate(-382.107,-46)"/>
    <rect width="764.214" height="92" fill="url(#Gradient-0)" stroke="none" rx="60" transform="translate(604.326,550.031) rotate(-38.2715) scale(1,0.689936) translate(-382.107,-46)"/>
    <rect width="764.214" height="92" fill="url(#Gradient-0)" stroke="none" rx="60" transform="translate(313,318.021) rotate(-38.2715) scale(1,0.689936) translate(-382.107,-46)"/>
    <g transform="translate(680.795,1160.78) translate(-275.419,-95.2458)">
        <rect width="347" height="120" fill="#ffffff" stroke="none" transform="translate(275.419,83.3401) scale(1.58743,1.58743) translate(-173.5,-52.5)"/>
        <path d="M0,0L306.312,0" stroke="#000000" fill="none" stroke-linecap="butt" stroke-width="26" transform="translate(275.419,53.9401) scale(1.58743,1.58743) translate(-153.156,0)"/>
        <path fill="#000000" stroke="none" d="M28.885,0C26.5177,-4.20467,23.956,-8.35633,21.2,-12.455C18.444,-16.5537,15.5113,-20.4227,12.402,-24.062L12.402,0L4.24,0L4.24,-36.729L10.971,-36.729C12.137,-35.563,13.4267,-34.132,14.84,-32.436C16.2533,-30.74,17.6932,-28.9292,19.1595,-27.0035C20.6258,-25.0778,22.0833,-23.0815,23.532,-21.0145C24.9807,-18.9475,26.341,-16.96,27.613,-15.052L27.613,-36.729L35.828,-36.729L35.828,0ZM54.4255,-5.512C55.2028,-5.512,55.9448,-5.52967,56.6515,-5.565C57.3582,-5.60033,57.9235,-5.65333,58.3475,-5.724L58.3475,-11.713C58.0295,-11.7837,57.5525,-11.8543,56.9165,-11.925C56.2805,-11.9957,55.6975,-12.031,55.1675,-12.031C54.4255,-12.031,53.7277,-11.9868,53.074,-11.8985C52.4203,-11.8102,51.8462,-11.6423,51.3515,-11.395C50.8568,-11.1477,50.4682,-10.812,50.1855,-10.388C49.9028,-9.964,49.7615,-9.434,49.7615,-8.798C49.7615,-7.56133,50.1767,-6.7045,51.007,-6.2275C51.8373,-5.7505,52.9768,-5.512,54.4255,-5.512ZM53.7895,-28.62C56.1215,-28.62,58.0648,-28.355,59.6195,-27.825C61.1742,-27.295,62.4197,-26.5353,63.356,-25.546C64.2923,-24.5567,64.9548,-23.3553,65.3435,-21.942C65.7322,-20.5287,65.9265,-18.9563,65.9265,-17.225L65.9265,-0.795C64.7958,-0.547667,63.2235,-0.256167,61.2095,0.0795C59.1955,0.415167,56.7575,0.583,53.8955,0.583C52.0935,0.583,50.4593,0.424,48.993,0.106C47.5267,-0.212,46.2635,-0.733167,45.2035,-1.4575C44.1435,-2.18183,43.3308,-3.127,42.7655,-4.293C42.2002,-5.459,41.9175,-6.89,41.9175,-8.586C41.9175,-10.2113,42.2443,-11.5893,42.898,-12.72C43.5517,-13.8507,44.4262,-14.7517,45.5215,-15.423C46.6168,-16.0943,47.8712,-16.5802,49.2845,-16.8805C50.6978,-17.1808,52.1642,-17.331,53.6835,-17.331C54.7082,-17.331,55.618,-17.2868,56.413,-17.1985C57.208,-17.1102,57.8528,-16.9953,58.3475,-16.854L58.3475,-17.596C58.3475,-18.9387,57.9412,-20.0163,57.1285,-20.829C56.3158,-21.6417,54.9025,-22.048,52.8885,-22.048C51.5458,-22.048,50.2208,-21.9508,48.9135,-21.7565C47.6062,-21.5622,46.4755,-21.2883,45.5215,-20.935L44.5145,-27.295C44.9738,-27.4363,45.548,-27.5865,46.237,-27.7455C46.926,-27.9045,47.6768,-28.0458,48.4895,-28.1695C49.3022,-28.2932,50.159,-28.3992,51.06,-28.4875C51.961,-28.5758,52.8708,-28.62,53.7895,-28.62ZM73.085,-26.924C74.4277,-27.3127,76.159,-27.6748,78.279,-28.0105C80.399,-28.3462,82.625,-28.514,84.957,-28.514C87.3243,-28.514,89.2942,-28.2048,90.8665,-27.5865C92.4388,-26.9682,93.6843,-26.0937,94.603,-24.963C95.5217,-23.8323,96.1753,-22.4897,96.564,-20.935C96.9527,-19.3803,97.147,-17.649,97.147,-15.741L97.147,0L89.25,0L89.25,-14.787C89.25,-17.331,88.9143,-19.133,88.243,-20.193C87.5717,-21.253,86.3173,-21.783,84.48,-21.783C83.9147,-21.783,83.314,-21.7565,82.678,-21.7035C82.042,-21.6505,81.4767,-21.5887,80.982,-21.518L80.982,0L73.085,0ZM130.38,-13.992C130.38,-11.8013,130.062,-9.79617,129.426,-7.9765C128.79,-6.15683,127.871,-4.60217,126.67,-3.3125C125.468,-2.02283,124.029,-1.02467,122.35,-0.318C120.672,0.388667,118.79,0.742,116.706,0.742C114.656,0.742,112.793,0.388667,111.114,-0.318C109.436,-1.02467,107.996,-2.02283,106.795,-3.3125C105.593,-4.60217,104.657,-6.15683,103.986,-7.9765C103.314,-9.79617,102.979,-11.8013,102.979,-13.992C102.979,-16.1827,103.323,-18.179,104.012,-19.981C104.701,-21.783,105.655,-23.32,106.874,-24.592C108.093,-25.864,109.542,-26.8533,111.22,-27.56C112.899,-28.2667,114.727,-28.62,116.706,-28.62C118.72,-28.62,120.566,-28.2667,122.244,-27.56C123.923,-26.8533,125.362,-25.864,126.564,-24.592C127.765,-23.32,128.701,-21.783,129.373,-19.981C130.044,-18.179,130.38,-16.1827,130.38,-13.992ZM122.324,-13.992C122.324,-16.43,121.838,-18.3468,120.866,-19.7425C119.895,-21.1382,118.508,-21.836,116.706,-21.836C114.904,-21.836,113.508,-21.1382,112.519,-19.7425C111.529,-18.3468,111.035,-16.43,111.035,-13.992C111.035,-11.554,111.529,-9.6195,112.519,-8.1885C113.508,-6.7575,114.904,-6.042,116.706,-6.042C118.508,-6.042,119.895,-6.7575,120.866,-8.1885C121.838,-9.6195,122.324,-11.554,122.324,-13.992ZM151.793,-14.787C151.793,-17.331,151.466,-19.133,150.812,-20.193C150.158,-21.253,149.037,-21.783,147.447,-21.783C146.952,-21.783,146.44,-21.7565,145.91,-21.7035C145.38,-21.6505,144.867,-21.5887,144.373,-21.518L144.373,0L136.476,0L136.476,-26.924C137.147,-27.1007,137.933,-27.2862,138.834,-27.4805C139.735,-27.6748,140.689,-27.8515,141.696,-28.0105C142.703,-28.1695,143.737,-28.2932,144.797,-28.3815C145.857,-28.4698,146.899,-28.514,147.924,-28.514C149.938,-28.514,151.572,-28.2578,152.826,-27.7455C154.08,-27.2332,155.114,-26.6237,155.927,-25.917C157.057,-26.7297,158.356,-27.3657,159.822,-27.825C161.288,-28.2843,162.64,-28.514,163.877,-28.514C166.103,-28.514,167.931,-28.2048,169.362,-27.5865C170.793,-26.9682,171.933,-26.0937,172.781,-24.963C173.629,-23.8323,174.212,-22.4897,174.53,-20.935C174.848,-19.3803,175.007,-17.649,175.007,-15.741L175.007,0L167.11,0L167.11,-14.787C167.11,-17.331,166.783,-19.133,166.129,-20.193C165.475,-21.253,164.354,-21.783,162.764,-21.783C162.34,-21.783,161.748,-21.677,160.988,-21.465C160.228,-21.253,159.601,-20.988,159.107,-20.67C159.354,-19.8573,159.513,-19.0005,159.584,-18.0995C159.654,-17.1985,159.69,-16.2357,159.69,-15.211L159.69,0L151.793,0ZM180.838,-13.727C180.838,-16.2003,181.218,-18.3645,181.978,-20.2195C182.737,-22.0745,183.735,-23.6203,184.972,-24.857C186.209,-26.0937,187.631,-27.03,189.239,-27.666C190.846,-28.302,192.498,-28.62,194.194,-28.62C198.151,-28.62,201.278,-27.4098,203.575,-24.9895C205.872,-22.5692,207.02,-19.0093,207.02,-14.31C207.02,-13.8507,207.002,-13.3472,206.967,-12.7995C206.932,-12.2518,206.896,-11.766,206.861,-11.342L188.947,-11.342C189.124,-9.71667,189.883,-8.427,191.226,-7.473C192.569,-6.519,194.371,-6.042,196.632,-6.042C198.081,-6.042,199.503,-6.1745,200.899,-6.4395C202.294,-6.7045,203.434,-7.03133,204.317,-7.42L205.377,-1.007C204.953,-0.795,204.388,-0.583,203.681,-0.371C202.974,-0.159,202.188,0.0265,201.323,0.1855C200.457,0.3445,199.529,0.477,198.54,0.583C197.551,0.689,196.561,0.742,195.572,0.742C193.063,0.742,190.882,0.371,189.027,-0.371C187.172,-1.113,185.635,-2.12883,184.416,-3.4185C183.197,-4.70817,182.296,-6.23633,181.713,-8.003C181.13,-9.76967,180.838,-11.6777,180.838,-13.727ZM199.388,-16.748C199.353,-17.4193,199.238,-18.073,199.044,-18.709C198.849,-19.345,198.549,-19.9103,198.143,-20.405C197.736,-20.8997,197.224,-21.306,196.606,-21.624C195.987,-21.942,195.219,-22.101,194.3,-22.101C193.417,-22.101,192.657,-21.9508,192.021,-21.6505C191.385,-21.3502,190.855,-20.9527,190.431,-20.458C190.007,-19.9633,189.68,-19.3892,189.451,-18.7355C189.221,-18.0818,189.053,-17.4193,188.947,-16.748ZM212.851,-34.821L220.748,-36.093L220.748,-27.878L230.235,-27.878L230.235,-21.306L220.748,-21.306L220.748,-11.501C220.748,-9.84033,221.04,-8.51533,221.623,-7.526C222.206,-6.53667,223.381,-6.042,225.147,-6.042C225.995,-6.042,226.87,-6.1215,227.771,-6.2805C228.672,-6.4395,229.493,-6.66033,230.235,-6.943L231.348,-0.795C230.394,-0.406333,229.334,-0.0706667,228.168,0.212C227.002,0.494667,225.571,0.636,223.875,0.636C221.72,0.636,219.936,0.3445,218.522,-0.2385C217.109,-0.8215,215.978,-1.63417,215.13,-2.6765C214.282,-3.71883,213.69,-4.982,213.355,-6.466C213.019,-7.95,212.851,-9.593,212.851,-11.395ZM234.26,-13.727C234.26,-16.2003,234.64,-18.3645,235.4,-20.2195C236.159,-22.0745,237.157,-23.6203,238.394,-24.857C239.631,-26.0937,241.053,-27.03,242.661,-27.666C244.268,-28.302,245.92,-28.62,247.616,-28.62C251.573,-28.62,254.7,-27.4098,256.997,-24.9895C259.294,-22.5692,260.442,-19.0093,260.442,-14.31C260.442,-13.8507,260.424,-13.3472,260.389,-12.7995C260.354,-12.2518,260.318,-11.766,260.283,-11.342L242.369,-11.342C242.546,-9.71667,243.305,-8.427,244.648,-7.473C245.991,-6.519,247.793,-6.042,250.054,-6.042C251.503,-6.042,252.925,-6.1745,254.32,-6.4395C255.716,-6.7045,256.856,-7.03133,257.739,-7.42L258.799,-1.007C258.375,-0.795,257.81,-0.583,257.103,-0.371C256.396,-0.159,255.61,0.0265,254.745,0.1855C253.879,0.3445,252.951,0.477,251.962,0.583C250.973,0.689,249.983,0.742,248.994,0.742C246.485,0.742,244.304,0.371,242.449,-0.371C240.594,-1.113,239.056,-2.12883,237.837,-3.4185C236.618,-4.70817,235.718,-6.23633,235.135,-8.003C234.551,-9.76967,234.26,-11.6777,234.26,-13.727ZM252.81,-16.748C252.775,-17.4193,252.66,-18.073,252.465,-18.709C252.271,-19.345,251.971,-19.9103,251.564,-20.405C251.158,-20.8997,250.646,-21.306,250.027,-21.624C249.409,-21.942,248.641,-22.101,247.722,-22.101C246.839,-22.101,246.079,-21.9508,245.443,-21.6505C244.807,-21.3502,244.277,-20.9527,243.853,-20.458C243.429,-19.9633,243.102,-19.3892,242.872,-18.7355C242.643,-18.0818,242.475,-17.4193,242.369,-16.748ZM283.339,-20.882C282.632,-21.0587,281.802,-21.2442,280.848,-21.4385C279.894,-21.6328,278.869,-21.73,277.774,-21.73C277.279,-21.73,276.688,-21.6858,275.999,-21.5975C275.31,-21.5092,274.788,-21.412,274.435,-21.306L274.435,0L266.538,0L266.538,-26.394C267.951,-26.8887,269.621,-27.3568,271.547,-27.7985C273.472,-28.2402,275.619,-28.461,277.986,-28.461C278.41,-28.461,278.922,-28.4345,279.523,-28.3815C280.124,-28.3285,280.724,-28.2578,281.325,-28.1695C281.926,-28.0812,282.526,-27.9752,283.127,-27.8515C283.728,-27.7278,284.24,-27.5777,284.664,-27.401ZM296.901,-5.671C298.349,-5.671,299.374,-5.81233,299.974,-6.095C300.575,-6.37767,300.875,-6.92533,300.875,-7.738C300.875,-8.374,300.487,-8.9305,299.71,-9.4075C298.932,-9.8845,297.748,-10.4233,296.159,-11.024C294.922,-11.4833,293.8,-11.9603,292.793,-12.455C291.786,-12.9497,290.929,-13.5415,290.223,-14.2305C289.516,-14.9195,288.968,-15.741,288.579,-16.695C288.191,-17.649,287.996,-18.7973,287.996,-20.14C287.996,-22.7547,288.968,-24.8217,290.911,-26.341C292.855,-27.8603,295.523,-28.62,298.914,-28.62C300.61,-28.62,302.236,-28.4698,303.79,-28.1695C305.345,-27.8692,306.582,-27.5423,307.5,-27.189L306.122,-21.041C305.204,-21.359,304.206,-21.6417,303.128,-21.889C302.05,-22.1363,300.84,-22.26,299.497,-22.26C297.024,-22.26,295.788,-21.571,295.788,-20.193C295.788,-19.875,295.841,-19.5923,295.947,-19.345C296.053,-19.0977,296.264,-18.8592,296.582,-18.6295C296.901,-18.3998,297.333,-18.1525,297.881,-17.8875C298.429,-17.6225,299.127,-17.331,299.974,-17.013C301.706,-16.377,303.137,-15.7498,304.267,-15.1315C305.398,-14.5132,306.29,-13.8418,306.944,-13.1175C307.598,-12.3932,308.057,-11.5893,308.322,-10.706C308.587,-9.82267,308.72,-8.798,308.72,-7.632C308.72,-4.876,307.686,-2.79133,305.619,-1.378C303.552,0.0353334,300.628,0.742,296.848,0.742C294.374,0.742,292.316,0.53,290.673,0.106C289.03,-0.318,287.89,-0.671333,287.254,-0.954L288.579,-7.367C289.922,-6.837,291.3,-6.42183,292.714,-6.1215C294.127,-5.82117,295.523,-5.671,296.901,-5.671Z" fill-rule="nonzero" transform="translate(272.419,130.336) scale(1.58743,1.58743) translate(-153.156,18.374)"/>
    </g>
    <rect width="764.214" height="92" fill="url(#Gradient-0)" stroke="none" rx="60" transform="translate(161.148,375.437) rotate(-106.547) scale(0.735317,0.689936) translate(-382.107,-46)"/>
    <rect width="764.214" height="92" fill="url(#Gradient-0)" stroke="none" rx="60" transform="translate(304.339,313.358) rotate(-106.547) scale(0.735317,0.689936) translate(-382.107,-46)"/>
    <rect width="764.214" height="92" fill="url(#Gradient-0)" stroke="none" rx="60" transform="translate(231.861,305.774) rotate(-106.547) scale(0.735317,0.689936) translate(-382.107,-46)"/>
    <rect width="764.214" height="92" fill="url(#Gradient-0)" stroke="none" rx="60" transform="translate(371.102,337.852) rotate(-106.547) scale(0.735317,0.689936) translate(-382.107,-46)"/>
    <rect width="764.214" height="92" fill="url(#Gradient-0)" stroke="none" rx="60" transform="translate(437.671,277) rotate(-106.547) scale(0.735317,0.689936) translate(-382.107,-46)"/>
    <rect width="764.214" height="92" fill="url(#Gradient-0)" stroke="none" rx="60" transform="translate(264.315,806.95) rotate(-132.706) scale(0.735317,0.689936) translate(-382.107,-46)"/>
    <rect width="764.214" height="92" fill="url(#Gradient-0)" stroke="none" rx="60" transform="translate(304.339,773.743) rotate(-132.706) scale(0.735317,0.689936) translate(-382.107,-46)"/>
</svg>
