<?xml version="1.0" encoding="UTF-8" standalone="no"?>
<!-- Created with Keyshape -->
<svg xmlns="http://www.w3.org/2000/svg" viewBox="0 0 205 250" text-rendering="geometricPrecision" shape-rendering="geometricPrecision" style="white-space: pre;">
    <style>
@keyframes path7558-2_t { 0% { transform: translate(104.989px,-411.504px) scale(0.312578,0.552047); } 50% { transform: translate(100.989px,-410.504px) scale(0.312578,0.552047); } 100% { transform: translate(104.989px,-411.504px) scale(0.312578,0.552047); } }
@keyframes path7558_t { 0% { transform: translate(124.241px,-411.504px) scale(0.312578,0.552047); } 50% { transform: translate(75.9894px,-410.504px) scale(0.312578,0.552047); } 100% { transform: translate(128.241px,-412.504px) scale(0.312578,0.552047); } }
@keyframes a0_t { 0% { transform: translate(15px,20px); } 10% { transform: translate(11px,21px); } 20% { transform: translate(15px,20px); animation-timing-function: steps(1); } 20.1% { transform: translate(15px,20px); } 30% { transform: translate(11px,21px); } 40% { transform: translate(15px,20px); animation-timing-function: steps(1); } 40.1% { transform: translate(15px,20px); } 50% { transform: translate(11px,21px); } 60% { transform: translate(15px,20px); animation-timing-function: steps(1); } 60.1% { transform: translate(15px,20px); } 70% { transform: translate(11px,21px); } 80% { transform: translate(15px,20px); animation-timing-function: steps(1); } 80.1% { transform: translate(15px,20px); } 90% { transform: translate(11px,21px); } 100% { transform: translate(15px,20px); } }
@keyframes a1_t { 0% { transform: translate(17.5px,10px); } 10% { transform: translate(13.5px,11px); } 20% { transform: translate(17.5px,10px); animation-timing-function: steps(1); } 20.1% { transform: translate(17.5px,10px); } 30% { transform: translate(13.5px,11px); } 40% { transform: translate(17.5px,10px); animation-timing-function: steps(1); } 40.1% { transform: translate(17.5px,10px); } 50% { transform: translate(13.5px,11px); } 60% { transform: translate(17.5px,10px); animation-timing-function: steps(1); } 60.1% { transform: translate(17.5px,10px); } 70% { transform: translate(13.5px,11px); } 80% { transform: translate(17.5px,10px); animation-timing-function: steps(1); } 80.1% { transform: translate(17.5px,10px); } 90% { transform: translate(13.5px,11px); } 100% { transform: translate(17.5px,10px); } }
@keyframes a2_t { 0% { transform: translate(-45px,0px) translateX(50px); } 10% { transform: translate(-49px,1px) translateX(50px); } 20% { transform: translate(-45px,0px) translateX(50px); animation-timing-function: steps(1); } 20.1% { transform: translate(-45px,0px) translateX(50px); } 30% { transform: translate(-49px,1px) translateX(50px); } 40% { transform: translate(-45px,0px) translateX(50px); animation-timing-function: steps(1); } 40.1% { transform: translate(-45px,0px) translateX(50px); } 50% { transform: translate(-49px,1px) translateX(50px); } 60% { transform: translate(-45px,0px) translateX(50px); animation-timing-function: steps(1); } 60.1% { transform: translate(-45px,0px) translateX(50px); } 70% { transform: translate(-49px,1px) translateX(50px); } 80% { transform: translate(-45px,0px) translateX(50px); animation-timing-function: steps(1); } 80.1% { transform: translate(-45px,0px) translateX(50px); } 90% { transform: translate(-49px,1px) translateX(50px); } 100% { transform: translate(-45px,0px) translateX(50px); } }
    </style>
    <path id="path7558-2" d="M-349.451,953.73M-313.596,941.719C-325.025,947.725,-336.455,953.73,-349.484,953.73M-313.598,941.72C-302.169,935.715,-290.74,929.709,-277.71,929.709M-241.855,941.72C-253.285,935.715,-264.714,929.71,-277.743,929.71M-241.862,941.718C-230.433,947.723,-219.004,953.728,-205.974,953.728M-170.119,941.717C-181.549,947.723,-192.978,953.728,-206.007,953.728M-170.121,941.718C-158.692,935.713,-147.263,929.708,-134.234,929.708M-98.3787,941.719C-109.808,935.713,-121.237,929.708,-134.267,929.708M-98.3801,941.718C-86.9509,947.723,-75.5213,953.728,-62.4922,953.728M-26.637,941.718C-38.0663,947.723,-49.4955,953.728,-62.525,953.728M-26.6394,941.718C-15.2102,935.713,-3.78092,929.708,9.24853,929.708M45.1034,941.719C33.6741,935.713,22.2449,929.708,9.21573,929.708M45.0968,941.716C56.5261,947.721,67.9565,953.726,80.9854,953.726M116.839,941.715C105.412,947.721,93.9814,953.726,80.9526,953.726M116.836,941.716C128.267,935.712,139.697,929.706,152.726,929.706M188.58,941.716C177.153,935.712,165.722,929.706,152.693,929.706M188.577,941.719C200.005,947.725,211.435,953.73,224.464,953.73M260.318,941.719C248.89,947.725,237.46,953.73,224.431,953.73M260.318,941.72C271.745,935.715,283.176,929.709,296.205,929.709M332.059,941.72C320.631,935.715,309.201,929.71,296.172,929.71M332.053,941.718C343.483,947.723,354.91,953.728,367.942,953.728M367.909,953.728" fill="none" fill-opacity="0.75" fill-rule="evenodd" stroke="#d9d9d9" stroke-dasharray="none" stroke-linecap="butt" stroke-linejoin="miter" stroke-miterlimit="4" stroke-opacity="1" stroke-width="100" transform="translate(104.989,-411.504) scale(0.312578,0.552047)" style="animation: 1s linear infinite both path7558-2_t;"/>
    <path id="path7558" d="M-349.451,953.73M-313.596,941.719C-325.025,947.725,-336.455,953.73,-349.484,953.73M-313.598,941.72C-302.169,935.715,-290.74,929.709,-277.71,929.709M-241.855,941.72C-253.285,935.715,-264.714,929.71,-277.743,929.71M-241.862,941.718C-230.433,947.723,-219.004,953.728,-205.974,953.728M-170.119,941.717C-181.549,947.723,-192.978,953.728,-206.007,953.728M-170.121,941.718C-158.692,935.713,-147.263,929.708,-134.234,929.708M-98.3787,941.719C-109.808,935.713,-121.237,929.708,-134.267,929.708M-98.3801,941.718C-86.9509,947.723,-75.5213,953.728,-62.4922,953.728M-26.637,941.718C-38.0663,947.723,-49.4955,953.728,-62.525,953.728M-26.6394,941.718C-15.2102,935.713,-3.78092,929.708,9.24853,929.708M45.1034,941.719C33.6741,935.713,22.2449,929.708,9.21573,929.708M45.0968,941.716C56.5261,947.721,67.9565,953.726,80.9854,953.726M116.839,941.715C105.412,947.721,93.9814,953.726,80.9526,953.726M116.836,941.716C128.267,935.712,139.697,929.706,152.726,929.706M188.58,941.716C177.153,935.712,165.722,929.706,152.693,929.706M188.577,941.719C200.005,947.725,211.435,953.73,224.464,953.73M260.318,941.719C248.89,947.725,237.46,953.73,224.431,953.73M260.318,941.72C271.745,935.715,283.176,929.709,296.205,929.709M332.059,941.72C320.631,935.715,309.201,929.71,296.172,929.71M332.053,941.718C343.483,947.723,354.91,953.728,367.942,953.728M367.909,953.728" fill="none" fill-opacity="0.75" fill-rule="evenodd" stroke="#d9d9d9" stroke-dasharray="none" stroke-linecap="butt" stroke-linejoin="miter" stroke-miterlimit="4" stroke-opacity="1" stroke-width="100" transform="translate(124.241,-411.504) scale(0.312578,0.552047)" style="animation: 1s linear infinite both path7558_t;"/>
    <path fill="#add8e6" stroke="none" d="M230,-10L0,-10L0,180L230,180ZM200,0.555556L25,0.555556L25,147.278C25,158.11,35.7665,169.444,46,169.444L181.471,169.444C191.704,169.444,200,160.663,200,149.831Z" fill-rule="evenodd" transform="translate(105,140) translate(-115,-60)"/>
    <rect width="230" height="80" fill="#ffffff" rx="0" stroke="none" transform="translate(105,40) translate(-115,-50)"/>
    <rect width="180" height="108.75" stroke="none" fill="#d9d9d9" rx="0" ry="0" stroke-width="0" transform="translate(74,77) translate(-59,-57)" style="animation: 1s linear infinite both a0_t;"/>
    <rect rx="20" ry="20" width="175" height="237.5" fill="none" stroke="#d9d9d9" stroke-width="5" stroke-linecap="butt" stroke-linejoin="miter" transform="translate(-45.5,0) translate(63,10)" style="animation: 1s linear infinite both a1_t;"/>
    <rect rx="10" ry="10" width="200" height="40" fill="#808080" stroke="none" stroke-width="1px" transform="translate(-45,0) translate(50,0)" style="animation: 1s linear infinite both a2_t;"/>
    <path d="M0,0Z" stroke="#d9d9d9" fill="none" fill-opacity="0.75" stroke-linecap="square" transform="translate(291.5,0)"/>
</svg>
