<?xml version="1.0" encoding="UTF-8" standalone="no"?>
<!-- Created with Keyshape -->
<svg xmlns="http://www.w3.org/2000/svg" viewBox="0 0 205 250" text-rendering="geometricPrecision" shape-rendering="geometricPrecision" style="white-space: pre;">
    <style>
@keyframes a0_t { 0% { transform: translate(5px,0px); } 8.3333% { transform: translate(0px,0px); } 16.6666% { transform: translate(5px,0px); animation-timing-function: steps(1); } 16.75% { transform: translate(5px,0px); } 25% { transform: translate(0px,0px); } 33.3333% { transform: translate(5px,0px); animation-timing-function: steps(1); } 33.4166% { transform: translate(5px,0px); } 41.6666% { transform: translate(0px,0px); } 50% { transform: translate(5px,0px); animation-timing-function: steps(1); } 50.0833% { transform: translate(5px,0px); } 58.3333% { transform: translate(0px,0px); } 66.6666% { transform: translate(5px,0px); animation-timing-function: steps(1); } 66.75% { transform: translate(5px,0px); } 75% { transform: translate(0px,0px); } 83.3333% { transform: translate(5px,0px); animation-timing-function: steps(1); } 83.4166% { transform: translate(5px,0px); } 91.6666% { transform: translate(0px,0px); } 100% { transform: translate(5px,0px); } }
@keyframes a1_d { 0% { d: path('M0,0L180,0L180,135C175.015,138.368,170.03,140.673,165.045,135C161.917,130.644,158.79,131.156,155.662,135C151.681,138.983,148.054,139.238,144.855,135C141.25,130.611,138.251,131.963,135.429,135C131.503,139.974,128.091,139.03,124.947,135C121.019,130.932,117.854,130.868,115.489,135C111.808,141.467,108.126,138.409,104.445,135C101.48,130.593,98.5143,131.98,95.549,135C92.0767,140.102,88.6044,139.683,85.1321,135C81.7623,131.772,78.3925,130.808,75.0227,135C71.7566,139.038,68.4906,139.183,65.2245,135C61.7462,129.694,58.2679,131.315,54.7896,135C51.9544,138.389,48.9349,139.84,45.317,135C41.1413,129.493,38.0475,130.74,35.4362,135C31.8958,138.909,28.3555,139.313,24.8151,135C21.6111,128.314,18.4071,128.794,15.2031,135C11.9693,141.099,8.73559,139.474,5.50183,135L0,135Z'); } 41.6667% { d: path('M0,0L180,0L180,135C174.692,131.235,169.581,130.782,165.045,135C160.551,141.48,157.928,137.997,155.662,135C152.036,131.539,148.465,130.639,144.855,135C141.258,142.74,138.255,138.295,135.429,135C130.639,129.696,127.559,132.704,124.947,135C120.797,142.39,117.706,138.506,115.489,135C110.545,131.919,107.208,131.466,104.445,135C101.467,138.714,98.5024,139.597,95.549,135C92.0705,130.986,88.5986,131.166,85.1321,135C80.6474,139.963,77.3798,138.249,75.0227,135C70.1098,128.594,67.4333,132.478,65.2245,135C62.1828,138.374,58.7661,141.221,54.7896,135C49.4766,127.513,47.1916,132.188,45.317,135C40.7401,139.367,37.7461,138.159,35.4362,135C30.7632,129.058,27.3984,130.989,24.8151,135C22.4682,136.996,19.6611,141.496,15.2031,135C11.5384,129.708,8.38443,130.192,5.50183,135L0,135Z'); } 83.3333% { d: path('M0,0L180,0L180,135C175.015,138.368,170.03,140.673,165.045,135C161.917,130.644,158.79,131.156,155.662,135C151.681,138.983,148.054,139.238,144.855,135C141.25,130.611,138.251,131.963,135.429,135C131.503,139.974,128.091,139.03,124.947,135C121.019,130.932,117.854,130.868,115.489,135C111.808,141.467,108.126,138.409,104.445,135C101.48,130.593,98.5143,131.98,95.549,135C92.0767,140.102,88.6044,139.683,85.1321,135C81.7623,131.772,78.3925,130.808,75.0227,135C71.7566,139.038,68.4906,139.183,65.2245,135C61.7462,129.694,58.2679,131.315,54.7896,135C51.9544,138.389,48.9349,139.84,45.317,135C41.1413,129.493,38.0475,130.74,35.4362,135C31.8958,138.909,28.3555,139.313,24.8151,135C21.6111,128.314,18.4071,128.794,15.2031,135C11.9693,141.099,8.73559,139.474,5.50183,135L0,135Z'); } 100% { d: path('M0,0L180,0L180,135C175.015,138.368,170.03,140.673,165.045,135C161.917,130.644,158.79,131.156,155.662,135C151.681,138.983,148.054,139.238,144.855,135C141.25,130.611,138.251,131.963,135.429,135C131.503,139.974,128.091,139.03,124.947,135C121.019,130.932,117.854,130.868,115.489,135C111.808,141.467,108.126,138.409,104.445,135C101.48,130.593,98.5143,131.98,95.549,135C92.0767,140.102,88.6044,139.683,85.1321,135C81.7623,131.772,78.3925,130.808,75.0227,135C71.7566,139.038,68.4906,139.183,65.2245,135C61.7462,129.694,58.2679,131.315,54.7896,135C51.9544,138.389,48.9349,139.84,45.317,135C41.1413,129.493,38.0475,130.74,35.4362,135C31.8958,138.909,28.3555,139.313,24.8151,135C21.6111,128.314,18.4071,128.794,15.2031,135C11.9693,141.099,8.73559,139.474,5.50183,135L0,135Z'); } }
    </style>
    <path fill="#add8e6" stroke="none" d="M230,0L0,0L0,180L230,180ZM200,10L25,10L25,149C25,159.262,35.7665,170,46,170L181.471,170C191.704,170,200,161.681,200,151.419Z" fill-rule="evenodd" transform="translate(105,140) translate(-115,-60)"/>
    <rect width="230" height="90" fill="#ffffff" rx="0" stroke="none" transform="translate(105,40) translate(-115,-50)"/>
    <g transform="translate(105,123.75) translate(-100,-123.75)" style="animation: 1.2s linear infinite both a0_t;">
        <path fill="#d9d9d9" stroke="#d9d9d9" stroke-width="0" d="M0,0L180,0L180,135C175.015,138.368,170.03,140.673,165.045,135C161.917,130.644,158.79,131.156,155.662,135C151.681,138.983,148.054,139.238,144.855,135C141.25,130.611,138.251,131.963,135.429,135C131.503,139.974,128.091,139.03,124.947,135C121.019,130.932,117.854,130.868,115.489,135C111.808,141.467,108.126,138.409,104.445,135C101.48,130.593,98.5143,131.98,95.549,135C92.0767,140.102,88.6044,139.683,85.1321,135C81.7623,131.772,78.3925,130.808,75.0227,135C71.7566,139.038,68.4906,139.183,65.2245,135C61.7462,129.694,58.2679,131.315,54.7896,135C51.9544,138.389,48.9349,139.84,45.317,135C41.1413,129.493,38.0475,130.74,35.4362,135C31.8958,138.909,28.3555,139.313,24.8151,135C21.6111,128.314,18.4071,128.794,15.2031,135C11.9693,141.099,8.73559,139.474,5.50183,135L0,135Z" transform="translate(90,86.75) translate(-80,-76.75)" style="animation: 1.2s linear infinite both a1_d;"/>
        <rect rx="20" ry="20" width="175" height="237.5" fill="none" stroke="#d9d9d9" stroke-width="5" stroke-linecap="butt" stroke-linejoin="miter" transform="translate(-50.5,0) translate(63,10)"/>
        <rect rx="10" ry="10" width="200" height="40" fill="#808080" stroke="none" stroke-width="1px" transform="translate(-50,0) translate(50,0)"/>
    </g>
</svg>
