<?xml version="1.0" encoding="UTF-8" standalone="no"?>
<!-- Created with Keyshape -->
<svg xmlns="http://www.w3.org/2000/svg" viewBox="0 0 183 300" text-rendering="geometricPrecision" shape-rendering="geometricPrecision" style="white-space: pre;">
    <rect width="183" height="175" fill="#ffffff" stroke="none" transform="translate(91.5,87.5) translate(-91.5,-87.5)"/>
    <g transform="translate(91.5,150) translate(-91.5,-150)">
        <path fill="#eaeaea" opacity="1" stroke="none" d="M133,0L50,0C30,8,5.5,38,0,68L0,208L183,208L183,68C180,38,150,8,133,0ZM164,115L20,115L20,188L164,188Z" fill-rule="evenodd" transform="translate(91.5,189.5) translate(-91.5,-97.5)"/>
        <rect width="83" height="55" opacity="1" fill="#eaeaea" rx="0" stroke="none" transform="translate(90,68) translate(-40,-31)"/>
        <path fill="#8b5730" opacity="1" stroke="none" d="M1,0L73,0L69,38L4,38Z" transform="translate(92.5,20) translate(-37.5,-20)"/>
        <rect width="91" height="83" opacity="1" fill="#f7f7f7" stroke="none" transform="translate(91.5,204.5) translate(-45.5,-41.5)"/>
        <rect width="69" height="8.5" fill="#000000" stroke="none" opacity="1" transform="translate(93.5,189.5) translate(-34.5,-7.5)"/>
        <rect width="69" height="8.5" fill="#000000" stroke="none" opacity="1" transform="translate(93.5,209.5) translate(-34.5,-7.5)"/>
        <rect width="69" height="8.5" fill="#000000" stroke="none" opacity="1" transform="translate(93.5,229.5) translate(-34.5,-7.5)"/>
    </g>
</svg>
