<?xml version="1.0" encoding="UTF-8" standalone="no"?>
<!-- Created with Keyshape -->
<svg xmlns="http://www.w3.org/2000/svg" viewBox="0 0 461.001 326.2" text-rendering="geometricPrecision" shape-rendering="geometricPrecision" style="white-space: pre;">
    <path d="M365.257,67.393L95.744,67.393C42.866,67.393,0,110.259,0,163.137L0,297.865C0,350.743,42.866,393.609,95.744,393.609L365.257,393.609C418.135,393.609,461.001,350.743,461.001,297.865L461.001,163.137C461.001,110.259,418.135,67.393,365.257,67.393ZM300.506,237.056L174.446,297.179C171.087,298.781,167.207,296.332,167.207,292.611L167.207,168.607C167.207,164.833,171.189,162.387,174.555,164.093L300.615,227.974C304.363,229.873,304.298,235.248,300.506,237.056Z" fill="#F61C0D" transform="translate(0,-67.393)"/>
</svg>
